M48
; DRILL file {KiCad (5.1.4)-1} date 3/13/2020 4:12:38 PM
; FORMAT={-:-/ absolute / inch / decimal}
; #@! TF.CreationDate,2020-03-13T16:12:38-04:00
; #@! TF.GenerationSoftware,Kicad,Pcbnew,(5.1.4)-1
FMAT,2
INCH
T1C0.0157
T2C0.0354
T3C0.0394
T4C0.1250
T5C0.1500
%
G90
G05
T1
X3.4Y-3.495
X3.9855Y-3.3072
X4.0043Y-3.244
X4.0121Y-3.3879
X4.0144Y-3.7594
X4.0156Y-3.6806
X4.0179Y-3.9179
X4.04Y-2.96
X4.04Y-3.04
X4.04Y-3.14
X4.06Y-3.87
X4.1646Y-3.5754
X4.28Y-3.84
X4.3184Y-3.8008
X4.36Y-3.78
X4.39Y-3.0757
X4.4173Y-3.6073
X4.44Y-3.8957
X4.5Y-3.86
X4.525Y-3.65
X4.58Y-3.6
X4.625Y-3.72
X4.6828Y-3.6428
X5.0591Y-3.4191
X5.1155Y-3.4115
X5.145Y-3.065
X5.16Y-3.425
X5.225Y-3.8243
X5.255Y-3.36
X5.415Y-3.065
X6.03Y-3.905
X6.13Y-3.505
X6.2404Y-3.1196
X6.44Y-3.02
X6.4525Y-2.9625
X6.455Y-3.455
X6.48Y-3.96
X6.7256Y-3.2638
X6.8898Y-3.173
X6.8898Y-4.1437
X7.1551Y-3.8441
T2
X6.8906Y-4.0295
X6.9906Y-4.0295
X7.0906Y-4.0295
X6.8906Y-3.0654
X6.9906Y-3.0654
X7.0906Y-3.0654
T3
X4.4346Y-2.9512
X4.4346Y-2.9512
X4.4386Y-3.963
X4.4386Y-3.963
X4.5346Y-2.9512
X4.5346Y-2.9512
X4.5386Y-3.963
X4.5386Y-3.963
X4.6346Y-2.9512
X4.6346Y-2.9512
X4.6386Y-3.963
X4.6386Y-3.963
X4.7346Y-2.9512
X4.7346Y-2.9512
X4.7386Y-3.963
X4.7386Y-3.963
X4.8346Y-2.9512
X4.8346Y-2.9512
X4.8386Y-3.963
X4.8386Y-3.963
X4.9346Y-2.9512
X4.9346Y-2.9512
X4.9386Y-3.963
X4.9386Y-3.963
X5.0346Y-2.9512
X5.0346Y-2.9512
X5.0386Y-3.963
X5.0386Y-3.963
X5.1346Y-2.9512
X5.1346Y-2.9512
X5.1386Y-3.963
X5.1386Y-3.963
X5.2346Y-2.9512
X5.2346Y-2.9512
X5.2386Y-3.963
X5.2386Y-3.963
X5.3346Y-2.9512
X5.3346Y-2.9512
X5.3386Y-3.963
X5.3386Y-3.963
X5.4346Y-2.9512
X5.4346Y-2.9512
X5.4386Y-3.963
X5.4386Y-3.963
X5.5346Y-2.9512
X5.5346Y-2.9512
X5.5386Y-3.963
X5.5386Y-3.963
X5.6346Y-2.9512
X5.6346Y-2.9512
X5.6386Y-3.963
X5.6386Y-3.963
X5.7346Y-2.9512
X5.7346Y-2.9512
X5.7386Y-3.963
X5.7386Y-3.963
X5.8346Y-2.9512
X5.8346Y-2.9512
X5.8386Y-3.963
X5.8386Y-3.963
T4
X3.2888Y-2.7888
X3.2888Y-4.1198
X6.6388Y-2.7888
X6.6388Y-4.1198
T5
X2.89Y-2.887
X7.398Y-3.066
X2.89Y-3.947
X7.398Y-4.074
T0
M30
