G04 #@! TF.GenerationSoftware,KiCad,Pcbnew,(5.1.4)-1*
G04 #@! TF.CreationDate,2020-03-13T16:12:29-04:00*
G04 #@! TF.ProjectId,DriverDisplay4,44726976-6572-4446-9973-706c6179342e,rev?*
G04 #@! TF.SameCoordinates,Original*
G04 #@! TF.FileFunction,Soldermask,Bot*
G04 #@! TF.FilePolarity,Negative*
%FSLAX46Y46*%
G04 Gerber Fmt 4.6, Leading zero omitted, Abs format (unit mm)*
G04 Created by KiCad (PCBNEW (5.1.4)-1) date 2020-03-13 16:12:29*
%MOMM*%
%LPD*%
G04 APERTURE LIST*
%ADD10C,0.100000*%
G04 APERTURE END LIST*
D10*
G36*
X189220634Y-99156378D02*
G01*
X190038853Y-99495296D01*
X190038854Y-99495297D01*
X190775233Y-99987329D01*
X191401471Y-100613567D01*
X191663997Y-101006466D01*
X191893504Y-101349947D01*
X192232422Y-102168166D01*
X192405200Y-103036781D01*
X192405200Y-103922419D01*
X192232422Y-104791034D01*
X191893504Y-105609253D01*
X191893503Y-105609254D01*
X191401471Y-106345633D01*
X190775233Y-106971871D01*
X190531347Y-107134830D01*
X190038853Y-107463904D01*
X189220634Y-107802822D01*
X188352019Y-107975600D01*
X187466381Y-107975600D01*
X186597766Y-107802822D01*
X185779547Y-107463904D01*
X185287053Y-107134830D01*
X185043167Y-106971871D01*
X184416929Y-106345633D01*
X183924897Y-105609254D01*
X183924896Y-105609253D01*
X183585978Y-104791034D01*
X183413200Y-103922419D01*
X183413200Y-103036781D01*
X183585978Y-102168166D01*
X183924896Y-101349947D01*
X184154403Y-101006466D01*
X184416929Y-100613567D01*
X185043167Y-99987329D01*
X185779546Y-99495297D01*
X185779547Y-99495296D01*
X186597766Y-99156378D01*
X187466381Y-98983600D01*
X188352019Y-98983600D01*
X189220634Y-99156378D01*
X189220634Y-99156378D01*
G37*
G36*
X169214908Y-102118780D02*
G01*
X169381767Y-102151970D01*
X169853299Y-102347285D01*
X169997541Y-102443665D01*
X170277666Y-102630838D01*
X170638562Y-102991734D01*
X170759927Y-103173371D01*
X170922115Y-103416101D01*
X171058793Y-103746071D01*
X171117430Y-103887634D01*
X171187143Y-104238104D01*
X171217000Y-104388209D01*
X171217000Y-104898591D01*
X171117430Y-105399167D01*
X170922115Y-105870699D01*
X170759927Y-106113429D01*
X170638562Y-106295066D01*
X170277666Y-106655962D01*
X170096029Y-106777327D01*
X169853299Y-106939515D01*
X169381767Y-107134830D01*
X169214908Y-107168020D01*
X168881193Y-107234400D01*
X168370807Y-107234400D01*
X168037092Y-107168020D01*
X167870233Y-107134830D01*
X167398701Y-106939515D01*
X167155971Y-106777327D01*
X166974334Y-106655962D01*
X166613438Y-106295066D01*
X166492073Y-106113429D01*
X166329885Y-105870699D01*
X166134570Y-105399167D01*
X166035000Y-104898591D01*
X166035000Y-104388209D01*
X166064858Y-104238104D01*
X166134570Y-103887634D01*
X166193207Y-103746071D01*
X166329885Y-103416101D01*
X166492073Y-103173371D01*
X166613438Y-102991734D01*
X166974334Y-102630838D01*
X167254459Y-102443665D01*
X167398701Y-102347285D01*
X167870233Y-102151970D01*
X168037092Y-102118780D01*
X168370807Y-102052400D01*
X168881193Y-102052400D01*
X169214908Y-102118780D01*
X169214908Y-102118780D01*
G37*
G36*
X84124908Y-102118780D02*
G01*
X84291767Y-102151970D01*
X84763299Y-102347285D01*
X84907541Y-102443665D01*
X85187666Y-102630838D01*
X85548562Y-102991734D01*
X85669927Y-103173371D01*
X85832115Y-103416101D01*
X85968793Y-103746071D01*
X86027430Y-103887634D01*
X86097143Y-104238104D01*
X86127000Y-104388209D01*
X86127000Y-104898591D01*
X86027430Y-105399167D01*
X85832115Y-105870699D01*
X85669927Y-106113429D01*
X85548562Y-106295066D01*
X85187666Y-106655962D01*
X85006029Y-106777327D01*
X84763299Y-106939515D01*
X84291767Y-107134830D01*
X84124908Y-107168020D01*
X83791193Y-107234400D01*
X83280807Y-107234400D01*
X82947092Y-107168020D01*
X82780233Y-107134830D01*
X82308701Y-106939515D01*
X82065971Y-106777327D01*
X81884334Y-106655962D01*
X81523438Y-106295066D01*
X81402073Y-106113429D01*
X81239885Y-105870699D01*
X81044570Y-105399167D01*
X80945000Y-104898591D01*
X80945000Y-104388209D01*
X80974858Y-104238104D01*
X81044570Y-103887634D01*
X81103207Y-103746071D01*
X81239885Y-103416101D01*
X81402073Y-103173371D01*
X81523438Y-102991734D01*
X81884334Y-102630838D01*
X82164459Y-102443665D01*
X82308701Y-102347285D01*
X82780233Y-102151970D01*
X82947092Y-102118780D01*
X83280807Y-102052400D01*
X83791193Y-102052400D01*
X84124908Y-102118780D01*
X84124908Y-102118780D01*
G37*
G36*
X74717434Y-95930578D02*
G01*
X75535653Y-96269496D01*
X75535654Y-96269497D01*
X76272033Y-96761529D01*
X76898271Y-97387767D01*
X77227036Y-97879800D01*
X77390304Y-98124147D01*
X77729222Y-98942366D01*
X77902000Y-99810981D01*
X77902000Y-100696619D01*
X77729222Y-101565234D01*
X77390304Y-102383453D01*
X77350070Y-102443667D01*
X76898271Y-103119833D01*
X76272033Y-103746071D01*
X76008112Y-103922417D01*
X75535653Y-104238104D01*
X74717434Y-104577022D01*
X73848819Y-104749800D01*
X72963181Y-104749800D01*
X72094566Y-104577022D01*
X71276347Y-104238104D01*
X70803888Y-103922417D01*
X70539967Y-103746071D01*
X69913729Y-103119833D01*
X69461930Y-102443667D01*
X69421696Y-102383453D01*
X69082778Y-101565234D01*
X68910000Y-100696619D01*
X68910000Y-99810981D01*
X69082778Y-98942366D01*
X69421696Y-98124147D01*
X69584964Y-97879800D01*
X69913729Y-97387767D01*
X70539967Y-96761529D01*
X71276346Y-96269497D01*
X71276347Y-96269496D01*
X72094566Y-95930578D01*
X72963181Y-95757800D01*
X73848819Y-95757800D01*
X74717434Y-95930578D01*
X74717434Y-95930578D01*
G37*
G36*
X175971000Y-103301000D02*
G01*
X174069000Y-103301000D01*
X174069000Y-101399000D01*
X175971000Y-101399000D01*
X175971000Y-103301000D01*
X175971000Y-103301000D01*
G37*
G36*
X180377395Y-101435546D02*
G01*
X180550466Y-101507234D01*
X180550467Y-101507235D01*
X180706227Y-101611310D01*
X180838690Y-101743773D01*
X180838691Y-101743775D01*
X180942766Y-101899534D01*
X181014454Y-102072605D01*
X181051000Y-102256333D01*
X181051000Y-102443667D01*
X181014454Y-102627395D01*
X180942766Y-102800466D01*
X180942765Y-102800467D01*
X180838690Y-102956227D01*
X180706227Y-103088690D01*
X180659619Y-103119832D01*
X180550466Y-103192766D01*
X180377395Y-103264454D01*
X180193667Y-103301000D01*
X180006333Y-103301000D01*
X179822605Y-103264454D01*
X179649534Y-103192766D01*
X179540381Y-103119832D01*
X179493773Y-103088690D01*
X179361310Y-102956227D01*
X179257235Y-102800467D01*
X179257234Y-102800466D01*
X179185546Y-102627395D01*
X179149000Y-102443667D01*
X179149000Y-102256333D01*
X179185546Y-102072605D01*
X179257234Y-101899534D01*
X179361309Y-101743775D01*
X179361310Y-101743773D01*
X179493773Y-101611310D01*
X179649533Y-101507235D01*
X179649534Y-101507234D01*
X179822605Y-101435546D01*
X180006333Y-101399000D01*
X180193667Y-101399000D01*
X180377395Y-101435546D01*
X180377395Y-101435546D01*
G37*
G36*
X177837395Y-101435546D02*
G01*
X178010466Y-101507234D01*
X178010467Y-101507235D01*
X178166227Y-101611310D01*
X178298690Y-101743773D01*
X178298691Y-101743775D01*
X178402766Y-101899534D01*
X178474454Y-102072605D01*
X178511000Y-102256333D01*
X178511000Y-102443667D01*
X178474454Y-102627395D01*
X178402766Y-102800466D01*
X178402765Y-102800467D01*
X178298690Y-102956227D01*
X178166227Y-103088690D01*
X178119619Y-103119832D01*
X178010466Y-103192766D01*
X177837395Y-103264454D01*
X177653667Y-103301000D01*
X177466333Y-103301000D01*
X177282605Y-103264454D01*
X177109534Y-103192766D01*
X177000381Y-103119832D01*
X176953773Y-103088690D01*
X176821310Y-102956227D01*
X176717235Y-102800467D01*
X176717234Y-102800466D01*
X176645546Y-102627395D01*
X176609000Y-102443667D01*
X176609000Y-102256333D01*
X176645546Y-102072605D01*
X176717234Y-101899534D01*
X176821309Y-101743775D01*
X176821310Y-101743773D01*
X176953773Y-101611310D01*
X177109533Y-101507235D01*
X177109534Y-101507234D01*
X177282605Y-101435546D01*
X177466333Y-101399000D01*
X177653667Y-101399000D01*
X177837395Y-101435546D01*
X177837395Y-101435546D01*
G37*
G36*
X128090442Y-99765518D02*
G01*
X128156627Y-99772037D01*
X128326466Y-99823557D01*
X128482991Y-99907222D01*
X128518729Y-99936552D01*
X128620186Y-100019814D01*
X128703448Y-100121271D01*
X128732778Y-100157009D01*
X128816443Y-100313534D01*
X128867963Y-100483373D01*
X128885359Y-100660000D01*
X128867963Y-100836627D01*
X128816443Y-101006466D01*
X128732778Y-101162991D01*
X128703448Y-101198729D01*
X128620186Y-101300186D01*
X128518729Y-101383448D01*
X128482991Y-101412778D01*
X128326466Y-101496443D01*
X128156627Y-101547963D01*
X128090442Y-101554482D01*
X128024260Y-101561000D01*
X127935740Y-101561000D01*
X127869558Y-101554482D01*
X127803373Y-101547963D01*
X127633534Y-101496443D01*
X127477009Y-101412778D01*
X127441271Y-101383448D01*
X127339814Y-101300186D01*
X127256552Y-101198729D01*
X127227222Y-101162991D01*
X127143557Y-101006466D01*
X127092037Y-100836627D01*
X127074641Y-100660000D01*
X127092037Y-100483373D01*
X127143557Y-100313534D01*
X127227222Y-100157009D01*
X127256552Y-100121271D01*
X127339814Y-100019814D01*
X127441271Y-99936552D01*
X127477009Y-99907222D01*
X127633534Y-99823557D01*
X127803373Y-99772037D01*
X127869557Y-99765519D01*
X127935740Y-99759000D01*
X128024260Y-99759000D01*
X128090442Y-99765518D01*
X128090442Y-99765518D01*
G37*
G36*
X149201000Y-101561000D02*
G01*
X147399000Y-101561000D01*
X147399000Y-99759000D01*
X149201000Y-99759000D01*
X149201000Y-101561000D01*
X149201000Y-101561000D01*
G37*
G36*
X112850442Y-99765518D02*
G01*
X112916627Y-99772037D01*
X113086466Y-99823557D01*
X113242991Y-99907222D01*
X113278729Y-99936552D01*
X113380186Y-100019814D01*
X113463448Y-100121271D01*
X113492778Y-100157009D01*
X113576443Y-100313534D01*
X113627963Y-100483373D01*
X113645359Y-100660000D01*
X113627963Y-100836627D01*
X113576443Y-101006466D01*
X113492778Y-101162991D01*
X113463448Y-101198729D01*
X113380186Y-101300186D01*
X113278729Y-101383448D01*
X113242991Y-101412778D01*
X113086466Y-101496443D01*
X112916627Y-101547963D01*
X112850442Y-101554482D01*
X112784260Y-101561000D01*
X112695740Y-101561000D01*
X112629558Y-101554482D01*
X112563373Y-101547963D01*
X112393534Y-101496443D01*
X112237009Y-101412778D01*
X112201271Y-101383448D01*
X112099814Y-101300186D01*
X112016552Y-101198729D01*
X111987222Y-101162991D01*
X111903557Y-101006466D01*
X111852037Y-100836627D01*
X111834641Y-100660000D01*
X111852037Y-100483373D01*
X111903557Y-100313534D01*
X111987222Y-100157009D01*
X112016552Y-100121271D01*
X112099814Y-100019814D01*
X112201271Y-99936552D01*
X112237009Y-99907222D01*
X112393534Y-99823557D01*
X112563373Y-99772037D01*
X112629557Y-99765519D01*
X112695740Y-99759000D01*
X112784260Y-99759000D01*
X112850442Y-99765518D01*
X112850442Y-99765518D01*
G37*
G36*
X115390442Y-99765518D02*
G01*
X115456627Y-99772037D01*
X115626466Y-99823557D01*
X115782991Y-99907222D01*
X115818729Y-99936552D01*
X115920186Y-100019814D01*
X116003448Y-100121271D01*
X116032778Y-100157009D01*
X116116443Y-100313534D01*
X116167963Y-100483373D01*
X116185359Y-100660000D01*
X116167963Y-100836627D01*
X116116443Y-101006466D01*
X116032778Y-101162991D01*
X116003448Y-101198729D01*
X115920186Y-101300186D01*
X115818729Y-101383448D01*
X115782991Y-101412778D01*
X115626466Y-101496443D01*
X115456627Y-101547963D01*
X115390442Y-101554482D01*
X115324260Y-101561000D01*
X115235740Y-101561000D01*
X115169558Y-101554482D01*
X115103373Y-101547963D01*
X114933534Y-101496443D01*
X114777009Y-101412778D01*
X114741271Y-101383448D01*
X114639814Y-101300186D01*
X114556552Y-101198729D01*
X114527222Y-101162991D01*
X114443557Y-101006466D01*
X114392037Y-100836627D01*
X114374641Y-100660000D01*
X114392037Y-100483373D01*
X114443557Y-100313534D01*
X114527222Y-100157009D01*
X114556552Y-100121271D01*
X114639814Y-100019814D01*
X114741271Y-99936552D01*
X114777009Y-99907222D01*
X114933534Y-99823557D01*
X115103373Y-99772037D01*
X115169557Y-99765519D01*
X115235740Y-99759000D01*
X115324260Y-99759000D01*
X115390442Y-99765518D01*
X115390442Y-99765518D01*
G37*
G36*
X117930442Y-99765518D02*
G01*
X117996627Y-99772037D01*
X118166466Y-99823557D01*
X118322991Y-99907222D01*
X118358729Y-99936552D01*
X118460186Y-100019814D01*
X118543448Y-100121271D01*
X118572778Y-100157009D01*
X118656443Y-100313534D01*
X118707963Y-100483373D01*
X118725359Y-100660000D01*
X118707963Y-100836627D01*
X118656443Y-101006466D01*
X118572778Y-101162991D01*
X118543448Y-101198729D01*
X118460186Y-101300186D01*
X118358729Y-101383448D01*
X118322991Y-101412778D01*
X118166466Y-101496443D01*
X117996627Y-101547963D01*
X117930442Y-101554482D01*
X117864260Y-101561000D01*
X117775740Y-101561000D01*
X117709558Y-101554482D01*
X117643373Y-101547963D01*
X117473534Y-101496443D01*
X117317009Y-101412778D01*
X117281271Y-101383448D01*
X117179814Y-101300186D01*
X117096552Y-101198729D01*
X117067222Y-101162991D01*
X116983557Y-101006466D01*
X116932037Y-100836627D01*
X116914641Y-100660000D01*
X116932037Y-100483373D01*
X116983557Y-100313534D01*
X117067222Y-100157009D01*
X117096552Y-100121271D01*
X117179814Y-100019814D01*
X117281271Y-99936552D01*
X117317009Y-99907222D01*
X117473534Y-99823557D01*
X117643373Y-99772037D01*
X117709557Y-99765519D01*
X117775740Y-99759000D01*
X117864260Y-99759000D01*
X117930442Y-99765518D01*
X117930442Y-99765518D01*
G37*
G36*
X120470442Y-99765518D02*
G01*
X120536627Y-99772037D01*
X120706466Y-99823557D01*
X120862991Y-99907222D01*
X120898729Y-99936552D01*
X121000186Y-100019814D01*
X121083448Y-100121271D01*
X121112778Y-100157009D01*
X121196443Y-100313534D01*
X121247963Y-100483373D01*
X121265359Y-100660000D01*
X121247963Y-100836627D01*
X121196443Y-101006466D01*
X121112778Y-101162991D01*
X121083448Y-101198729D01*
X121000186Y-101300186D01*
X120898729Y-101383448D01*
X120862991Y-101412778D01*
X120706466Y-101496443D01*
X120536627Y-101547963D01*
X120470442Y-101554482D01*
X120404260Y-101561000D01*
X120315740Y-101561000D01*
X120249558Y-101554482D01*
X120183373Y-101547963D01*
X120013534Y-101496443D01*
X119857009Y-101412778D01*
X119821271Y-101383448D01*
X119719814Y-101300186D01*
X119636552Y-101198729D01*
X119607222Y-101162991D01*
X119523557Y-101006466D01*
X119472037Y-100836627D01*
X119454641Y-100660000D01*
X119472037Y-100483373D01*
X119523557Y-100313534D01*
X119607222Y-100157009D01*
X119636552Y-100121271D01*
X119719814Y-100019814D01*
X119821271Y-99936552D01*
X119857009Y-99907222D01*
X120013534Y-99823557D01*
X120183373Y-99772037D01*
X120249557Y-99765519D01*
X120315740Y-99759000D01*
X120404260Y-99759000D01*
X120470442Y-99765518D01*
X120470442Y-99765518D01*
G37*
G36*
X123010442Y-99765518D02*
G01*
X123076627Y-99772037D01*
X123246466Y-99823557D01*
X123402991Y-99907222D01*
X123438729Y-99936552D01*
X123540186Y-100019814D01*
X123623448Y-100121271D01*
X123652778Y-100157009D01*
X123736443Y-100313534D01*
X123787963Y-100483373D01*
X123805359Y-100660000D01*
X123787963Y-100836627D01*
X123736443Y-101006466D01*
X123652778Y-101162991D01*
X123623448Y-101198729D01*
X123540186Y-101300186D01*
X123438729Y-101383448D01*
X123402991Y-101412778D01*
X123246466Y-101496443D01*
X123076627Y-101547963D01*
X123010442Y-101554482D01*
X122944260Y-101561000D01*
X122855740Y-101561000D01*
X122789558Y-101554482D01*
X122723373Y-101547963D01*
X122553534Y-101496443D01*
X122397009Y-101412778D01*
X122361271Y-101383448D01*
X122259814Y-101300186D01*
X122176552Y-101198729D01*
X122147222Y-101162991D01*
X122063557Y-101006466D01*
X122012037Y-100836627D01*
X121994641Y-100660000D01*
X122012037Y-100483373D01*
X122063557Y-100313534D01*
X122147222Y-100157009D01*
X122176552Y-100121271D01*
X122259814Y-100019814D01*
X122361271Y-99936552D01*
X122397009Y-99907222D01*
X122553534Y-99823557D01*
X122723373Y-99772037D01*
X122789557Y-99765519D01*
X122855740Y-99759000D01*
X122944260Y-99759000D01*
X123010442Y-99765518D01*
X123010442Y-99765518D01*
G37*
G36*
X125550442Y-99765518D02*
G01*
X125616627Y-99772037D01*
X125786466Y-99823557D01*
X125942991Y-99907222D01*
X125978729Y-99936552D01*
X126080186Y-100019814D01*
X126163448Y-100121271D01*
X126192778Y-100157009D01*
X126276443Y-100313534D01*
X126327963Y-100483373D01*
X126345359Y-100660000D01*
X126327963Y-100836627D01*
X126276443Y-101006466D01*
X126192778Y-101162991D01*
X126163448Y-101198729D01*
X126080186Y-101300186D01*
X125978729Y-101383448D01*
X125942991Y-101412778D01*
X125786466Y-101496443D01*
X125616627Y-101547963D01*
X125550442Y-101554482D01*
X125484260Y-101561000D01*
X125395740Y-101561000D01*
X125329558Y-101554482D01*
X125263373Y-101547963D01*
X125093534Y-101496443D01*
X124937009Y-101412778D01*
X124901271Y-101383448D01*
X124799814Y-101300186D01*
X124716552Y-101198729D01*
X124687222Y-101162991D01*
X124603557Y-101006466D01*
X124552037Y-100836627D01*
X124534641Y-100660000D01*
X124552037Y-100483373D01*
X124603557Y-100313534D01*
X124687222Y-100157009D01*
X124716552Y-100121271D01*
X124799814Y-100019814D01*
X124901271Y-99936552D01*
X124937009Y-99907222D01*
X125093534Y-99823557D01*
X125263373Y-99772037D01*
X125329557Y-99765519D01*
X125395740Y-99759000D01*
X125484260Y-99759000D01*
X125550442Y-99765518D01*
X125550442Y-99765518D01*
G37*
G36*
X130630442Y-99765518D02*
G01*
X130696627Y-99772037D01*
X130866466Y-99823557D01*
X131022991Y-99907222D01*
X131058729Y-99936552D01*
X131160186Y-100019814D01*
X131243448Y-100121271D01*
X131272778Y-100157009D01*
X131356443Y-100313534D01*
X131407963Y-100483373D01*
X131425359Y-100660000D01*
X131407963Y-100836627D01*
X131356443Y-101006466D01*
X131272778Y-101162991D01*
X131243448Y-101198729D01*
X131160186Y-101300186D01*
X131058729Y-101383448D01*
X131022991Y-101412778D01*
X130866466Y-101496443D01*
X130696627Y-101547963D01*
X130630442Y-101554482D01*
X130564260Y-101561000D01*
X130475740Y-101561000D01*
X130409558Y-101554482D01*
X130343373Y-101547963D01*
X130173534Y-101496443D01*
X130017009Y-101412778D01*
X129981271Y-101383448D01*
X129879814Y-101300186D01*
X129796552Y-101198729D01*
X129767222Y-101162991D01*
X129683557Y-101006466D01*
X129632037Y-100836627D01*
X129614641Y-100660000D01*
X129632037Y-100483373D01*
X129683557Y-100313534D01*
X129767222Y-100157009D01*
X129796552Y-100121271D01*
X129879814Y-100019814D01*
X129981271Y-99936552D01*
X130017009Y-99907222D01*
X130173534Y-99823557D01*
X130343373Y-99772037D01*
X130409557Y-99765519D01*
X130475740Y-99759000D01*
X130564260Y-99759000D01*
X130630442Y-99765518D01*
X130630442Y-99765518D01*
G37*
G36*
X133170442Y-99765518D02*
G01*
X133236627Y-99772037D01*
X133406466Y-99823557D01*
X133562991Y-99907222D01*
X133598729Y-99936552D01*
X133700186Y-100019814D01*
X133783448Y-100121271D01*
X133812778Y-100157009D01*
X133896443Y-100313534D01*
X133947963Y-100483373D01*
X133965359Y-100660000D01*
X133947963Y-100836627D01*
X133896443Y-101006466D01*
X133812778Y-101162991D01*
X133783448Y-101198729D01*
X133700186Y-101300186D01*
X133598729Y-101383448D01*
X133562991Y-101412778D01*
X133406466Y-101496443D01*
X133236627Y-101547963D01*
X133170442Y-101554482D01*
X133104260Y-101561000D01*
X133015740Y-101561000D01*
X132949558Y-101554482D01*
X132883373Y-101547963D01*
X132713534Y-101496443D01*
X132557009Y-101412778D01*
X132521271Y-101383448D01*
X132419814Y-101300186D01*
X132336552Y-101198729D01*
X132307222Y-101162991D01*
X132223557Y-101006466D01*
X132172037Y-100836627D01*
X132154641Y-100660000D01*
X132172037Y-100483373D01*
X132223557Y-100313534D01*
X132307222Y-100157009D01*
X132336552Y-100121271D01*
X132419814Y-100019814D01*
X132521271Y-99936552D01*
X132557009Y-99907222D01*
X132713534Y-99823557D01*
X132883373Y-99772037D01*
X132949557Y-99765519D01*
X133015740Y-99759000D01*
X133104260Y-99759000D01*
X133170442Y-99765518D01*
X133170442Y-99765518D01*
G37*
G36*
X135710442Y-99765518D02*
G01*
X135776627Y-99772037D01*
X135946466Y-99823557D01*
X136102991Y-99907222D01*
X136138729Y-99936552D01*
X136240186Y-100019814D01*
X136323448Y-100121271D01*
X136352778Y-100157009D01*
X136436443Y-100313534D01*
X136487963Y-100483373D01*
X136505359Y-100660000D01*
X136487963Y-100836627D01*
X136436443Y-101006466D01*
X136352778Y-101162991D01*
X136323448Y-101198729D01*
X136240186Y-101300186D01*
X136138729Y-101383448D01*
X136102991Y-101412778D01*
X135946466Y-101496443D01*
X135776627Y-101547963D01*
X135710442Y-101554482D01*
X135644260Y-101561000D01*
X135555740Y-101561000D01*
X135489558Y-101554482D01*
X135423373Y-101547963D01*
X135253534Y-101496443D01*
X135097009Y-101412778D01*
X135061271Y-101383448D01*
X134959814Y-101300186D01*
X134876552Y-101198729D01*
X134847222Y-101162991D01*
X134763557Y-101006466D01*
X134712037Y-100836627D01*
X134694641Y-100660000D01*
X134712037Y-100483373D01*
X134763557Y-100313534D01*
X134847222Y-100157009D01*
X134876552Y-100121271D01*
X134959814Y-100019814D01*
X135061271Y-99936552D01*
X135097009Y-99907222D01*
X135253534Y-99823557D01*
X135423373Y-99772037D01*
X135489557Y-99765519D01*
X135555740Y-99759000D01*
X135644260Y-99759000D01*
X135710442Y-99765518D01*
X135710442Y-99765518D01*
G37*
G36*
X138250442Y-99765518D02*
G01*
X138316627Y-99772037D01*
X138486466Y-99823557D01*
X138642991Y-99907222D01*
X138678729Y-99936552D01*
X138780186Y-100019814D01*
X138863448Y-100121271D01*
X138892778Y-100157009D01*
X138976443Y-100313534D01*
X139027963Y-100483373D01*
X139045359Y-100660000D01*
X139027963Y-100836627D01*
X138976443Y-101006466D01*
X138892778Y-101162991D01*
X138863448Y-101198729D01*
X138780186Y-101300186D01*
X138678729Y-101383448D01*
X138642991Y-101412778D01*
X138486466Y-101496443D01*
X138316627Y-101547963D01*
X138250442Y-101554482D01*
X138184260Y-101561000D01*
X138095740Y-101561000D01*
X138029558Y-101554482D01*
X137963373Y-101547963D01*
X137793534Y-101496443D01*
X137637009Y-101412778D01*
X137601271Y-101383448D01*
X137499814Y-101300186D01*
X137416552Y-101198729D01*
X137387222Y-101162991D01*
X137303557Y-101006466D01*
X137252037Y-100836627D01*
X137234641Y-100660000D01*
X137252037Y-100483373D01*
X137303557Y-100313534D01*
X137387222Y-100157009D01*
X137416552Y-100121271D01*
X137499814Y-100019814D01*
X137601271Y-99936552D01*
X137637009Y-99907222D01*
X137793534Y-99823557D01*
X137963373Y-99772037D01*
X138029557Y-99765519D01*
X138095740Y-99759000D01*
X138184260Y-99759000D01*
X138250442Y-99765518D01*
X138250442Y-99765518D01*
G37*
G36*
X143330442Y-99765518D02*
G01*
X143396627Y-99772037D01*
X143566466Y-99823557D01*
X143722991Y-99907222D01*
X143758729Y-99936552D01*
X143860186Y-100019814D01*
X143943448Y-100121271D01*
X143972778Y-100157009D01*
X144056443Y-100313534D01*
X144107963Y-100483373D01*
X144125359Y-100660000D01*
X144107963Y-100836627D01*
X144056443Y-101006466D01*
X143972778Y-101162991D01*
X143943448Y-101198729D01*
X143860186Y-101300186D01*
X143758729Y-101383448D01*
X143722991Y-101412778D01*
X143566466Y-101496443D01*
X143396627Y-101547963D01*
X143330442Y-101554482D01*
X143264260Y-101561000D01*
X143175740Y-101561000D01*
X143109558Y-101554482D01*
X143043373Y-101547963D01*
X142873534Y-101496443D01*
X142717009Y-101412778D01*
X142681271Y-101383448D01*
X142579814Y-101300186D01*
X142496552Y-101198729D01*
X142467222Y-101162991D01*
X142383557Y-101006466D01*
X142332037Y-100836627D01*
X142314641Y-100660000D01*
X142332037Y-100483373D01*
X142383557Y-100313534D01*
X142467222Y-100157009D01*
X142496552Y-100121271D01*
X142579814Y-100019814D01*
X142681271Y-99936552D01*
X142717009Y-99907222D01*
X142873534Y-99823557D01*
X143043373Y-99772037D01*
X143109557Y-99765519D01*
X143175740Y-99759000D01*
X143264260Y-99759000D01*
X143330442Y-99765518D01*
X143330442Y-99765518D01*
G37*
G36*
X140790442Y-99765518D02*
G01*
X140856627Y-99772037D01*
X141026466Y-99823557D01*
X141182991Y-99907222D01*
X141218729Y-99936552D01*
X141320186Y-100019814D01*
X141403448Y-100121271D01*
X141432778Y-100157009D01*
X141516443Y-100313534D01*
X141567963Y-100483373D01*
X141585359Y-100660000D01*
X141567963Y-100836627D01*
X141516443Y-101006466D01*
X141432778Y-101162991D01*
X141403448Y-101198729D01*
X141320186Y-101300186D01*
X141218729Y-101383448D01*
X141182991Y-101412778D01*
X141026466Y-101496443D01*
X140856627Y-101547963D01*
X140790442Y-101554482D01*
X140724260Y-101561000D01*
X140635740Y-101561000D01*
X140569558Y-101554482D01*
X140503373Y-101547963D01*
X140333534Y-101496443D01*
X140177009Y-101412778D01*
X140141271Y-101383448D01*
X140039814Y-101300186D01*
X139956552Y-101198729D01*
X139927222Y-101162991D01*
X139843557Y-101006466D01*
X139792037Y-100836627D01*
X139774641Y-100660000D01*
X139792037Y-100483373D01*
X139843557Y-100313534D01*
X139927222Y-100157009D01*
X139956552Y-100121271D01*
X140039814Y-100019814D01*
X140141271Y-99936552D01*
X140177009Y-99907222D01*
X140333534Y-99823557D01*
X140503373Y-99772037D01*
X140569557Y-99765519D01*
X140635740Y-99759000D01*
X140724260Y-99759000D01*
X140790442Y-99765518D01*
X140790442Y-99765518D01*
G37*
G36*
X145870442Y-99765518D02*
G01*
X145936627Y-99772037D01*
X146106466Y-99823557D01*
X146262991Y-99907222D01*
X146298729Y-99936552D01*
X146400186Y-100019814D01*
X146483448Y-100121271D01*
X146512778Y-100157009D01*
X146596443Y-100313534D01*
X146647963Y-100483373D01*
X146665359Y-100660000D01*
X146647963Y-100836627D01*
X146596443Y-101006466D01*
X146512778Y-101162991D01*
X146483448Y-101198729D01*
X146400186Y-101300186D01*
X146298729Y-101383448D01*
X146262991Y-101412778D01*
X146106466Y-101496443D01*
X145936627Y-101547963D01*
X145870442Y-101554482D01*
X145804260Y-101561000D01*
X145715740Y-101561000D01*
X145649558Y-101554482D01*
X145583373Y-101547963D01*
X145413534Y-101496443D01*
X145257009Y-101412778D01*
X145221271Y-101383448D01*
X145119814Y-101300186D01*
X145036552Y-101198729D01*
X145007222Y-101162991D01*
X144923557Y-101006466D01*
X144872037Y-100836627D01*
X144854641Y-100660000D01*
X144872037Y-100483373D01*
X144923557Y-100313534D01*
X145007222Y-100157009D01*
X145036552Y-100121271D01*
X145119814Y-100019814D01*
X145221271Y-99936552D01*
X145257009Y-99907222D01*
X145413534Y-99823557D01*
X145583373Y-99772037D01*
X145649557Y-99765519D01*
X145715740Y-99759000D01*
X145804260Y-99759000D01*
X145870442Y-99765518D01*
X145870442Y-99765518D01*
G37*
G36*
X178541200Y-96422600D02*
G01*
X177039200Y-96422600D01*
X177039200Y-93320600D01*
X178541200Y-93320600D01*
X178541200Y-96422600D01*
X178541200Y-96422600D01*
G37*
G36*
X189234600Y-96422600D02*
G01*
X187732600Y-96422600D01*
X187732600Y-93320600D01*
X189234600Y-93320600D01*
X189234600Y-96422600D01*
X189234600Y-96422600D01*
G37*
G36*
X184834600Y-96422600D02*
G01*
X183332600Y-96422600D01*
X183332600Y-93320600D01*
X184834600Y-93320600D01*
X184834600Y-96422600D01*
X184834600Y-96422600D01*
G37*
G36*
X174141200Y-96422600D02*
G01*
X172639200Y-96422600D01*
X172639200Y-93320600D01*
X174141200Y-93320600D01*
X174141200Y-96422600D01*
X174141200Y-96422600D01*
G37*
G36*
X174141200Y-87222600D02*
G01*
X172639200Y-87222600D01*
X172639200Y-84120600D01*
X174141200Y-84120600D01*
X174141200Y-87222600D01*
X174141200Y-87222600D01*
G37*
G36*
X189234600Y-87222600D02*
G01*
X187732600Y-87222600D01*
X187732600Y-84120600D01*
X189234600Y-84120600D01*
X189234600Y-87222600D01*
X189234600Y-87222600D01*
G37*
G36*
X178541200Y-87222600D02*
G01*
X177039200Y-87222600D01*
X177039200Y-84120600D01*
X178541200Y-84120600D01*
X178541200Y-87222600D01*
X178541200Y-87222600D01*
G37*
G36*
X184834600Y-87222600D02*
G01*
X183332600Y-87222600D01*
X183332600Y-84120600D01*
X184834600Y-84120600D01*
X184834600Y-87222600D01*
X184834600Y-87222600D01*
G37*
G36*
X189220634Y-73553178D02*
G01*
X190038853Y-73892096D01*
X190038854Y-73892097D01*
X190775233Y-74384129D01*
X191401471Y-75010367D01*
X191599319Y-75306468D01*
X191893504Y-75746747D01*
X192232422Y-76564966D01*
X192405200Y-77433581D01*
X192405200Y-78319219D01*
X192232422Y-79187834D01*
X191893504Y-80006053D01*
X191893503Y-80006054D01*
X191401471Y-80742433D01*
X190775233Y-81368671D01*
X190283200Y-81697436D01*
X190038853Y-81860704D01*
X189220634Y-82199622D01*
X188352019Y-82372400D01*
X187466381Y-82372400D01*
X186597766Y-82199622D01*
X185779547Y-81860704D01*
X185535200Y-81697436D01*
X185043167Y-81368671D01*
X184416929Y-80742433D01*
X183924897Y-80006054D01*
X183924896Y-80006053D01*
X183585978Y-79187834D01*
X183413200Y-78319219D01*
X183413200Y-77433581D01*
X183585978Y-76564966D01*
X183924896Y-75746747D01*
X184219081Y-75306468D01*
X184416929Y-75010367D01*
X185043167Y-74384129D01*
X185779546Y-73892097D01*
X185779547Y-73892096D01*
X186597766Y-73553178D01*
X187466381Y-73380400D01*
X188352019Y-73380400D01*
X189220634Y-73553178D01*
X189220634Y-73553178D01*
G37*
G36*
X177837395Y-76947546D02*
G01*
X178010466Y-77019234D01*
X178010467Y-77019235D01*
X178166227Y-77123310D01*
X178298690Y-77255773D01*
X178298691Y-77255775D01*
X178402766Y-77411534D01*
X178474454Y-77584605D01*
X178511000Y-77768333D01*
X178511000Y-77955667D01*
X178474454Y-78139395D01*
X178402766Y-78312466D01*
X178351081Y-78389818D01*
X178298690Y-78468227D01*
X178166227Y-78600690D01*
X178087818Y-78653081D01*
X178010466Y-78704766D01*
X177837395Y-78776454D01*
X177653667Y-78813000D01*
X177466333Y-78813000D01*
X177282605Y-78776454D01*
X177109534Y-78704766D01*
X177032182Y-78653081D01*
X176953773Y-78600690D01*
X176821310Y-78468227D01*
X176768919Y-78389818D01*
X176717234Y-78312466D01*
X176645546Y-78139395D01*
X176609000Y-77955667D01*
X176609000Y-77768333D01*
X176645546Y-77584605D01*
X176717234Y-77411534D01*
X176821309Y-77255775D01*
X176821310Y-77255773D01*
X176953773Y-77123310D01*
X177109533Y-77019235D01*
X177109534Y-77019234D01*
X177282605Y-76947546D01*
X177466333Y-76911000D01*
X177653667Y-76911000D01*
X177837395Y-76947546D01*
X177837395Y-76947546D01*
G37*
G36*
X180377395Y-76947546D02*
G01*
X180550466Y-77019234D01*
X180550467Y-77019235D01*
X180706227Y-77123310D01*
X180838690Y-77255773D01*
X180838691Y-77255775D01*
X180942766Y-77411534D01*
X181014454Y-77584605D01*
X181051000Y-77768333D01*
X181051000Y-77955667D01*
X181014454Y-78139395D01*
X180942766Y-78312466D01*
X180891081Y-78389818D01*
X180838690Y-78468227D01*
X180706227Y-78600690D01*
X180627818Y-78653081D01*
X180550466Y-78704766D01*
X180377395Y-78776454D01*
X180193667Y-78813000D01*
X180006333Y-78813000D01*
X179822605Y-78776454D01*
X179649534Y-78704766D01*
X179572182Y-78653081D01*
X179493773Y-78600690D01*
X179361310Y-78468227D01*
X179308919Y-78389818D01*
X179257234Y-78312466D01*
X179185546Y-78139395D01*
X179149000Y-77955667D01*
X179149000Y-77768333D01*
X179185546Y-77584605D01*
X179257234Y-77411534D01*
X179361309Y-77255775D01*
X179361310Y-77255773D01*
X179493773Y-77123310D01*
X179649533Y-77019235D01*
X179649534Y-77019234D01*
X179822605Y-76947546D01*
X180006333Y-76911000D01*
X180193667Y-76911000D01*
X180377395Y-76947546D01*
X180377395Y-76947546D01*
G37*
G36*
X175971000Y-78813000D02*
G01*
X174069000Y-78813000D01*
X174069000Y-76911000D01*
X175971000Y-76911000D01*
X175971000Y-78813000D01*
X175971000Y-78813000D01*
G37*
G36*
X74717434Y-69006578D02*
G01*
X75535653Y-69345496D01*
X75535654Y-69345497D01*
X76272033Y-69837529D01*
X76898271Y-70463767D01*
X77227036Y-70955800D01*
X77390304Y-71200147D01*
X77729222Y-72018366D01*
X77902000Y-72886981D01*
X77902000Y-73772619D01*
X77729222Y-74641234D01*
X77390304Y-75459453D01*
X77390303Y-75459454D01*
X76898271Y-76195833D01*
X76272033Y-76822071D01*
X75821198Y-77123309D01*
X75535653Y-77314104D01*
X74717434Y-77653022D01*
X73848819Y-77825800D01*
X72963181Y-77825800D01*
X72094566Y-77653022D01*
X71276347Y-77314104D01*
X70990802Y-77123309D01*
X70539967Y-76822071D01*
X69913729Y-76195833D01*
X69421697Y-75459454D01*
X69421696Y-75459453D01*
X69082778Y-74641234D01*
X68910000Y-73772619D01*
X68910000Y-72886981D01*
X69082778Y-72018366D01*
X69421696Y-71200147D01*
X69584964Y-70955800D01*
X69913729Y-70463767D01*
X70539967Y-69837529D01*
X71276346Y-69345497D01*
X71276347Y-69345496D01*
X72094566Y-69006578D01*
X72963181Y-68833800D01*
X73848819Y-68833800D01*
X74717434Y-69006578D01*
X74717434Y-69006578D01*
G37*
G36*
X135610443Y-74065519D02*
G01*
X135676627Y-74072037D01*
X135846466Y-74123557D01*
X136002991Y-74207222D01*
X136038729Y-74236552D01*
X136140186Y-74319814D01*
X136192967Y-74384129D01*
X136252778Y-74457009D01*
X136336443Y-74613534D01*
X136387963Y-74783373D01*
X136405359Y-74960000D01*
X136387963Y-75136627D01*
X136336443Y-75306466D01*
X136252778Y-75462991D01*
X136223448Y-75498729D01*
X136140186Y-75600186D01*
X136038729Y-75683448D01*
X136002991Y-75712778D01*
X135846466Y-75796443D01*
X135676627Y-75847963D01*
X135610442Y-75854482D01*
X135544260Y-75861000D01*
X135455740Y-75861000D01*
X135389558Y-75854482D01*
X135323373Y-75847963D01*
X135153534Y-75796443D01*
X134997009Y-75712778D01*
X134961271Y-75683448D01*
X134859814Y-75600186D01*
X134776552Y-75498729D01*
X134747222Y-75462991D01*
X134663557Y-75306466D01*
X134612037Y-75136627D01*
X134594641Y-74960000D01*
X134612037Y-74783373D01*
X134663557Y-74613534D01*
X134747222Y-74457009D01*
X134807033Y-74384129D01*
X134859814Y-74319814D01*
X134961271Y-74236552D01*
X134997009Y-74207222D01*
X135153534Y-74123557D01*
X135323373Y-74072037D01*
X135389557Y-74065519D01*
X135455740Y-74059000D01*
X135544260Y-74059000D01*
X135610443Y-74065519D01*
X135610443Y-74065519D01*
G37*
G36*
X112750443Y-74065519D02*
G01*
X112816627Y-74072037D01*
X112986466Y-74123557D01*
X113142991Y-74207222D01*
X113178729Y-74236552D01*
X113280186Y-74319814D01*
X113332967Y-74384129D01*
X113392778Y-74457009D01*
X113476443Y-74613534D01*
X113527963Y-74783373D01*
X113545359Y-74960000D01*
X113527963Y-75136627D01*
X113476443Y-75306466D01*
X113392778Y-75462991D01*
X113363448Y-75498729D01*
X113280186Y-75600186D01*
X113178729Y-75683448D01*
X113142991Y-75712778D01*
X112986466Y-75796443D01*
X112816627Y-75847963D01*
X112750442Y-75854482D01*
X112684260Y-75861000D01*
X112595740Y-75861000D01*
X112529558Y-75854482D01*
X112463373Y-75847963D01*
X112293534Y-75796443D01*
X112137009Y-75712778D01*
X112101271Y-75683448D01*
X111999814Y-75600186D01*
X111916552Y-75498729D01*
X111887222Y-75462991D01*
X111803557Y-75306466D01*
X111752037Y-75136627D01*
X111734641Y-74960000D01*
X111752037Y-74783373D01*
X111803557Y-74613534D01*
X111887222Y-74457009D01*
X111947033Y-74384129D01*
X111999814Y-74319814D01*
X112101271Y-74236552D01*
X112137009Y-74207222D01*
X112293534Y-74123557D01*
X112463373Y-74072037D01*
X112529557Y-74065519D01*
X112595740Y-74059000D01*
X112684260Y-74059000D01*
X112750443Y-74065519D01*
X112750443Y-74065519D01*
G37*
G36*
X115290443Y-74065519D02*
G01*
X115356627Y-74072037D01*
X115526466Y-74123557D01*
X115682991Y-74207222D01*
X115718729Y-74236552D01*
X115820186Y-74319814D01*
X115872967Y-74384129D01*
X115932778Y-74457009D01*
X116016443Y-74613534D01*
X116067963Y-74783373D01*
X116085359Y-74960000D01*
X116067963Y-75136627D01*
X116016443Y-75306466D01*
X115932778Y-75462991D01*
X115903448Y-75498729D01*
X115820186Y-75600186D01*
X115718729Y-75683448D01*
X115682991Y-75712778D01*
X115526466Y-75796443D01*
X115356627Y-75847963D01*
X115290442Y-75854482D01*
X115224260Y-75861000D01*
X115135740Y-75861000D01*
X115069558Y-75854482D01*
X115003373Y-75847963D01*
X114833534Y-75796443D01*
X114677009Y-75712778D01*
X114641271Y-75683448D01*
X114539814Y-75600186D01*
X114456552Y-75498729D01*
X114427222Y-75462991D01*
X114343557Y-75306466D01*
X114292037Y-75136627D01*
X114274641Y-74960000D01*
X114292037Y-74783373D01*
X114343557Y-74613534D01*
X114427222Y-74457009D01*
X114487033Y-74384129D01*
X114539814Y-74319814D01*
X114641271Y-74236552D01*
X114677009Y-74207222D01*
X114833534Y-74123557D01*
X115003373Y-74072037D01*
X115069557Y-74065519D01*
X115135740Y-74059000D01*
X115224260Y-74059000D01*
X115290443Y-74065519D01*
X115290443Y-74065519D01*
G37*
G36*
X117830443Y-74065519D02*
G01*
X117896627Y-74072037D01*
X118066466Y-74123557D01*
X118222991Y-74207222D01*
X118258729Y-74236552D01*
X118360186Y-74319814D01*
X118412967Y-74384129D01*
X118472778Y-74457009D01*
X118556443Y-74613534D01*
X118607963Y-74783373D01*
X118625359Y-74960000D01*
X118607963Y-75136627D01*
X118556443Y-75306466D01*
X118472778Y-75462991D01*
X118443448Y-75498729D01*
X118360186Y-75600186D01*
X118258729Y-75683448D01*
X118222991Y-75712778D01*
X118066466Y-75796443D01*
X117896627Y-75847963D01*
X117830442Y-75854482D01*
X117764260Y-75861000D01*
X117675740Y-75861000D01*
X117609558Y-75854482D01*
X117543373Y-75847963D01*
X117373534Y-75796443D01*
X117217009Y-75712778D01*
X117181271Y-75683448D01*
X117079814Y-75600186D01*
X116996552Y-75498729D01*
X116967222Y-75462991D01*
X116883557Y-75306466D01*
X116832037Y-75136627D01*
X116814641Y-74960000D01*
X116832037Y-74783373D01*
X116883557Y-74613534D01*
X116967222Y-74457009D01*
X117027033Y-74384129D01*
X117079814Y-74319814D01*
X117181271Y-74236552D01*
X117217009Y-74207222D01*
X117373534Y-74123557D01*
X117543373Y-74072037D01*
X117609557Y-74065519D01*
X117675740Y-74059000D01*
X117764260Y-74059000D01*
X117830443Y-74065519D01*
X117830443Y-74065519D01*
G37*
G36*
X120370443Y-74065519D02*
G01*
X120436627Y-74072037D01*
X120606466Y-74123557D01*
X120762991Y-74207222D01*
X120798729Y-74236552D01*
X120900186Y-74319814D01*
X120952967Y-74384129D01*
X121012778Y-74457009D01*
X121096443Y-74613534D01*
X121147963Y-74783373D01*
X121165359Y-74960000D01*
X121147963Y-75136627D01*
X121096443Y-75306466D01*
X121012778Y-75462991D01*
X120983448Y-75498729D01*
X120900186Y-75600186D01*
X120798729Y-75683448D01*
X120762991Y-75712778D01*
X120606466Y-75796443D01*
X120436627Y-75847963D01*
X120370442Y-75854482D01*
X120304260Y-75861000D01*
X120215740Y-75861000D01*
X120149558Y-75854482D01*
X120083373Y-75847963D01*
X119913534Y-75796443D01*
X119757009Y-75712778D01*
X119721271Y-75683448D01*
X119619814Y-75600186D01*
X119536552Y-75498729D01*
X119507222Y-75462991D01*
X119423557Y-75306466D01*
X119372037Y-75136627D01*
X119354641Y-74960000D01*
X119372037Y-74783373D01*
X119423557Y-74613534D01*
X119507222Y-74457009D01*
X119567033Y-74384129D01*
X119619814Y-74319814D01*
X119721271Y-74236552D01*
X119757009Y-74207222D01*
X119913534Y-74123557D01*
X120083373Y-74072037D01*
X120149557Y-74065519D01*
X120215740Y-74059000D01*
X120304260Y-74059000D01*
X120370443Y-74065519D01*
X120370443Y-74065519D01*
G37*
G36*
X122910443Y-74065519D02*
G01*
X122976627Y-74072037D01*
X123146466Y-74123557D01*
X123302991Y-74207222D01*
X123338729Y-74236552D01*
X123440186Y-74319814D01*
X123492967Y-74384129D01*
X123552778Y-74457009D01*
X123636443Y-74613534D01*
X123687963Y-74783373D01*
X123705359Y-74960000D01*
X123687963Y-75136627D01*
X123636443Y-75306466D01*
X123552778Y-75462991D01*
X123523448Y-75498729D01*
X123440186Y-75600186D01*
X123338729Y-75683448D01*
X123302991Y-75712778D01*
X123146466Y-75796443D01*
X122976627Y-75847963D01*
X122910442Y-75854482D01*
X122844260Y-75861000D01*
X122755740Y-75861000D01*
X122689558Y-75854482D01*
X122623373Y-75847963D01*
X122453534Y-75796443D01*
X122297009Y-75712778D01*
X122261271Y-75683448D01*
X122159814Y-75600186D01*
X122076552Y-75498729D01*
X122047222Y-75462991D01*
X121963557Y-75306466D01*
X121912037Y-75136627D01*
X121894641Y-74960000D01*
X121912037Y-74783373D01*
X121963557Y-74613534D01*
X122047222Y-74457009D01*
X122107033Y-74384129D01*
X122159814Y-74319814D01*
X122261271Y-74236552D01*
X122297009Y-74207222D01*
X122453534Y-74123557D01*
X122623373Y-74072037D01*
X122689557Y-74065519D01*
X122755740Y-74059000D01*
X122844260Y-74059000D01*
X122910443Y-74065519D01*
X122910443Y-74065519D01*
G37*
G36*
X125450443Y-74065519D02*
G01*
X125516627Y-74072037D01*
X125686466Y-74123557D01*
X125842991Y-74207222D01*
X125878729Y-74236552D01*
X125980186Y-74319814D01*
X126032967Y-74384129D01*
X126092778Y-74457009D01*
X126176443Y-74613534D01*
X126227963Y-74783373D01*
X126245359Y-74960000D01*
X126227963Y-75136627D01*
X126176443Y-75306466D01*
X126092778Y-75462991D01*
X126063448Y-75498729D01*
X125980186Y-75600186D01*
X125878729Y-75683448D01*
X125842991Y-75712778D01*
X125686466Y-75796443D01*
X125516627Y-75847963D01*
X125450442Y-75854482D01*
X125384260Y-75861000D01*
X125295740Y-75861000D01*
X125229558Y-75854482D01*
X125163373Y-75847963D01*
X124993534Y-75796443D01*
X124837009Y-75712778D01*
X124801271Y-75683448D01*
X124699814Y-75600186D01*
X124616552Y-75498729D01*
X124587222Y-75462991D01*
X124503557Y-75306466D01*
X124452037Y-75136627D01*
X124434641Y-74960000D01*
X124452037Y-74783373D01*
X124503557Y-74613534D01*
X124587222Y-74457009D01*
X124647033Y-74384129D01*
X124699814Y-74319814D01*
X124801271Y-74236552D01*
X124837009Y-74207222D01*
X124993534Y-74123557D01*
X125163373Y-74072037D01*
X125229557Y-74065519D01*
X125295740Y-74059000D01*
X125384260Y-74059000D01*
X125450443Y-74065519D01*
X125450443Y-74065519D01*
G37*
G36*
X127990443Y-74065519D02*
G01*
X128056627Y-74072037D01*
X128226466Y-74123557D01*
X128382991Y-74207222D01*
X128418729Y-74236552D01*
X128520186Y-74319814D01*
X128572967Y-74384129D01*
X128632778Y-74457009D01*
X128716443Y-74613534D01*
X128767963Y-74783373D01*
X128785359Y-74960000D01*
X128767963Y-75136627D01*
X128716443Y-75306466D01*
X128632778Y-75462991D01*
X128603448Y-75498729D01*
X128520186Y-75600186D01*
X128418729Y-75683448D01*
X128382991Y-75712778D01*
X128226466Y-75796443D01*
X128056627Y-75847963D01*
X127990442Y-75854482D01*
X127924260Y-75861000D01*
X127835740Y-75861000D01*
X127769558Y-75854482D01*
X127703373Y-75847963D01*
X127533534Y-75796443D01*
X127377009Y-75712778D01*
X127341271Y-75683448D01*
X127239814Y-75600186D01*
X127156552Y-75498729D01*
X127127222Y-75462991D01*
X127043557Y-75306466D01*
X126992037Y-75136627D01*
X126974641Y-74960000D01*
X126992037Y-74783373D01*
X127043557Y-74613534D01*
X127127222Y-74457009D01*
X127187033Y-74384129D01*
X127239814Y-74319814D01*
X127341271Y-74236552D01*
X127377009Y-74207222D01*
X127533534Y-74123557D01*
X127703373Y-74072037D01*
X127769557Y-74065519D01*
X127835740Y-74059000D01*
X127924260Y-74059000D01*
X127990443Y-74065519D01*
X127990443Y-74065519D01*
G37*
G36*
X130530443Y-74065519D02*
G01*
X130596627Y-74072037D01*
X130766466Y-74123557D01*
X130922991Y-74207222D01*
X130958729Y-74236552D01*
X131060186Y-74319814D01*
X131112967Y-74384129D01*
X131172778Y-74457009D01*
X131256443Y-74613534D01*
X131307963Y-74783373D01*
X131325359Y-74960000D01*
X131307963Y-75136627D01*
X131256443Y-75306466D01*
X131172778Y-75462991D01*
X131143448Y-75498729D01*
X131060186Y-75600186D01*
X130958729Y-75683448D01*
X130922991Y-75712778D01*
X130766466Y-75796443D01*
X130596627Y-75847963D01*
X130530442Y-75854482D01*
X130464260Y-75861000D01*
X130375740Y-75861000D01*
X130309558Y-75854482D01*
X130243373Y-75847963D01*
X130073534Y-75796443D01*
X129917009Y-75712778D01*
X129881271Y-75683448D01*
X129779814Y-75600186D01*
X129696552Y-75498729D01*
X129667222Y-75462991D01*
X129583557Y-75306466D01*
X129532037Y-75136627D01*
X129514641Y-74960000D01*
X129532037Y-74783373D01*
X129583557Y-74613534D01*
X129667222Y-74457009D01*
X129727033Y-74384129D01*
X129779814Y-74319814D01*
X129881271Y-74236552D01*
X129917009Y-74207222D01*
X130073534Y-74123557D01*
X130243373Y-74072037D01*
X130309557Y-74065519D01*
X130375740Y-74059000D01*
X130464260Y-74059000D01*
X130530443Y-74065519D01*
X130530443Y-74065519D01*
G37*
G36*
X133070443Y-74065519D02*
G01*
X133136627Y-74072037D01*
X133306466Y-74123557D01*
X133462991Y-74207222D01*
X133498729Y-74236552D01*
X133600186Y-74319814D01*
X133652967Y-74384129D01*
X133712778Y-74457009D01*
X133796443Y-74613534D01*
X133847963Y-74783373D01*
X133865359Y-74960000D01*
X133847963Y-75136627D01*
X133796443Y-75306466D01*
X133712778Y-75462991D01*
X133683448Y-75498729D01*
X133600186Y-75600186D01*
X133498729Y-75683448D01*
X133462991Y-75712778D01*
X133306466Y-75796443D01*
X133136627Y-75847963D01*
X133070442Y-75854482D01*
X133004260Y-75861000D01*
X132915740Y-75861000D01*
X132849558Y-75854482D01*
X132783373Y-75847963D01*
X132613534Y-75796443D01*
X132457009Y-75712778D01*
X132421271Y-75683448D01*
X132319814Y-75600186D01*
X132236552Y-75498729D01*
X132207222Y-75462991D01*
X132123557Y-75306466D01*
X132072037Y-75136627D01*
X132054641Y-74960000D01*
X132072037Y-74783373D01*
X132123557Y-74613534D01*
X132207222Y-74457009D01*
X132267033Y-74384129D01*
X132319814Y-74319814D01*
X132421271Y-74236552D01*
X132457009Y-74207222D01*
X132613534Y-74123557D01*
X132783373Y-74072037D01*
X132849557Y-74065519D01*
X132915740Y-74059000D01*
X133004260Y-74059000D01*
X133070443Y-74065519D01*
X133070443Y-74065519D01*
G37*
G36*
X138150443Y-74065519D02*
G01*
X138216627Y-74072037D01*
X138386466Y-74123557D01*
X138542991Y-74207222D01*
X138578729Y-74236552D01*
X138680186Y-74319814D01*
X138732967Y-74384129D01*
X138792778Y-74457009D01*
X138876443Y-74613534D01*
X138927963Y-74783373D01*
X138945359Y-74960000D01*
X138927963Y-75136627D01*
X138876443Y-75306466D01*
X138792778Y-75462991D01*
X138763448Y-75498729D01*
X138680186Y-75600186D01*
X138578729Y-75683448D01*
X138542991Y-75712778D01*
X138386466Y-75796443D01*
X138216627Y-75847963D01*
X138150442Y-75854482D01*
X138084260Y-75861000D01*
X137995740Y-75861000D01*
X137929558Y-75854482D01*
X137863373Y-75847963D01*
X137693534Y-75796443D01*
X137537009Y-75712778D01*
X137501271Y-75683448D01*
X137399814Y-75600186D01*
X137316552Y-75498729D01*
X137287222Y-75462991D01*
X137203557Y-75306466D01*
X137152037Y-75136627D01*
X137134641Y-74960000D01*
X137152037Y-74783373D01*
X137203557Y-74613534D01*
X137287222Y-74457009D01*
X137347033Y-74384129D01*
X137399814Y-74319814D01*
X137501271Y-74236552D01*
X137537009Y-74207222D01*
X137693534Y-74123557D01*
X137863373Y-74072037D01*
X137929557Y-74065519D01*
X137995740Y-74059000D01*
X138084260Y-74059000D01*
X138150443Y-74065519D01*
X138150443Y-74065519D01*
G37*
G36*
X140690443Y-74065519D02*
G01*
X140756627Y-74072037D01*
X140926466Y-74123557D01*
X141082991Y-74207222D01*
X141118729Y-74236552D01*
X141220186Y-74319814D01*
X141272967Y-74384129D01*
X141332778Y-74457009D01*
X141416443Y-74613534D01*
X141467963Y-74783373D01*
X141485359Y-74960000D01*
X141467963Y-75136627D01*
X141416443Y-75306466D01*
X141332778Y-75462991D01*
X141303448Y-75498729D01*
X141220186Y-75600186D01*
X141118729Y-75683448D01*
X141082991Y-75712778D01*
X140926466Y-75796443D01*
X140756627Y-75847963D01*
X140690442Y-75854482D01*
X140624260Y-75861000D01*
X140535740Y-75861000D01*
X140469558Y-75854482D01*
X140403373Y-75847963D01*
X140233534Y-75796443D01*
X140077009Y-75712778D01*
X140041271Y-75683448D01*
X139939814Y-75600186D01*
X139856552Y-75498729D01*
X139827222Y-75462991D01*
X139743557Y-75306466D01*
X139692037Y-75136627D01*
X139674641Y-74960000D01*
X139692037Y-74783373D01*
X139743557Y-74613534D01*
X139827222Y-74457009D01*
X139887033Y-74384129D01*
X139939814Y-74319814D01*
X140041271Y-74236552D01*
X140077009Y-74207222D01*
X140233534Y-74123557D01*
X140403373Y-74072037D01*
X140469557Y-74065519D01*
X140535740Y-74059000D01*
X140624260Y-74059000D01*
X140690443Y-74065519D01*
X140690443Y-74065519D01*
G37*
G36*
X143230443Y-74065519D02*
G01*
X143296627Y-74072037D01*
X143466466Y-74123557D01*
X143622991Y-74207222D01*
X143658729Y-74236552D01*
X143760186Y-74319814D01*
X143812967Y-74384129D01*
X143872778Y-74457009D01*
X143956443Y-74613534D01*
X144007963Y-74783373D01*
X144025359Y-74960000D01*
X144007963Y-75136627D01*
X143956443Y-75306466D01*
X143872778Y-75462991D01*
X143843448Y-75498729D01*
X143760186Y-75600186D01*
X143658729Y-75683448D01*
X143622991Y-75712778D01*
X143466466Y-75796443D01*
X143296627Y-75847963D01*
X143230442Y-75854482D01*
X143164260Y-75861000D01*
X143075740Y-75861000D01*
X143009558Y-75854482D01*
X142943373Y-75847963D01*
X142773534Y-75796443D01*
X142617009Y-75712778D01*
X142581271Y-75683448D01*
X142479814Y-75600186D01*
X142396552Y-75498729D01*
X142367222Y-75462991D01*
X142283557Y-75306466D01*
X142232037Y-75136627D01*
X142214641Y-74960000D01*
X142232037Y-74783373D01*
X142283557Y-74613534D01*
X142367222Y-74457009D01*
X142427033Y-74384129D01*
X142479814Y-74319814D01*
X142581271Y-74236552D01*
X142617009Y-74207222D01*
X142773534Y-74123557D01*
X142943373Y-74072037D01*
X143009557Y-74065519D01*
X143075740Y-74059000D01*
X143164260Y-74059000D01*
X143230443Y-74065519D01*
X143230443Y-74065519D01*
G37*
G36*
X145770443Y-74065519D02*
G01*
X145836627Y-74072037D01*
X146006466Y-74123557D01*
X146162991Y-74207222D01*
X146198729Y-74236552D01*
X146300186Y-74319814D01*
X146352967Y-74384129D01*
X146412778Y-74457009D01*
X146496443Y-74613534D01*
X146547963Y-74783373D01*
X146565359Y-74960000D01*
X146547963Y-75136627D01*
X146496443Y-75306466D01*
X146412778Y-75462991D01*
X146383448Y-75498729D01*
X146300186Y-75600186D01*
X146198729Y-75683448D01*
X146162991Y-75712778D01*
X146006466Y-75796443D01*
X145836627Y-75847963D01*
X145770442Y-75854482D01*
X145704260Y-75861000D01*
X145615740Y-75861000D01*
X145549558Y-75854482D01*
X145483373Y-75847963D01*
X145313534Y-75796443D01*
X145157009Y-75712778D01*
X145121271Y-75683448D01*
X145019814Y-75600186D01*
X144936552Y-75498729D01*
X144907222Y-75462991D01*
X144823557Y-75306466D01*
X144772037Y-75136627D01*
X144754641Y-74960000D01*
X144772037Y-74783373D01*
X144823557Y-74613534D01*
X144907222Y-74457009D01*
X144967033Y-74384129D01*
X145019814Y-74319814D01*
X145121271Y-74236552D01*
X145157009Y-74207222D01*
X145313534Y-74123557D01*
X145483373Y-74072037D01*
X145549557Y-74065519D01*
X145615740Y-74059000D01*
X145704260Y-74059000D01*
X145770443Y-74065519D01*
X145770443Y-74065519D01*
G37*
G36*
X149101000Y-75861000D02*
G01*
X147299000Y-75861000D01*
X147299000Y-74059000D01*
X149101000Y-74059000D01*
X149101000Y-75861000D01*
X149101000Y-75861000D01*
G37*
G36*
X169214908Y-68311380D02*
G01*
X169381767Y-68344570D01*
X169853299Y-68539885D01*
X170096029Y-68702073D01*
X170277666Y-68823438D01*
X170638562Y-69184334D01*
X170746247Y-69345497D01*
X170922115Y-69608701D01*
X171117430Y-70080233D01*
X171117430Y-70080234D01*
X171217000Y-70580807D01*
X171217000Y-71091193D01*
X171150620Y-71424908D01*
X171117430Y-71591767D01*
X170922115Y-72063299D01*
X170759927Y-72306029D01*
X170638562Y-72487666D01*
X170277666Y-72848562D01*
X170096029Y-72969927D01*
X169853299Y-73132115D01*
X169381767Y-73327430D01*
X169214908Y-73360620D01*
X168881193Y-73427000D01*
X168370807Y-73427000D01*
X168037092Y-73360620D01*
X167870233Y-73327430D01*
X167398701Y-73132115D01*
X167155971Y-72969927D01*
X166974334Y-72848562D01*
X166613438Y-72487666D01*
X166492073Y-72306029D01*
X166329885Y-72063299D01*
X166134570Y-71591767D01*
X166101380Y-71424908D01*
X166035000Y-71091193D01*
X166035000Y-70580807D01*
X166134570Y-70080234D01*
X166134570Y-70080233D01*
X166329885Y-69608701D01*
X166505753Y-69345497D01*
X166613438Y-69184334D01*
X166974334Y-68823438D01*
X167155971Y-68702073D01*
X167398701Y-68539885D01*
X167870233Y-68344570D01*
X168037092Y-68311380D01*
X168370807Y-68245000D01*
X168881193Y-68245000D01*
X169214908Y-68311380D01*
X169214908Y-68311380D01*
G37*
G36*
X84124908Y-68311380D02*
G01*
X84291767Y-68344570D01*
X84763299Y-68539885D01*
X85006029Y-68702073D01*
X85187666Y-68823438D01*
X85548562Y-69184334D01*
X85656247Y-69345497D01*
X85832115Y-69608701D01*
X86027430Y-70080233D01*
X86027430Y-70080234D01*
X86127000Y-70580807D01*
X86127000Y-71091193D01*
X86060620Y-71424908D01*
X86027430Y-71591767D01*
X85832115Y-72063299D01*
X85669927Y-72306029D01*
X85548562Y-72487666D01*
X85187666Y-72848562D01*
X85006029Y-72969927D01*
X84763299Y-73132115D01*
X84291767Y-73327430D01*
X84124908Y-73360620D01*
X83791193Y-73427000D01*
X83280807Y-73427000D01*
X82947092Y-73360620D01*
X82780233Y-73327430D01*
X82308701Y-73132115D01*
X82065971Y-72969927D01*
X81884334Y-72848562D01*
X81523438Y-72487666D01*
X81402073Y-72306029D01*
X81239885Y-72063299D01*
X81044570Y-71591767D01*
X81011380Y-71424908D01*
X80945000Y-71091193D01*
X80945000Y-70580807D01*
X81044570Y-70080234D01*
X81044570Y-70080233D01*
X81239885Y-69608701D01*
X81415753Y-69345497D01*
X81523438Y-69184334D01*
X81884334Y-68823438D01*
X82065971Y-68702073D01*
X82308701Y-68539885D01*
X82780233Y-68344570D01*
X82947092Y-68311380D01*
X83280807Y-68245000D01*
X83791193Y-68245000D01*
X84124908Y-68311380D01*
X84124908Y-68311380D01*
G37*
M02*
