G04 #@! TF.GenerationSoftware,KiCad,Pcbnew,(5.1.4)-1*
G04 #@! TF.CreationDate,2020-03-13T16:12:29-04:00*
G04 #@! TF.ProjectId,DriverDisplay4,44726976-6572-4446-9973-706c6179342e,rev?*
G04 #@! TF.SameCoordinates,Original*
G04 #@! TF.FileFunction,Legend,Top*
G04 #@! TF.FilePolarity,Positive*
%FSLAX46Y46*%
G04 Gerber Fmt 4.6, Leading zero omitted, Abs format (unit mm)*
G04 Created by KiCad (PCBNEW (5.1.4)-1) date 2020-03-13 16:12:29*
%MOMM*%
%LPD*%
G04 APERTURE LIST*
%ADD10C,0.120000*%
%ADD11C,0.150000*%
G04 APERTURE END LIST*
D10*
X95270000Y-68156000D02*
X99520000Y-68156000D01*
X99520000Y-68156000D02*
X99520000Y-69176000D01*
X99520000Y-69176000D02*
X97920000Y-69176000D01*
X97920000Y-69176000D02*
X97920000Y-70456000D01*
X97920000Y-70456000D02*
X100810000Y-70456000D01*
X95270000Y-88276000D02*
X99520000Y-88276000D01*
X99520000Y-88276000D02*
X99520000Y-87256000D01*
X99520000Y-87256000D02*
X97920000Y-87256000D01*
X97920000Y-87256000D02*
X97920000Y-85976000D01*
X91700000Y-69876000D02*
X91700000Y-86556000D01*
D11*
X153100000Y-101960000D02*
X153100000Y-73610000D01*
X144500000Y-101960000D02*
X153050000Y-101960000D01*
X153000000Y-73660000D02*
X101600000Y-73660000D01*
X101600000Y-73660000D02*
X101600000Y-101960000D01*
X101600000Y-101960000D02*
X144600000Y-101960000D01*
D10*
X149630000Y-99330000D02*
X149630000Y-100660000D01*
X148300000Y-99330000D02*
X149630000Y-99330000D01*
X146630000Y-99230000D02*
X146630000Y-101890000D01*
X146630000Y-101890000D02*
X111010000Y-101890000D01*
X147030000Y-99330000D02*
X111410000Y-99330000D01*
X111010000Y-99230000D02*
X111010000Y-101890000D01*
X111010000Y-99230000D02*
X111010000Y-101890000D01*
X147030000Y-99330000D02*
X111410000Y-99330000D01*
X146630000Y-101890000D02*
X111010000Y-101890000D01*
X146630000Y-99230000D02*
X146630000Y-101890000D01*
X148300000Y-99330000D02*
X149630000Y-99330000D01*
X149630000Y-99330000D02*
X149630000Y-100660000D01*
X149530000Y-73630000D02*
X149530000Y-74960000D01*
X148200000Y-73630000D02*
X149530000Y-73630000D01*
X146930000Y-73630000D02*
X146930000Y-76290000D01*
X146930000Y-76290000D02*
X111310000Y-76290000D01*
X146930000Y-73630000D02*
X111310000Y-73630000D01*
X111310000Y-73630000D02*
X111310000Y-76290000D01*
X111310000Y-73630000D02*
X111310000Y-76290000D01*
X146930000Y-73630000D02*
X111310000Y-73630000D01*
X146930000Y-76290000D02*
X111310000Y-76290000D01*
X146930000Y-73630000D02*
X146930000Y-76290000D01*
X148200000Y-73630000D02*
X149530000Y-73630000D01*
X149530000Y-73630000D02*
X149530000Y-74960000D01*
X132100000Y-87630000D02*
X132100000Y-85680000D01*
X132100000Y-87630000D02*
X132100000Y-89580000D01*
X126980000Y-87630000D02*
X126980000Y-85680000D01*
X126980000Y-87630000D02*
X126980000Y-91080000D01*
X164838748Y-92000000D02*
X165361252Y-92000000D01*
X164838748Y-93420000D02*
X165361252Y-93420000D01*
X165083748Y-81990000D02*
X165606252Y-81990000D01*
X165083748Y-80570000D02*
X165606252Y-80570000D01*
X125170000Y-87646252D02*
X125170000Y-87123748D01*
X123750000Y-87646252D02*
X123750000Y-87123748D01*
X129278748Y-80570000D02*
X129801252Y-80570000D01*
X129278748Y-81990000D02*
X129801252Y-81990000D01*
X161551252Y-88190000D02*
X161028748Y-88190000D01*
X161551252Y-89610000D02*
X161028748Y-89610000D01*
X159011252Y-92000000D02*
X158488748Y-92000000D01*
X159011252Y-93420000D02*
X158488748Y-93420000D01*
X161551252Y-84380000D02*
X161028748Y-84380000D01*
X161551252Y-85800000D02*
X161028748Y-85800000D01*
X162000000Y-72128748D02*
X162000000Y-72651252D01*
X160580000Y-72128748D02*
X160580000Y-72651252D01*
X162000000Y-77731252D02*
X162000000Y-77208748D01*
X160580000Y-77731252D02*
X160580000Y-77208748D01*
X160580000Y-103131252D02*
X160580000Y-102608748D01*
X162000000Y-103131252D02*
X162000000Y-102608748D01*
X160580000Y-97806252D02*
X160580000Y-97283748D01*
X162000000Y-97806252D02*
X162000000Y-97283748D01*
X157741252Y-81990000D02*
X157218748Y-81990000D01*
X157741252Y-80570000D02*
X157218748Y-80570000D01*
X108973252Y-78411000D02*
X108450748Y-78411000D01*
X108973252Y-79831000D02*
X108450748Y-79831000D01*
X113911748Y-79831000D02*
X114434252Y-79831000D01*
X113911748Y-78411000D02*
X114434252Y-78411000D01*
X121776748Y-90730000D02*
X122299252Y-90730000D01*
X121776748Y-92150000D02*
X122299252Y-92150000D01*
X119895252Y-79831000D02*
X119372748Y-79831000D01*
X119895252Y-78411000D02*
X119372748Y-78411000D01*
X95326000Y-89857000D02*
X99576000Y-89857000D01*
X99576000Y-89857000D02*
X99576000Y-90877000D01*
X99576000Y-90877000D02*
X97976000Y-90877000D01*
X97976000Y-90877000D02*
X97976000Y-92157000D01*
X97976000Y-92157000D02*
X100866000Y-92157000D01*
X95326000Y-105977000D02*
X99576000Y-105977000D01*
X99576000Y-105977000D02*
X99576000Y-104957000D01*
X99576000Y-104957000D02*
X97976000Y-104957000D01*
X97976000Y-104957000D02*
X97976000Y-103677000D01*
X91756000Y-91577000D02*
X91756000Y-104257000D01*
X113939000Y-85252000D02*
X113939000Y-81802000D01*
X113939000Y-85252000D02*
X113939000Y-87202000D01*
X108819000Y-85252000D02*
X108819000Y-83302000D01*
X108819000Y-85252000D02*
X108819000Y-87202000D01*
X115296000Y-85217000D02*
X115296000Y-87167000D01*
X115296000Y-85217000D02*
X115296000Y-83267000D01*
X120416000Y-85217000D02*
X120416000Y-87167000D01*
X120416000Y-85217000D02*
X120416000Y-81767000D01*
X74625000Y-82935000D02*
X78875000Y-82935000D01*
X78875000Y-82935000D02*
X78875000Y-83955000D01*
X78875000Y-83955000D02*
X77275000Y-83955000D01*
X77275000Y-83955000D02*
X77275000Y-85235000D01*
X77275000Y-85235000D02*
X80165000Y-85235000D01*
X74625000Y-91055000D02*
X78875000Y-91055000D01*
X78875000Y-91055000D02*
X78875000Y-90035000D01*
X78875000Y-90035000D02*
X77275000Y-90035000D01*
X77275000Y-90035000D02*
X77275000Y-88755000D01*
X71055000Y-84655000D02*
X71055000Y-89335000D01*
X90099000Y-78488000D02*
X89169000Y-78488000D01*
X86939000Y-78488000D02*
X87869000Y-78488000D01*
X86939000Y-78488000D02*
X86939000Y-80648000D01*
X90099000Y-78488000D02*
X90099000Y-79948000D01*
X83701000Y-88365000D02*
X83041000Y-88365000D01*
X85371000Y-88365000D02*
X84701000Y-88365000D01*
X85361000Y-88365000D02*
X85361000Y-85630000D01*
X83041000Y-86955000D02*
X83041000Y-88365000D01*
X81272748Y-76379000D02*
X81795252Y-76379000D01*
X81272748Y-77799000D02*
X81795252Y-77799000D01*
X87241748Y-95960000D02*
X87764252Y-95960000D01*
X87241748Y-94540000D02*
X87764252Y-94540000D01*
X82049252Y-95960000D02*
X81526748Y-95960000D01*
X82049252Y-94540000D02*
X81526748Y-94540000D01*
D11*
X89622380Y-78184333D02*
X90336666Y-78184333D01*
X90479523Y-78231952D01*
X90574761Y-78327190D01*
X90622380Y-78470047D01*
X90622380Y-78565285D01*
X89717619Y-77755761D02*
X89670000Y-77708142D01*
X89622380Y-77612904D01*
X89622380Y-77374809D01*
X89670000Y-77279571D01*
X89717619Y-77231952D01*
X89812857Y-77184333D01*
X89908095Y-77184333D01*
X90050952Y-77231952D01*
X90622380Y-77803380D01*
X90622380Y-77184333D01*
X153979571Y-90376047D02*
X153979571Y-90042714D01*
X154503380Y-89899857D02*
X154503380Y-90376047D01*
X153503380Y-90376047D01*
X153503380Y-89899857D01*
X154455761Y-89518904D02*
X154503380Y-89376047D01*
X154503380Y-89137952D01*
X154455761Y-89042714D01*
X154408142Y-88995095D01*
X154312904Y-88947476D01*
X154217666Y-88947476D01*
X154122428Y-88995095D01*
X154074809Y-89042714D01*
X154027190Y-89137952D01*
X153979571Y-89328428D01*
X153931952Y-89423666D01*
X153884333Y-89471285D01*
X153789095Y-89518904D01*
X153693857Y-89518904D01*
X153598619Y-89471285D01*
X153551000Y-89423666D01*
X153503380Y-89328428D01*
X153503380Y-89090333D01*
X153551000Y-88947476D01*
X154503380Y-88518904D02*
X153503380Y-88518904D01*
X153503380Y-88137952D01*
X153551000Y-88042714D01*
X153598619Y-87995095D01*
X153693857Y-87947476D01*
X153836714Y-87947476D01*
X153931952Y-87995095D01*
X153979571Y-88042714D01*
X154027190Y-88137952D01*
X154027190Y-88518904D01*
X153503380Y-87614142D02*
X153503380Y-86995095D01*
X153884333Y-87328428D01*
X153884333Y-87185571D01*
X153931952Y-87090333D01*
X153979571Y-87042714D01*
X154074809Y-86995095D01*
X154312904Y-86995095D01*
X154408142Y-87042714D01*
X154455761Y-87090333D01*
X154503380Y-87185571D01*
X154503380Y-87471285D01*
X154455761Y-87566523D01*
X154408142Y-87614142D01*
X153598619Y-86614142D02*
X153551000Y-86566523D01*
X153503380Y-86471285D01*
X153503380Y-86233190D01*
X153551000Y-86137952D01*
X153598619Y-86090333D01*
X153693857Y-86042714D01*
X153789095Y-86042714D01*
X153931952Y-86090333D01*
X154503380Y-86661761D01*
X154503380Y-86042714D01*
X154503380Y-85090333D02*
X154503380Y-85661761D01*
X154503380Y-85376047D02*
X153503380Y-85376047D01*
X153646238Y-85471285D01*
X153741476Y-85566523D01*
X153789095Y-85661761D01*
X147600000Y-108362380D02*
X147552380Y-108457619D01*
X147552380Y-108600476D01*
X147600000Y-108743333D01*
X147695238Y-108838571D01*
X147790476Y-108886190D01*
X147980952Y-108933809D01*
X148123809Y-108933809D01*
X148314285Y-108886190D01*
X148409523Y-108838571D01*
X148504761Y-108743333D01*
X148552380Y-108600476D01*
X148552380Y-108505238D01*
X148504761Y-108362380D01*
X148457142Y-108314761D01*
X148123809Y-108314761D01*
X148123809Y-108505238D01*
X148552380Y-107886190D02*
X147552380Y-107886190D01*
X147552380Y-107505238D01*
X147600000Y-107410000D01*
X147647619Y-107362380D01*
X147742857Y-107314761D01*
X147885714Y-107314761D01*
X147980952Y-107362380D01*
X148028571Y-107410000D01*
X148076190Y-107505238D01*
X148076190Y-107886190D01*
X148552380Y-106886190D02*
X147552380Y-106886190D01*
X147552380Y-106219523D02*
X147552380Y-106029047D01*
X147600000Y-105933809D01*
X147695238Y-105838571D01*
X147885714Y-105790952D01*
X148219047Y-105790952D01*
X148409523Y-105838571D01*
X148504761Y-105933809D01*
X148552380Y-106029047D01*
X148552380Y-106219523D01*
X148504761Y-106314761D01*
X148409523Y-106410000D01*
X148219047Y-106457619D01*
X147885714Y-106457619D01*
X147695238Y-106410000D01*
X147600000Y-106314761D01*
X147552380Y-106219523D01*
X147647619Y-105410000D02*
X147600000Y-105362380D01*
X147552380Y-105267142D01*
X147552380Y-105029047D01*
X147600000Y-104933809D01*
X147647619Y-104886190D01*
X147742857Y-104838571D01*
X147838095Y-104838571D01*
X147980952Y-104886190D01*
X148552380Y-105457619D01*
X148552380Y-104838571D01*
X147552380Y-104505238D02*
X147552380Y-103886190D01*
X147933333Y-104219523D01*
X147933333Y-104076666D01*
X147980952Y-103981428D01*
X148028571Y-103933809D01*
X148123809Y-103886190D01*
X148361904Y-103886190D01*
X148457142Y-103933809D01*
X148504761Y-103981428D01*
X148552380Y-104076666D01*
X148552380Y-104362380D01*
X148504761Y-104457619D01*
X148457142Y-104505238D01*
X145100000Y-108362380D02*
X145052380Y-108457619D01*
X145052380Y-108600476D01*
X145100000Y-108743333D01*
X145195238Y-108838571D01*
X145290476Y-108886190D01*
X145480952Y-108933809D01*
X145623809Y-108933809D01*
X145814285Y-108886190D01*
X145909523Y-108838571D01*
X146004761Y-108743333D01*
X146052380Y-108600476D01*
X146052380Y-108505238D01*
X146004761Y-108362380D01*
X145957142Y-108314761D01*
X145623809Y-108314761D01*
X145623809Y-108505238D01*
X146052380Y-107886190D02*
X145052380Y-107886190D01*
X145052380Y-107505238D01*
X145100000Y-107410000D01*
X145147619Y-107362380D01*
X145242857Y-107314761D01*
X145385714Y-107314761D01*
X145480952Y-107362380D01*
X145528571Y-107410000D01*
X145576190Y-107505238D01*
X145576190Y-107886190D01*
X146052380Y-106886190D02*
X145052380Y-106886190D01*
X145052380Y-106219523D02*
X145052380Y-106029047D01*
X145100000Y-105933809D01*
X145195238Y-105838571D01*
X145385714Y-105790952D01*
X145719047Y-105790952D01*
X145909523Y-105838571D01*
X146004761Y-105933809D01*
X146052380Y-106029047D01*
X146052380Y-106219523D01*
X146004761Y-106314761D01*
X145909523Y-106410000D01*
X145719047Y-106457619D01*
X145385714Y-106457619D01*
X145195238Y-106410000D01*
X145100000Y-106314761D01*
X145052380Y-106219523D01*
X145147619Y-105410000D02*
X145100000Y-105362380D01*
X145052380Y-105267142D01*
X145052380Y-105029047D01*
X145100000Y-104933809D01*
X145147619Y-104886190D01*
X145242857Y-104838571D01*
X145338095Y-104838571D01*
X145480952Y-104886190D01*
X146052380Y-105457619D01*
X146052380Y-104838571D01*
X145147619Y-104457619D02*
X145100000Y-104410000D01*
X145052380Y-104314761D01*
X145052380Y-104076666D01*
X145100000Y-103981428D01*
X145147619Y-103933809D01*
X145242857Y-103886190D01*
X145338095Y-103886190D01*
X145480952Y-103933809D01*
X146052380Y-104505238D01*
X146052380Y-103886190D01*
X142600000Y-107386190D02*
X142552380Y-107481428D01*
X142552380Y-107624285D01*
X142600000Y-107767142D01*
X142695238Y-107862380D01*
X142790476Y-107910000D01*
X142980952Y-107957619D01*
X143123809Y-107957619D01*
X143314285Y-107910000D01*
X143409523Y-107862380D01*
X143504761Y-107767142D01*
X143552380Y-107624285D01*
X143552380Y-107529047D01*
X143504761Y-107386190D01*
X143457142Y-107338571D01*
X143123809Y-107338571D01*
X143123809Y-107529047D01*
X143552380Y-106910000D02*
X142552380Y-106910000D01*
X142552380Y-106529047D01*
X142600000Y-106433809D01*
X142647619Y-106386190D01*
X142742857Y-106338571D01*
X142885714Y-106338571D01*
X142980952Y-106386190D01*
X143028571Y-106433809D01*
X143076190Y-106529047D01*
X143076190Y-106910000D01*
X143552380Y-105910000D02*
X142552380Y-105910000D01*
X142552380Y-105243333D02*
X142552380Y-105052857D01*
X142600000Y-104957619D01*
X142695238Y-104862380D01*
X142885714Y-104814761D01*
X143219047Y-104814761D01*
X143409523Y-104862380D01*
X143504761Y-104957619D01*
X143552380Y-105052857D01*
X143552380Y-105243333D01*
X143504761Y-105338571D01*
X143409523Y-105433809D01*
X143219047Y-105481428D01*
X142885714Y-105481428D01*
X142695238Y-105433809D01*
X142600000Y-105338571D01*
X142552380Y-105243333D01*
X143552380Y-103862380D02*
X143552380Y-104433809D01*
X143552380Y-104148095D02*
X142552380Y-104148095D01*
X142695238Y-104243333D01*
X142790476Y-104338571D01*
X142838095Y-104433809D01*
X140100000Y-107386190D02*
X140052380Y-107481428D01*
X140052380Y-107624285D01*
X140100000Y-107767142D01*
X140195238Y-107862380D01*
X140290476Y-107910000D01*
X140480952Y-107957619D01*
X140623809Y-107957619D01*
X140814285Y-107910000D01*
X140909523Y-107862380D01*
X141004761Y-107767142D01*
X141052380Y-107624285D01*
X141052380Y-107529047D01*
X141004761Y-107386190D01*
X140957142Y-107338571D01*
X140623809Y-107338571D01*
X140623809Y-107529047D01*
X141052380Y-106910000D02*
X140052380Y-106910000D01*
X140052380Y-106529047D01*
X140100000Y-106433809D01*
X140147619Y-106386190D01*
X140242857Y-106338571D01*
X140385714Y-106338571D01*
X140480952Y-106386190D01*
X140528571Y-106433809D01*
X140576190Y-106529047D01*
X140576190Y-106910000D01*
X141052380Y-105910000D02*
X140052380Y-105910000D01*
X140052380Y-105243333D02*
X140052380Y-105052857D01*
X140100000Y-104957619D01*
X140195238Y-104862380D01*
X140385714Y-104814761D01*
X140719047Y-104814761D01*
X140909523Y-104862380D01*
X141004761Y-104957619D01*
X141052380Y-105052857D01*
X141052380Y-105243333D01*
X141004761Y-105338571D01*
X140909523Y-105433809D01*
X140719047Y-105481428D01*
X140385714Y-105481428D01*
X140195238Y-105433809D01*
X140100000Y-105338571D01*
X140052380Y-105243333D01*
X140052380Y-104481428D02*
X140052380Y-103862380D01*
X140433333Y-104195714D01*
X140433333Y-104052857D01*
X140480952Y-103957619D01*
X140528571Y-103910000D01*
X140623809Y-103862380D01*
X140861904Y-103862380D01*
X140957142Y-103910000D01*
X141004761Y-103957619D01*
X141052380Y-104052857D01*
X141052380Y-104338571D01*
X141004761Y-104433809D01*
X140957142Y-104481428D01*
X137600000Y-108362380D02*
X137552380Y-108457619D01*
X137552380Y-108600476D01*
X137600000Y-108743333D01*
X137695238Y-108838571D01*
X137790476Y-108886190D01*
X137980952Y-108933809D01*
X138123809Y-108933809D01*
X138314285Y-108886190D01*
X138409523Y-108838571D01*
X138504761Y-108743333D01*
X138552380Y-108600476D01*
X138552380Y-108505238D01*
X138504761Y-108362380D01*
X138457142Y-108314761D01*
X138123809Y-108314761D01*
X138123809Y-108505238D01*
X138552380Y-107886190D02*
X137552380Y-107886190D01*
X137552380Y-107505238D01*
X137600000Y-107410000D01*
X137647619Y-107362380D01*
X137742857Y-107314761D01*
X137885714Y-107314761D01*
X137980952Y-107362380D01*
X138028571Y-107410000D01*
X138076190Y-107505238D01*
X138076190Y-107886190D01*
X138552380Y-106886190D02*
X137552380Y-106886190D01*
X137552380Y-106219523D02*
X137552380Y-106029047D01*
X137600000Y-105933809D01*
X137695238Y-105838571D01*
X137885714Y-105790952D01*
X138219047Y-105790952D01*
X138409523Y-105838571D01*
X138504761Y-105933809D01*
X138552380Y-106029047D01*
X138552380Y-106219523D01*
X138504761Y-106314761D01*
X138409523Y-106410000D01*
X138219047Y-106457619D01*
X137885714Y-106457619D01*
X137695238Y-106410000D01*
X137600000Y-106314761D01*
X137552380Y-106219523D01*
X137647619Y-105410000D02*
X137600000Y-105362380D01*
X137552380Y-105267142D01*
X137552380Y-105029047D01*
X137600000Y-104933809D01*
X137647619Y-104886190D01*
X137742857Y-104838571D01*
X137838095Y-104838571D01*
X137980952Y-104886190D01*
X138552380Y-105457619D01*
X138552380Y-104838571D01*
X138552380Y-103886190D02*
X138552380Y-104457619D01*
X138552380Y-104171904D02*
X137552380Y-104171904D01*
X137695238Y-104267142D01*
X137790476Y-104362380D01*
X137838095Y-104457619D01*
X135100000Y-108362380D02*
X135052380Y-108457619D01*
X135052380Y-108600476D01*
X135100000Y-108743333D01*
X135195238Y-108838571D01*
X135290476Y-108886190D01*
X135480952Y-108933809D01*
X135623809Y-108933809D01*
X135814285Y-108886190D01*
X135909523Y-108838571D01*
X136004761Y-108743333D01*
X136052380Y-108600476D01*
X136052380Y-108505238D01*
X136004761Y-108362380D01*
X135957142Y-108314761D01*
X135623809Y-108314761D01*
X135623809Y-108505238D01*
X136052380Y-107886190D02*
X135052380Y-107886190D01*
X135052380Y-107505238D01*
X135100000Y-107410000D01*
X135147619Y-107362380D01*
X135242857Y-107314761D01*
X135385714Y-107314761D01*
X135480952Y-107362380D01*
X135528571Y-107410000D01*
X135576190Y-107505238D01*
X135576190Y-107886190D01*
X136052380Y-106886190D02*
X135052380Y-106886190D01*
X135052380Y-106219523D02*
X135052380Y-106029047D01*
X135100000Y-105933809D01*
X135195238Y-105838571D01*
X135385714Y-105790952D01*
X135719047Y-105790952D01*
X135909523Y-105838571D01*
X136004761Y-105933809D01*
X136052380Y-106029047D01*
X136052380Y-106219523D01*
X136004761Y-106314761D01*
X135909523Y-106410000D01*
X135719047Y-106457619D01*
X135385714Y-106457619D01*
X135195238Y-106410000D01*
X135100000Y-106314761D01*
X135052380Y-106219523D01*
X136052380Y-104838571D02*
X136052380Y-105410000D01*
X136052380Y-105124285D02*
X135052380Y-105124285D01*
X135195238Y-105219523D01*
X135290476Y-105314761D01*
X135338095Y-105410000D01*
X136052380Y-104362380D02*
X136052380Y-104171904D01*
X136004761Y-104076666D01*
X135957142Y-104029047D01*
X135814285Y-103933809D01*
X135623809Y-103886190D01*
X135242857Y-103886190D01*
X135147619Y-103933809D01*
X135100000Y-103981428D01*
X135052380Y-104076666D01*
X135052380Y-104267142D01*
X135100000Y-104362380D01*
X135147619Y-104410000D01*
X135242857Y-104457619D01*
X135480952Y-104457619D01*
X135576190Y-104410000D01*
X135623809Y-104362380D01*
X135671428Y-104267142D01*
X135671428Y-104076666D01*
X135623809Y-103981428D01*
X135576190Y-103933809D01*
X135480952Y-103886190D01*
X132600000Y-108362380D02*
X132552380Y-108457619D01*
X132552380Y-108600476D01*
X132600000Y-108743333D01*
X132695238Y-108838571D01*
X132790476Y-108886190D01*
X132980952Y-108933809D01*
X133123809Y-108933809D01*
X133314285Y-108886190D01*
X133409523Y-108838571D01*
X133504761Y-108743333D01*
X133552380Y-108600476D01*
X133552380Y-108505238D01*
X133504761Y-108362380D01*
X133457142Y-108314761D01*
X133123809Y-108314761D01*
X133123809Y-108505238D01*
X133552380Y-107886190D02*
X132552380Y-107886190D01*
X132552380Y-107505238D01*
X132600000Y-107410000D01*
X132647619Y-107362380D01*
X132742857Y-107314761D01*
X132885714Y-107314761D01*
X132980952Y-107362380D01*
X133028571Y-107410000D01*
X133076190Y-107505238D01*
X133076190Y-107886190D01*
X133552380Y-106886190D02*
X132552380Y-106886190D01*
X132552380Y-106219523D02*
X132552380Y-106029047D01*
X132600000Y-105933809D01*
X132695238Y-105838571D01*
X132885714Y-105790952D01*
X133219047Y-105790952D01*
X133409523Y-105838571D01*
X133504761Y-105933809D01*
X133552380Y-106029047D01*
X133552380Y-106219523D01*
X133504761Y-106314761D01*
X133409523Y-106410000D01*
X133219047Y-106457619D01*
X132885714Y-106457619D01*
X132695238Y-106410000D01*
X132600000Y-106314761D01*
X132552380Y-106219523D01*
X133552380Y-104838571D02*
X133552380Y-105410000D01*
X133552380Y-105124285D02*
X132552380Y-105124285D01*
X132695238Y-105219523D01*
X132790476Y-105314761D01*
X132838095Y-105410000D01*
X132980952Y-104267142D02*
X132933333Y-104362380D01*
X132885714Y-104410000D01*
X132790476Y-104457619D01*
X132742857Y-104457619D01*
X132647619Y-104410000D01*
X132600000Y-104362380D01*
X132552380Y-104267142D01*
X132552380Y-104076666D01*
X132600000Y-103981428D01*
X132647619Y-103933809D01*
X132742857Y-103886190D01*
X132790476Y-103886190D01*
X132885714Y-103933809D01*
X132933333Y-103981428D01*
X132980952Y-104076666D01*
X132980952Y-104267142D01*
X133028571Y-104362380D01*
X133076190Y-104410000D01*
X133171428Y-104457619D01*
X133361904Y-104457619D01*
X133457142Y-104410000D01*
X133504761Y-104362380D01*
X133552380Y-104267142D01*
X133552380Y-104076666D01*
X133504761Y-103981428D01*
X133457142Y-103933809D01*
X133361904Y-103886190D01*
X133171428Y-103886190D01*
X133076190Y-103933809D01*
X133028571Y-103981428D01*
X132980952Y-104076666D01*
X129850000Y-107386190D02*
X129802380Y-107481428D01*
X129802380Y-107624285D01*
X129850000Y-107767142D01*
X129945238Y-107862380D01*
X130040476Y-107910000D01*
X130230952Y-107957619D01*
X130373809Y-107957619D01*
X130564285Y-107910000D01*
X130659523Y-107862380D01*
X130754761Y-107767142D01*
X130802380Y-107624285D01*
X130802380Y-107529047D01*
X130754761Y-107386190D01*
X130707142Y-107338571D01*
X130373809Y-107338571D01*
X130373809Y-107529047D01*
X130802380Y-106910000D02*
X129802380Y-106910000D01*
X129802380Y-106529047D01*
X129850000Y-106433809D01*
X129897619Y-106386190D01*
X129992857Y-106338571D01*
X130135714Y-106338571D01*
X130230952Y-106386190D01*
X130278571Y-106433809D01*
X130326190Y-106529047D01*
X130326190Y-106910000D01*
X130802380Y-105910000D02*
X129802380Y-105910000D01*
X129802380Y-105243333D02*
X129802380Y-105052857D01*
X129850000Y-104957619D01*
X129945238Y-104862380D01*
X130135714Y-104814761D01*
X130469047Y-104814761D01*
X130659523Y-104862380D01*
X130754761Y-104957619D01*
X130802380Y-105052857D01*
X130802380Y-105243333D01*
X130754761Y-105338571D01*
X130659523Y-105433809D01*
X130469047Y-105481428D01*
X130135714Y-105481428D01*
X129945238Y-105433809D01*
X129850000Y-105338571D01*
X129802380Y-105243333D01*
X129802380Y-103910000D02*
X129802380Y-104386190D01*
X130278571Y-104433809D01*
X130230952Y-104386190D01*
X130183333Y-104290952D01*
X130183333Y-104052857D01*
X130230952Y-103957619D01*
X130278571Y-103910000D01*
X130373809Y-103862380D01*
X130611904Y-103862380D01*
X130707142Y-103910000D01*
X130754761Y-103957619D01*
X130802380Y-104052857D01*
X130802380Y-104290952D01*
X130754761Y-104386190D01*
X130707142Y-104433809D01*
X127350000Y-108362380D02*
X127302380Y-108457619D01*
X127302380Y-108600476D01*
X127350000Y-108743333D01*
X127445238Y-108838571D01*
X127540476Y-108886190D01*
X127730952Y-108933809D01*
X127873809Y-108933809D01*
X128064285Y-108886190D01*
X128159523Y-108838571D01*
X128254761Y-108743333D01*
X128302380Y-108600476D01*
X128302380Y-108505238D01*
X128254761Y-108362380D01*
X128207142Y-108314761D01*
X127873809Y-108314761D01*
X127873809Y-108505238D01*
X128302380Y-107886190D02*
X127302380Y-107886190D01*
X127302380Y-107505238D01*
X127350000Y-107410000D01*
X127397619Y-107362380D01*
X127492857Y-107314761D01*
X127635714Y-107314761D01*
X127730952Y-107362380D01*
X127778571Y-107410000D01*
X127826190Y-107505238D01*
X127826190Y-107886190D01*
X128302380Y-106886190D02*
X127302380Y-106886190D01*
X127302380Y-106219523D02*
X127302380Y-106029047D01*
X127350000Y-105933809D01*
X127445238Y-105838571D01*
X127635714Y-105790952D01*
X127969047Y-105790952D01*
X128159523Y-105838571D01*
X128254761Y-105933809D01*
X128302380Y-106029047D01*
X128302380Y-106219523D01*
X128254761Y-106314761D01*
X128159523Y-106410000D01*
X127969047Y-106457619D01*
X127635714Y-106457619D01*
X127445238Y-106410000D01*
X127350000Y-106314761D01*
X127302380Y-106219523D01*
X128302380Y-104838571D02*
X128302380Y-105410000D01*
X128302380Y-105124285D02*
X127302380Y-105124285D01*
X127445238Y-105219523D01*
X127540476Y-105314761D01*
X127588095Y-105410000D01*
X127302380Y-104505238D02*
X127302380Y-103838571D01*
X128302380Y-104267142D01*
X124850000Y-108362380D02*
X124802380Y-108457619D01*
X124802380Y-108600476D01*
X124850000Y-108743333D01*
X124945238Y-108838571D01*
X125040476Y-108886190D01*
X125230952Y-108933809D01*
X125373809Y-108933809D01*
X125564285Y-108886190D01*
X125659523Y-108838571D01*
X125754761Y-108743333D01*
X125802380Y-108600476D01*
X125802380Y-108505238D01*
X125754761Y-108362380D01*
X125707142Y-108314761D01*
X125373809Y-108314761D01*
X125373809Y-108505238D01*
X125802380Y-107886190D02*
X124802380Y-107886190D01*
X124802380Y-107505238D01*
X124850000Y-107410000D01*
X124897619Y-107362380D01*
X124992857Y-107314761D01*
X125135714Y-107314761D01*
X125230952Y-107362380D01*
X125278571Y-107410000D01*
X125326190Y-107505238D01*
X125326190Y-107886190D01*
X125802380Y-106886190D02*
X124802380Y-106886190D01*
X124802380Y-106219523D02*
X124802380Y-106029047D01*
X124850000Y-105933809D01*
X124945238Y-105838571D01*
X125135714Y-105790952D01*
X125469047Y-105790952D01*
X125659523Y-105838571D01*
X125754761Y-105933809D01*
X125802380Y-106029047D01*
X125802380Y-106219523D01*
X125754761Y-106314761D01*
X125659523Y-106410000D01*
X125469047Y-106457619D01*
X125135714Y-106457619D01*
X124945238Y-106410000D01*
X124850000Y-106314761D01*
X124802380Y-106219523D01*
X125802380Y-104838571D02*
X125802380Y-105410000D01*
X125802380Y-105124285D02*
X124802380Y-105124285D01*
X124945238Y-105219523D01*
X125040476Y-105314761D01*
X125088095Y-105410000D01*
X124802380Y-103981428D02*
X124802380Y-104171904D01*
X124850000Y-104267142D01*
X124897619Y-104314761D01*
X125040476Y-104410000D01*
X125230952Y-104457619D01*
X125611904Y-104457619D01*
X125707142Y-104410000D01*
X125754761Y-104362380D01*
X125802380Y-104267142D01*
X125802380Y-104076666D01*
X125754761Y-103981428D01*
X125707142Y-103933809D01*
X125611904Y-103886190D01*
X125373809Y-103886190D01*
X125278571Y-103933809D01*
X125230952Y-103981428D01*
X125183333Y-104076666D01*
X125183333Y-104267142D01*
X125230952Y-104362380D01*
X125278571Y-104410000D01*
X125373809Y-104457619D01*
X122350000Y-107386190D02*
X122302380Y-107481428D01*
X122302380Y-107624285D01*
X122350000Y-107767142D01*
X122445238Y-107862380D01*
X122540476Y-107910000D01*
X122730952Y-107957619D01*
X122873809Y-107957619D01*
X123064285Y-107910000D01*
X123159523Y-107862380D01*
X123254761Y-107767142D01*
X123302380Y-107624285D01*
X123302380Y-107529047D01*
X123254761Y-107386190D01*
X123207142Y-107338571D01*
X122873809Y-107338571D01*
X122873809Y-107529047D01*
X123302380Y-106910000D02*
X122302380Y-106910000D01*
X122302380Y-106529047D01*
X122350000Y-106433809D01*
X122397619Y-106386190D01*
X122492857Y-106338571D01*
X122635714Y-106338571D01*
X122730952Y-106386190D01*
X122778571Y-106433809D01*
X122826190Y-106529047D01*
X122826190Y-106910000D01*
X123302380Y-105910000D02*
X122302380Y-105910000D01*
X122302380Y-105243333D02*
X122302380Y-105052857D01*
X122350000Y-104957619D01*
X122445238Y-104862380D01*
X122635714Y-104814761D01*
X122969047Y-104814761D01*
X123159523Y-104862380D01*
X123254761Y-104957619D01*
X123302380Y-105052857D01*
X123302380Y-105243333D01*
X123254761Y-105338571D01*
X123159523Y-105433809D01*
X122969047Y-105481428D01*
X122635714Y-105481428D01*
X122445238Y-105433809D01*
X122350000Y-105338571D01*
X122302380Y-105243333D01*
X122635714Y-103957619D02*
X123302380Y-103957619D01*
X122254761Y-104195714D02*
X122969047Y-104433809D01*
X122969047Y-103814761D01*
X119850000Y-107386190D02*
X119802380Y-107481428D01*
X119802380Y-107624285D01*
X119850000Y-107767142D01*
X119945238Y-107862380D01*
X120040476Y-107910000D01*
X120230952Y-107957619D01*
X120373809Y-107957619D01*
X120564285Y-107910000D01*
X120659523Y-107862380D01*
X120754761Y-107767142D01*
X120802380Y-107624285D01*
X120802380Y-107529047D01*
X120754761Y-107386190D01*
X120707142Y-107338571D01*
X120373809Y-107338571D01*
X120373809Y-107529047D01*
X120802380Y-106910000D02*
X119802380Y-106910000D01*
X119802380Y-106529047D01*
X119850000Y-106433809D01*
X119897619Y-106386190D01*
X119992857Y-106338571D01*
X120135714Y-106338571D01*
X120230952Y-106386190D01*
X120278571Y-106433809D01*
X120326190Y-106529047D01*
X120326190Y-106910000D01*
X120802380Y-105910000D02*
X119802380Y-105910000D01*
X119802380Y-105243333D02*
X119802380Y-105052857D01*
X119850000Y-104957619D01*
X119945238Y-104862380D01*
X120135714Y-104814761D01*
X120469047Y-104814761D01*
X120659523Y-104862380D01*
X120754761Y-104957619D01*
X120802380Y-105052857D01*
X120802380Y-105243333D01*
X120754761Y-105338571D01*
X120659523Y-105433809D01*
X120469047Y-105481428D01*
X120135714Y-105481428D01*
X119945238Y-105433809D01*
X119850000Y-105338571D01*
X119802380Y-105243333D01*
X119897619Y-104433809D02*
X119850000Y-104386190D01*
X119802380Y-104290952D01*
X119802380Y-104052857D01*
X119850000Y-103957619D01*
X119897619Y-103910000D01*
X119992857Y-103862380D01*
X120088095Y-103862380D01*
X120230952Y-103910000D01*
X120802380Y-104481428D01*
X120802380Y-103862380D01*
X117100000Y-108362380D02*
X117052380Y-108457619D01*
X117052380Y-108600476D01*
X117100000Y-108743333D01*
X117195238Y-108838571D01*
X117290476Y-108886190D01*
X117480952Y-108933809D01*
X117623809Y-108933809D01*
X117814285Y-108886190D01*
X117909523Y-108838571D01*
X118004761Y-108743333D01*
X118052380Y-108600476D01*
X118052380Y-108505238D01*
X118004761Y-108362380D01*
X117957142Y-108314761D01*
X117623809Y-108314761D01*
X117623809Y-108505238D01*
X118052380Y-107886190D02*
X117052380Y-107886190D01*
X117052380Y-107505238D01*
X117100000Y-107410000D01*
X117147619Y-107362380D01*
X117242857Y-107314761D01*
X117385714Y-107314761D01*
X117480952Y-107362380D01*
X117528571Y-107410000D01*
X117576190Y-107505238D01*
X117576190Y-107886190D01*
X118052380Y-106886190D02*
X117052380Y-106886190D01*
X117052380Y-106219523D02*
X117052380Y-106029047D01*
X117100000Y-105933809D01*
X117195238Y-105838571D01*
X117385714Y-105790952D01*
X117719047Y-105790952D01*
X117909523Y-105838571D01*
X118004761Y-105933809D01*
X118052380Y-106029047D01*
X118052380Y-106219523D01*
X118004761Y-106314761D01*
X117909523Y-106410000D01*
X117719047Y-106457619D01*
X117385714Y-106457619D01*
X117195238Y-106410000D01*
X117100000Y-106314761D01*
X117052380Y-106219523D01*
X118052380Y-104838571D02*
X118052380Y-105410000D01*
X118052380Y-105124285D02*
X117052380Y-105124285D01*
X117195238Y-105219523D01*
X117290476Y-105314761D01*
X117338095Y-105410000D01*
X117052380Y-103933809D02*
X117052380Y-104410000D01*
X117528571Y-104457619D01*
X117480952Y-104410000D01*
X117433333Y-104314761D01*
X117433333Y-104076666D01*
X117480952Y-103981428D01*
X117528571Y-103933809D01*
X117623809Y-103886190D01*
X117861904Y-103886190D01*
X117957142Y-103933809D01*
X118004761Y-103981428D01*
X118052380Y-104076666D01*
X118052380Y-104314761D01*
X118004761Y-104410000D01*
X117957142Y-104457619D01*
X112052380Y-106398095D02*
X112052380Y-105779047D01*
X112433333Y-106112380D01*
X112433333Y-105969523D01*
X112480952Y-105874285D01*
X112528571Y-105826666D01*
X112623809Y-105779047D01*
X112861904Y-105779047D01*
X112957142Y-105826666D01*
X113004761Y-105874285D01*
X113052380Y-105969523D01*
X113052380Y-106255238D01*
X113004761Y-106350476D01*
X112957142Y-106398095D01*
X112052380Y-105493333D02*
X113052380Y-105160000D01*
X112052380Y-104826666D01*
X112052380Y-104588571D02*
X112052380Y-103969523D01*
X112433333Y-104302857D01*
X112433333Y-104160000D01*
X112480952Y-104064761D01*
X112528571Y-104017142D01*
X112623809Y-103969523D01*
X112861904Y-103969523D01*
X112957142Y-104017142D01*
X113004761Y-104064761D01*
X113052380Y-104160000D01*
X113052380Y-104445714D01*
X113004761Y-104540952D01*
X112957142Y-104588571D01*
X112052380Y-72850238D02*
X113052380Y-72516904D01*
X112052380Y-72183571D01*
X113052380Y-71850238D02*
X112052380Y-71850238D01*
X113052380Y-71374047D02*
X112052380Y-71374047D01*
X113052380Y-70802619D01*
X112052380Y-70802619D01*
X114600000Y-105921904D02*
X114552380Y-106017142D01*
X114552380Y-106160000D01*
X114600000Y-106302857D01*
X114695238Y-106398095D01*
X114790476Y-106445714D01*
X114980952Y-106493333D01*
X115123809Y-106493333D01*
X115314285Y-106445714D01*
X115409523Y-106398095D01*
X115504761Y-106302857D01*
X115552380Y-106160000D01*
X115552380Y-106064761D01*
X115504761Y-105921904D01*
X115457142Y-105874285D01*
X115123809Y-105874285D01*
X115123809Y-106064761D01*
X115552380Y-105445714D02*
X114552380Y-105445714D01*
X115552380Y-104874285D01*
X114552380Y-104874285D01*
X115552380Y-104398095D02*
X114552380Y-104398095D01*
X114552380Y-104160000D01*
X114600000Y-104017142D01*
X114695238Y-103921904D01*
X114790476Y-103874285D01*
X114980952Y-103826666D01*
X115123809Y-103826666D01*
X115314285Y-103874285D01*
X115409523Y-103921904D01*
X115504761Y-104017142D01*
X115552380Y-104160000D01*
X115552380Y-104398095D01*
X114600000Y-72516904D02*
X114552380Y-72612142D01*
X114552380Y-72755000D01*
X114600000Y-72897857D01*
X114695238Y-72993095D01*
X114790476Y-73040714D01*
X114980952Y-73088333D01*
X115123809Y-73088333D01*
X115314285Y-73040714D01*
X115409523Y-72993095D01*
X115504761Y-72897857D01*
X115552380Y-72755000D01*
X115552380Y-72659761D01*
X115504761Y-72516904D01*
X115457142Y-72469285D01*
X115123809Y-72469285D01*
X115123809Y-72659761D01*
X115552380Y-72040714D02*
X114552380Y-72040714D01*
X115552380Y-71469285D01*
X114552380Y-71469285D01*
X115552380Y-70993095D02*
X114552380Y-70993095D01*
X114552380Y-70755000D01*
X114600000Y-70612142D01*
X114695238Y-70516904D01*
X114790476Y-70469285D01*
X114980952Y-70421666D01*
X115123809Y-70421666D01*
X115314285Y-70469285D01*
X115409523Y-70516904D01*
X115504761Y-70612142D01*
X115552380Y-70755000D01*
X115552380Y-70993095D01*
X117100000Y-72437380D02*
X117052380Y-72532619D01*
X117052380Y-72675476D01*
X117100000Y-72818333D01*
X117195238Y-72913571D01*
X117290476Y-72961190D01*
X117480952Y-73008809D01*
X117623809Y-73008809D01*
X117814285Y-72961190D01*
X117909523Y-72913571D01*
X118004761Y-72818333D01*
X118052380Y-72675476D01*
X118052380Y-72580238D01*
X118004761Y-72437380D01*
X117957142Y-72389761D01*
X117623809Y-72389761D01*
X117623809Y-72580238D01*
X118052380Y-71961190D02*
X117052380Y-71961190D01*
X117052380Y-71580238D01*
X117100000Y-71485000D01*
X117147619Y-71437380D01*
X117242857Y-71389761D01*
X117385714Y-71389761D01*
X117480952Y-71437380D01*
X117528571Y-71485000D01*
X117576190Y-71580238D01*
X117576190Y-71961190D01*
X118052380Y-70961190D02*
X117052380Y-70961190D01*
X117052380Y-70294523D02*
X117052380Y-70104047D01*
X117100000Y-70008809D01*
X117195238Y-69913571D01*
X117385714Y-69865952D01*
X117719047Y-69865952D01*
X117909523Y-69913571D01*
X118004761Y-70008809D01*
X118052380Y-70104047D01*
X118052380Y-70294523D01*
X118004761Y-70389761D01*
X117909523Y-70485000D01*
X117719047Y-70532619D01*
X117385714Y-70532619D01*
X117195238Y-70485000D01*
X117100000Y-70389761D01*
X117052380Y-70294523D01*
X118052380Y-68913571D02*
X118052380Y-69485000D01*
X118052380Y-69199285D02*
X117052380Y-69199285D01*
X117195238Y-69294523D01*
X117290476Y-69389761D01*
X117338095Y-69485000D01*
X117052380Y-68580238D02*
X117052380Y-67961190D01*
X117433333Y-68294523D01*
X117433333Y-68151666D01*
X117480952Y-68056428D01*
X117528571Y-68008809D01*
X117623809Y-67961190D01*
X117861904Y-67961190D01*
X117957142Y-68008809D01*
X118004761Y-68056428D01*
X118052380Y-68151666D01*
X118052380Y-68437380D01*
X118004761Y-68532619D01*
X117957142Y-68580238D01*
X119600000Y-72437380D02*
X119552380Y-72532619D01*
X119552380Y-72675476D01*
X119600000Y-72818333D01*
X119695238Y-72913571D01*
X119790476Y-72961190D01*
X119980952Y-73008809D01*
X120123809Y-73008809D01*
X120314285Y-72961190D01*
X120409523Y-72913571D01*
X120504761Y-72818333D01*
X120552380Y-72675476D01*
X120552380Y-72580238D01*
X120504761Y-72437380D01*
X120457142Y-72389761D01*
X120123809Y-72389761D01*
X120123809Y-72580238D01*
X120552380Y-71961190D02*
X119552380Y-71961190D01*
X119552380Y-71580238D01*
X119600000Y-71485000D01*
X119647619Y-71437380D01*
X119742857Y-71389761D01*
X119885714Y-71389761D01*
X119980952Y-71437380D01*
X120028571Y-71485000D01*
X120076190Y-71580238D01*
X120076190Y-71961190D01*
X120552380Y-70961190D02*
X119552380Y-70961190D01*
X119552380Y-70294523D02*
X119552380Y-70104047D01*
X119600000Y-70008809D01*
X119695238Y-69913571D01*
X119885714Y-69865952D01*
X120219047Y-69865952D01*
X120409523Y-69913571D01*
X120504761Y-70008809D01*
X120552380Y-70104047D01*
X120552380Y-70294523D01*
X120504761Y-70389761D01*
X120409523Y-70485000D01*
X120219047Y-70532619D01*
X119885714Y-70532619D01*
X119695238Y-70485000D01*
X119600000Y-70389761D01*
X119552380Y-70294523D01*
X120552380Y-68913571D02*
X120552380Y-69485000D01*
X120552380Y-69199285D02*
X119552380Y-69199285D01*
X119695238Y-69294523D01*
X119790476Y-69389761D01*
X119838095Y-69485000D01*
X119647619Y-68532619D02*
X119600000Y-68485000D01*
X119552380Y-68389761D01*
X119552380Y-68151666D01*
X119600000Y-68056428D01*
X119647619Y-68008809D01*
X119742857Y-67961190D01*
X119838095Y-67961190D01*
X119980952Y-68008809D01*
X120552380Y-68580238D01*
X120552380Y-67961190D01*
X122100000Y-72437380D02*
X122052380Y-72532619D01*
X122052380Y-72675476D01*
X122100000Y-72818333D01*
X122195238Y-72913571D01*
X122290476Y-72961190D01*
X122480952Y-73008809D01*
X122623809Y-73008809D01*
X122814285Y-72961190D01*
X122909523Y-72913571D01*
X123004761Y-72818333D01*
X123052380Y-72675476D01*
X123052380Y-72580238D01*
X123004761Y-72437380D01*
X122957142Y-72389761D01*
X122623809Y-72389761D01*
X122623809Y-72580238D01*
X123052380Y-71961190D02*
X122052380Y-71961190D01*
X122052380Y-71580238D01*
X122100000Y-71485000D01*
X122147619Y-71437380D01*
X122242857Y-71389761D01*
X122385714Y-71389761D01*
X122480952Y-71437380D01*
X122528571Y-71485000D01*
X122576190Y-71580238D01*
X122576190Y-71961190D01*
X123052380Y-70961190D02*
X122052380Y-70961190D01*
X122052380Y-70294523D02*
X122052380Y-70104047D01*
X122100000Y-70008809D01*
X122195238Y-69913571D01*
X122385714Y-69865952D01*
X122719047Y-69865952D01*
X122909523Y-69913571D01*
X123004761Y-70008809D01*
X123052380Y-70104047D01*
X123052380Y-70294523D01*
X123004761Y-70389761D01*
X122909523Y-70485000D01*
X122719047Y-70532619D01*
X122385714Y-70532619D01*
X122195238Y-70485000D01*
X122100000Y-70389761D01*
X122052380Y-70294523D01*
X123052380Y-68913571D02*
X123052380Y-69485000D01*
X123052380Y-69199285D02*
X122052380Y-69199285D01*
X122195238Y-69294523D01*
X122290476Y-69389761D01*
X122338095Y-69485000D01*
X122385714Y-68056428D02*
X123052380Y-68056428D01*
X122004761Y-68294523D02*
X122719047Y-68532619D01*
X122719047Y-67913571D01*
X124650000Y-72437380D02*
X124602380Y-72532619D01*
X124602380Y-72675476D01*
X124650000Y-72818333D01*
X124745238Y-72913571D01*
X124840476Y-72961190D01*
X125030952Y-73008809D01*
X125173809Y-73008809D01*
X125364285Y-72961190D01*
X125459523Y-72913571D01*
X125554761Y-72818333D01*
X125602380Y-72675476D01*
X125602380Y-72580238D01*
X125554761Y-72437380D01*
X125507142Y-72389761D01*
X125173809Y-72389761D01*
X125173809Y-72580238D01*
X125602380Y-71961190D02*
X124602380Y-71961190D01*
X124602380Y-71580238D01*
X124650000Y-71485000D01*
X124697619Y-71437380D01*
X124792857Y-71389761D01*
X124935714Y-71389761D01*
X125030952Y-71437380D01*
X125078571Y-71485000D01*
X125126190Y-71580238D01*
X125126190Y-71961190D01*
X125602380Y-70961190D02*
X124602380Y-70961190D01*
X124602380Y-70294523D02*
X124602380Y-70104047D01*
X124650000Y-70008809D01*
X124745238Y-69913571D01*
X124935714Y-69865952D01*
X125269047Y-69865952D01*
X125459523Y-69913571D01*
X125554761Y-70008809D01*
X125602380Y-70104047D01*
X125602380Y-70294523D01*
X125554761Y-70389761D01*
X125459523Y-70485000D01*
X125269047Y-70532619D01*
X124935714Y-70532619D01*
X124745238Y-70485000D01*
X124650000Y-70389761D01*
X124602380Y-70294523D01*
X124697619Y-69485000D02*
X124650000Y-69437380D01*
X124602380Y-69342142D01*
X124602380Y-69104047D01*
X124650000Y-69008809D01*
X124697619Y-68961190D01*
X124792857Y-68913571D01*
X124888095Y-68913571D01*
X125030952Y-68961190D01*
X125602380Y-69532619D01*
X125602380Y-68913571D01*
X124602380Y-68580238D02*
X124602380Y-67913571D01*
X125602380Y-68342142D01*
X127300000Y-72437380D02*
X127252380Y-72532619D01*
X127252380Y-72675476D01*
X127300000Y-72818333D01*
X127395238Y-72913571D01*
X127490476Y-72961190D01*
X127680952Y-73008809D01*
X127823809Y-73008809D01*
X128014285Y-72961190D01*
X128109523Y-72913571D01*
X128204761Y-72818333D01*
X128252380Y-72675476D01*
X128252380Y-72580238D01*
X128204761Y-72437380D01*
X128157142Y-72389761D01*
X127823809Y-72389761D01*
X127823809Y-72580238D01*
X128252380Y-71961190D02*
X127252380Y-71961190D01*
X127252380Y-71580238D01*
X127300000Y-71485000D01*
X127347619Y-71437380D01*
X127442857Y-71389761D01*
X127585714Y-71389761D01*
X127680952Y-71437380D01*
X127728571Y-71485000D01*
X127776190Y-71580238D01*
X127776190Y-71961190D01*
X128252380Y-70961190D02*
X127252380Y-70961190D01*
X127252380Y-70294523D02*
X127252380Y-70104047D01*
X127300000Y-70008809D01*
X127395238Y-69913571D01*
X127585714Y-69865952D01*
X127919047Y-69865952D01*
X128109523Y-69913571D01*
X128204761Y-70008809D01*
X128252380Y-70104047D01*
X128252380Y-70294523D01*
X128204761Y-70389761D01*
X128109523Y-70485000D01*
X127919047Y-70532619D01*
X127585714Y-70532619D01*
X127395238Y-70485000D01*
X127300000Y-70389761D01*
X127252380Y-70294523D01*
X127347619Y-69485000D02*
X127300000Y-69437380D01*
X127252380Y-69342142D01*
X127252380Y-69104047D01*
X127300000Y-69008809D01*
X127347619Y-68961190D01*
X127442857Y-68913571D01*
X127538095Y-68913571D01*
X127680952Y-68961190D01*
X128252380Y-69532619D01*
X128252380Y-68913571D01*
X127252380Y-68056428D02*
X127252380Y-68246904D01*
X127300000Y-68342142D01*
X127347619Y-68389761D01*
X127490476Y-68485000D01*
X127680952Y-68532619D01*
X128061904Y-68532619D01*
X128157142Y-68485000D01*
X128204761Y-68437380D01*
X128252380Y-68342142D01*
X128252380Y-68151666D01*
X128204761Y-68056428D01*
X128157142Y-68008809D01*
X128061904Y-67961190D01*
X127823809Y-67961190D01*
X127728571Y-68008809D01*
X127680952Y-68056428D01*
X127633333Y-68151666D01*
X127633333Y-68342142D01*
X127680952Y-68437380D01*
X127728571Y-68485000D01*
X127823809Y-68532619D01*
X130100000Y-72437380D02*
X130052380Y-72532619D01*
X130052380Y-72675476D01*
X130100000Y-72818333D01*
X130195238Y-72913571D01*
X130290476Y-72961190D01*
X130480952Y-73008809D01*
X130623809Y-73008809D01*
X130814285Y-72961190D01*
X130909523Y-72913571D01*
X131004761Y-72818333D01*
X131052380Y-72675476D01*
X131052380Y-72580238D01*
X131004761Y-72437380D01*
X130957142Y-72389761D01*
X130623809Y-72389761D01*
X130623809Y-72580238D01*
X131052380Y-71961190D02*
X130052380Y-71961190D01*
X130052380Y-71580238D01*
X130100000Y-71485000D01*
X130147619Y-71437380D01*
X130242857Y-71389761D01*
X130385714Y-71389761D01*
X130480952Y-71437380D01*
X130528571Y-71485000D01*
X130576190Y-71580238D01*
X130576190Y-71961190D01*
X131052380Y-70961190D02*
X130052380Y-70961190D01*
X130052380Y-70294523D02*
X130052380Y-70104047D01*
X130100000Y-70008809D01*
X130195238Y-69913571D01*
X130385714Y-69865952D01*
X130719047Y-69865952D01*
X130909523Y-69913571D01*
X131004761Y-70008809D01*
X131052380Y-70104047D01*
X131052380Y-70294523D01*
X131004761Y-70389761D01*
X130909523Y-70485000D01*
X130719047Y-70532619D01*
X130385714Y-70532619D01*
X130195238Y-70485000D01*
X130100000Y-70389761D01*
X130052380Y-70294523D01*
X130147619Y-69485000D02*
X130100000Y-69437380D01*
X130052380Y-69342142D01*
X130052380Y-69104047D01*
X130100000Y-69008809D01*
X130147619Y-68961190D01*
X130242857Y-68913571D01*
X130338095Y-68913571D01*
X130480952Y-68961190D01*
X131052380Y-69532619D01*
X131052380Y-68913571D01*
X130052380Y-68008809D02*
X130052380Y-68485000D01*
X130528571Y-68532619D01*
X130480952Y-68485000D01*
X130433333Y-68389761D01*
X130433333Y-68151666D01*
X130480952Y-68056428D01*
X130528571Y-68008809D01*
X130623809Y-67961190D01*
X130861904Y-67961190D01*
X130957142Y-68008809D01*
X131004761Y-68056428D01*
X131052380Y-68151666D01*
X131052380Y-68389761D01*
X131004761Y-68485000D01*
X130957142Y-68532619D01*
X132600000Y-72437380D02*
X132552380Y-72532619D01*
X132552380Y-72675476D01*
X132600000Y-72818333D01*
X132695238Y-72913571D01*
X132790476Y-72961190D01*
X132980952Y-73008809D01*
X133123809Y-73008809D01*
X133314285Y-72961190D01*
X133409523Y-72913571D01*
X133504761Y-72818333D01*
X133552380Y-72675476D01*
X133552380Y-72580238D01*
X133504761Y-72437380D01*
X133457142Y-72389761D01*
X133123809Y-72389761D01*
X133123809Y-72580238D01*
X133552380Y-71961190D02*
X132552380Y-71961190D01*
X132552380Y-71580238D01*
X132600000Y-71485000D01*
X132647619Y-71437380D01*
X132742857Y-71389761D01*
X132885714Y-71389761D01*
X132980952Y-71437380D01*
X133028571Y-71485000D01*
X133076190Y-71580238D01*
X133076190Y-71961190D01*
X133552380Y-70961190D02*
X132552380Y-70961190D01*
X132552380Y-70294523D02*
X132552380Y-70104047D01*
X132600000Y-70008809D01*
X132695238Y-69913571D01*
X132885714Y-69865952D01*
X133219047Y-69865952D01*
X133409523Y-69913571D01*
X133504761Y-70008809D01*
X133552380Y-70104047D01*
X133552380Y-70294523D01*
X133504761Y-70389761D01*
X133409523Y-70485000D01*
X133219047Y-70532619D01*
X132885714Y-70532619D01*
X132695238Y-70485000D01*
X132600000Y-70389761D01*
X132552380Y-70294523D01*
X132552380Y-69532619D02*
X132552380Y-68913571D01*
X132933333Y-69246904D01*
X132933333Y-69104047D01*
X132980952Y-69008809D01*
X133028571Y-68961190D01*
X133123809Y-68913571D01*
X133361904Y-68913571D01*
X133457142Y-68961190D01*
X133504761Y-69008809D01*
X133552380Y-69104047D01*
X133552380Y-69389761D01*
X133504761Y-69485000D01*
X133457142Y-69532619D01*
X132552380Y-68580238D02*
X132552380Y-67961190D01*
X132933333Y-68294523D01*
X132933333Y-68151666D01*
X132980952Y-68056428D01*
X133028571Y-68008809D01*
X133123809Y-67961190D01*
X133361904Y-67961190D01*
X133457142Y-68008809D01*
X133504761Y-68056428D01*
X133552380Y-68151666D01*
X133552380Y-68437380D01*
X133504761Y-68532619D01*
X133457142Y-68580238D01*
X135100000Y-72437380D02*
X135052380Y-72532619D01*
X135052380Y-72675476D01*
X135100000Y-72818333D01*
X135195238Y-72913571D01*
X135290476Y-72961190D01*
X135480952Y-73008809D01*
X135623809Y-73008809D01*
X135814285Y-72961190D01*
X135909523Y-72913571D01*
X136004761Y-72818333D01*
X136052380Y-72675476D01*
X136052380Y-72580238D01*
X136004761Y-72437380D01*
X135957142Y-72389761D01*
X135623809Y-72389761D01*
X135623809Y-72580238D01*
X136052380Y-71961190D02*
X135052380Y-71961190D01*
X135052380Y-71580238D01*
X135100000Y-71485000D01*
X135147619Y-71437380D01*
X135242857Y-71389761D01*
X135385714Y-71389761D01*
X135480952Y-71437380D01*
X135528571Y-71485000D01*
X135576190Y-71580238D01*
X135576190Y-71961190D01*
X136052380Y-70961190D02*
X135052380Y-70961190D01*
X135052380Y-70294523D02*
X135052380Y-70104047D01*
X135100000Y-70008809D01*
X135195238Y-69913571D01*
X135385714Y-69865952D01*
X135719047Y-69865952D01*
X135909523Y-69913571D01*
X136004761Y-70008809D01*
X136052380Y-70104047D01*
X136052380Y-70294523D01*
X136004761Y-70389761D01*
X135909523Y-70485000D01*
X135719047Y-70532619D01*
X135385714Y-70532619D01*
X135195238Y-70485000D01*
X135100000Y-70389761D01*
X135052380Y-70294523D01*
X135052380Y-69532619D02*
X135052380Y-68913571D01*
X135433333Y-69246904D01*
X135433333Y-69104047D01*
X135480952Y-69008809D01*
X135528571Y-68961190D01*
X135623809Y-68913571D01*
X135861904Y-68913571D01*
X135957142Y-68961190D01*
X136004761Y-69008809D01*
X136052380Y-69104047D01*
X136052380Y-69389761D01*
X136004761Y-69485000D01*
X135957142Y-69532619D01*
X135147619Y-68532619D02*
X135100000Y-68485000D01*
X135052380Y-68389761D01*
X135052380Y-68151666D01*
X135100000Y-68056428D01*
X135147619Y-68008809D01*
X135242857Y-67961190D01*
X135338095Y-67961190D01*
X135480952Y-68008809D01*
X136052380Y-68580238D01*
X136052380Y-67961190D01*
X137600000Y-72437380D02*
X137552380Y-72532619D01*
X137552380Y-72675476D01*
X137600000Y-72818333D01*
X137695238Y-72913571D01*
X137790476Y-72961190D01*
X137980952Y-73008809D01*
X138123809Y-73008809D01*
X138314285Y-72961190D01*
X138409523Y-72913571D01*
X138504761Y-72818333D01*
X138552380Y-72675476D01*
X138552380Y-72580238D01*
X138504761Y-72437380D01*
X138457142Y-72389761D01*
X138123809Y-72389761D01*
X138123809Y-72580238D01*
X138552380Y-71961190D02*
X137552380Y-71961190D01*
X137552380Y-71580238D01*
X137600000Y-71485000D01*
X137647619Y-71437380D01*
X137742857Y-71389761D01*
X137885714Y-71389761D01*
X137980952Y-71437380D01*
X138028571Y-71485000D01*
X138076190Y-71580238D01*
X138076190Y-71961190D01*
X138552380Y-70961190D02*
X137552380Y-70961190D01*
X137552380Y-70294523D02*
X137552380Y-70104047D01*
X137600000Y-70008809D01*
X137695238Y-69913571D01*
X137885714Y-69865952D01*
X138219047Y-69865952D01*
X138409523Y-69913571D01*
X138504761Y-70008809D01*
X138552380Y-70104047D01*
X138552380Y-70294523D01*
X138504761Y-70389761D01*
X138409523Y-70485000D01*
X138219047Y-70532619D01*
X137885714Y-70532619D01*
X137695238Y-70485000D01*
X137600000Y-70389761D01*
X137552380Y-70294523D01*
X137552380Y-69532619D02*
X137552380Y-68913571D01*
X137933333Y-69246904D01*
X137933333Y-69104047D01*
X137980952Y-69008809D01*
X138028571Y-68961190D01*
X138123809Y-68913571D01*
X138361904Y-68913571D01*
X138457142Y-68961190D01*
X138504761Y-69008809D01*
X138552380Y-69104047D01*
X138552380Y-69389761D01*
X138504761Y-69485000D01*
X138457142Y-69532619D01*
X137552380Y-68008809D02*
X137552380Y-68485000D01*
X138028571Y-68532619D01*
X137980952Y-68485000D01*
X137933333Y-68389761D01*
X137933333Y-68151666D01*
X137980952Y-68056428D01*
X138028571Y-68008809D01*
X138123809Y-67961190D01*
X138361904Y-67961190D01*
X138457142Y-68008809D01*
X138504761Y-68056428D01*
X138552380Y-68151666D01*
X138552380Y-68389761D01*
X138504761Y-68485000D01*
X138457142Y-68532619D01*
X140100000Y-72437380D02*
X140052380Y-72532619D01*
X140052380Y-72675476D01*
X140100000Y-72818333D01*
X140195238Y-72913571D01*
X140290476Y-72961190D01*
X140480952Y-73008809D01*
X140623809Y-73008809D01*
X140814285Y-72961190D01*
X140909523Y-72913571D01*
X141004761Y-72818333D01*
X141052380Y-72675476D01*
X141052380Y-72580238D01*
X141004761Y-72437380D01*
X140957142Y-72389761D01*
X140623809Y-72389761D01*
X140623809Y-72580238D01*
X141052380Y-71961190D02*
X140052380Y-71961190D01*
X140052380Y-71580238D01*
X140100000Y-71485000D01*
X140147619Y-71437380D01*
X140242857Y-71389761D01*
X140385714Y-71389761D01*
X140480952Y-71437380D01*
X140528571Y-71485000D01*
X140576190Y-71580238D01*
X140576190Y-71961190D01*
X141052380Y-70961190D02*
X140052380Y-70961190D01*
X140052380Y-70294523D02*
X140052380Y-70104047D01*
X140100000Y-70008809D01*
X140195238Y-69913571D01*
X140385714Y-69865952D01*
X140719047Y-69865952D01*
X140909523Y-69913571D01*
X141004761Y-70008809D01*
X141052380Y-70104047D01*
X141052380Y-70294523D01*
X141004761Y-70389761D01*
X140909523Y-70485000D01*
X140719047Y-70532619D01*
X140385714Y-70532619D01*
X140195238Y-70485000D01*
X140100000Y-70389761D01*
X140052380Y-70294523D01*
X140052380Y-69532619D02*
X140052380Y-68913571D01*
X140433333Y-69246904D01*
X140433333Y-69104047D01*
X140480952Y-69008809D01*
X140528571Y-68961190D01*
X140623809Y-68913571D01*
X140861904Y-68913571D01*
X140957142Y-68961190D01*
X141004761Y-69008809D01*
X141052380Y-69104047D01*
X141052380Y-69389761D01*
X141004761Y-69485000D01*
X140957142Y-69532619D01*
X140385714Y-68056428D02*
X141052380Y-68056428D01*
X140004761Y-68294523D02*
X140719047Y-68532619D01*
X140719047Y-67913571D01*
X142600000Y-72437380D02*
X142552380Y-72532619D01*
X142552380Y-72675476D01*
X142600000Y-72818333D01*
X142695238Y-72913571D01*
X142790476Y-72961190D01*
X142980952Y-73008809D01*
X143123809Y-73008809D01*
X143314285Y-72961190D01*
X143409523Y-72913571D01*
X143504761Y-72818333D01*
X143552380Y-72675476D01*
X143552380Y-72580238D01*
X143504761Y-72437380D01*
X143457142Y-72389761D01*
X143123809Y-72389761D01*
X143123809Y-72580238D01*
X143552380Y-71961190D02*
X142552380Y-71961190D01*
X142552380Y-71580238D01*
X142600000Y-71485000D01*
X142647619Y-71437380D01*
X142742857Y-71389761D01*
X142885714Y-71389761D01*
X142980952Y-71437380D01*
X143028571Y-71485000D01*
X143076190Y-71580238D01*
X143076190Y-71961190D01*
X143552380Y-70961190D02*
X142552380Y-70961190D01*
X142552380Y-70294523D02*
X142552380Y-70104047D01*
X142600000Y-70008809D01*
X142695238Y-69913571D01*
X142885714Y-69865952D01*
X143219047Y-69865952D01*
X143409523Y-69913571D01*
X143504761Y-70008809D01*
X143552380Y-70104047D01*
X143552380Y-70294523D01*
X143504761Y-70389761D01*
X143409523Y-70485000D01*
X143219047Y-70532619D01*
X142885714Y-70532619D01*
X142695238Y-70485000D01*
X142600000Y-70389761D01*
X142552380Y-70294523D01*
X142552380Y-69532619D02*
X142552380Y-68913571D01*
X142933333Y-69246904D01*
X142933333Y-69104047D01*
X142980952Y-69008809D01*
X143028571Y-68961190D01*
X143123809Y-68913571D01*
X143361904Y-68913571D01*
X143457142Y-68961190D01*
X143504761Y-69008809D01*
X143552380Y-69104047D01*
X143552380Y-69389761D01*
X143504761Y-69485000D01*
X143457142Y-69532619D01*
X143552380Y-68437380D02*
X143552380Y-68246904D01*
X143504761Y-68151666D01*
X143457142Y-68104047D01*
X143314285Y-68008809D01*
X143123809Y-67961190D01*
X142742857Y-67961190D01*
X142647619Y-68008809D01*
X142600000Y-68056428D01*
X142552380Y-68151666D01*
X142552380Y-68342142D01*
X142600000Y-68437380D01*
X142647619Y-68485000D01*
X142742857Y-68532619D01*
X142980952Y-68532619D01*
X143076190Y-68485000D01*
X143123809Y-68437380D01*
X143171428Y-68342142D01*
X143171428Y-68151666D01*
X143123809Y-68056428D01*
X143076190Y-68008809D01*
X142980952Y-67961190D01*
X145100000Y-72437380D02*
X145052380Y-72532619D01*
X145052380Y-72675476D01*
X145100000Y-72818333D01*
X145195238Y-72913571D01*
X145290476Y-72961190D01*
X145480952Y-73008809D01*
X145623809Y-73008809D01*
X145814285Y-72961190D01*
X145909523Y-72913571D01*
X146004761Y-72818333D01*
X146052380Y-72675476D01*
X146052380Y-72580238D01*
X146004761Y-72437380D01*
X145957142Y-72389761D01*
X145623809Y-72389761D01*
X145623809Y-72580238D01*
X146052380Y-71961190D02*
X145052380Y-71961190D01*
X145052380Y-71580238D01*
X145100000Y-71485000D01*
X145147619Y-71437380D01*
X145242857Y-71389761D01*
X145385714Y-71389761D01*
X145480952Y-71437380D01*
X145528571Y-71485000D01*
X145576190Y-71580238D01*
X145576190Y-71961190D01*
X146052380Y-70961190D02*
X145052380Y-70961190D01*
X145052380Y-70294523D02*
X145052380Y-70104047D01*
X145100000Y-70008809D01*
X145195238Y-69913571D01*
X145385714Y-69865952D01*
X145719047Y-69865952D01*
X145909523Y-69913571D01*
X146004761Y-70008809D01*
X146052380Y-70104047D01*
X146052380Y-70294523D01*
X146004761Y-70389761D01*
X145909523Y-70485000D01*
X145719047Y-70532619D01*
X145385714Y-70532619D01*
X145195238Y-70485000D01*
X145100000Y-70389761D01*
X145052380Y-70294523D01*
X145052380Y-69532619D02*
X145052380Y-68913571D01*
X145433333Y-69246904D01*
X145433333Y-69104047D01*
X145480952Y-69008809D01*
X145528571Y-68961190D01*
X145623809Y-68913571D01*
X145861904Y-68913571D01*
X145957142Y-68961190D01*
X146004761Y-69008809D01*
X146052380Y-69104047D01*
X146052380Y-69389761D01*
X146004761Y-69485000D01*
X145957142Y-69532619D01*
X145052380Y-68056428D02*
X145052380Y-68246904D01*
X145100000Y-68342142D01*
X145147619Y-68389761D01*
X145290476Y-68485000D01*
X145480952Y-68532619D01*
X145861904Y-68532619D01*
X145957142Y-68485000D01*
X146004761Y-68437380D01*
X146052380Y-68342142D01*
X146052380Y-68151666D01*
X146004761Y-68056428D01*
X145957142Y-68008809D01*
X145861904Y-67961190D01*
X145623809Y-67961190D01*
X145528571Y-68008809D01*
X145480952Y-68056428D01*
X145433333Y-68151666D01*
X145433333Y-68342142D01*
X145480952Y-68437380D01*
X145528571Y-68485000D01*
X145623809Y-68532619D01*
X148028571Y-73128095D02*
X148028571Y-72794761D01*
X148552380Y-72651904D02*
X148552380Y-73128095D01*
X147552380Y-73128095D01*
X147552380Y-72651904D01*
X148552380Y-72223333D02*
X147552380Y-72223333D01*
X148552380Y-71651904D01*
X147552380Y-71651904D01*
X132421380Y-88772904D02*
X133230904Y-88772904D01*
X133326142Y-88725285D01*
X133373761Y-88677666D01*
X133421380Y-88582428D01*
X133421380Y-88391952D01*
X133373761Y-88296714D01*
X133326142Y-88249095D01*
X133230904Y-88201476D01*
X132421380Y-88201476D01*
X133421380Y-87201476D02*
X133421380Y-87772904D01*
X133421380Y-87487190D02*
X132421380Y-87487190D01*
X132564238Y-87582428D01*
X132659476Y-87677666D01*
X132707095Y-87772904D01*
X162657142Y-92866666D02*
X162704761Y-92914285D01*
X162752380Y-93057142D01*
X162752380Y-93152380D01*
X162704761Y-93295238D01*
X162609523Y-93390476D01*
X162514285Y-93438095D01*
X162323809Y-93485714D01*
X162180952Y-93485714D01*
X161990476Y-93438095D01*
X161895238Y-93390476D01*
X161800000Y-93295238D01*
X161752380Y-93152380D01*
X161752380Y-93057142D01*
X161800000Y-92914285D01*
X161847619Y-92866666D01*
X161752380Y-91961904D02*
X161752380Y-92438095D01*
X162228571Y-92485714D01*
X162180952Y-92438095D01*
X162133333Y-92342857D01*
X162133333Y-92104761D01*
X162180952Y-92009523D01*
X162228571Y-91961904D01*
X162323809Y-91914285D01*
X162561904Y-91914285D01*
X162657142Y-91961904D01*
X162704761Y-92009523D01*
X162752380Y-92104761D01*
X162752380Y-92342857D01*
X162704761Y-92438095D01*
X162657142Y-92485714D01*
X162857142Y-81516666D02*
X162904761Y-81564285D01*
X162952380Y-81707142D01*
X162952380Y-81802380D01*
X162904761Y-81945238D01*
X162809523Y-82040476D01*
X162714285Y-82088095D01*
X162523809Y-82135714D01*
X162380952Y-82135714D01*
X162190476Y-82088095D01*
X162095238Y-82040476D01*
X162000000Y-81945238D01*
X161952380Y-81802380D01*
X161952380Y-81707142D01*
X162000000Y-81564285D01*
X162047619Y-81516666D01*
X161952380Y-80659523D02*
X161952380Y-80850000D01*
X162000000Y-80945238D01*
X162047619Y-80992857D01*
X162190476Y-81088095D01*
X162380952Y-81135714D01*
X162761904Y-81135714D01*
X162857142Y-81088095D01*
X162904761Y-81040476D01*
X162952380Y-80945238D01*
X162952380Y-80754761D01*
X162904761Y-80659523D01*
X162857142Y-80611904D01*
X162761904Y-80564285D01*
X162523809Y-80564285D01*
X162428571Y-80611904D01*
X162380952Y-80659523D01*
X162333333Y-80754761D01*
X162333333Y-80945238D01*
X162380952Y-81040476D01*
X162428571Y-81088095D01*
X162523809Y-81135714D01*
X126552380Y-87616666D02*
X126076190Y-87950000D01*
X126552380Y-88188095D02*
X125552380Y-88188095D01*
X125552380Y-87807142D01*
X125600000Y-87711904D01*
X125647619Y-87664285D01*
X125742857Y-87616666D01*
X125885714Y-87616666D01*
X125980952Y-87664285D01*
X126028571Y-87711904D01*
X126076190Y-87807142D01*
X126076190Y-88188095D01*
X125647619Y-87235714D02*
X125600000Y-87188095D01*
X125552380Y-87092857D01*
X125552380Y-86854761D01*
X125600000Y-86759523D01*
X125647619Y-86711904D01*
X125742857Y-86664285D01*
X125838095Y-86664285D01*
X125980952Y-86711904D01*
X126552380Y-87283333D01*
X126552380Y-86664285D01*
X127302380Y-81216666D02*
X126826190Y-81550000D01*
X127302380Y-81788095D02*
X126302380Y-81788095D01*
X126302380Y-81407142D01*
X126350000Y-81311904D01*
X126397619Y-81264285D01*
X126492857Y-81216666D01*
X126635714Y-81216666D01*
X126730952Y-81264285D01*
X126778571Y-81311904D01*
X126826190Y-81407142D01*
X126826190Y-81788095D01*
X126302380Y-80883333D02*
X126302380Y-80264285D01*
X126683333Y-80597619D01*
X126683333Y-80454761D01*
X126730952Y-80359523D01*
X126778571Y-80311904D01*
X126873809Y-80264285D01*
X127111904Y-80264285D01*
X127207142Y-80311904D01*
X127254761Y-80359523D01*
X127302380Y-80454761D01*
X127302380Y-80740476D01*
X127254761Y-80835714D01*
X127207142Y-80883333D01*
X159002380Y-89266666D02*
X158526190Y-89600000D01*
X159002380Y-89838095D02*
X158002380Y-89838095D01*
X158002380Y-89457142D01*
X158050000Y-89361904D01*
X158097619Y-89314285D01*
X158192857Y-89266666D01*
X158335714Y-89266666D01*
X158430952Y-89314285D01*
X158478571Y-89361904D01*
X158526190Y-89457142D01*
X158526190Y-89838095D01*
X158335714Y-88409523D02*
X159002380Y-88409523D01*
X157954761Y-88647619D02*
X158669047Y-88885714D01*
X158669047Y-88266666D01*
X156602380Y-92916666D02*
X156126190Y-93250000D01*
X156602380Y-93488095D02*
X155602380Y-93488095D01*
X155602380Y-93107142D01*
X155650000Y-93011904D01*
X155697619Y-92964285D01*
X155792857Y-92916666D01*
X155935714Y-92916666D01*
X156030952Y-92964285D01*
X156078571Y-93011904D01*
X156126190Y-93107142D01*
X156126190Y-93488095D01*
X155602380Y-92011904D02*
X155602380Y-92488095D01*
X156078571Y-92535714D01*
X156030952Y-92488095D01*
X155983333Y-92392857D01*
X155983333Y-92154761D01*
X156030952Y-92059523D01*
X156078571Y-92011904D01*
X156173809Y-91964285D01*
X156411904Y-91964285D01*
X156507142Y-92011904D01*
X156554761Y-92059523D01*
X156602380Y-92154761D01*
X156602380Y-92392857D01*
X156554761Y-92488095D01*
X156507142Y-92535714D01*
X159002380Y-85116666D02*
X158526190Y-85450000D01*
X159002380Y-85688095D02*
X158002380Y-85688095D01*
X158002380Y-85307142D01*
X158050000Y-85211904D01*
X158097619Y-85164285D01*
X158192857Y-85116666D01*
X158335714Y-85116666D01*
X158430952Y-85164285D01*
X158478571Y-85211904D01*
X158526190Y-85307142D01*
X158526190Y-85688095D01*
X158002380Y-84259523D02*
X158002380Y-84450000D01*
X158050000Y-84545238D01*
X158097619Y-84592857D01*
X158240476Y-84688095D01*
X158430952Y-84735714D01*
X158811904Y-84735714D01*
X158907142Y-84688095D01*
X158954761Y-84640476D01*
X159002380Y-84545238D01*
X159002380Y-84354761D01*
X158954761Y-84259523D01*
X158907142Y-84211904D01*
X158811904Y-84164285D01*
X158573809Y-84164285D01*
X158478571Y-84211904D01*
X158430952Y-84259523D01*
X158383333Y-84354761D01*
X158383333Y-84545238D01*
X158430952Y-84640476D01*
X158478571Y-84688095D01*
X158573809Y-84735714D01*
X159902380Y-72716666D02*
X159426190Y-73050000D01*
X159902380Y-73288095D02*
X158902380Y-73288095D01*
X158902380Y-72907142D01*
X158950000Y-72811904D01*
X158997619Y-72764285D01*
X159092857Y-72716666D01*
X159235714Y-72716666D01*
X159330952Y-72764285D01*
X159378571Y-72811904D01*
X159426190Y-72907142D01*
X159426190Y-73288095D01*
X158902380Y-72383333D02*
X158902380Y-71716666D01*
X159902380Y-72145238D01*
X160092380Y-77636666D02*
X159616190Y-77970000D01*
X160092380Y-78208095D02*
X159092380Y-78208095D01*
X159092380Y-77827142D01*
X159140000Y-77731904D01*
X159187619Y-77684285D01*
X159282857Y-77636666D01*
X159425714Y-77636666D01*
X159520952Y-77684285D01*
X159568571Y-77731904D01*
X159616190Y-77827142D01*
X159616190Y-78208095D01*
X159520952Y-77065238D02*
X159473333Y-77160476D01*
X159425714Y-77208095D01*
X159330476Y-77255714D01*
X159282857Y-77255714D01*
X159187619Y-77208095D01*
X159140000Y-77160476D01*
X159092380Y-77065238D01*
X159092380Y-76874761D01*
X159140000Y-76779523D01*
X159187619Y-76731904D01*
X159282857Y-76684285D01*
X159330476Y-76684285D01*
X159425714Y-76731904D01*
X159473333Y-76779523D01*
X159520952Y-76874761D01*
X159520952Y-77065238D01*
X159568571Y-77160476D01*
X159616190Y-77208095D01*
X159711428Y-77255714D01*
X159901904Y-77255714D01*
X159997142Y-77208095D01*
X160044761Y-77160476D01*
X160092380Y-77065238D01*
X160092380Y-76874761D01*
X160044761Y-76779523D01*
X159997142Y-76731904D01*
X159901904Y-76684285D01*
X159711428Y-76684285D01*
X159616190Y-76731904D01*
X159568571Y-76779523D01*
X159520952Y-76874761D01*
X160092380Y-103036666D02*
X159616190Y-103370000D01*
X160092380Y-103608095D02*
X159092380Y-103608095D01*
X159092380Y-103227142D01*
X159140000Y-103131904D01*
X159187619Y-103084285D01*
X159282857Y-103036666D01*
X159425714Y-103036666D01*
X159520952Y-103084285D01*
X159568571Y-103131904D01*
X159616190Y-103227142D01*
X159616190Y-103608095D01*
X160092380Y-102560476D02*
X160092380Y-102370000D01*
X160044761Y-102274761D01*
X159997142Y-102227142D01*
X159854285Y-102131904D01*
X159663809Y-102084285D01*
X159282857Y-102084285D01*
X159187619Y-102131904D01*
X159140000Y-102179523D01*
X159092380Y-102274761D01*
X159092380Y-102465238D01*
X159140000Y-102560476D01*
X159187619Y-102608095D01*
X159282857Y-102655714D01*
X159520952Y-102655714D01*
X159616190Y-102608095D01*
X159663809Y-102560476D01*
X159711428Y-102465238D01*
X159711428Y-102274761D01*
X159663809Y-102179523D01*
X159616190Y-102131904D01*
X159520952Y-102084285D01*
X160092380Y-98187857D02*
X159616190Y-98521190D01*
X160092380Y-98759285D02*
X159092380Y-98759285D01*
X159092380Y-98378333D01*
X159140000Y-98283095D01*
X159187619Y-98235476D01*
X159282857Y-98187857D01*
X159425714Y-98187857D01*
X159520952Y-98235476D01*
X159568571Y-98283095D01*
X159616190Y-98378333D01*
X159616190Y-98759285D01*
X160092380Y-97235476D02*
X160092380Y-97806904D01*
X160092380Y-97521190D02*
X159092380Y-97521190D01*
X159235238Y-97616428D01*
X159330476Y-97711666D01*
X159378095Y-97806904D01*
X159092380Y-96616428D02*
X159092380Y-96521190D01*
X159140000Y-96425952D01*
X159187619Y-96378333D01*
X159282857Y-96330714D01*
X159473333Y-96283095D01*
X159711428Y-96283095D01*
X159901904Y-96330714D01*
X159997142Y-96378333D01*
X160044761Y-96425952D01*
X160092380Y-96521190D01*
X160092380Y-96616428D01*
X160044761Y-96711666D01*
X159997142Y-96759285D01*
X159901904Y-96806904D01*
X159711428Y-96854523D01*
X159473333Y-96854523D01*
X159282857Y-96806904D01*
X159187619Y-96759285D01*
X159140000Y-96711666D01*
X159092380Y-96616428D01*
X155102380Y-81992857D02*
X154626190Y-82326190D01*
X155102380Y-82564285D02*
X154102380Y-82564285D01*
X154102380Y-82183333D01*
X154150000Y-82088095D01*
X154197619Y-82040476D01*
X154292857Y-81992857D01*
X154435714Y-81992857D01*
X154530952Y-82040476D01*
X154578571Y-82088095D01*
X154626190Y-82183333D01*
X154626190Y-82564285D01*
X155102380Y-81040476D02*
X155102380Y-81611904D01*
X155102380Y-81326190D02*
X154102380Y-81326190D01*
X154245238Y-81421428D01*
X154340476Y-81516666D01*
X154388095Y-81611904D01*
X155102380Y-80088095D02*
X155102380Y-80659523D01*
X155102380Y-80373809D02*
X154102380Y-80373809D01*
X154245238Y-80469047D01*
X154340476Y-80564285D01*
X154388095Y-80659523D01*
X106275142Y-79287666D02*
X106322761Y-79335285D01*
X106370380Y-79478142D01*
X106370380Y-79573380D01*
X106322761Y-79716238D01*
X106227523Y-79811476D01*
X106132285Y-79859095D01*
X105941809Y-79906714D01*
X105798952Y-79906714D01*
X105608476Y-79859095D01*
X105513238Y-79811476D01*
X105418000Y-79716238D01*
X105370380Y-79573380D01*
X105370380Y-79478142D01*
X105418000Y-79335285D01*
X105465619Y-79287666D01*
X106370380Y-78335285D02*
X106370380Y-78906714D01*
X106370380Y-78621000D02*
X105370380Y-78621000D01*
X105513238Y-78716238D01*
X105608476Y-78811476D01*
X105656095Y-78906714D01*
X111990142Y-79414666D02*
X112037761Y-79462285D01*
X112085380Y-79605142D01*
X112085380Y-79700380D01*
X112037761Y-79843238D01*
X111942523Y-79938476D01*
X111847285Y-79986095D01*
X111656809Y-80033714D01*
X111513952Y-80033714D01*
X111323476Y-79986095D01*
X111228238Y-79938476D01*
X111133000Y-79843238D01*
X111085380Y-79700380D01*
X111085380Y-79605142D01*
X111133000Y-79462285D01*
X111180619Y-79414666D01*
X111180619Y-79033714D02*
X111133000Y-78986095D01*
X111085380Y-78890857D01*
X111085380Y-78652761D01*
X111133000Y-78557523D01*
X111180619Y-78509904D01*
X111275857Y-78462285D01*
X111371095Y-78462285D01*
X111513952Y-78509904D01*
X112085380Y-79081333D01*
X112085380Y-78462285D01*
X119737142Y-91479666D02*
X119784761Y-91527285D01*
X119832380Y-91670142D01*
X119832380Y-91765380D01*
X119784761Y-91908238D01*
X119689523Y-92003476D01*
X119594285Y-92051095D01*
X119403809Y-92098714D01*
X119260952Y-92098714D01*
X119070476Y-92051095D01*
X118975238Y-92003476D01*
X118880000Y-91908238D01*
X118832380Y-91765380D01*
X118832380Y-91670142D01*
X118880000Y-91527285D01*
X118927619Y-91479666D01*
X118832380Y-91146333D02*
X118832380Y-90527285D01*
X119213333Y-90860619D01*
X119213333Y-90717761D01*
X119260952Y-90622523D01*
X119308571Y-90574904D01*
X119403809Y-90527285D01*
X119641904Y-90527285D01*
X119737142Y-90574904D01*
X119784761Y-90622523D01*
X119832380Y-90717761D01*
X119832380Y-91003476D01*
X119784761Y-91098714D01*
X119737142Y-91146333D01*
X117451142Y-79414666D02*
X117498761Y-79462285D01*
X117546380Y-79605142D01*
X117546380Y-79700380D01*
X117498761Y-79843238D01*
X117403523Y-79938476D01*
X117308285Y-79986095D01*
X117117809Y-80033714D01*
X116974952Y-80033714D01*
X116784476Y-79986095D01*
X116689238Y-79938476D01*
X116594000Y-79843238D01*
X116546380Y-79700380D01*
X116546380Y-79605142D01*
X116594000Y-79462285D01*
X116641619Y-79414666D01*
X116879714Y-78557523D02*
X117546380Y-78557523D01*
X116498761Y-78795619D02*
X117213047Y-79033714D01*
X117213047Y-78414666D01*
X89622380Y-97234333D02*
X90336666Y-97234333D01*
X90479523Y-97281952D01*
X90574761Y-97377190D01*
X90622380Y-97520047D01*
X90622380Y-97615285D01*
X90622380Y-96234333D02*
X90622380Y-96805761D01*
X90622380Y-96520047D02*
X89622380Y-96520047D01*
X89765238Y-96615285D01*
X89860476Y-96710523D01*
X89908095Y-96805761D01*
X107529380Y-85597904D02*
X108338904Y-85597904D01*
X108434142Y-85550285D01*
X108481761Y-85502666D01*
X108529380Y-85407428D01*
X108529380Y-85216952D01*
X108481761Y-85121714D01*
X108434142Y-85074095D01*
X108338904Y-85026476D01*
X107529380Y-85026476D01*
X107624619Y-84597904D02*
X107577000Y-84550285D01*
X107529380Y-84455047D01*
X107529380Y-84216952D01*
X107577000Y-84121714D01*
X107624619Y-84074095D01*
X107719857Y-84026476D01*
X107815095Y-84026476D01*
X107957952Y-84074095D01*
X108529380Y-84645523D01*
X108529380Y-84026476D01*
X120708380Y-85978904D02*
X121517904Y-85978904D01*
X121613142Y-85931285D01*
X121660761Y-85883666D01*
X121708380Y-85788428D01*
X121708380Y-85597952D01*
X121660761Y-85502714D01*
X121613142Y-85455095D01*
X121517904Y-85407476D01*
X120708380Y-85407476D01*
X120708380Y-85026523D02*
X120708380Y-84407476D01*
X121089333Y-84740809D01*
X121089333Y-84597952D01*
X121136952Y-84502714D01*
X121184571Y-84455095D01*
X121279809Y-84407476D01*
X121517904Y-84407476D01*
X121613142Y-84455095D01*
X121660761Y-84502714D01*
X121708380Y-84597952D01*
X121708380Y-84883666D01*
X121660761Y-84978904D01*
X121613142Y-85026523D01*
X80817380Y-87328333D02*
X81531666Y-87328333D01*
X81674523Y-87375952D01*
X81769761Y-87471190D01*
X81817380Y-87614047D01*
X81817380Y-87709285D01*
X80817380Y-86947380D02*
X80817380Y-86328333D01*
X81198333Y-86661666D01*
X81198333Y-86518809D01*
X81245952Y-86423571D01*
X81293571Y-86375952D01*
X81388809Y-86328333D01*
X81626904Y-86328333D01*
X81722142Y-86375952D01*
X81769761Y-86423571D01*
X81817380Y-86518809D01*
X81817380Y-86804523D01*
X81769761Y-86899761D01*
X81722142Y-86947380D01*
X86566619Y-79343238D02*
X86519000Y-79438476D01*
X86423761Y-79533714D01*
X86280904Y-79676571D01*
X86233285Y-79771809D01*
X86233285Y-79867047D01*
X86471380Y-79819428D02*
X86423761Y-79914666D01*
X86328523Y-80009904D01*
X86138047Y-80057523D01*
X85804714Y-80057523D01*
X85614238Y-80009904D01*
X85519000Y-79914666D01*
X85471380Y-79819428D01*
X85471380Y-79628952D01*
X85519000Y-79533714D01*
X85614238Y-79438476D01*
X85804714Y-79390857D01*
X86138047Y-79390857D01*
X86328523Y-79438476D01*
X86423761Y-79533714D01*
X86471380Y-79628952D01*
X86471380Y-79819428D01*
X86471380Y-78438476D02*
X86471380Y-79009904D01*
X86471380Y-78724190D02*
X85471380Y-78724190D01*
X85614238Y-78819428D01*
X85709476Y-78914666D01*
X85757095Y-79009904D01*
X86748619Y-87725238D02*
X86701000Y-87820476D01*
X86605761Y-87915714D01*
X86462904Y-88058571D01*
X86415285Y-88153809D01*
X86415285Y-88249047D01*
X86653380Y-88201428D02*
X86605761Y-88296666D01*
X86510523Y-88391904D01*
X86320047Y-88439523D01*
X85986714Y-88439523D01*
X85796238Y-88391904D01*
X85701000Y-88296666D01*
X85653380Y-88201428D01*
X85653380Y-88010952D01*
X85701000Y-87915714D01*
X85796238Y-87820476D01*
X85986714Y-87772857D01*
X86320047Y-87772857D01*
X86510523Y-87820476D01*
X86605761Y-87915714D01*
X86653380Y-88010952D01*
X86653380Y-88201428D01*
X85748619Y-87391904D02*
X85701000Y-87344285D01*
X85653380Y-87249047D01*
X85653380Y-87010952D01*
X85701000Y-86915714D01*
X85748619Y-86868095D01*
X85843857Y-86820476D01*
X85939095Y-86820476D01*
X86081952Y-86868095D01*
X86653380Y-87439523D01*
X86653380Y-86820476D01*
X81367333Y-75891380D02*
X81034000Y-75415190D01*
X80795904Y-75891380D02*
X80795904Y-74891380D01*
X81176857Y-74891380D01*
X81272095Y-74939000D01*
X81319714Y-74986619D01*
X81367333Y-75081857D01*
X81367333Y-75224714D01*
X81319714Y-75319952D01*
X81272095Y-75367571D01*
X81176857Y-75415190D01*
X80795904Y-75415190D01*
X82319714Y-75891380D02*
X81748285Y-75891380D01*
X82034000Y-75891380D02*
X82034000Y-74891380D01*
X81938761Y-75034238D01*
X81843523Y-75129476D01*
X81748285Y-75177095D01*
X86860142Y-94052380D02*
X86526809Y-93576190D01*
X86288714Y-94052380D02*
X86288714Y-93052380D01*
X86669666Y-93052380D01*
X86764904Y-93100000D01*
X86812523Y-93147619D01*
X86860142Y-93242857D01*
X86860142Y-93385714D01*
X86812523Y-93480952D01*
X86764904Y-93528571D01*
X86669666Y-93576190D01*
X86288714Y-93576190D01*
X87812523Y-94052380D02*
X87241095Y-94052380D01*
X87526809Y-94052380D02*
X87526809Y-93052380D01*
X87431571Y-93195238D01*
X87336333Y-93290476D01*
X87241095Y-93338095D01*
X88193476Y-93147619D02*
X88241095Y-93100000D01*
X88336333Y-93052380D01*
X88574428Y-93052380D01*
X88669666Y-93100000D01*
X88717285Y-93147619D01*
X88764904Y-93242857D01*
X88764904Y-93338095D01*
X88717285Y-93480952D01*
X88145857Y-94052380D01*
X88764904Y-94052380D01*
X81145142Y-97352380D02*
X80811809Y-96876190D01*
X80573714Y-97352380D02*
X80573714Y-96352380D01*
X80954666Y-96352380D01*
X81049904Y-96400000D01*
X81097523Y-96447619D01*
X81145142Y-96542857D01*
X81145142Y-96685714D01*
X81097523Y-96780952D01*
X81049904Y-96828571D01*
X80954666Y-96876190D01*
X80573714Y-96876190D01*
X82097523Y-97352380D02*
X81526095Y-97352380D01*
X81811809Y-97352380D02*
X81811809Y-96352380D01*
X81716571Y-96495238D01*
X81621333Y-96590476D01*
X81526095Y-96638095D01*
X82430857Y-96352380D02*
X83049904Y-96352380D01*
X82716571Y-96733333D01*
X82859428Y-96733333D01*
X82954666Y-96780952D01*
X83002285Y-96828571D01*
X83049904Y-96923809D01*
X83049904Y-97161904D01*
X83002285Y-97257142D01*
X82954666Y-97304761D01*
X82859428Y-97352380D01*
X82573714Y-97352380D01*
X82478476Y-97304761D01*
X82430857Y-97257142D01*
M02*
