%TF.GenerationSoftware,KiCad,Pcbnew,(5.1.9)-1*%
%TF.CreationDate,2022-03-08T15:51:05-05:00*%
%TF.ProjectId,Front Dash,46726f6e-7420-4446-9173-682e6b696361,rev?*%
%TF.SameCoordinates,Original*%
%TF.FileFunction,Copper,L1,Top*%
%TF.FilePolarity,Positive*%
%FSLAX46Y46*%
G04 Gerber Fmt 4.6, Leading zero omitted, Abs format (unit mm)*
G04 Created by KiCad (PCBNEW (5.1.9)-1) date 2022-03-08 15:51:05*
%MOMM*%
%LPD*%
G01*
G04 APERTURE LIST*
%TA.AperFunction,NonConductor*%
%ADD10C,0.762000*%
%TD*%
%TA.AperFunction,ComponentPad*%
%ADD11C,1.800000*%
%TD*%
%TA.AperFunction,ComponentPad*%
%ADD12R,1.800000X1.800000*%
%TD*%
%TA.AperFunction,ComponentPad*%
%ADD13C,1.524000*%
%TD*%
%TA.AperFunction,ComponentPad*%
%ADD14C,4.400000*%
%TD*%
%TA.AperFunction,ComponentPad*%
%ADD15O,1.850000X1.700000*%
%TD*%
%TA.AperFunction,ComponentPad*%
%ADD16O,1.700000X1.850000*%
%TD*%
%TA.AperFunction,ViaPad*%
%ADD17C,0.800000*%
%TD*%
%TA.AperFunction,Conductor*%
%ADD18C,0.250000*%
%TD*%
G04 APERTURE END LIST*
D10*
X115470214Y-65513857D02*
X115651642Y-65695285D01*
X115833071Y-66239571D01*
X115833071Y-66602428D01*
X115651642Y-67146714D01*
X115288785Y-67509571D01*
X114925928Y-67691000D01*
X114200214Y-67872428D01*
X113655928Y-67872428D01*
X112930214Y-67691000D01*
X112567357Y-67509571D01*
X112204500Y-67146714D01*
X112023071Y-66602428D01*
X112023071Y-66239571D01*
X112204500Y-65695285D01*
X112385928Y-65513857D01*
X115833071Y-62248142D02*
X113837357Y-62248142D01*
X113474500Y-62429571D01*
X113293071Y-62792428D01*
X113293071Y-63518142D01*
X113474500Y-63881000D01*
X115651642Y-62248142D02*
X115833071Y-62611000D01*
X115833071Y-63518142D01*
X115651642Y-63881000D01*
X115288785Y-64062428D01*
X114925928Y-64062428D01*
X114563071Y-63881000D01*
X114381642Y-63518142D01*
X114381642Y-62611000D01*
X114200214Y-62248142D01*
X115833071Y-60433857D02*
X113293071Y-60433857D01*
X114018785Y-60433857D02*
X113655928Y-60252428D01*
X113474500Y-60071000D01*
X113293071Y-59708142D01*
X113293071Y-59345285D01*
X115833071Y-58075285D02*
X112023071Y-58075285D01*
X114744500Y-56805285D01*
X112023071Y-55535285D01*
X115833071Y-55535285D01*
X115833071Y-52088142D02*
X113837357Y-52088142D01*
X113474500Y-52269571D01*
X113293071Y-52632428D01*
X113293071Y-53358142D01*
X113474500Y-53721000D01*
X115651642Y-52088142D02*
X115833071Y-52451000D01*
X115833071Y-53358142D01*
X115651642Y-53721000D01*
X115288785Y-53902428D01*
X114925928Y-53902428D01*
X114563071Y-53721000D01*
X114381642Y-53358142D01*
X114381642Y-52451000D01*
X114200214Y-52088142D01*
X113293071Y-50273857D02*
X115833071Y-50273857D01*
X113655928Y-50273857D02*
X113474500Y-50092428D01*
X113293071Y-49729571D01*
X113293071Y-49185285D01*
X113474500Y-48822428D01*
X113837357Y-48641000D01*
X115833071Y-48641000D01*
X120314357Y-73133857D02*
X120314357Y-71863857D01*
X122310071Y-71319571D02*
X122310071Y-73133857D01*
X118500071Y-73133857D01*
X118500071Y-71319571D01*
X122310071Y-69142428D02*
X122128642Y-69505285D01*
X121765785Y-69686714D01*
X118500071Y-69686714D01*
X122310071Y-67691000D02*
X119770071Y-67691000D01*
X118500071Y-67691000D02*
X118681500Y-67872428D01*
X118862928Y-67691000D01*
X118681500Y-67509571D01*
X118500071Y-67691000D01*
X118862928Y-67691000D01*
X121947214Y-60796714D02*
X122128642Y-60978142D01*
X122310071Y-61522428D01*
X122310071Y-61885285D01*
X122128642Y-62429571D01*
X121765785Y-62792428D01*
X121402928Y-62973857D01*
X120677214Y-63155285D01*
X120132928Y-63155285D01*
X119407214Y-62973857D01*
X119044357Y-62792428D01*
X118681500Y-62429571D01*
X118500071Y-61885285D01*
X118500071Y-61522428D01*
X118681500Y-60978142D01*
X118862928Y-60796714D01*
X122310071Y-59163857D02*
X119770071Y-59163857D01*
X120495785Y-59163857D02*
X120132928Y-58982428D01*
X119951500Y-58801000D01*
X119770071Y-58438142D01*
X119770071Y-58075285D01*
X122310071Y-56805285D02*
X119770071Y-56805285D01*
X118500071Y-56805285D02*
X118681500Y-56986714D01*
X118862928Y-56805285D01*
X118681500Y-56623857D01*
X118500071Y-56805285D01*
X118862928Y-56805285D01*
X119770071Y-54991000D02*
X123580071Y-54991000D01*
X119951500Y-54991000D02*
X119770071Y-54628142D01*
X119770071Y-53902428D01*
X119951500Y-53539571D01*
X120132928Y-53358142D01*
X120495785Y-53176714D01*
X121584357Y-53176714D01*
X121947214Y-53358142D01*
X122128642Y-53539571D01*
X122310071Y-53902428D01*
X122310071Y-54628142D01*
X122128642Y-54991000D01*
X119770071Y-51543857D02*
X123580071Y-51543857D01*
X119951500Y-51543857D02*
X119770071Y-51181000D01*
X119770071Y-50455285D01*
X119951500Y-50092428D01*
X120132928Y-49911000D01*
X120495785Y-49729571D01*
X121584357Y-49729571D01*
X121947214Y-49911000D01*
X122128642Y-50092428D01*
X122310071Y-50455285D01*
X122310071Y-51181000D01*
X122128642Y-51543857D01*
X122128642Y-46645285D02*
X122310071Y-47008142D01*
X122310071Y-47733857D01*
X122128642Y-48096714D01*
X121765785Y-48278142D01*
X120314357Y-48278142D01*
X119951500Y-48096714D01*
X119770071Y-47733857D01*
X119770071Y-47008142D01*
X119951500Y-46645285D01*
X120314357Y-46463857D01*
X120677214Y-46463857D01*
X121040071Y-48278142D01*
X119770071Y-44831000D02*
X122310071Y-44831000D01*
X120132928Y-44831000D02*
X119951500Y-44649571D01*
X119770071Y-44286714D01*
X119770071Y-43742428D01*
X119951500Y-43379571D01*
X120314357Y-43198142D01*
X122310071Y-43198142D01*
X149451785Y-64534142D02*
X149609023Y-64691380D01*
X149766261Y-65163095D01*
X149766261Y-65477571D01*
X149609023Y-65949285D01*
X149294547Y-66263761D01*
X148980071Y-66421000D01*
X148351119Y-66578238D01*
X147879404Y-66578238D01*
X147250452Y-66421000D01*
X146935976Y-66263761D01*
X146621500Y-65949285D01*
X146464261Y-65477571D01*
X146464261Y-65163095D01*
X146621500Y-64691380D01*
X146778738Y-64534142D01*
X149766261Y-61703857D02*
X148036642Y-61703857D01*
X147722166Y-61861095D01*
X147564928Y-62175571D01*
X147564928Y-62804523D01*
X147722166Y-63119000D01*
X149609023Y-61703857D02*
X149766261Y-62018333D01*
X149766261Y-62804523D01*
X149609023Y-63119000D01*
X149294547Y-63276238D01*
X148980071Y-63276238D01*
X148665595Y-63119000D01*
X148508357Y-62804523D01*
X148508357Y-62018333D01*
X148351119Y-61703857D01*
X149766261Y-60131476D02*
X147564928Y-60131476D01*
X148193880Y-60131476D02*
X147879404Y-59974238D01*
X147722166Y-59817000D01*
X147564928Y-59502523D01*
X147564928Y-59188047D01*
X149766261Y-58087380D02*
X146464261Y-58087380D01*
X148822833Y-56986714D01*
X146464261Y-55886047D01*
X149766261Y-55886047D01*
X149766261Y-52898523D02*
X148036642Y-52898523D01*
X147722166Y-53055761D01*
X147564928Y-53370238D01*
X147564928Y-53999190D01*
X147722166Y-54313666D01*
X149609023Y-52898523D02*
X149766261Y-53213000D01*
X149766261Y-53999190D01*
X149609023Y-54313666D01*
X149294547Y-54470904D01*
X148980071Y-54470904D01*
X148665595Y-54313666D01*
X148508357Y-53999190D01*
X148508357Y-53213000D01*
X148351119Y-52898523D01*
X147564928Y-51326142D02*
X149766261Y-51326142D01*
X147879404Y-51326142D02*
X147722166Y-51168904D01*
X147564928Y-50854428D01*
X147564928Y-50382714D01*
X147722166Y-50068238D01*
X148036642Y-49911000D01*
X149766261Y-49911000D01*
X155481261Y-73103619D02*
X152179261Y-73103619D01*
X154537833Y-72002952D01*
X152179261Y-70902285D01*
X155481261Y-70902285D01*
X155481261Y-67914761D02*
X153751642Y-67914761D01*
X153437166Y-68072000D01*
X153279928Y-68386476D01*
X153279928Y-69015428D01*
X153437166Y-69329904D01*
X155324023Y-67914761D02*
X155481261Y-68229238D01*
X155481261Y-69015428D01*
X155324023Y-69329904D01*
X155009547Y-69487142D01*
X154695071Y-69487142D01*
X154380595Y-69329904D01*
X154223357Y-69015428D01*
X154223357Y-68229238D01*
X154066119Y-67914761D01*
X155481261Y-66342380D02*
X153279928Y-66342380D01*
X153908880Y-66342380D02*
X153594404Y-66185142D01*
X153437166Y-66027904D01*
X153279928Y-65713428D01*
X153279928Y-65398952D01*
X153279928Y-64612761D02*
X155481261Y-63983809D01*
X153908880Y-63354857D01*
X155481261Y-62725904D01*
X153279928Y-62096952D01*
X155481261Y-59423904D02*
X153751642Y-59423904D01*
X153437166Y-59581142D01*
X153279928Y-59895619D01*
X153279928Y-60524571D01*
X153437166Y-60839047D01*
X155324023Y-59423904D02*
X155481261Y-59738380D01*
X155481261Y-60524571D01*
X155324023Y-60839047D01*
X155009547Y-60996285D01*
X154695071Y-60996285D01*
X154380595Y-60839047D01*
X154223357Y-60524571D01*
X154223357Y-59738380D01*
X154066119Y-59423904D01*
X155324023Y-55492952D02*
X155481261Y-55021238D01*
X155481261Y-54235047D01*
X155324023Y-53920571D01*
X155166785Y-53763333D01*
X154852309Y-53606095D01*
X154537833Y-53606095D01*
X154223357Y-53763333D01*
X154066119Y-53920571D01*
X153908880Y-54235047D01*
X153751642Y-54864000D01*
X153594404Y-55178476D01*
X153437166Y-55335714D01*
X153122690Y-55492952D01*
X152808214Y-55492952D01*
X152493738Y-55335714D01*
X152336500Y-55178476D01*
X152179261Y-54864000D01*
X152179261Y-54077809D01*
X152336500Y-53606095D01*
X155481261Y-50775809D02*
X153751642Y-50775809D01*
X153437166Y-50933047D01*
X153279928Y-51247523D01*
X153279928Y-51876476D01*
X153437166Y-52190952D01*
X155324023Y-50775809D02*
X155481261Y-51090285D01*
X155481261Y-51876476D01*
X155324023Y-52190952D01*
X155009547Y-52348190D01*
X154695071Y-52348190D01*
X154380595Y-52190952D01*
X154223357Y-51876476D01*
X154223357Y-51090285D01*
X154066119Y-50775809D01*
X155481261Y-48731714D02*
X155324023Y-49046190D01*
X155009547Y-49203428D01*
X152179261Y-49203428D01*
X155324023Y-46215904D02*
X155481261Y-46530380D01*
X155481261Y-47159333D01*
X155324023Y-47473809D01*
X155009547Y-47631047D01*
X153751642Y-47631047D01*
X153437166Y-47473809D01*
X153279928Y-47159333D01*
X153279928Y-46530380D01*
X153437166Y-46215904D01*
X153751642Y-46058666D01*
X154066119Y-46058666D01*
X154380595Y-47631047D01*
X155481261Y-44643523D02*
X152179261Y-44643523D01*
X155481261Y-43228380D02*
X153751642Y-43228380D01*
X153437166Y-43385619D01*
X153279928Y-43700095D01*
X153279928Y-44171809D01*
X153437166Y-44486285D01*
X153594404Y-44643523D01*
X213822642Y-62048571D02*
X213822642Y-63149238D01*
X215552261Y-63149238D02*
X212250261Y-63149238D01*
X212250261Y-61576857D01*
X215395023Y-60476190D02*
X215552261Y-60004476D01*
X215552261Y-59218285D01*
X215395023Y-58903809D01*
X215237785Y-58746571D01*
X214923309Y-58589333D01*
X214608833Y-58589333D01*
X214294357Y-58746571D01*
X214137119Y-58903809D01*
X213979880Y-59218285D01*
X213822642Y-59847238D01*
X213665404Y-60161714D01*
X213508166Y-60318952D01*
X213193690Y-60476190D01*
X212879214Y-60476190D01*
X212564738Y-60318952D01*
X212407500Y-60161714D01*
X212250261Y-59847238D01*
X212250261Y-59061047D01*
X212407500Y-58589333D01*
X214608833Y-57331428D02*
X214608833Y-55759047D01*
X215552261Y-57645904D02*
X212250261Y-56545238D01*
X215552261Y-55444571D01*
X213822642Y-54343904D02*
X213822642Y-53243238D01*
X215552261Y-52771523D02*
X215552261Y-54343904D01*
X212250261Y-54343904D01*
X212250261Y-52771523D01*
X217965261Y-74313142D02*
X217965261Y-72426285D01*
X221267261Y-73369714D02*
X217965261Y-73369714D01*
X221267261Y-69910476D02*
X219537642Y-69910476D01*
X219223166Y-70067714D01*
X219065928Y-70382190D01*
X219065928Y-71011142D01*
X219223166Y-71325619D01*
X221110023Y-69910476D02*
X221267261Y-70224952D01*
X221267261Y-71011142D01*
X221110023Y-71325619D01*
X220795547Y-71482857D01*
X220481071Y-71482857D01*
X220166595Y-71325619D01*
X220009357Y-71011142D01*
X220009357Y-70224952D01*
X219852119Y-69910476D01*
X219065928Y-68809809D02*
X219065928Y-67551904D01*
X221267261Y-68338095D02*
X218436976Y-68338095D01*
X218122500Y-68180857D01*
X217965261Y-67866380D01*
X217965261Y-67551904D01*
X221267261Y-66451238D02*
X219065928Y-66451238D01*
X217965261Y-66451238D02*
X218122500Y-66608476D01*
X218279738Y-66451238D01*
X218122500Y-66294000D01*
X217965261Y-66451238D01*
X218279738Y-66451238D01*
X219065928Y-65350571D02*
X219065928Y-64092666D01*
X217965261Y-64878857D02*
X220795547Y-64878857D01*
X221110023Y-64721619D01*
X221267261Y-64407142D01*
X221267261Y-64092666D01*
X221267261Y-61576857D02*
X219537642Y-61576857D01*
X219223166Y-61734095D01*
X219065928Y-62048571D01*
X219065928Y-62677523D01*
X219223166Y-62992000D01*
X221110023Y-61576857D02*
X221267261Y-61891333D01*
X221267261Y-62677523D01*
X221110023Y-62992000D01*
X220795547Y-63149238D01*
X220481071Y-63149238D01*
X220166595Y-62992000D01*
X220009357Y-62677523D01*
X220009357Y-61891333D01*
X219852119Y-61576857D01*
X221267261Y-55601809D02*
X219694880Y-56702476D01*
X221267261Y-57488666D02*
X217965261Y-57488666D01*
X217965261Y-56230761D01*
X218122500Y-55916285D01*
X218279738Y-55759047D01*
X218594214Y-55601809D01*
X219065928Y-55601809D01*
X219380404Y-55759047D01*
X219537642Y-55916285D01*
X219694880Y-56230761D01*
X219694880Y-57488666D01*
X221267261Y-52771523D02*
X219537642Y-52771523D01*
X219223166Y-52928761D01*
X219065928Y-53243238D01*
X219065928Y-53872190D01*
X219223166Y-54186666D01*
X221110023Y-52771523D02*
X221267261Y-53086000D01*
X221267261Y-53872190D01*
X221110023Y-54186666D01*
X220795547Y-54343904D01*
X220481071Y-54343904D01*
X220166595Y-54186666D01*
X220009357Y-53872190D01*
X220009357Y-53086000D01*
X219852119Y-52771523D01*
X221267261Y-51199142D02*
X217965261Y-51199142D01*
X220009357Y-50884666D02*
X221267261Y-49941238D01*
X219065928Y-49941238D02*
X220323833Y-51199142D01*
X221267261Y-48054380D02*
X221110023Y-48368857D01*
X220952785Y-48526095D01*
X220638309Y-48683333D01*
X219694880Y-48683333D01*
X219380404Y-48526095D01*
X219223166Y-48368857D01*
X219065928Y-48054380D01*
X219065928Y-47582666D01*
X219223166Y-47268190D01*
X219380404Y-47110952D01*
X219694880Y-46953714D01*
X220638309Y-46953714D01*
X220952785Y-47110952D01*
X221110023Y-47268190D01*
X221267261Y-47582666D01*
X221267261Y-48054380D01*
X219065928Y-46010285D02*
X219065928Y-44752380D01*
X217965261Y-45538571D02*
X220795547Y-45538571D01*
X221110023Y-45381333D01*
X221267261Y-45066857D01*
X221267261Y-44752380D01*
X221267261Y-43180000D02*
X221110023Y-43494476D01*
X220952785Y-43651714D01*
X220638309Y-43808952D01*
X219694880Y-43808952D01*
X219380404Y-43651714D01*
X219223166Y-43494476D01*
X219065928Y-43180000D01*
X219065928Y-42708285D01*
X219223166Y-42393809D01*
X219380404Y-42236571D01*
X219694880Y-42079333D01*
X220638309Y-42079333D01*
X220952785Y-42236571D01*
X221110023Y-42393809D01*
X221267261Y-42708285D01*
X221267261Y-43180000D01*
X181963785Y-64534142D02*
X182121023Y-64691380D01*
X182278261Y-65163095D01*
X182278261Y-65477571D01*
X182121023Y-65949285D01*
X181806547Y-66263761D01*
X181492071Y-66421000D01*
X180863119Y-66578238D01*
X180391404Y-66578238D01*
X179762452Y-66421000D01*
X179447976Y-66263761D01*
X179133500Y-65949285D01*
X178976261Y-65477571D01*
X178976261Y-65163095D01*
X179133500Y-64691380D01*
X179290738Y-64534142D01*
X182278261Y-61703857D02*
X180548642Y-61703857D01*
X180234166Y-61861095D01*
X180076928Y-62175571D01*
X180076928Y-62804523D01*
X180234166Y-63119000D01*
X182121023Y-61703857D02*
X182278261Y-62018333D01*
X182278261Y-62804523D01*
X182121023Y-63119000D01*
X181806547Y-63276238D01*
X181492071Y-63276238D01*
X181177595Y-63119000D01*
X181020357Y-62804523D01*
X181020357Y-62018333D01*
X180863119Y-61703857D01*
X182278261Y-60131476D02*
X180076928Y-60131476D01*
X180705880Y-60131476D02*
X180391404Y-59974238D01*
X180234166Y-59817000D01*
X180076928Y-59502523D01*
X180076928Y-59188047D01*
X182278261Y-58087380D02*
X178976261Y-58087380D01*
X181334833Y-56986714D01*
X178976261Y-55886047D01*
X182278261Y-55886047D01*
X182278261Y-52898523D02*
X180548642Y-52898523D01*
X180234166Y-53055761D01*
X180076928Y-53370238D01*
X180076928Y-53999190D01*
X180234166Y-54313666D01*
X182121023Y-52898523D02*
X182278261Y-53213000D01*
X182278261Y-53999190D01*
X182121023Y-54313666D01*
X181806547Y-54470904D01*
X181492071Y-54470904D01*
X181177595Y-54313666D01*
X181020357Y-53999190D01*
X181020357Y-53213000D01*
X180863119Y-52898523D01*
X180076928Y-51326142D02*
X182278261Y-51326142D01*
X180391404Y-51326142D02*
X180234166Y-51168904D01*
X180076928Y-50854428D01*
X180076928Y-50382714D01*
X180234166Y-50068238D01*
X180548642Y-49911000D01*
X182278261Y-49911000D01*
X184691261Y-74518761D02*
X184691261Y-72631904D01*
X187993261Y-73575333D02*
X184691261Y-73575333D01*
X187993261Y-70116095D02*
X186263642Y-70116095D01*
X185949166Y-70273333D01*
X185791928Y-70587809D01*
X185791928Y-71216761D01*
X185949166Y-71531238D01*
X187836023Y-70116095D02*
X187993261Y-70430571D01*
X187993261Y-71216761D01*
X187836023Y-71531238D01*
X187521547Y-71688476D01*
X187207071Y-71688476D01*
X186892595Y-71531238D01*
X186735357Y-71216761D01*
X186735357Y-70430571D01*
X186578119Y-70116095D01*
X185791928Y-68858190D02*
X187993261Y-68072000D01*
X185791928Y-67285809D02*
X187993261Y-68072000D01*
X188779452Y-68386476D01*
X188936690Y-68543714D01*
X189093928Y-68858190D01*
X187993261Y-65556190D02*
X187836023Y-65870666D01*
X187521547Y-66027904D01*
X184691261Y-66027904D01*
X187993261Y-63826571D02*
X187836023Y-64141047D01*
X187678785Y-64298285D01*
X187364309Y-64455523D01*
X186420880Y-64455523D01*
X186106404Y-64298285D01*
X185949166Y-64141047D01*
X185791928Y-63826571D01*
X185791928Y-63354857D01*
X185949166Y-63040380D01*
X186106404Y-62883142D01*
X186420880Y-62725904D01*
X187364309Y-62725904D01*
X187678785Y-62883142D01*
X187836023Y-63040380D01*
X187993261Y-63354857D01*
X187993261Y-63826571D01*
X187993261Y-61310761D02*
X185791928Y-61310761D01*
X186420880Y-61310761D02*
X186106404Y-61153523D01*
X185949166Y-60996285D01*
X185791928Y-60681809D01*
X185791928Y-60367333D01*
X187836023Y-56908095D02*
X187993261Y-56436380D01*
X187993261Y-55650190D01*
X187836023Y-55335714D01*
X187678785Y-55178476D01*
X187364309Y-55021238D01*
X187049833Y-55021238D01*
X186735357Y-55178476D01*
X186578119Y-55335714D01*
X186420880Y-55650190D01*
X186263642Y-56279142D01*
X186106404Y-56593619D01*
X185949166Y-56750857D01*
X185634690Y-56908095D01*
X185320214Y-56908095D01*
X185005738Y-56750857D01*
X184848500Y-56593619D01*
X184691261Y-56279142D01*
X184691261Y-55492952D01*
X184848500Y-55021238D01*
X185791928Y-54077809D02*
X185791928Y-52819904D01*
X184691261Y-53606095D02*
X187521547Y-53606095D01*
X187836023Y-53448857D01*
X187993261Y-53134380D01*
X187993261Y-52819904D01*
X187993261Y-51719238D02*
X185791928Y-51719238D01*
X186420880Y-51719238D02*
X186106404Y-51562000D01*
X185949166Y-51404761D01*
X185791928Y-51090285D01*
X185791928Y-50775809D01*
X187993261Y-49203428D02*
X187836023Y-49517904D01*
X187678785Y-49675142D01*
X187364309Y-49832380D01*
X186420880Y-49832380D01*
X186106404Y-49675142D01*
X185949166Y-49517904D01*
X185791928Y-49203428D01*
X185791928Y-48731714D01*
X185949166Y-48417238D01*
X186106404Y-48260000D01*
X186420880Y-48102761D01*
X187364309Y-48102761D01*
X187678785Y-48260000D01*
X187836023Y-48417238D01*
X187993261Y-48731714D01*
X187993261Y-49203428D01*
X185791928Y-46687619D02*
X187993261Y-46687619D01*
X186106404Y-46687619D02*
X185949166Y-46530380D01*
X185791928Y-46215904D01*
X185791928Y-45744190D01*
X185949166Y-45429714D01*
X186263642Y-45272476D01*
X187993261Y-45272476D01*
X185791928Y-42284952D02*
X188464976Y-42284952D01*
X188779452Y-42442190D01*
X188936690Y-42599428D01*
X189093928Y-42913904D01*
X189093928Y-43385619D01*
X188936690Y-43700095D01*
X187836023Y-42284952D02*
X187993261Y-42599428D01*
X187993261Y-43228380D01*
X187836023Y-43542857D01*
X187678785Y-43700095D01*
X187364309Y-43857333D01*
X186420880Y-43857333D01*
X186106404Y-43700095D01*
X185949166Y-43542857D01*
X185791928Y-43228380D01*
X185791928Y-42599428D01*
X185949166Y-42284952D01*
D11*
%TO.P,D1,2*%
%TO.N,Net-(D1-Pad2)*%
X242570000Y-97282000D03*
D12*
%TO.P,D1,1*%
%TO.N,Net-(D1-Pad1)*%
X240030000Y-97282000D03*
%TD*%
D11*
%TO.P,D7,2*%
%TO.N,Net-(D1-Pad2)*%
X64770000Y-97282000D03*
D12*
%TO.P,D7,1*%
%TO.N,Net-(D7-Pad1)*%
X62230000Y-97282000D03*
%TD*%
D11*
%TO.P,D6,2*%
%TO.N,Net-(D1-Pad2)*%
X64770000Y-66040000D03*
D12*
%TO.P,D6,1*%
%TO.N,Net-(D6-Pad1)*%
X62230000Y-66040000D03*
%TD*%
D11*
%TO.P,D5,2*%
%TO.N,Net-(D1-Pad2)*%
X64770000Y-40386000D03*
D12*
%TO.P,D5,1*%
%TO.N,Net-(D5-Pad1)*%
X62230000Y-40386000D03*
%TD*%
D11*
%TO.P,D4,2*%
%TO.N,Net-(D1-Pad2)*%
X109220000Y-97282000D03*
D12*
%TO.P,D4,1*%
%TO.N,Net-(D4-Pad1)*%
X106680000Y-97282000D03*
%TD*%
D11*
%TO.P,D3,2*%
%TO.N,Net-(D1-Pad2)*%
X153670000Y-97282000D03*
D12*
%TO.P,D3,1*%
%TO.N,Net-(D3-Pad1)*%
X151130000Y-97282000D03*
%TD*%
D11*
%TO.P,D2,2*%
%TO.N,Net-(D1-Pad2)*%
X198120000Y-97282000D03*
D12*
%TO.P,D2,1*%
%TO.N,Net-(D2-Pad1)*%
X195580000Y-97282000D03*
%TD*%
D13*
%TO.P,PS1,7*%
%TO.N,Net-(PS1-Pad7)*%
X227584000Y-73660000D03*
%TO.P,PS1,6*%
%TO.N,Net-(C2-Pad2)*%
X230124000Y-73660000D03*
%TO.P,PS1,5*%
%TO.N,Net-(C2-Pad1)*%
X232664000Y-73660000D03*
%TO.P,PS1,4*%
%TO.N,Net-(PS1-Pad4)*%
X235204000Y-73660000D03*
%TO.P,PS1,3*%
%TO.N,Net-(PS1-Pad3)*%
X240284000Y-73660000D03*
%TO.P,PS1,2*%
%TO.N,Net-(C1-Pad1)*%
X242824000Y-73660000D03*
%TO.P,PS1,1*%
%TO.N,Net-(C1-Pad2)*%
X245364000Y-73660000D03*
%TD*%
D14*
%TO.P,H3,1*%
%TO.N,Net-(D1-Pad2)*%
X217551000Y-87630000D03*
%TD*%
%TO.P,H2,1*%
%TO.N,Net-(D1-Pad2)*%
X84861400Y-59004200D03*
%TD*%
%TO.P,H1,1*%
%TO.N,Net-(D1-Pad2)*%
X84861400Y-87579200D03*
%TD*%
D15*
%TO.P,J2,2*%
%TO.N,Net-(C2-Pad1)*%
X241046000Y-66254000D03*
%TO.P,J2,1*%
%TO.N,Net-(C2-Pad2)*%
%TA.AperFunction,ComponentPad*%
G36*
G01*
X240371000Y-62904000D02*
X241721000Y-62904000D01*
G75*
G02*
X241971000Y-63154000I0J-250000D01*
G01*
X241971000Y-64354000D01*
G75*
G02*
X241721000Y-64604000I-250000J0D01*
G01*
X240371000Y-64604000D01*
G75*
G02*
X240121000Y-64354000I0J250000D01*
G01*
X240121000Y-63154000D01*
G75*
G02*
X240371000Y-62904000I250000J0D01*
G01*
G37*
%TD.AperFunction*%
%TD*%
D16*
%TO.P,J1,10*%
%TO.N,Net-(C1-Pad1)*%
X141076000Y-88392000D03*
%TO.P,J1,9*%
%TO.N,Net-(C1-Pad2)*%
X143576000Y-88392000D03*
%TO.P,J1,8*%
%TO.N,Net-(J1-Pad8)*%
X146076000Y-88392000D03*
%TO.P,J1,7*%
%TO.N,Net-(J1-Pad7)*%
X148576000Y-88392000D03*
%TO.P,J1,6*%
%TO.N,Net-(J1-Pad6)*%
X151076000Y-88392000D03*
%TO.P,J1,5*%
%TO.N,Net-(J1-Pad5)*%
X153576000Y-88392000D03*
%TO.P,J1,4*%
%TO.N,Net-(J1-Pad4)*%
X156076000Y-88392000D03*
%TO.P,J1,3*%
%TO.N,Net-(J1-Pad3)*%
X158576000Y-88392000D03*
%TO.P,J1,2*%
%TO.N,Net-(J1-Pad2)*%
X161076000Y-88392000D03*
%TO.P,J1,1*%
%TO.N,Net-(D1-Pad2)*%
%TA.AperFunction,ComponentPad*%
G36*
G01*
X164426000Y-87717000D02*
X164426000Y-89067000D01*
G75*
G02*
X164176000Y-89317000I-250000J0D01*
G01*
X162976000Y-89317000D01*
G75*
G02*
X162726000Y-89067000I0J250000D01*
G01*
X162726000Y-87717000D01*
G75*
G02*
X162976000Y-87467000I250000J0D01*
G01*
X164176000Y-87467000D01*
G75*
G02*
X164426000Y-87717000I0J-250000D01*
G01*
G37*
%TD.AperFunction*%
%TD*%
D17*
%TO.N,*%
X205486000Y-41783000D03*
X208534000Y-41783000D03*
X215646000Y-48895000D03*
X212598000Y-48895000D03*
X205486000Y-73533000D03*
X212598000Y-66421000D03*
X215646000Y-66421000D03*
X208534000Y-73533000D03*
X172212000Y-42037000D03*
X175260000Y-42037000D03*
X175260000Y-73533000D03*
X172212000Y-73533000D03*
X139700000Y-42037000D03*
X142748000Y-42037000D03*
X142748000Y-73533000D03*
X139700000Y-73533000D03*
X108712000Y-41783000D03*
X105664000Y-74041000D03*
X108712000Y-74041000D03*
X105664000Y-41783000D03*
X115824000Y-69850000D03*
X112776000Y-69850000D03*
X112776000Y-46101000D03*
X115824000Y-46101000D03*
X149860000Y-47371000D03*
X146812000Y-47371000D03*
X146812000Y-68326000D03*
X149860000Y-68326000D03*
X179324000Y-68580000D03*
X182372000Y-68580000D03*
X182372000Y-47117000D03*
X179324000Y-47117000D03*
%TO.N,Net-(D1-Pad1)*%
X232410000Y-94615000D03*
%TO.N,Net-(D5-Pad1)*%
X69850000Y-38100000D03*
%TO.N,Net-(D7-Pad1)*%
X68580000Y-95885000D03*
%TO.N,Net-(D4-Pad1)*%
X113030000Y-95885000D03*
%TO.N,Net-(D6-Pad1)*%
X71120000Y-63500000D03*
%TO.N,Net-(D2-Pad1)*%
X190500000Y-94615000D03*
%TO.N,Net-(C1-Pad1)*%
X95758000Y-92202000D03*
X83312000Y-98806000D03*
%TO.N,Net-(D1-Pad2)*%
X182626000Y-85852000D03*
%TO.N,Net-(D3-Pad1)*%
X157734000Y-96012000D03*
%TD*%
D18*
%TO.N,*%
X205486000Y-41783000D02*
X208534000Y-38735000D01*
X208534000Y-38735000D02*
X214122000Y-38735000D01*
X215646000Y-40259000D02*
X215646000Y-48895000D01*
X214122000Y-38735000D02*
X215646000Y-40259000D01*
X208534000Y-41783000D02*
X210058000Y-40259000D01*
X210058000Y-40259000D02*
X211582000Y-40259000D01*
X211582000Y-40259000D02*
X212598000Y-41275000D01*
X212598000Y-41275000D02*
X212598000Y-48895000D01*
X208534000Y-76581000D02*
X214122000Y-76581000D01*
X214122000Y-76581000D02*
X215646000Y-75057000D01*
X211582000Y-75057000D02*
X212598000Y-74041000D01*
X215646000Y-75057000D02*
X215646000Y-66421000D01*
X210058000Y-75057000D02*
X211582000Y-75057000D01*
X208534000Y-73533000D02*
X210058000Y-75057000D01*
X212598000Y-74041000D02*
X212598000Y-66421000D01*
X205486000Y-73533000D02*
X208534000Y-76581000D01*
X178308000Y-75057000D02*
X179324000Y-74041000D01*
X175260000Y-76581000D02*
X180848000Y-76581000D01*
X175260000Y-73533000D02*
X176784000Y-75057000D01*
X180848000Y-76581000D02*
X182372000Y-75057000D01*
X172212000Y-73533000D02*
X175260000Y-76581000D01*
X176784000Y-75057000D02*
X178308000Y-75057000D01*
X145796000Y-75057000D02*
X146812000Y-74041000D01*
X142748000Y-76581000D02*
X148336000Y-76581000D01*
X142748000Y-73533000D02*
X144272000Y-75057000D01*
X148336000Y-76581000D02*
X149860000Y-75057000D01*
X139700000Y-73533000D02*
X142748000Y-76581000D01*
X144272000Y-75057000D02*
X145796000Y-75057000D01*
X110236000Y-75565000D02*
X111760000Y-75565000D01*
X108712000Y-38735000D02*
X114300000Y-38735000D01*
X108712000Y-77089000D02*
X114300000Y-77089000D01*
X114300000Y-38735000D02*
X115824000Y-40259000D01*
X111760000Y-75565000D02*
X112776000Y-74549000D01*
X108712000Y-74041000D02*
X110236000Y-75565000D01*
X114300000Y-77089000D02*
X115824000Y-75565000D01*
X105664000Y-74041000D02*
X108712000Y-77089000D01*
X105664000Y-41783000D02*
X108712000Y-38735000D01*
X112776000Y-74549000D02*
X112776000Y-69850000D01*
X115824000Y-75565000D02*
X115824000Y-69850000D01*
X112776000Y-46101000D02*
X112776000Y-46101000D01*
X115824000Y-46101000D02*
X115824000Y-46101000D01*
X115824000Y-46101000D02*
X115824000Y-40386000D01*
X146812000Y-74041000D02*
X146812000Y-68326000D01*
X149860000Y-75057000D02*
X149860000Y-68326000D01*
X146812000Y-47371000D02*
X146812000Y-47371000D01*
X149860000Y-47371000D02*
X149860000Y-47371000D01*
X146812000Y-68326000D02*
X146812000Y-68326000D01*
X149860000Y-68326000D02*
X149860000Y-68326000D01*
X179324000Y-74041000D02*
X179324000Y-68580000D01*
X182372000Y-75057000D02*
X182372000Y-68580000D01*
X144272000Y-40513000D02*
X142748000Y-42037000D01*
X145796000Y-40513000D02*
X144272000Y-40513000D01*
X146812000Y-41529000D02*
X145796000Y-40513000D01*
X146812000Y-47371000D02*
X146812000Y-41529000D01*
X148336000Y-38989000D02*
X142748000Y-38989000D01*
X149860000Y-40513000D02*
X148336000Y-38989000D01*
X142748000Y-38989000D02*
X139700000Y-42037000D01*
X149860000Y-47371000D02*
X149860000Y-40513000D01*
X110236000Y-40259000D02*
X108712000Y-41783000D01*
X111760000Y-40259000D02*
X110236000Y-40259000D01*
X112776000Y-41275000D02*
X111760000Y-40259000D01*
X112776000Y-46101000D02*
X112776000Y-41275000D01*
X115824000Y-40259000D02*
X115824000Y-40386000D01*
X176784000Y-40513000D02*
X175260000Y-42037000D01*
X178308000Y-40513000D02*
X176784000Y-40513000D01*
X179324000Y-41529000D02*
X178308000Y-40513000D01*
X179324000Y-47117000D02*
X179324000Y-47117000D01*
X175260000Y-38989000D02*
X172212000Y-42037000D01*
X180848000Y-38989000D02*
X175260000Y-38989000D01*
X182372000Y-40513000D02*
X180848000Y-38989000D01*
X182372000Y-47117000D02*
X182372000Y-47117000D01*
X179324000Y-68580000D02*
X179324000Y-68580000D01*
X182372000Y-68580000D02*
X182372000Y-68580000D01*
X182372000Y-47117000D02*
X182372000Y-40513000D01*
X179324000Y-47117000D02*
X179324000Y-41529000D01*
%TO.N,Net-(D1-Pad1)*%
X232410000Y-94615000D02*
X238545000Y-94615000D01*
%TO.N,Net-(D1-Pad2)*%
X145415000Y-104775000D02*
X145985000Y-104775000D01*
X53975000Y-104775000D02*
X56450000Y-104775000D01*
X53975000Y-73025000D02*
X55815000Y-73025000D01*
X53975000Y-73025000D02*
X53975000Y-104775000D01*
X137160000Y-104775000D02*
X145415000Y-104775000D01*
X53975000Y-50800000D02*
X53975000Y-73025000D01*
X53975000Y-50165000D02*
X53975000Y-50800000D01*
X112395000Y-104775000D02*
X137160000Y-104775000D01*
X100330000Y-104775000D02*
X112395000Y-104775000D01*
X145415000Y-104775000D02*
X146050000Y-104775000D01*
X164465000Y-104775000D02*
X191770000Y-104775000D01*
X198120000Y-104775000D02*
X191770000Y-104775000D01*
X238975000Y-104775000D02*
X198120000Y-104775000D01*
X244055000Y-99695000D02*
X238975000Y-104775000D01*
X60960000Y-104775000D02*
X67945000Y-104775000D01*
X53975000Y-104775000D02*
X60960000Y-104775000D01*
X53975000Y-47625000D02*
X53975000Y-50800000D01*
X58420000Y-43180000D02*
X53975000Y-47625000D01*
X146050000Y-104775000D02*
X146685000Y-104775000D01*
X137160000Y-104775000D02*
X138430000Y-104775000D01*
X164465000Y-104775000D02*
X165481000Y-104775000D01*
X164465000Y-104775000D02*
X164465000Y-102235000D01*
X164465000Y-102235000D02*
X166624000Y-100076000D01*
X166624000Y-91440000D02*
X163576000Y-88392000D01*
%TO.N,Net-(D5-Pad1)*%
X69850000Y-38100000D02*
X66255000Y-38100000D01*
%TO.N,Net-(D4-Pad1)*%
X113030000Y-95885000D02*
X110705000Y-95885000D01*
%TO.N,Net-(D2-Pad1)*%
X190500000Y-94615000D02*
X194095000Y-94615000D01*
%TO.N,Net-(C1-Pad1)*%
X89154000Y-98806000D02*
X83312000Y-98806000D01*
X95758000Y-92202000D02*
X89154000Y-98806000D01*
%TO.N,Net-(D1-Pad2)*%
X174498000Y-93980000D02*
X166624000Y-93980000D01*
X182626000Y-85852000D02*
X174498000Y-93980000D01*
X166624000Y-93980000D02*
X166624000Y-91440000D01*
X166624000Y-100076000D02*
X166624000Y-93980000D01*
X61976000Y-43180000D02*
X58420000Y-43180000D01*
X64770000Y-40386000D02*
X61976000Y-43180000D01*
X62199000Y-68611000D02*
X60229000Y-68611000D01*
X64770000Y-66040000D02*
X62199000Y-68611000D01*
X60229000Y-68611000D02*
X55815000Y-73025000D01*
X60260000Y-68580000D02*
X60229000Y-68611000D01*
X64770000Y-100584000D02*
X68961000Y-104775000D01*
X64770000Y-97282000D02*
X64770000Y-100584000D01*
X68961000Y-104775000D02*
X100330000Y-104775000D01*
X67945000Y-104775000D02*
X68961000Y-104775000D01*
X155829000Y-104775000D02*
X164465000Y-104775000D01*
X146685000Y-104775000D02*
X155829000Y-104775000D01*
X109220000Y-101600000D02*
X112395000Y-104775000D01*
X109220000Y-97282000D02*
X109220000Y-101600000D01*
X244055000Y-98767000D02*
X244055000Y-99695000D01*
X242570000Y-97282000D02*
X244055000Y-98767000D01*
X199605000Y-103290000D02*
X198120000Y-104775000D01*
X199605000Y-98767000D02*
X199605000Y-103290000D01*
X198120000Y-97282000D02*
X199605000Y-98767000D01*
X153670000Y-102616000D02*
X155829000Y-104775000D01*
X153670000Y-97282000D02*
X153670000Y-102616000D01*
%TO.N,Net-(D1-Pad1)*%
X240030000Y-96100000D02*
X238545000Y-94615000D01*
X240030000Y-97282000D02*
X240030000Y-96100000D01*
%TO.N,Net-(D2-Pad1)*%
X195580000Y-96100000D02*
X194095000Y-94615000D01*
X195580000Y-97282000D02*
X195580000Y-96100000D01*
%TO.N,Net-(D3-Pad1)*%
X157734000Y-96012000D02*
X156972000Y-95250000D01*
X152908000Y-95250000D02*
X155194000Y-95250000D01*
X155194000Y-95250000D02*
X155155000Y-95250000D01*
X156972000Y-95250000D02*
X155194000Y-95250000D01*
X151130000Y-97028000D02*
X152908000Y-95250000D01*
X151130000Y-97282000D02*
X151130000Y-97028000D01*
%TO.N,Net-(D4-Pad1)*%
X108077000Y-95885000D02*
X110705000Y-95885000D01*
X106680000Y-97282000D02*
X108077000Y-95885000D01*
%TO.N,Net-(D5-Pad1)*%
X64516000Y-38100000D02*
X66255000Y-38100000D01*
X62230000Y-40386000D02*
X64516000Y-38100000D01*
%TO.N,Net-(D6-Pad1)*%
X64770000Y-63500000D02*
X66548000Y-63500000D01*
X62230000Y-66040000D02*
X64770000Y-63500000D01*
X66548000Y-63500000D02*
X66255000Y-63500000D01*
X71120000Y-63500000D02*
X66548000Y-63500000D01*
%TO.N,Net-(D7-Pad1)*%
X64353998Y-95885000D02*
X68580000Y-95885000D01*
X62956998Y-97282000D02*
X64353998Y-95885000D01*
X62230000Y-97282000D02*
X62956998Y-97282000D01*
%TD*%
M02*
