%TF.GenerationSoftware,KiCad,Pcbnew,(5.1.9)-1*%
%TF.CreationDate,2022-03-08T15:51:05-05:00*%
%TF.ProjectId,Front Dash,46726f6e-7420-4446-9173-682e6b696361,rev?*%
%TF.SameCoordinates,Original*%
%TF.FileFunction,Legend,Bot*%
%TF.FilePolarity,Positive*%
%FSLAX46Y46*%
G04 Gerber Fmt 4.6, Leading zero omitted, Abs format (unit mm)*
G04 Created by KiCad (PCBNEW (5.1.9)-1) date 2022-03-08 15:51:05*
%MOMM*%
%LPD*%
G01*
G04 APERTURE LIST*
%ADD10C,0.300000*%
%ADD11C,0.150000*%
%ADD12C,0.120000*%
%ADD13C,0.152400*%
%ADD14C,0.200000*%
%ADD15C,0.254000*%
G04 APERTURE END LIST*
D10*
X93435428Y-103040571D02*
X93435428Y-101540571D01*
X92935428Y-102612000D01*
X92435428Y-101540571D01*
X92435428Y-103040571D01*
X91078285Y-103040571D02*
X91078285Y-102254857D01*
X91149714Y-102112000D01*
X91292571Y-102040571D01*
X91578285Y-102040571D01*
X91721142Y-102112000D01*
X91078285Y-102969142D02*
X91221142Y-103040571D01*
X91578285Y-103040571D01*
X91721142Y-102969142D01*
X91792571Y-102826285D01*
X91792571Y-102683428D01*
X91721142Y-102540571D01*
X91578285Y-102469142D01*
X91221142Y-102469142D01*
X91078285Y-102397714D01*
X89721142Y-103040571D02*
X89721142Y-101540571D01*
X89721142Y-102969142D02*
X89864000Y-103040571D01*
X90149714Y-103040571D01*
X90292571Y-102969142D01*
X90364000Y-102897714D01*
X90435428Y-102754857D01*
X90435428Y-102326285D01*
X90364000Y-102183428D01*
X90292571Y-102112000D01*
X90149714Y-102040571D01*
X89864000Y-102040571D01*
X89721142Y-102112000D01*
X88435428Y-102969142D02*
X88578285Y-103040571D01*
X88864000Y-103040571D01*
X89006857Y-102969142D01*
X89078285Y-102826285D01*
X89078285Y-102254857D01*
X89006857Y-102112000D01*
X88864000Y-102040571D01*
X88578285Y-102040571D01*
X88435428Y-102112000D01*
X88364000Y-102254857D01*
X88364000Y-102397714D01*
X89078285Y-102540571D01*
X86578285Y-103040571D02*
X86578285Y-102040571D01*
X86578285Y-101540571D02*
X86649714Y-101612000D01*
X86578285Y-101683428D01*
X86506857Y-101612000D01*
X86578285Y-101540571D01*
X86578285Y-101683428D01*
X85864000Y-102040571D02*
X85864000Y-103040571D01*
X85864000Y-102183428D02*
X85792571Y-102112000D01*
X85649714Y-102040571D01*
X85435428Y-102040571D01*
X85292571Y-102112000D01*
X85221142Y-102254857D01*
X85221142Y-103040571D01*
X83364000Y-101540571D02*
X83364000Y-102754857D01*
X83292571Y-102897714D01*
X83221142Y-102969142D01*
X83078285Y-103040571D01*
X82792571Y-103040571D01*
X82649714Y-102969142D01*
X82578285Y-102897714D01*
X82506857Y-102754857D01*
X82506857Y-101540571D01*
X81864000Y-102969142D02*
X81649714Y-103040571D01*
X81292571Y-103040571D01*
X81149714Y-102969142D01*
X81078285Y-102897714D01*
X81006857Y-102754857D01*
X81006857Y-102612000D01*
X81078285Y-102469142D01*
X81149714Y-102397714D01*
X81292571Y-102326285D01*
X81578285Y-102254857D01*
X81721142Y-102183428D01*
X81792571Y-102112000D01*
X81864000Y-101969142D01*
X81864000Y-101826285D01*
X81792571Y-101683428D01*
X81721142Y-101612000D01*
X81578285Y-101540571D01*
X81221142Y-101540571D01*
X81006857Y-101612000D01*
X80435428Y-102612000D02*
X79721142Y-102612000D01*
X80578285Y-103040571D02*
X80078285Y-101540571D01*
X79578285Y-103040571D01*
D11*
X235839047Y-68143428D02*
X236600952Y-68143428D01*
X236220000Y-68524380D02*
X236220000Y-67762476D01*
X229997047Y-85415428D02*
X230758952Y-85415428D01*
X230378000Y-85796380D02*
X230378000Y-85034476D01*
D10*
X165254214Y-36911642D02*
X165320738Y-37111214D01*
X165387261Y-37177738D01*
X165520309Y-37244261D01*
X165719880Y-37244261D01*
X165852928Y-37177738D01*
X165919452Y-37111214D01*
X165985976Y-36978166D01*
X165985976Y-36445976D01*
X164588976Y-36445976D01*
X164588976Y-36911642D01*
X164655500Y-37044690D01*
X164722023Y-37111214D01*
X164855071Y-37177738D01*
X164988119Y-37177738D01*
X165121166Y-37111214D01*
X165187690Y-37044690D01*
X165254214Y-36911642D01*
X165254214Y-36445976D01*
X165852928Y-37842976D02*
X165919452Y-37909500D01*
X165985976Y-37842976D01*
X165919452Y-37776452D01*
X165852928Y-37842976D01*
X165985976Y-37842976D01*
X165919452Y-38441690D02*
X165985976Y-38641261D01*
X165985976Y-38973880D01*
X165919452Y-39106928D01*
X165852928Y-39173452D01*
X165719880Y-39239976D01*
X165586833Y-39239976D01*
X165453785Y-39173452D01*
X165387261Y-39106928D01*
X165320738Y-38973880D01*
X165254214Y-38707785D01*
X165187690Y-38574738D01*
X165121166Y-38508214D01*
X164988119Y-38441690D01*
X164855071Y-38441690D01*
X164722023Y-38508214D01*
X164655500Y-38574738D01*
X164588976Y-38707785D01*
X164588976Y-39040404D01*
X164655500Y-39239976D01*
X165852928Y-39838690D02*
X165919452Y-39905214D01*
X165985976Y-39838690D01*
X165919452Y-39772166D01*
X165852928Y-39838690D01*
X165985976Y-39838690D01*
X165254214Y-41568309D02*
X165254214Y-42033976D01*
X165985976Y-42233547D02*
X165985976Y-41568309D01*
X164588976Y-41568309D01*
X164588976Y-42233547D01*
X165985976Y-43031833D02*
X165919452Y-42898785D01*
X165786404Y-42832261D01*
X164588976Y-42832261D01*
X165919452Y-44096214D02*
X165985976Y-43963166D01*
X165985976Y-43697071D01*
X165919452Y-43564023D01*
X165786404Y-43497500D01*
X165254214Y-43497500D01*
X165121166Y-43564023D01*
X165054642Y-43697071D01*
X165054642Y-43963166D01*
X165121166Y-44096214D01*
X165254214Y-44162738D01*
X165387261Y-44162738D01*
X165520309Y-43497500D01*
X165919452Y-45360166D02*
X165985976Y-45227119D01*
X165985976Y-44961023D01*
X165919452Y-44827976D01*
X165852928Y-44761452D01*
X165719880Y-44694928D01*
X165320738Y-44694928D01*
X165187690Y-44761452D01*
X165121166Y-44827976D01*
X165054642Y-44961023D01*
X165054642Y-45227119D01*
X165121166Y-45360166D01*
X165054642Y-45759309D02*
X165054642Y-46291500D01*
X164588976Y-45958880D02*
X165786404Y-45958880D01*
X165919452Y-46025404D01*
X165985976Y-46158452D01*
X165985976Y-46291500D01*
X165985976Y-46757166D02*
X165054642Y-46757166D01*
X165320738Y-46757166D02*
X165187690Y-46823690D01*
X165121166Y-46890214D01*
X165054642Y-47023261D01*
X165054642Y-47156309D01*
X165985976Y-47621976D02*
X165054642Y-47621976D01*
X164588976Y-47621976D02*
X164655500Y-47555452D01*
X164722023Y-47621976D01*
X164655500Y-47688500D01*
X164588976Y-47621976D01*
X164722023Y-47621976D01*
X165919452Y-48885928D02*
X165985976Y-48752880D01*
X165985976Y-48486785D01*
X165919452Y-48353738D01*
X165852928Y-48287214D01*
X165719880Y-48220690D01*
X165320738Y-48220690D01*
X165187690Y-48287214D01*
X165121166Y-48353738D01*
X165054642Y-48486785D01*
X165054642Y-48752880D01*
X165121166Y-48885928D01*
X165985976Y-50083357D02*
X165254214Y-50083357D01*
X165121166Y-50016833D01*
X165054642Y-49883785D01*
X165054642Y-49617690D01*
X165121166Y-49484642D01*
X165919452Y-50083357D02*
X165985976Y-49950309D01*
X165985976Y-49617690D01*
X165919452Y-49484642D01*
X165786404Y-49418119D01*
X165653357Y-49418119D01*
X165520309Y-49484642D01*
X165453785Y-49617690D01*
X165453785Y-49950309D01*
X165387261Y-50083357D01*
X165985976Y-50948166D02*
X165919452Y-50815119D01*
X165786404Y-50748595D01*
X164588976Y-50748595D01*
X165985976Y-53143452D02*
X165254214Y-53143452D01*
X165121166Y-53076928D01*
X165054642Y-52943880D01*
X165054642Y-52677785D01*
X165121166Y-52544738D01*
X165919452Y-53143452D02*
X165985976Y-53010404D01*
X165985976Y-52677785D01*
X165919452Y-52544738D01*
X165786404Y-52478214D01*
X165653357Y-52478214D01*
X165520309Y-52544738D01*
X165453785Y-52677785D01*
X165453785Y-53010404D01*
X165387261Y-53143452D01*
X165054642Y-53808690D02*
X165985976Y-53808690D01*
X165187690Y-53808690D02*
X165121166Y-53875214D01*
X165054642Y-54008261D01*
X165054642Y-54207833D01*
X165121166Y-54340880D01*
X165254214Y-54407404D01*
X165985976Y-54407404D01*
X165985976Y-55671357D02*
X164588976Y-55671357D01*
X165919452Y-55671357D02*
X165985976Y-55538309D01*
X165985976Y-55272214D01*
X165919452Y-55139166D01*
X165852928Y-55072642D01*
X165719880Y-55006119D01*
X165320738Y-55006119D01*
X165187690Y-55072642D01*
X165121166Y-55139166D01*
X165054642Y-55272214D01*
X165054642Y-55538309D01*
X165121166Y-55671357D01*
X165852928Y-58199261D02*
X165919452Y-58132738D01*
X165985976Y-57933166D01*
X165985976Y-57800119D01*
X165919452Y-57600547D01*
X165786404Y-57467500D01*
X165653357Y-57400976D01*
X165387261Y-57334452D01*
X165187690Y-57334452D01*
X164921595Y-57400976D01*
X164788547Y-57467500D01*
X164655500Y-57600547D01*
X164588976Y-57800119D01*
X164588976Y-57933166D01*
X164655500Y-58132738D01*
X164722023Y-58199261D01*
X165985976Y-58997547D02*
X165919452Y-58864500D01*
X165852928Y-58797976D01*
X165719880Y-58731452D01*
X165320738Y-58731452D01*
X165187690Y-58797976D01*
X165121166Y-58864500D01*
X165054642Y-58997547D01*
X165054642Y-59197119D01*
X165121166Y-59330166D01*
X165187690Y-59396690D01*
X165320738Y-59463214D01*
X165719880Y-59463214D01*
X165852928Y-59396690D01*
X165919452Y-59330166D01*
X165985976Y-59197119D01*
X165985976Y-58997547D01*
X165985976Y-60061928D02*
X165054642Y-60061928D01*
X165187690Y-60061928D02*
X165121166Y-60128452D01*
X165054642Y-60261500D01*
X165054642Y-60461071D01*
X165121166Y-60594119D01*
X165254214Y-60660642D01*
X165985976Y-60660642D01*
X165254214Y-60660642D02*
X165121166Y-60727166D01*
X165054642Y-60860214D01*
X165054642Y-61059785D01*
X165121166Y-61192833D01*
X165254214Y-61259357D01*
X165985976Y-61259357D01*
X165054642Y-61924595D02*
X166451642Y-61924595D01*
X165121166Y-61924595D02*
X165054642Y-62057642D01*
X165054642Y-62323738D01*
X165121166Y-62456785D01*
X165187690Y-62523309D01*
X165320738Y-62589833D01*
X165719880Y-62589833D01*
X165852928Y-62523309D01*
X165919452Y-62456785D01*
X165985976Y-62323738D01*
X165985976Y-62057642D01*
X165919452Y-61924595D01*
X165054642Y-63787261D02*
X165985976Y-63787261D01*
X165054642Y-63188547D02*
X165786404Y-63188547D01*
X165919452Y-63255071D01*
X165985976Y-63388119D01*
X165985976Y-63587690D01*
X165919452Y-63720738D01*
X165852928Y-63787261D01*
X165054642Y-64252928D02*
X165054642Y-64785119D01*
X164588976Y-64452500D02*
X165786404Y-64452500D01*
X165919452Y-64519023D01*
X165985976Y-64652071D01*
X165985976Y-64785119D01*
X165919452Y-65782976D02*
X165985976Y-65649928D01*
X165985976Y-65383833D01*
X165919452Y-65250785D01*
X165786404Y-65184261D01*
X165254214Y-65184261D01*
X165121166Y-65250785D01*
X165054642Y-65383833D01*
X165054642Y-65649928D01*
X165121166Y-65782976D01*
X165254214Y-65849500D01*
X165387261Y-65849500D01*
X165520309Y-65184261D01*
X165985976Y-66448214D02*
X165054642Y-66448214D01*
X165320738Y-66448214D02*
X165187690Y-66514738D01*
X165121166Y-66581261D01*
X165054642Y-66714309D01*
X165054642Y-66847357D01*
X165254214Y-68377404D02*
X165254214Y-68843071D01*
X165985976Y-69042642D02*
X165985976Y-68377404D01*
X164588976Y-68377404D01*
X164588976Y-69042642D01*
X165054642Y-69641357D02*
X165985976Y-69641357D01*
X165187690Y-69641357D02*
X165121166Y-69707880D01*
X165054642Y-69840928D01*
X165054642Y-70040500D01*
X165121166Y-70173547D01*
X165254214Y-70240071D01*
X165985976Y-70240071D01*
X165054642Y-71504023D02*
X166185547Y-71504023D01*
X166318595Y-71437500D01*
X166385119Y-71370976D01*
X166451642Y-71237928D01*
X166451642Y-71038357D01*
X166385119Y-70905309D01*
X165919452Y-71504023D02*
X165985976Y-71370976D01*
X165985976Y-71104880D01*
X165919452Y-70971833D01*
X165852928Y-70905309D01*
X165719880Y-70838785D01*
X165320738Y-70838785D01*
X165187690Y-70905309D01*
X165121166Y-70971833D01*
X165054642Y-71104880D01*
X165054642Y-71370976D01*
X165121166Y-71504023D01*
X165985976Y-72169261D02*
X165054642Y-72169261D01*
X164588976Y-72169261D02*
X164655500Y-72102738D01*
X164722023Y-72169261D01*
X164655500Y-72235785D01*
X164588976Y-72169261D01*
X164722023Y-72169261D01*
X165054642Y-72834500D02*
X165985976Y-72834500D01*
X165187690Y-72834500D02*
X165121166Y-72901023D01*
X165054642Y-73034071D01*
X165054642Y-73233642D01*
X165121166Y-73366690D01*
X165254214Y-73433214D01*
X165985976Y-73433214D01*
X165919452Y-74630642D02*
X165985976Y-74497595D01*
X165985976Y-74231500D01*
X165919452Y-74098452D01*
X165786404Y-74031928D01*
X165254214Y-74031928D01*
X165121166Y-74098452D01*
X165054642Y-74231500D01*
X165054642Y-74497595D01*
X165121166Y-74630642D01*
X165254214Y-74697166D01*
X165387261Y-74697166D01*
X165520309Y-74031928D01*
X165919452Y-75828071D02*
X165985976Y-75695023D01*
X165985976Y-75428928D01*
X165919452Y-75295880D01*
X165786404Y-75229357D01*
X165254214Y-75229357D01*
X165121166Y-75295880D01*
X165054642Y-75428928D01*
X165054642Y-75695023D01*
X165121166Y-75828071D01*
X165254214Y-75894595D01*
X165387261Y-75894595D01*
X165520309Y-75229357D01*
X165985976Y-76493309D02*
X165054642Y-76493309D01*
X165320738Y-76493309D02*
X165187690Y-76559833D01*
X165121166Y-76626357D01*
X165054642Y-76759404D01*
X165054642Y-76892452D01*
X165985976Y-77358119D02*
X165054642Y-77358119D01*
X164588976Y-77358119D02*
X164655500Y-77291595D01*
X164722023Y-77358119D01*
X164655500Y-77424642D01*
X164588976Y-77358119D01*
X164722023Y-77358119D01*
X165054642Y-78023357D02*
X165985976Y-78023357D01*
X165187690Y-78023357D02*
X165121166Y-78089880D01*
X165054642Y-78222928D01*
X165054642Y-78422500D01*
X165121166Y-78555547D01*
X165254214Y-78622071D01*
X165985976Y-78622071D01*
X165054642Y-79886023D02*
X166185547Y-79886023D01*
X166318595Y-79819500D01*
X166385119Y-79752976D01*
X166451642Y-79619928D01*
X166451642Y-79420357D01*
X166385119Y-79287309D01*
X165919452Y-79886023D02*
X165985976Y-79752976D01*
X165985976Y-79486880D01*
X165919452Y-79353833D01*
X165852928Y-79287309D01*
X165719880Y-79220785D01*
X165320738Y-79220785D01*
X165187690Y-79287309D01*
X165121166Y-79353833D01*
X165054642Y-79486880D01*
X165054642Y-79752976D01*
X165121166Y-79886023D01*
D12*
X92710000Y-82550000D02*
X224028000Y-82550000D01*
X92710000Y-33147000D02*
X92710000Y-82550000D01*
X124460000Y-33147000D02*
X124460000Y-83312000D01*
X224028000Y-32893000D02*
X224028000Y-82550000D01*
X158750000Y-32893000D02*
X158750000Y-83058000D01*
X191262000Y-33147000D02*
X191262000Y-83312000D01*
X191262000Y-32893000D02*
X191262000Y-83058000D01*
D10*
X96393000Y-50207333D02*
X96477666Y-50122666D01*
X96562333Y-49868666D01*
X96562333Y-49699333D01*
X96477666Y-49445333D01*
X96308333Y-49276000D01*
X96139000Y-49191333D01*
X95800333Y-49106666D01*
X95546333Y-49106666D01*
X95207666Y-49191333D01*
X95038333Y-49276000D01*
X94869000Y-49445333D01*
X94784333Y-49699333D01*
X94784333Y-49868666D01*
X94869000Y-50122666D01*
X94953666Y-50207333D01*
X96562333Y-51223333D02*
X96477666Y-51054000D01*
X96308333Y-50969333D01*
X94784333Y-50969333D01*
X96562333Y-52662666D02*
X95631000Y-52662666D01*
X95461666Y-52578000D01*
X95377000Y-52408666D01*
X95377000Y-52070000D01*
X95461666Y-51900666D01*
X96477666Y-52662666D02*
X96562333Y-52493333D01*
X96562333Y-52070000D01*
X96477666Y-51900666D01*
X96308333Y-51816000D01*
X96139000Y-51816000D01*
X95969666Y-51900666D01*
X95885000Y-52070000D01*
X95885000Y-52493333D01*
X95800333Y-52662666D01*
X96477666Y-53424666D02*
X96562333Y-53594000D01*
X96562333Y-53932666D01*
X96477666Y-54102000D01*
X96308333Y-54186666D01*
X96223666Y-54186666D01*
X96054333Y-54102000D01*
X95969666Y-53932666D01*
X95969666Y-53678666D01*
X95885000Y-53509333D01*
X95715666Y-53424666D01*
X95631000Y-53424666D01*
X95461666Y-53509333D01*
X95377000Y-53678666D01*
X95377000Y-53932666D01*
X95461666Y-54102000D01*
X96477666Y-54864000D02*
X96562333Y-55033333D01*
X96562333Y-55372000D01*
X96477666Y-55541333D01*
X96308333Y-55626000D01*
X96223666Y-55626000D01*
X96054333Y-55541333D01*
X95969666Y-55372000D01*
X95969666Y-55118000D01*
X95885000Y-54948666D01*
X95715666Y-54864000D01*
X95631000Y-54864000D01*
X95461666Y-54948666D01*
X95377000Y-55118000D01*
X95377000Y-55372000D01*
X95461666Y-55541333D01*
X96562333Y-57996666D02*
X96477666Y-57827333D01*
X96393000Y-57742666D01*
X96223666Y-57658000D01*
X95715666Y-57658000D01*
X95546333Y-57742666D01*
X95461666Y-57827333D01*
X95377000Y-57996666D01*
X95377000Y-58250666D01*
X95461666Y-58420000D01*
X95546333Y-58504666D01*
X95715666Y-58589333D01*
X96223666Y-58589333D01*
X96393000Y-58504666D01*
X96477666Y-58420000D01*
X96562333Y-58250666D01*
X96562333Y-57996666D01*
X95377000Y-59097333D02*
X95377000Y-59774666D01*
X96562333Y-59351333D02*
X95038333Y-59351333D01*
X94869000Y-59436000D01*
X94784333Y-59605333D01*
X94784333Y-59774666D01*
X94953666Y-61637333D02*
X94869000Y-61722000D01*
X94784333Y-61891333D01*
X94784333Y-62314666D01*
X94869000Y-62484000D01*
X94953666Y-62568666D01*
X95123000Y-62653333D01*
X95292333Y-62653333D01*
X95546333Y-62568666D01*
X96562333Y-61552666D01*
X96562333Y-62653333D01*
X94784333Y-63754000D02*
X94784333Y-63923333D01*
X94869000Y-64092666D01*
X94953666Y-64177333D01*
X95123000Y-64262000D01*
X95461666Y-64346666D01*
X95885000Y-64346666D01*
X96223666Y-64262000D01*
X96393000Y-64177333D01*
X96477666Y-64092666D01*
X96562333Y-63923333D01*
X96562333Y-63754000D01*
X96477666Y-63584666D01*
X96393000Y-63500000D01*
X96223666Y-63415333D01*
X95885000Y-63330666D01*
X95461666Y-63330666D01*
X95123000Y-63415333D01*
X94953666Y-63500000D01*
X94869000Y-63584666D01*
X94784333Y-63754000D01*
X94953666Y-65024000D02*
X94869000Y-65108666D01*
X94784333Y-65278000D01*
X94784333Y-65701333D01*
X94869000Y-65870666D01*
X94953666Y-65955333D01*
X95123000Y-66040000D01*
X95292333Y-66040000D01*
X95546333Y-65955333D01*
X96562333Y-64939333D01*
X96562333Y-66040000D01*
X94953666Y-66717333D02*
X94869000Y-66802000D01*
X94784333Y-66971333D01*
X94784333Y-67394666D01*
X94869000Y-67564000D01*
X94953666Y-67648666D01*
X95123000Y-67733333D01*
X95292333Y-67733333D01*
X95546333Y-67648666D01*
X96562333Y-66632666D01*
X96562333Y-67733333D01*
X129667000Y-50207333D02*
X129751666Y-50122666D01*
X129836333Y-49868666D01*
X129836333Y-49699333D01*
X129751666Y-49445333D01*
X129582333Y-49276000D01*
X129413000Y-49191333D01*
X129074333Y-49106666D01*
X128820333Y-49106666D01*
X128481666Y-49191333D01*
X128312333Y-49276000D01*
X128143000Y-49445333D01*
X128058333Y-49699333D01*
X128058333Y-49868666D01*
X128143000Y-50122666D01*
X128227666Y-50207333D01*
X129836333Y-51223333D02*
X129751666Y-51054000D01*
X129582333Y-50969333D01*
X128058333Y-50969333D01*
X129836333Y-52662666D02*
X128905000Y-52662666D01*
X128735666Y-52578000D01*
X128651000Y-52408666D01*
X128651000Y-52070000D01*
X128735666Y-51900666D01*
X129751666Y-52662666D02*
X129836333Y-52493333D01*
X129836333Y-52070000D01*
X129751666Y-51900666D01*
X129582333Y-51816000D01*
X129413000Y-51816000D01*
X129243666Y-51900666D01*
X129159000Y-52070000D01*
X129159000Y-52493333D01*
X129074333Y-52662666D01*
X129751666Y-53424666D02*
X129836333Y-53594000D01*
X129836333Y-53932666D01*
X129751666Y-54102000D01*
X129582333Y-54186666D01*
X129497666Y-54186666D01*
X129328333Y-54102000D01*
X129243666Y-53932666D01*
X129243666Y-53678666D01*
X129159000Y-53509333D01*
X128989666Y-53424666D01*
X128905000Y-53424666D01*
X128735666Y-53509333D01*
X128651000Y-53678666D01*
X128651000Y-53932666D01*
X128735666Y-54102000D01*
X129751666Y-54864000D02*
X129836333Y-55033333D01*
X129836333Y-55372000D01*
X129751666Y-55541333D01*
X129582333Y-55626000D01*
X129497666Y-55626000D01*
X129328333Y-55541333D01*
X129243666Y-55372000D01*
X129243666Y-55118000D01*
X129159000Y-54948666D01*
X128989666Y-54864000D01*
X128905000Y-54864000D01*
X128735666Y-54948666D01*
X128651000Y-55118000D01*
X128651000Y-55372000D01*
X128735666Y-55541333D01*
X129836333Y-57996666D02*
X129751666Y-57827333D01*
X129667000Y-57742666D01*
X129497666Y-57658000D01*
X128989666Y-57658000D01*
X128820333Y-57742666D01*
X128735666Y-57827333D01*
X128651000Y-57996666D01*
X128651000Y-58250666D01*
X128735666Y-58420000D01*
X128820333Y-58504666D01*
X128989666Y-58589333D01*
X129497666Y-58589333D01*
X129667000Y-58504666D01*
X129751666Y-58420000D01*
X129836333Y-58250666D01*
X129836333Y-57996666D01*
X128651000Y-59097333D02*
X128651000Y-59774666D01*
X129836333Y-59351333D02*
X128312333Y-59351333D01*
X128143000Y-59436000D01*
X128058333Y-59605333D01*
X128058333Y-59774666D01*
X128227666Y-61637333D02*
X128143000Y-61722000D01*
X128058333Y-61891333D01*
X128058333Y-62314666D01*
X128143000Y-62484000D01*
X128227666Y-62568666D01*
X128397000Y-62653333D01*
X128566333Y-62653333D01*
X128820333Y-62568666D01*
X129836333Y-61552666D01*
X129836333Y-62653333D01*
X128058333Y-63754000D02*
X128058333Y-63923333D01*
X128143000Y-64092666D01*
X128227666Y-64177333D01*
X128397000Y-64262000D01*
X128735666Y-64346666D01*
X129159000Y-64346666D01*
X129497666Y-64262000D01*
X129667000Y-64177333D01*
X129751666Y-64092666D01*
X129836333Y-63923333D01*
X129836333Y-63754000D01*
X129751666Y-63584666D01*
X129667000Y-63500000D01*
X129497666Y-63415333D01*
X129159000Y-63330666D01*
X128735666Y-63330666D01*
X128397000Y-63415333D01*
X128227666Y-63500000D01*
X128143000Y-63584666D01*
X128058333Y-63754000D01*
X128227666Y-65024000D02*
X128143000Y-65108666D01*
X128058333Y-65278000D01*
X128058333Y-65701333D01*
X128143000Y-65870666D01*
X128227666Y-65955333D01*
X128397000Y-66040000D01*
X128566333Y-66040000D01*
X128820333Y-65955333D01*
X129836333Y-64939333D01*
X129836333Y-66040000D01*
X128227666Y-66717333D02*
X128143000Y-66802000D01*
X128058333Y-66971333D01*
X128058333Y-67394666D01*
X128143000Y-67564000D01*
X128227666Y-67648666D01*
X128397000Y-67733333D01*
X128566333Y-67733333D01*
X128820333Y-67648666D01*
X129836333Y-66632666D01*
X129836333Y-67733333D01*
X163195000Y-50461333D02*
X163279666Y-50376666D01*
X163364333Y-50122666D01*
X163364333Y-49953333D01*
X163279666Y-49699333D01*
X163110333Y-49530000D01*
X162941000Y-49445333D01*
X162602333Y-49360666D01*
X162348333Y-49360666D01*
X162009666Y-49445333D01*
X161840333Y-49530000D01*
X161671000Y-49699333D01*
X161586333Y-49953333D01*
X161586333Y-50122666D01*
X161671000Y-50376666D01*
X161755666Y-50461333D01*
X163364333Y-51477333D02*
X163279666Y-51308000D01*
X163110333Y-51223333D01*
X161586333Y-51223333D01*
X163364333Y-52916666D02*
X162433000Y-52916666D01*
X162263666Y-52832000D01*
X162179000Y-52662666D01*
X162179000Y-52324000D01*
X162263666Y-52154666D01*
X163279666Y-52916666D02*
X163364333Y-52747333D01*
X163364333Y-52324000D01*
X163279666Y-52154666D01*
X163110333Y-52070000D01*
X162941000Y-52070000D01*
X162771666Y-52154666D01*
X162687000Y-52324000D01*
X162687000Y-52747333D01*
X162602333Y-52916666D01*
X163279666Y-53678666D02*
X163364333Y-53848000D01*
X163364333Y-54186666D01*
X163279666Y-54356000D01*
X163110333Y-54440666D01*
X163025666Y-54440666D01*
X162856333Y-54356000D01*
X162771666Y-54186666D01*
X162771666Y-53932666D01*
X162687000Y-53763333D01*
X162517666Y-53678666D01*
X162433000Y-53678666D01*
X162263666Y-53763333D01*
X162179000Y-53932666D01*
X162179000Y-54186666D01*
X162263666Y-54356000D01*
X163279666Y-55118000D02*
X163364333Y-55287333D01*
X163364333Y-55626000D01*
X163279666Y-55795333D01*
X163110333Y-55880000D01*
X163025666Y-55880000D01*
X162856333Y-55795333D01*
X162771666Y-55626000D01*
X162771666Y-55372000D01*
X162687000Y-55202666D01*
X162517666Y-55118000D01*
X162433000Y-55118000D01*
X162263666Y-55202666D01*
X162179000Y-55372000D01*
X162179000Y-55626000D01*
X162263666Y-55795333D01*
X163364333Y-58250666D02*
X163279666Y-58081333D01*
X163195000Y-57996666D01*
X163025666Y-57912000D01*
X162517666Y-57912000D01*
X162348333Y-57996666D01*
X162263666Y-58081333D01*
X162179000Y-58250666D01*
X162179000Y-58504666D01*
X162263666Y-58674000D01*
X162348333Y-58758666D01*
X162517666Y-58843333D01*
X163025666Y-58843333D01*
X163195000Y-58758666D01*
X163279666Y-58674000D01*
X163364333Y-58504666D01*
X163364333Y-58250666D01*
X162179000Y-59351333D02*
X162179000Y-60028666D01*
X163364333Y-59605333D02*
X161840333Y-59605333D01*
X161671000Y-59690000D01*
X161586333Y-59859333D01*
X161586333Y-60028666D01*
X161755666Y-61891333D02*
X161671000Y-61976000D01*
X161586333Y-62145333D01*
X161586333Y-62568666D01*
X161671000Y-62738000D01*
X161755666Y-62822666D01*
X161925000Y-62907333D01*
X162094333Y-62907333D01*
X162348333Y-62822666D01*
X163364333Y-61806666D01*
X163364333Y-62907333D01*
X161586333Y-64008000D02*
X161586333Y-64177333D01*
X161671000Y-64346666D01*
X161755666Y-64431333D01*
X161925000Y-64516000D01*
X162263666Y-64600666D01*
X162687000Y-64600666D01*
X163025666Y-64516000D01*
X163195000Y-64431333D01*
X163279666Y-64346666D01*
X163364333Y-64177333D01*
X163364333Y-64008000D01*
X163279666Y-63838666D01*
X163195000Y-63754000D01*
X163025666Y-63669333D01*
X162687000Y-63584666D01*
X162263666Y-63584666D01*
X161925000Y-63669333D01*
X161755666Y-63754000D01*
X161671000Y-63838666D01*
X161586333Y-64008000D01*
X161755666Y-65278000D02*
X161671000Y-65362666D01*
X161586333Y-65532000D01*
X161586333Y-65955333D01*
X161671000Y-66124666D01*
X161755666Y-66209333D01*
X161925000Y-66294000D01*
X162094333Y-66294000D01*
X162348333Y-66209333D01*
X163364333Y-65193333D01*
X163364333Y-66294000D01*
X161755666Y-66971333D02*
X161671000Y-67056000D01*
X161586333Y-67225333D01*
X161586333Y-67648666D01*
X161671000Y-67818000D01*
X161755666Y-67902666D01*
X161925000Y-67987333D01*
X162094333Y-67987333D01*
X162348333Y-67902666D01*
X163364333Y-66886666D01*
X163364333Y-67987333D01*
X196215000Y-50461333D02*
X196299666Y-50376666D01*
X196384333Y-50122666D01*
X196384333Y-49953333D01*
X196299666Y-49699333D01*
X196130333Y-49530000D01*
X195961000Y-49445333D01*
X195622333Y-49360666D01*
X195368333Y-49360666D01*
X195029666Y-49445333D01*
X194860333Y-49530000D01*
X194691000Y-49699333D01*
X194606333Y-49953333D01*
X194606333Y-50122666D01*
X194691000Y-50376666D01*
X194775666Y-50461333D01*
X196384333Y-51477333D02*
X196299666Y-51308000D01*
X196130333Y-51223333D01*
X194606333Y-51223333D01*
X196384333Y-52916666D02*
X195453000Y-52916666D01*
X195283666Y-52832000D01*
X195199000Y-52662666D01*
X195199000Y-52324000D01*
X195283666Y-52154666D01*
X196299666Y-52916666D02*
X196384333Y-52747333D01*
X196384333Y-52324000D01*
X196299666Y-52154666D01*
X196130333Y-52070000D01*
X195961000Y-52070000D01*
X195791666Y-52154666D01*
X195707000Y-52324000D01*
X195707000Y-52747333D01*
X195622333Y-52916666D01*
X196299666Y-53678666D02*
X196384333Y-53848000D01*
X196384333Y-54186666D01*
X196299666Y-54356000D01*
X196130333Y-54440666D01*
X196045666Y-54440666D01*
X195876333Y-54356000D01*
X195791666Y-54186666D01*
X195791666Y-53932666D01*
X195707000Y-53763333D01*
X195537666Y-53678666D01*
X195453000Y-53678666D01*
X195283666Y-53763333D01*
X195199000Y-53932666D01*
X195199000Y-54186666D01*
X195283666Y-54356000D01*
X196299666Y-55118000D02*
X196384333Y-55287333D01*
X196384333Y-55626000D01*
X196299666Y-55795333D01*
X196130333Y-55880000D01*
X196045666Y-55880000D01*
X195876333Y-55795333D01*
X195791666Y-55626000D01*
X195791666Y-55372000D01*
X195707000Y-55202666D01*
X195537666Y-55118000D01*
X195453000Y-55118000D01*
X195283666Y-55202666D01*
X195199000Y-55372000D01*
X195199000Y-55626000D01*
X195283666Y-55795333D01*
X196384333Y-58250666D02*
X196299666Y-58081333D01*
X196215000Y-57996666D01*
X196045666Y-57912000D01*
X195537666Y-57912000D01*
X195368333Y-57996666D01*
X195283666Y-58081333D01*
X195199000Y-58250666D01*
X195199000Y-58504666D01*
X195283666Y-58674000D01*
X195368333Y-58758666D01*
X195537666Y-58843333D01*
X196045666Y-58843333D01*
X196215000Y-58758666D01*
X196299666Y-58674000D01*
X196384333Y-58504666D01*
X196384333Y-58250666D01*
X195199000Y-59351333D02*
X195199000Y-60028666D01*
X196384333Y-59605333D02*
X194860333Y-59605333D01*
X194691000Y-59690000D01*
X194606333Y-59859333D01*
X194606333Y-60028666D01*
X194775666Y-61891333D02*
X194691000Y-61976000D01*
X194606333Y-62145333D01*
X194606333Y-62568666D01*
X194691000Y-62738000D01*
X194775666Y-62822666D01*
X194945000Y-62907333D01*
X195114333Y-62907333D01*
X195368333Y-62822666D01*
X196384333Y-61806666D01*
X196384333Y-62907333D01*
X194606333Y-64008000D02*
X194606333Y-64177333D01*
X194691000Y-64346666D01*
X194775666Y-64431333D01*
X194945000Y-64516000D01*
X195283666Y-64600666D01*
X195707000Y-64600666D01*
X196045666Y-64516000D01*
X196215000Y-64431333D01*
X196299666Y-64346666D01*
X196384333Y-64177333D01*
X196384333Y-64008000D01*
X196299666Y-63838666D01*
X196215000Y-63754000D01*
X196045666Y-63669333D01*
X195707000Y-63584666D01*
X195283666Y-63584666D01*
X194945000Y-63669333D01*
X194775666Y-63754000D01*
X194691000Y-63838666D01*
X194606333Y-64008000D01*
X194775666Y-65278000D02*
X194691000Y-65362666D01*
X194606333Y-65532000D01*
X194606333Y-65955333D01*
X194691000Y-66124666D01*
X194775666Y-66209333D01*
X194945000Y-66294000D01*
X195114333Y-66294000D01*
X195368333Y-66209333D01*
X196384333Y-65193333D01*
X196384333Y-66294000D01*
X194775666Y-66971333D02*
X194691000Y-67056000D01*
X194606333Y-67225333D01*
X194606333Y-67648666D01*
X194691000Y-67818000D01*
X194775666Y-67902666D01*
X194945000Y-67987333D01*
X195114333Y-67987333D01*
X195368333Y-67902666D01*
X196384333Y-66886666D01*
X196384333Y-67987333D01*
X98452214Y-36911642D02*
X98518738Y-37111214D01*
X98585261Y-37177738D01*
X98718309Y-37244261D01*
X98917880Y-37244261D01*
X99050928Y-37177738D01*
X99117452Y-37111214D01*
X99183976Y-36978166D01*
X99183976Y-36445976D01*
X97786976Y-36445976D01*
X97786976Y-36911642D01*
X97853500Y-37044690D01*
X97920023Y-37111214D01*
X98053071Y-37177738D01*
X98186119Y-37177738D01*
X98319166Y-37111214D01*
X98385690Y-37044690D01*
X98452214Y-36911642D01*
X98452214Y-36445976D01*
X99050928Y-37842976D02*
X99117452Y-37909500D01*
X99183976Y-37842976D01*
X99117452Y-37776452D01*
X99050928Y-37842976D01*
X99183976Y-37842976D01*
X99117452Y-38441690D02*
X99183976Y-38641261D01*
X99183976Y-38973880D01*
X99117452Y-39106928D01*
X99050928Y-39173452D01*
X98917880Y-39239976D01*
X98784833Y-39239976D01*
X98651785Y-39173452D01*
X98585261Y-39106928D01*
X98518738Y-38973880D01*
X98452214Y-38707785D01*
X98385690Y-38574738D01*
X98319166Y-38508214D01*
X98186119Y-38441690D01*
X98053071Y-38441690D01*
X97920023Y-38508214D01*
X97853500Y-38574738D01*
X97786976Y-38707785D01*
X97786976Y-39040404D01*
X97853500Y-39239976D01*
X99050928Y-39838690D02*
X99117452Y-39905214D01*
X99183976Y-39838690D01*
X99117452Y-39772166D01*
X99050928Y-39838690D01*
X99183976Y-39838690D01*
X98452214Y-41568309D02*
X98452214Y-42033976D01*
X99183976Y-42233547D02*
X99183976Y-41568309D01*
X97786976Y-41568309D01*
X97786976Y-42233547D01*
X99183976Y-43031833D02*
X99117452Y-42898785D01*
X98984404Y-42832261D01*
X97786976Y-42832261D01*
X99117452Y-44096214D02*
X99183976Y-43963166D01*
X99183976Y-43697071D01*
X99117452Y-43564023D01*
X98984404Y-43497500D01*
X98452214Y-43497500D01*
X98319166Y-43564023D01*
X98252642Y-43697071D01*
X98252642Y-43963166D01*
X98319166Y-44096214D01*
X98452214Y-44162738D01*
X98585261Y-44162738D01*
X98718309Y-43497500D01*
X99117452Y-45360166D02*
X99183976Y-45227119D01*
X99183976Y-44961023D01*
X99117452Y-44827976D01*
X99050928Y-44761452D01*
X98917880Y-44694928D01*
X98518738Y-44694928D01*
X98385690Y-44761452D01*
X98319166Y-44827976D01*
X98252642Y-44961023D01*
X98252642Y-45227119D01*
X98319166Y-45360166D01*
X98252642Y-45759309D02*
X98252642Y-46291500D01*
X97786976Y-45958880D02*
X98984404Y-45958880D01*
X99117452Y-46025404D01*
X99183976Y-46158452D01*
X99183976Y-46291500D01*
X99183976Y-46757166D02*
X98252642Y-46757166D01*
X98518738Y-46757166D02*
X98385690Y-46823690D01*
X98319166Y-46890214D01*
X98252642Y-47023261D01*
X98252642Y-47156309D01*
X99183976Y-47621976D02*
X98252642Y-47621976D01*
X97786976Y-47621976D02*
X97853500Y-47555452D01*
X97920023Y-47621976D01*
X97853500Y-47688500D01*
X97786976Y-47621976D01*
X97920023Y-47621976D01*
X99117452Y-48885928D02*
X99183976Y-48752880D01*
X99183976Y-48486785D01*
X99117452Y-48353738D01*
X99050928Y-48287214D01*
X98917880Y-48220690D01*
X98518738Y-48220690D01*
X98385690Y-48287214D01*
X98319166Y-48353738D01*
X98252642Y-48486785D01*
X98252642Y-48752880D01*
X98319166Y-48885928D01*
X99183976Y-50083357D02*
X98452214Y-50083357D01*
X98319166Y-50016833D01*
X98252642Y-49883785D01*
X98252642Y-49617690D01*
X98319166Y-49484642D01*
X99117452Y-50083357D02*
X99183976Y-49950309D01*
X99183976Y-49617690D01*
X99117452Y-49484642D01*
X98984404Y-49418119D01*
X98851357Y-49418119D01*
X98718309Y-49484642D01*
X98651785Y-49617690D01*
X98651785Y-49950309D01*
X98585261Y-50083357D01*
X99183976Y-50948166D02*
X99117452Y-50815119D01*
X98984404Y-50748595D01*
X97786976Y-50748595D01*
X99183976Y-53143452D02*
X98452214Y-53143452D01*
X98319166Y-53076928D01*
X98252642Y-52943880D01*
X98252642Y-52677785D01*
X98319166Y-52544738D01*
X99117452Y-53143452D02*
X99183976Y-53010404D01*
X99183976Y-52677785D01*
X99117452Y-52544738D01*
X98984404Y-52478214D01*
X98851357Y-52478214D01*
X98718309Y-52544738D01*
X98651785Y-52677785D01*
X98651785Y-53010404D01*
X98585261Y-53143452D01*
X98252642Y-53808690D02*
X99183976Y-53808690D01*
X98385690Y-53808690D02*
X98319166Y-53875214D01*
X98252642Y-54008261D01*
X98252642Y-54207833D01*
X98319166Y-54340880D01*
X98452214Y-54407404D01*
X99183976Y-54407404D01*
X99183976Y-55671357D02*
X97786976Y-55671357D01*
X99117452Y-55671357D02*
X99183976Y-55538309D01*
X99183976Y-55272214D01*
X99117452Y-55139166D01*
X99050928Y-55072642D01*
X98917880Y-55006119D01*
X98518738Y-55006119D01*
X98385690Y-55072642D01*
X98319166Y-55139166D01*
X98252642Y-55272214D01*
X98252642Y-55538309D01*
X98319166Y-55671357D01*
X99050928Y-58199261D02*
X99117452Y-58132738D01*
X99183976Y-57933166D01*
X99183976Y-57800119D01*
X99117452Y-57600547D01*
X98984404Y-57467500D01*
X98851357Y-57400976D01*
X98585261Y-57334452D01*
X98385690Y-57334452D01*
X98119595Y-57400976D01*
X97986547Y-57467500D01*
X97853500Y-57600547D01*
X97786976Y-57800119D01*
X97786976Y-57933166D01*
X97853500Y-58132738D01*
X97920023Y-58199261D01*
X99183976Y-58997547D02*
X99117452Y-58864500D01*
X99050928Y-58797976D01*
X98917880Y-58731452D01*
X98518738Y-58731452D01*
X98385690Y-58797976D01*
X98319166Y-58864500D01*
X98252642Y-58997547D01*
X98252642Y-59197119D01*
X98319166Y-59330166D01*
X98385690Y-59396690D01*
X98518738Y-59463214D01*
X98917880Y-59463214D01*
X99050928Y-59396690D01*
X99117452Y-59330166D01*
X99183976Y-59197119D01*
X99183976Y-58997547D01*
X99183976Y-60061928D02*
X98252642Y-60061928D01*
X98385690Y-60061928D02*
X98319166Y-60128452D01*
X98252642Y-60261500D01*
X98252642Y-60461071D01*
X98319166Y-60594119D01*
X98452214Y-60660642D01*
X99183976Y-60660642D01*
X98452214Y-60660642D02*
X98319166Y-60727166D01*
X98252642Y-60860214D01*
X98252642Y-61059785D01*
X98319166Y-61192833D01*
X98452214Y-61259357D01*
X99183976Y-61259357D01*
X98252642Y-61924595D02*
X99649642Y-61924595D01*
X98319166Y-61924595D02*
X98252642Y-62057642D01*
X98252642Y-62323738D01*
X98319166Y-62456785D01*
X98385690Y-62523309D01*
X98518738Y-62589833D01*
X98917880Y-62589833D01*
X99050928Y-62523309D01*
X99117452Y-62456785D01*
X99183976Y-62323738D01*
X99183976Y-62057642D01*
X99117452Y-61924595D01*
X98252642Y-63787261D02*
X99183976Y-63787261D01*
X98252642Y-63188547D02*
X98984404Y-63188547D01*
X99117452Y-63255071D01*
X99183976Y-63388119D01*
X99183976Y-63587690D01*
X99117452Y-63720738D01*
X99050928Y-63787261D01*
X98252642Y-64252928D02*
X98252642Y-64785119D01*
X97786976Y-64452500D02*
X98984404Y-64452500D01*
X99117452Y-64519023D01*
X99183976Y-64652071D01*
X99183976Y-64785119D01*
X99117452Y-65782976D02*
X99183976Y-65649928D01*
X99183976Y-65383833D01*
X99117452Y-65250785D01*
X98984404Y-65184261D01*
X98452214Y-65184261D01*
X98319166Y-65250785D01*
X98252642Y-65383833D01*
X98252642Y-65649928D01*
X98319166Y-65782976D01*
X98452214Y-65849500D01*
X98585261Y-65849500D01*
X98718309Y-65184261D01*
X99183976Y-66448214D02*
X98252642Y-66448214D01*
X98518738Y-66448214D02*
X98385690Y-66514738D01*
X98319166Y-66581261D01*
X98252642Y-66714309D01*
X98252642Y-66847357D01*
X98452214Y-68377404D02*
X98452214Y-68843071D01*
X99183976Y-69042642D02*
X99183976Y-68377404D01*
X97786976Y-68377404D01*
X97786976Y-69042642D01*
X98252642Y-69641357D02*
X99183976Y-69641357D01*
X98385690Y-69641357D02*
X98319166Y-69707880D01*
X98252642Y-69840928D01*
X98252642Y-70040500D01*
X98319166Y-70173547D01*
X98452214Y-70240071D01*
X99183976Y-70240071D01*
X98252642Y-71504023D02*
X99383547Y-71504023D01*
X99516595Y-71437500D01*
X99583119Y-71370976D01*
X99649642Y-71237928D01*
X99649642Y-71038357D01*
X99583119Y-70905309D01*
X99117452Y-71504023D02*
X99183976Y-71370976D01*
X99183976Y-71104880D01*
X99117452Y-70971833D01*
X99050928Y-70905309D01*
X98917880Y-70838785D01*
X98518738Y-70838785D01*
X98385690Y-70905309D01*
X98319166Y-70971833D01*
X98252642Y-71104880D01*
X98252642Y-71370976D01*
X98319166Y-71504023D01*
X99183976Y-72169261D02*
X98252642Y-72169261D01*
X97786976Y-72169261D02*
X97853500Y-72102738D01*
X97920023Y-72169261D01*
X97853500Y-72235785D01*
X97786976Y-72169261D01*
X97920023Y-72169261D01*
X98252642Y-72834500D02*
X99183976Y-72834500D01*
X98385690Y-72834500D02*
X98319166Y-72901023D01*
X98252642Y-73034071D01*
X98252642Y-73233642D01*
X98319166Y-73366690D01*
X98452214Y-73433214D01*
X99183976Y-73433214D01*
X99117452Y-74630642D02*
X99183976Y-74497595D01*
X99183976Y-74231500D01*
X99117452Y-74098452D01*
X98984404Y-74031928D01*
X98452214Y-74031928D01*
X98319166Y-74098452D01*
X98252642Y-74231500D01*
X98252642Y-74497595D01*
X98319166Y-74630642D01*
X98452214Y-74697166D01*
X98585261Y-74697166D01*
X98718309Y-74031928D01*
X99117452Y-75828071D02*
X99183976Y-75695023D01*
X99183976Y-75428928D01*
X99117452Y-75295880D01*
X98984404Y-75229357D01*
X98452214Y-75229357D01*
X98319166Y-75295880D01*
X98252642Y-75428928D01*
X98252642Y-75695023D01*
X98319166Y-75828071D01*
X98452214Y-75894595D01*
X98585261Y-75894595D01*
X98718309Y-75229357D01*
X99183976Y-76493309D02*
X98252642Y-76493309D01*
X98518738Y-76493309D02*
X98385690Y-76559833D01*
X98319166Y-76626357D01*
X98252642Y-76759404D01*
X98252642Y-76892452D01*
X99183976Y-77358119D02*
X98252642Y-77358119D01*
X97786976Y-77358119D02*
X97853500Y-77291595D01*
X97920023Y-77358119D01*
X97853500Y-77424642D01*
X97786976Y-77358119D01*
X97920023Y-77358119D01*
X98252642Y-78023357D02*
X99183976Y-78023357D01*
X98385690Y-78023357D02*
X98319166Y-78089880D01*
X98252642Y-78222928D01*
X98252642Y-78422500D01*
X98319166Y-78555547D01*
X98452214Y-78622071D01*
X99183976Y-78622071D01*
X98252642Y-79886023D02*
X99383547Y-79886023D01*
X99516595Y-79819500D01*
X99583119Y-79752976D01*
X99649642Y-79619928D01*
X99649642Y-79420357D01*
X99583119Y-79287309D01*
X99117452Y-79886023D02*
X99183976Y-79752976D01*
X99183976Y-79486880D01*
X99117452Y-79353833D01*
X99050928Y-79287309D01*
X98917880Y-79220785D01*
X98518738Y-79220785D01*
X98385690Y-79287309D01*
X98319166Y-79353833D01*
X98252642Y-79486880D01*
X98252642Y-79752976D01*
X98319166Y-79886023D01*
X131726214Y-36911642D02*
X131792738Y-37111214D01*
X131859261Y-37177738D01*
X131992309Y-37244261D01*
X132191880Y-37244261D01*
X132324928Y-37177738D01*
X132391452Y-37111214D01*
X132457976Y-36978166D01*
X132457976Y-36445976D01*
X131060976Y-36445976D01*
X131060976Y-36911642D01*
X131127500Y-37044690D01*
X131194023Y-37111214D01*
X131327071Y-37177738D01*
X131460119Y-37177738D01*
X131593166Y-37111214D01*
X131659690Y-37044690D01*
X131726214Y-36911642D01*
X131726214Y-36445976D01*
X132324928Y-37842976D02*
X132391452Y-37909500D01*
X132457976Y-37842976D01*
X132391452Y-37776452D01*
X132324928Y-37842976D01*
X132457976Y-37842976D01*
X132391452Y-38441690D02*
X132457976Y-38641261D01*
X132457976Y-38973880D01*
X132391452Y-39106928D01*
X132324928Y-39173452D01*
X132191880Y-39239976D01*
X132058833Y-39239976D01*
X131925785Y-39173452D01*
X131859261Y-39106928D01*
X131792738Y-38973880D01*
X131726214Y-38707785D01*
X131659690Y-38574738D01*
X131593166Y-38508214D01*
X131460119Y-38441690D01*
X131327071Y-38441690D01*
X131194023Y-38508214D01*
X131127500Y-38574738D01*
X131060976Y-38707785D01*
X131060976Y-39040404D01*
X131127500Y-39239976D01*
X132324928Y-39838690D02*
X132391452Y-39905214D01*
X132457976Y-39838690D01*
X132391452Y-39772166D01*
X132324928Y-39838690D01*
X132457976Y-39838690D01*
X131726214Y-41568309D02*
X131726214Y-42033976D01*
X132457976Y-42233547D02*
X132457976Y-41568309D01*
X131060976Y-41568309D01*
X131060976Y-42233547D01*
X132457976Y-43031833D02*
X132391452Y-42898785D01*
X132258404Y-42832261D01*
X131060976Y-42832261D01*
X132391452Y-44096214D02*
X132457976Y-43963166D01*
X132457976Y-43697071D01*
X132391452Y-43564023D01*
X132258404Y-43497500D01*
X131726214Y-43497500D01*
X131593166Y-43564023D01*
X131526642Y-43697071D01*
X131526642Y-43963166D01*
X131593166Y-44096214D01*
X131726214Y-44162738D01*
X131859261Y-44162738D01*
X131992309Y-43497500D01*
X132391452Y-45360166D02*
X132457976Y-45227119D01*
X132457976Y-44961023D01*
X132391452Y-44827976D01*
X132324928Y-44761452D01*
X132191880Y-44694928D01*
X131792738Y-44694928D01*
X131659690Y-44761452D01*
X131593166Y-44827976D01*
X131526642Y-44961023D01*
X131526642Y-45227119D01*
X131593166Y-45360166D01*
X131526642Y-45759309D02*
X131526642Y-46291500D01*
X131060976Y-45958880D02*
X132258404Y-45958880D01*
X132391452Y-46025404D01*
X132457976Y-46158452D01*
X132457976Y-46291500D01*
X132457976Y-46757166D02*
X131526642Y-46757166D01*
X131792738Y-46757166D02*
X131659690Y-46823690D01*
X131593166Y-46890214D01*
X131526642Y-47023261D01*
X131526642Y-47156309D01*
X132457976Y-47621976D02*
X131526642Y-47621976D01*
X131060976Y-47621976D02*
X131127500Y-47555452D01*
X131194023Y-47621976D01*
X131127500Y-47688500D01*
X131060976Y-47621976D01*
X131194023Y-47621976D01*
X132391452Y-48885928D02*
X132457976Y-48752880D01*
X132457976Y-48486785D01*
X132391452Y-48353738D01*
X132324928Y-48287214D01*
X132191880Y-48220690D01*
X131792738Y-48220690D01*
X131659690Y-48287214D01*
X131593166Y-48353738D01*
X131526642Y-48486785D01*
X131526642Y-48752880D01*
X131593166Y-48885928D01*
X132457976Y-50083357D02*
X131726214Y-50083357D01*
X131593166Y-50016833D01*
X131526642Y-49883785D01*
X131526642Y-49617690D01*
X131593166Y-49484642D01*
X132391452Y-50083357D02*
X132457976Y-49950309D01*
X132457976Y-49617690D01*
X132391452Y-49484642D01*
X132258404Y-49418119D01*
X132125357Y-49418119D01*
X131992309Y-49484642D01*
X131925785Y-49617690D01*
X131925785Y-49950309D01*
X131859261Y-50083357D01*
X132457976Y-50948166D02*
X132391452Y-50815119D01*
X132258404Y-50748595D01*
X131060976Y-50748595D01*
X132457976Y-53143452D02*
X131726214Y-53143452D01*
X131593166Y-53076928D01*
X131526642Y-52943880D01*
X131526642Y-52677785D01*
X131593166Y-52544738D01*
X132391452Y-53143452D02*
X132457976Y-53010404D01*
X132457976Y-52677785D01*
X132391452Y-52544738D01*
X132258404Y-52478214D01*
X132125357Y-52478214D01*
X131992309Y-52544738D01*
X131925785Y-52677785D01*
X131925785Y-53010404D01*
X131859261Y-53143452D01*
X131526642Y-53808690D02*
X132457976Y-53808690D01*
X131659690Y-53808690D02*
X131593166Y-53875214D01*
X131526642Y-54008261D01*
X131526642Y-54207833D01*
X131593166Y-54340880D01*
X131726214Y-54407404D01*
X132457976Y-54407404D01*
X132457976Y-55671357D02*
X131060976Y-55671357D01*
X132391452Y-55671357D02*
X132457976Y-55538309D01*
X132457976Y-55272214D01*
X132391452Y-55139166D01*
X132324928Y-55072642D01*
X132191880Y-55006119D01*
X131792738Y-55006119D01*
X131659690Y-55072642D01*
X131593166Y-55139166D01*
X131526642Y-55272214D01*
X131526642Y-55538309D01*
X131593166Y-55671357D01*
X132324928Y-58199261D02*
X132391452Y-58132738D01*
X132457976Y-57933166D01*
X132457976Y-57800119D01*
X132391452Y-57600547D01*
X132258404Y-57467500D01*
X132125357Y-57400976D01*
X131859261Y-57334452D01*
X131659690Y-57334452D01*
X131393595Y-57400976D01*
X131260547Y-57467500D01*
X131127500Y-57600547D01*
X131060976Y-57800119D01*
X131060976Y-57933166D01*
X131127500Y-58132738D01*
X131194023Y-58199261D01*
X132457976Y-58997547D02*
X132391452Y-58864500D01*
X132324928Y-58797976D01*
X132191880Y-58731452D01*
X131792738Y-58731452D01*
X131659690Y-58797976D01*
X131593166Y-58864500D01*
X131526642Y-58997547D01*
X131526642Y-59197119D01*
X131593166Y-59330166D01*
X131659690Y-59396690D01*
X131792738Y-59463214D01*
X132191880Y-59463214D01*
X132324928Y-59396690D01*
X132391452Y-59330166D01*
X132457976Y-59197119D01*
X132457976Y-58997547D01*
X132457976Y-60061928D02*
X131526642Y-60061928D01*
X131659690Y-60061928D02*
X131593166Y-60128452D01*
X131526642Y-60261500D01*
X131526642Y-60461071D01*
X131593166Y-60594119D01*
X131726214Y-60660642D01*
X132457976Y-60660642D01*
X131726214Y-60660642D02*
X131593166Y-60727166D01*
X131526642Y-60860214D01*
X131526642Y-61059785D01*
X131593166Y-61192833D01*
X131726214Y-61259357D01*
X132457976Y-61259357D01*
X131526642Y-61924595D02*
X132923642Y-61924595D01*
X131593166Y-61924595D02*
X131526642Y-62057642D01*
X131526642Y-62323738D01*
X131593166Y-62456785D01*
X131659690Y-62523309D01*
X131792738Y-62589833D01*
X132191880Y-62589833D01*
X132324928Y-62523309D01*
X132391452Y-62456785D01*
X132457976Y-62323738D01*
X132457976Y-62057642D01*
X132391452Y-61924595D01*
X131526642Y-63787261D02*
X132457976Y-63787261D01*
X131526642Y-63188547D02*
X132258404Y-63188547D01*
X132391452Y-63255071D01*
X132457976Y-63388119D01*
X132457976Y-63587690D01*
X132391452Y-63720738D01*
X132324928Y-63787261D01*
X131526642Y-64252928D02*
X131526642Y-64785119D01*
X131060976Y-64452500D02*
X132258404Y-64452500D01*
X132391452Y-64519023D01*
X132457976Y-64652071D01*
X132457976Y-64785119D01*
X132391452Y-65782976D02*
X132457976Y-65649928D01*
X132457976Y-65383833D01*
X132391452Y-65250785D01*
X132258404Y-65184261D01*
X131726214Y-65184261D01*
X131593166Y-65250785D01*
X131526642Y-65383833D01*
X131526642Y-65649928D01*
X131593166Y-65782976D01*
X131726214Y-65849500D01*
X131859261Y-65849500D01*
X131992309Y-65184261D01*
X132457976Y-66448214D02*
X131526642Y-66448214D01*
X131792738Y-66448214D02*
X131659690Y-66514738D01*
X131593166Y-66581261D01*
X131526642Y-66714309D01*
X131526642Y-66847357D01*
X131726214Y-68377404D02*
X131726214Y-68843071D01*
X132457976Y-69042642D02*
X132457976Y-68377404D01*
X131060976Y-68377404D01*
X131060976Y-69042642D01*
X131526642Y-69641357D02*
X132457976Y-69641357D01*
X131659690Y-69641357D02*
X131593166Y-69707880D01*
X131526642Y-69840928D01*
X131526642Y-70040500D01*
X131593166Y-70173547D01*
X131726214Y-70240071D01*
X132457976Y-70240071D01*
X131526642Y-71504023D02*
X132657547Y-71504023D01*
X132790595Y-71437500D01*
X132857119Y-71370976D01*
X132923642Y-71237928D01*
X132923642Y-71038357D01*
X132857119Y-70905309D01*
X132391452Y-71504023D02*
X132457976Y-71370976D01*
X132457976Y-71104880D01*
X132391452Y-70971833D01*
X132324928Y-70905309D01*
X132191880Y-70838785D01*
X131792738Y-70838785D01*
X131659690Y-70905309D01*
X131593166Y-70971833D01*
X131526642Y-71104880D01*
X131526642Y-71370976D01*
X131593166Y-71504023D01*
X132457976Y-72169261D02*
X131526642Y-72169261D01*
X131060976Y-72169261D02*
X131127500Y-72102738D01*
X131194023Y-72169261D01*
X131127500Y-72235785D01*
X131060976Y-72169261D01*
X131194023Y-72169261D01*
X131526642Y-72834500D02*
X132457976Y-72834500D01*
X131659690Y-72834500D02*
X131593166Y-72901023D01*
X131526642Y-73034071D01*
X131526642Y-73233642D01*
X131593166Y-73366690D01*
X131726214Y-73433214D01*
X132457976Y-73433214D01*
X132391452Y-74630642D02*
X132457976Y-74497595D01*
X132457976Y-74231500D01*
X132391452Y-74098452D01*
X132258404Y-74031928D01*
X131726214Y-74031928D01*
X131593166Y-74098452D01*
X131526642Y-74231500D01*
X131526642Y-74497595D01*
X131593166Y-74630642D01*
X131726214Y-74697166D01*
X131859261Y-74697166D01*
X131992309Y-74031928D01*
X132391452Y-75828071D02*
X132457976Y-75695023D01*
X132457976Y-75428928D01*
X132391452Y-75295880D01*
X132258404Y-75229357D01*
X131726214Y-75229357D01*
X131593166Y-75295880D01*
X131526642Y-75428928D01*
X131526642Y-75695023D01*
X131593166Y-75828071D01*
X131726214Y-75894595D01*
X131859261Y-75894595D01*
X131992309Y-75229357D01*
X132457976Y-76493309D02*
X131526642Y-76493309D01*
X131792738Y-76493309D02*
X131659690Y-76559833D01*
X131593166Y-76626357D01*
X131526642Y-76759404D01*
X131526642Y-76892452D01*
X132457976Y-77358119D02*
X131526642Y-77358119D01*
X131060976Y-77358119D02*
X131127500Y-77291595D01*
X131194023Y-77358119D01*
X131127500Y-77424642D01*
X131060976Y-77358119D01*
X131194023Y-77358119D01*
X131526642Y-78023357D02*
X132457976Y-78023357D01*
X131659690Y-78023357D02*
X131593166Y-78089880D01*
X131526642Y-78222928D01*
X131526642Y-78422500D01*
X131593166Y-78555547D01*
X131726214Y-78622071D01*
X132457976Y-78622071D01*
X131526642Y-79886023D02*
X132657547Y-79886023D01*
X132790595Y-79819500D01*
X132857119Y-79752976D01*
X132923642Y-79619928D01*
X132923642Y-79420357D01*
X132857119Y-79287309D01*
X132391452Y-79886023D02*
X132457976Y-79752976D01*
X132457976Y-79486880D01*
X132391452Y-79353833D01*
X132324928Y-79287309D01*
X132191880Y-79220785D01*
X131792738Y-79220785D01*
X131659690Y-79287309D01*
X131593166Y-79353833D01*
X131526642Y-79486880D01*
X131526642Y-79752976D01*
X131593166Y-79886023D01*
X198274214Y-37038642D02*
X198340738Y-37238214D01*
X198407261Y-37304738D01*
X198540309Y-37371261D01*
X198739880Y-37371261D01*
X198872928Y-37304738D01*
X198939452Y-37238214D01*
X199005976Y-37105166D01*
X199005976Y-36572976D01*
X197608976Y-36572976D01*
X197608976Y-37038642D01*
X197675500Y-37171690D01*
X197742023Y-37238214D01*
X197875071Y-37304738D01*
X198008119Y-37304738D01*
X198141166Y-37238214D01*
X198207690Y-37171690D01*
X198274214Y-37038642D01*
X198274214Y-36572976D01*
X198872928Y-37969976D02*
X198939452Y-38036500D01*
X199005976Y-37969976D01*
X198939452Y-37903452D01*
X198872928Y-37969976D01*
X199005976Y-37969976D01*
X198939452Y-38568690D02*
X199005976Y-38768261D01*
X199005976Y-39100880D01*
X198939452Y-39233928D01*
X198872928Y-39300452D01*
X198739880Y-39366976D01*
X198606833Y-39366976D01*
X198473785Y-39300452D01*
X198407261Y-39233928D01*
X198340738Y-39100880D01*
X198274214Y-38834785D01*
X198207690Y-38701738D01*
X198141166Y-38635214D01*
X198008119Y-38568690D01*
X197875071Y-38568690D01*
X197742023Y-38635214D01*
X197675500Y-38701738D01*
X197608976Y-38834785D01*
X197608976Y-39167404D01*
X197675500Y-39366976D01*
X198872928Y-39965690D02*
X198939452Y-40032214D01*
X199005976Y-39965690D01*
X198939452Y-39899166D01*
X198872928Y-39965690D01*
X199005976Y-39965690D01*
X198274214Y-41695309D02*
X198274214Y-42160976D01*
X199005976Y-42360547D02*
X199005976Y-41695309D01*
X197608976Y-41695309D01*
X197608976Y-42360547D01*
X199005976Y-43158833D02*
X198939452Y-43025785D01*
X198806404Y-42959261D01*
X197608976Y-42959261D01*
X198939452Y-44223214D02*
X199005976Y-44090166D01*
X199005976Y-43824071D01*
X198939452Y-43691023D01*
X198806404Y-43624500D01*
X198274214Y-43624500D01*
X198141166Y-43691023D01*
X198074642Y-43824071D01*
X198074642Y-44090166D01*
X198141166Y-44223214D01*
X198274214Y-44289738D01*
X198407261Y-44289738D01*
X198540309Y-43624500D01*
X198939452Y-45487166D02*
X199005976Y-45354119D01*
X199005976Y-45088023D01*
X198939452Y-44954976D01*
X198872928Y-44888452D01*
X198739880Y-44821928D01*
X198340738Y-44821928D01*
X198207690Y-44888452D01*
X198141166Y-44954976D01*
X198074642Y-45088023D01*
X198074642Y-45354119D01*
X198141166Y-45487166D01*
X198074642Y-45886309D02*
X198074642Y-46418500D01*
X197608976Y-46085880D02*
X198806404Y-46085880D01*
X198939452Y-46152404D01*
X199005976Y-46285452D01*
X199005976Y-46418500D01*
X199005976Y-46884166D02*
X198074642Y-46884166D01*
X198340738Y-46884166D02*
X198207690Y-46950690D01*
X198141166Y-47017214D01*
X198074642Y-47150261D01*
X198074642Y-47283309D01*
X199005976Y-47748976D02*
X198074642Y-47748976D01*
X197608976Y-47748976D02*
X197675500Y-47682452D01*
X197742023Y-47748976D01*
X197675500Y-47815500D01*
X197608976Y-47748976D01*
X197742023Y-47748976D01*
X198939452Y-49012928D02*
X199005976Y-48879880D01*
X199005976Y-48613785D01*
X198939452Y-48480738D01*
X198872928Y-48414214D01*
X198739880Y-48347690D01*
X198340738Y-48347690D01*
X198207690Y-48414214D01*
X198141166Y-48480738D01*
X198074642Y-48613785D01*
X198074642Y-48879880D01*
X198141166Y-49012928D01*
X199005976Y-50210357D02*
X198274214Y-50210357D01*
X198141166Y-50143833D01*
X198074642Y-50010785D01*
X198074642Y-49744690D01*
X198141166Y-49611642D01*
X198939452Y-50210357D02*
X199005976Y-50077309D01*
X199005976Y-49744690D01*
X198939452Y-49611642D01*
X198806404Y-49545119D01*
X198673357Y-49545119D01*
X198540309Y-49611642D01*
X198473785Y-49744690D01*
X198473785Y-50077309D01*
X198407261Y-50210357D01*
X199005976Y-51075166D02*
X198939452Y-50942119D01*
X198806404Y-50875595D01*
X197608976Y-50875595D01*
X199005976Y-53270452D02*
X198274214Y-53270452D01*
X198141166Y-53203928D01*
X198074642Y-53070880D01*
X198074642Y-52804785D01*
X198141166Y-52671738D01*
X198939452Y-53270452D02*
X199005976Y-53137404D01*
X199005976Y-52804785D01*
X198939452Y-52671738D01*
X198806404Y-52605214D01*
X198673357Y-52605214D01*
X198540309Y-52671738D01*
X198473785Y-52804785D01*
X198473785Y-53137404D01*
X198407261Y-53270452D01*
X198074642Y-53935690D02*
X199005976Y-53935690D01*
X198207690Y-53935690D02*
X198141166Y-54002214D01*
X198074642Y-54135261D01*
X198074642Y-54334833D01*
X198141166Y-54467880D01*
X198274214Y-54534404D01*
X199005976Y-54534404D01*
X199005976Y-55798357D02*
X197608976Y-55798357D01*
X198939452Y-55798357D02*
X199005976Y-55665309D01*
X199005976Y-55399214D01*
X198939452Y-55266166D01*
X198872928Y-55199642D01*
X198739880Y-55133119D01*
X198340738Y-55133119D01*
X198207690Y-55199642D01*
X198141166Y-55266166D01*
X198074642Y-55399214D01*
X198074642Y-55665309D01*
X198141166Y-55798357D01*
X198872928Y-58326261D02*
X198939452Y-58259738D01*
X199005976Y-58060166D01*
X199005976Y-57927119D01*
X198939452Y-57727547D01*
X198806404Y-57594500D01*
X198673357Y-57527976D01*
X198407261Y-57461452D01*
X198207690Y-57461452D01*
X197941595Y-57527976D01*
X197808547Y-57594500D01*
X197675500Y-57727547D01*
X197608976Y-57927119D01*
X197608976Y-58060166D01*
X197675500Y-58259738D01*
X197742023Y-58326261D01*
X199005976Y-59124547D02*
X198939452Y-58991500D01*
X198872928Y-58924976D01*
X198739880Y-58858452D01*
X198340738Y-58858452D01*
X198207690Y-58924976D01*
X198141166Y-58991500D01*
X198074642Y-59124547D01*
X198074642Y-59324119D01*
X198141166Y-59457166D01*
X198207690Y-59523690D01*
X198340738Y-59590214D01*
X198739880Y-59590214D01*
X198872928Y-59523690D01*
X198939452Y-59457166D01*
X199005976Y-59324119D01*
X199005976Y-59124547D01*
X199005976Y-60188928D02*
X198074642Y-60188928D01*
X198207690Y-60188928D02*
X198141166Y-60255452D01*
X198074642Y-60388500D01*
X198074642Y-60588071D01*
X198141166Y-60721119D01*
X198274214Y-60787642D01*
X199005976Y-60787642D01*
X198274214Y-60787642D02*
X198141166Y-60854166D01*
X198074642Y-60987214D01*
X198074642Y-61186785D01*
X198141166Y-61319833D01*
X198274214Y-61386357D01*
X199005976Y-61386357D01*
X198074642Y-62051595D02*
X199471642Y-62051595D01*
X198141166Y-62051595D02*
X198074642Y-62184642D01*
X198074642Y-62450738D01*
X198141166Y-62583785D01*
X198207690Y-62650309D01*
X198340738Y-62716833D01*
X198739880Y-62716833D01*
X198872928Y-62650309D01*
X198939452Y-62583785D01*
X199005976Y-62450738D01*
X199005976Y-62184642D01*
X198939452Y-62051595D01*
X198074642Y-63914261D02*
X199005976Y-63914261D01*
X198074642Y-63315547D02*
X198806404Y-63315547D01*
X198939452Y-63382071D01*
X199005976Y-63515119D01*
X199005976Y-63714690D01*
X198939452Y-63847738D01*
X198872928Y-63914261D01*
X198074642Y-64379928D02*
X198074642Y-64912119D01*
X197608976Y-64579500D02*
X198806404Y-64579500D01*
X198939452Y-64646023D01*
X199005976Y-64779071D01*
X199005976Y-64912119D01*
X198939452Y-65909976D02*
X199005976Y-65776928D01*
X199005976Y-65510833D01*
X198939452Y-65377785D01*
X198806404Y-65311261D01*
X198274214Y-65311261D01*
X198141166Y-65377785D01*
X198074642Y-65510833D01*
X198074642Y-65776928D01*
X198141166Y-65909976D01*
X198274214Y-65976500D01*
X198407261Y-65976500D01*
X198540309Y-65311261D01*
X199005976Y-66575214D02*
X198074642Y-66575214D01*
X198340738Y-66575214D02*
X198207690Y-66641738D01*
X198141166Y-66708261D01*
X198074642Y-66841309D01*
X198074642Y-66974357D01*
X198274214Y-68504404D02*
X198274214Y-68970071D01*
X199005976Y-69169642D02*
X199005976Y-68504404D01*
X197608976Y-68504404D01*
X197608976Y-69169642D01*
X198074642Y-69768357D02*
X199005976Y-69768357D01*
X198207690Y-69768357D02*
X198141166Y-69834880D01*
X198074642Y-69967928D01*
X198074642Y-70167500D01*
X198141166Y-70300547D01*
X198274214Y-70367071D01*
X199005976Y-70367071D01*
X198074642Y-71631023D02*
X199205547Y-71631023D01*
X199338595Y-71564500D01*
X199405119Y-71497976D01*
X199471642Y-71364928D01*
X199471642Y-71165357D01*
X199405119Y-71032309D01*
X198939452Y-71631023D02*
X199005976Y-71497976D01*
X199005976Y-71231880D01*
X198939452Y-71098833D01*
X198872928Y-71032309D01*
X198739880Y-70965785D01*
X198340738Y-70965785D01*
X198207690Y-71032309D01*
X198141166Y-71098833D01*
X198074642Y-71231880D01*
X198074642Y-71497976D01*
X198141166Y-71631023D01*
X199005976Y-72296261D02*
X198074642Y-72296261D01*
X197608976Y-72296261D02*
X197675500Y-72229738D01*
X197742023Y-72296261D01*
X197675500Y-72362785D01*
X197608976Y-72296261D01*
X197742023Y-72296261D01*
X198074642Y-72961500D02*
X199005976Y-72961500D01*
X198207690Y-72961500D02*
X198141166Y-73028023D01*
X198074642Y-73161071D01*
X198074642Y-73360642D01*
X198141166Y-73493690D01*
X198274214Y-73560214D01*
X199005976Y-73560214D01*
X198939452Y-74757642D02*
X199005976Y-74624595D01*
X199005976Y-74358500D01*
X198939452Y-74225452D01*
X198806404Y-74158928D01*
X198274214Y-74158928D01*
X198141166Y-74225452D01*
X198074642Y-74358500D01*
X198074642Y-74624595D01*
X198141166Y-74757642D01*
X198274214Y-74824166D01*
X198407261Y-74824166D01*
X198540309Y-74158928D01*
X198939452Y-75955071D02*
X199005976Y-75822023D01*
X199005976Y-75555928D01*
X198939452Y-75422880D01*
X198806404Y-75356357D01*
X198274214Y-75356357D01*
X198141166Y-75422880D01*
X198074642Y-75555928D01*
X198074642Y-75822023D01*
X198141166Y-75955071D01*
X198274214Y-76021595D01*
X198407261Y-76021595D01*
X198540309Y-75356357D01*
X199005976Y-76620309D02*
X198074642Y-76620309D01*
X198340738Y-76620309D02*
X198207690Y-76686833D01*
X198141166Y-76753357D01*
X198074642Y-76886404D01*
X198074642Y-77019452D01*
X199005976Y-77485119D02*
X198074642Y-77485119D01*
X197608976Y-77485119D02*
X197675500Y-77418595D01*
X197742023Y-77485119D01*
X197675500Y-77551642D01*
X197608976Y-77485119D01*
X197742023Y-77485119D01*
X198074642Y-78150357D02*
X199005976Y-78150357D01*
X198207690Y-78150357D02*
X198141166Y-78216880D01*
X198074642Y-78349928D01*
X198074642Y-78549500D01*
X198141166Y-78682547D01*
X198274214Y-78749071D01*
X199005976Y-78749071D01*
X198074642Y-80013023D02*
X199205547Y-80013023D01*
X199338595Y-79946500D01*
X199405119Y-79879976D01*
X199471642Y-79746928D01*
X199471642Y-79547357D01*
X199405119Y-79414309D01*
X198939452Y-80013023D02*
X199005976Y-79879976D01*
X199005976Y-79613880D01*
X198939452Y-79480833D01*
X198872928Y-79414309D01*
X198739880Y-79347785D01*
X198340738Y-79347785D01*
X198207690Y-79414309D01*
X198141166Y-79480833D01*
X198074642Y-79613880D01*
X198074642Y-79879976D01*
X198141166Y-80013023D01*
D13*
%TO.C,U3*%
X159385000Y-98298000D02*
X162433000Y-98298000D01*
X162433000Y-100330000D02*
X159385000Y-100330000D01*
%TO.C,U7*%
X74041000Y-97028000D02*
X70993000Y-97028000D01*
X70993000Y-94996000D02*
X74041000Y-94996000D01*
%TO.C,U6*%
X77216000Y-64770000D02*
X77216000Y-67818000D01*
X75184000Y-67818000D02*
X75184000Y-64770000D01*
%TO.C,U5*%
X76200000Y-43307000D02*
X76200000Y-40259000D01*
X78232000Y-40259000D02*
X78232000Y-43307000D01*
%TO.C,U4*%
X115443000Y-94742000D02*
X118491000Y-94742000D01*
X118491000Y-96774000D02*
X115443000Y-96774000D01*
%TO.C,U2*%
X186690000Y-95758000D02*
X183642000Y-95758000D01*
X183642000Y-93726000D02*
X186690000Y-93726000D01*
%TO.C,U1*%
X225806000Y-95504000D02*
X222758000Y-95504000D01*
X222758000Y-93472000D02*
X225806000Y-93472000D01*
D14*
%TO.C,C2*%
X236577000Y-62486000D02*
X228602000Y-62486000D01*
X233552000Y-69086000D02*
X228602000Y-69086000D01*
%TO.C,C1*%
X230026000Y-87884000D02*
G75*
G03*
X230126000Y-87884000I50000J0D01*
G01*
X230126000Y-87884000D02*
G75*
G03*
X230026000Y-87884000I-50000J0D01*
G01*
X230026000Y-87884000D02*
G75*
G03*
X230126000Y-87884000I50000J0D01*
G01*
X232076000Y-89384000D02*
X232076000Y-89959000D01*
X232076000Y-89959000D02*
X233226000Y-92034000D01*
X233226000Y-92034000D02*
X240376000Y-92034000D01*
X240376000Y-92034000D02*
X240376000Y-89384000D01*
X240376000Y-86384000D02*
X240376000Y-83734000D01*
X240376000Y-83734000D02*
X233226000Y-83734000D01*
X233226000Y-83734000D02*
X232076000Y-85809000D01*
X232076000Y-85809000D02*
X232076000Y-86384000D01*
X230126000Y-87884000D02*
X230126000Y-87884000D01*
X230026000Y-87884000D02*
X230026000Y-87884000D01*
X230126000Y-87884000D02*
X230126000Y-87884000D01*
D12*
%TO.C,PS1*%
X225044000Y-71120000D02*
X247904000Y-71120000D01*
X225044000Y-81280000D02*
X225044000Y-71120000D01*
X247904000Y-81280000D02*
X225044000Y-81280000D01*
X247904000Y-71120000D02*
X247904000Y-81280000D01*
%TO.C,J2*%
X243256000Y-60894000D02*
X243256000Y-63304000D01*
X240846000Y-60894000D02*
X243256000Y-60894000D01*
X237836000Y-68814000D02*
X237836000Y-61194000D01*
X241956000Y-68814000D02*
X237836000Y-68814000D01*
X242956000Y-67814000D02*
X241956000Y-68814000D01*
X242956000Y-61194000D02*
X242956000Y-67814000D01*
X237836000Y-61194000D02*
X242956000Y-61194000D01*
%TO.C,J1*%
X166436000Y-90602000D02*
X164026000Y-90602000D01*
X166436000Y-88192000D02*
X166436000Y-90602000D01*
X138516000Y-85182000D02*
X166136000Y-85182000D01*
X138516000Y-89302000D02*
X138516000Y-85182000D01*
X139516000Y-90302000D02*
X138516000Y-89302000D01*
X166136000Y-90302000D02*
X139516000Y-90302000D01*
X166136000Y-85182000D02*
X166136000Y-90302000D01*
%TO.C,U3*%
D11*
X161670904Y-101306380D02*
X161670904Y-102115904D01*
X161623285Y-102211142D01*
X161575666Y-102258761D01*
X161480428Y-102306380D01*
X161289952Y-102306380D01*
X161194714Y-102258761D01*
X161147095Y-102211142D01*
X161099476Y-102115904D01*
X161099476Y-101306380D01*
X160718523Y-101306380D02*
X160099476Y-101306380D01*
X160432809Y-101687333D01*
X160289952Y-101687333D01*
X160194714Y-101734952D01*
X160147095Y-101782571D01*
X160099476Y-101877809D01*
X160099476Y-102115904D01*
X160147095Y-102211142D01*
X160194714Y-102258761D01*
X160289952Y-102306380D01*
X160575666Y-102306380D01*
X160670904Y-102258761D01*
X160718523Y-102211142D01*
X158369000Y-98766380D02*
X158369000Y-99004476D01*
X158607095Y-98909238D02*
X158369000Y-99004476D01*
X158130904Y-98909238D01*
X158511857Y-99194952D02*
X158369000Y-99004476D01*
X158226142Y-99194952D01*
X158369000Y-98766380D02*
X158369000Y-99004476D01*
X158607095Y-98909238D02*
X158369000Y-99004476D01*
X158130904Y-98909238D01*
X158511857Y-99194952D02*
X158369000Y-99004476D01*
X158226142Y-99194952D01*
%TO.C,U7*%
X73278904Y-92924380D02*
X73278904Y-93733904D01*
X73231285Y-93829142D01*
X73183666Y-93876761D01*
X73088428Y-93924380D01*
X72897952Y-93924380D01*
X72802714Y-93876761D01*
X72755095Y-93829142D01*
X72707476Y-93733904D01*
X72707476Y-92924380D01*
X72326523Y-92924380D02*
X71659857Y-92924380D01*
X72088428Y-93924380D01*
X75057000Y-95464380D02*
X75057000Y-95702476D01*
X75295095Y-95607238D02*
X75057000Y-95702476D01*
X74818904Y-95607238D01*
X75199857Y-95892952D02*
X75057000Y-95702476D01*
X74914142Y-95892952D01*
X75057000Y-95464380D02*
X75057000Y-95702476D01*
X75295095Y-95607238D02*
X75057000Y-95702476D01*
X74818904Y-95607238D01*
X75199857Y-95892952D02*
X75057000Y-95702476D01*
X74914142Y-95892952D01*
%TO.C,U6*%
X73112380Y-65532095D02*
X73921904Y-65532095D01*
X74017142Y-65579714D01*
X74064761Y-65627333D01*
X74112380Y-65722571D01*
X74112380Y-65913047D01*
X74064761Y-66008285D01*
X74017142Y-66055904D01*
X73921904Y-66103523D01*
X73112380Y-66103523D01*
X73112380Y-67008285D02*
X73112380Y-66817809D01*
X73160000Y-66722571D01*
X73207619Y-66674952D01*
X73350476Y-66579714D01*
X73540952Y-66532095D01*
X73921904Y-66532095D01*
X74017142Y-66579714D01*
X74064761Y-66627333D01*
X74112380Y-66722571D01*
X74112380Y-66913047D01*
X74064761Y-67008285D01*
X74017142Y-67055904D01*
X73921904Y-67103523D01*
X73683809Y-67103523D01*
X73588571Y-67055904D01*
X73540952Y-67008285D01*
X73493333Y-66913047D01*
X73493333Y-66722571D01*
X73540952Y-66627333D01*
X73588571Y-66579714D01*
X73683809Y-66532095D01*
X75652380Y-63754000D02*
X75890476Y-63754000D01*
X75795238Y-63515904D02*
X75890476Y-63754000D01*
X75795238Y-63992095D01*
X76080952Y-63611142D02*
X75890476Y-63754000D01*
X76080952Y-63896857D01*
X75652380Y-63754000D02*
X75890476Y-63754000D01*
X75795238Y-63515904D02*
X75890476Y-63754000D01*
X75795238Y-63992095D01*
X76080952Y-63611142D02*
X75890476Y-63754000D01*
X76080952Y-63896857D01*
%TO.C,U5*%
X79208380Y-41021095D02*
X80017904Y-41021095D01*
X80113142Y-41068714D01*
X80160761Y-41116333D01*
X80208380Y-41211571D01*
X80208380Y-41402047D01*
X80160761Y-41497285D01*
X80113142Y-41544904D01*
X80017904Y-41592523D01*
X79208380Y-41592523D01*
X79208380Y-42544904D02*
X79208380Y-42068714D01*
X79684571Y-42021095D01*
X79636952Y-42068714D01*
X79589333Y-42163952D01*
X79589333Y-42402047D01*
X79636952Y-42497285D01*
X79684571Y-42544904D01*
X79779809Y-42592523D01*
X80017904Y-42592523D01*
X80113142Y-42544904D01*
X80160761Y-42497285D01*
X80208380Y-42402047D01*
X80208380Y-42163952D01*
X80160761Y-42068714D01*
X80113142Y-42021095D01*
X76668380Y-44323000D02*
X76906476Y-44323000D01*
X76811238Y-44084904D02*
X76906476Y-44323000D01*
X76811238Y-44561095D01*
X77096952Y-44180142D02*
X76906476Y-44323000D01*
X77096952Y-44465857D01*
X76668380Y-44323000D02*
X76906476Y-44323000D01*
X76811238Y-44084904D02*
X76906476Y-44323000D01*
X76811238Y-44561095D01*
X77096952Y-44180142D02*
X76906476Y-44323000D01*
X77096952Y-44465857D01*
%TO.C,U4*%
X117728904Y-97750380D02*
X117728904Y-98559904D01*
X117681285Y-98655142D01*
X117633666Y-98702761D01*
X117538428Y-98750380D01*
X117347952Y-98750380D01*
X117252714Y-98702761D01*
X117205095Y-98655142D01*
X117157476Y-98559904D01*
X117157476Y-97750380D01*
X116252714Y-98083714D02*
X116252714Y-98750380D01*
X116490809Y-97702761D02*
X116728904Y-98417047D01*
X116109857Y-98417047D01*
X114427000Y-95210380D02*
X114427000Y-95448476D01*
X114665095Y-95353238D02*
X114427000Y-95448476D01*
X114188904Y-95353238D01*
X114569857Y-95638952D02*
X114427000Y-95448476D01*
X114284142Y-95638952D01*
X114427000Y-95210380D02*
X114427000Y-95448476D01*
X114665095Y-95353238D02*
X114427000Y-95448476D01*
X114188904Y-95353238D01*
X114569857Y-95638952D02*
X114427000Y-95448476D01*
X114284142Y-95638952D01*
%TO.C,U2*%
X185927904Y-91654380D02*
X185927904Y-92463904D01*
X185880285Y-92559142D01*
X185832666Y-92606761D01*
X185737428Y-92654380D01*
X185546952Y-92654380D01*
X185451714Y-92606761D01*
X185404095Y-92559142D01*
X185356476Y-92463904D01*
X185356476Y-91654380D01*
X184927904Y-91749619D02*
X184880285Y-91702000D01*
X184785047Y-91654380D01*
X184546952Y-91654380D01*
X184451714Y-91702000D01*
X184404095Y-91749619D01*
X184356476Y-91844857D01*
X184356476Y-91940095D01*
X184404095Y-92082952D01*
X184975523Y-92654380D01*
X184356476Y-92654380D01*
X187706000Y-94194380D02*
X187706000Y-94432476D01*
X187944095Y-94337238D02*
X187706000Y-94432476D01*
X187467904Y-94337238D01*
X187848857Y-94622952D02*
X187706000Y-94432476D01*
X187563142Y-94622952D01*
X187706000Y-94194380D02*
X187706000Y-94432476D01*
X187944095Y-94337238D02*
X187706000Y-94432476D01*
X187467904Y-94337238D01*
X187848857Y-94622952D02*
X187706000Y-94432476D01*
X187563142Y-94622952D01*
%TO.C,U1*%
X225043904Y-91400380D02*
X225043904Y-92209904D01*
X224996285Y-92305142D01*
X224948666Y-92352761D01*
X224853428Y-92400380D01*
X224662952Y-92400380D01*
X224567714Y-92352761D01*
X224520095Y-92305142D01*
X224472476Y-92209904D01*
X224472476Y-91400380D01*
X223472476Y-92400380D02*
X224043904Y-92400380D01*
X223758190Y-92400380D02*
X223758190Y-91400380D01*
X223853428Y-91543238D01*
X223948666Y-91638476D01*
X224043904Y-91686095D01*
X226822000Y-93940380D02*
X226822000Y-94178476D01*
X227060095Y-94083238D02*
X226822000Y-94178476D01*
X226583904Y-94083238D01*
X226964857Y-94368952D02*
X226822000Y-94178476D01*
X226679142Y-94368952D01*
X226822000Y-93940380D02*
X226822000Y-94178476D01*
X227060095Y-94083238D02*
X226822000Y-94178476D01*
X226583904Y-94083238D01*
X226964857Y-94368952D02*
X226822000Y-94178476D01*
X226679142Y-94368952D01*
%TO.C,C2*%
D15*
X232113666Y-66239571D02*
X232174142Y-66300047D01*
X232355571Y-66360523D01*
X232476523Y-66360523D01*
X232657952Y-66300047D01*
X232778904Y-66179095D01*
X232839380Y-66058142D01*
X232899857Y-65816238D01*
X232899857Y-65634809D01*
X232839380Y-65392904D01*
X232778904Y-65271952D01*
X232657952Y-65151000D01*
X232476523Y-65090523D01*
X232355571Y-65090523D01*
X232174142Y-65151000D01*
X232113666Y-65211476D01*
X231629857Y-65211476D02*
X231569380Y-65151000D01*
X231448428Y-65090523D01*
X231146047Y-65090523D01*
X231025095Y-65151000D01*
X230964619Y-65211476D01*
X230904142Y-65332428D01*
X230904142Y-65453380D01*
X230964619Y-65634809D01*
X231690333Y-66360523D01*
X230904142Y-66360523D01*
%TO.C,C1*%
X236679571Y-87672333D02*
X236740047Y-87611857D01*
X236800523Y-87430428D01*
X236800523Y-87309476D01*
X236740047Y-87128047D01*
X236619095Y-87007095D01*
X236498142Y-86946619D01*
X236256238Y-86886142D01*
X236074809Y-86886142D01*
X235832904Y-86946619D01*
X235711952Y-87007095D01*
X235591000Y-87128047D01*
X235530523Y-87309476D01*
X235530523Y-87430428D01*
X235591000Y-87611857D01*
X235651476Y-87672333D01*
X236800523Y-88881857D02*
X236800523Y-88156142D01*
X236800523Y-88519000D02*
X235530523Y-88519000D01*
X235711952Y-88398047D01*
X235832904Y-88277095D01*
X235893380Y-88156142D01*
%TO.C,PS1*%
D11*
X236418285Y-84272380D02*
X236418285Y-83272380D01*
X236037333Y-83272380D01*
X235942095Y-83320000D01*
X235894476Y-83367619D01*
X235846857Y-83462857D01*
X235846857Y-83605714D01*
X235894476Y-83700952D01*
X235942095Y-83748571D01*
X236037333Y-83796190D01*
X236418285Y-83796190D01*
X235465904Y-84224761D02*
X235323047Y-84272380D01*
X235084952Y-84272380D01*
X234989714Y-84224761D01*
X234942095Y-84177142D01*
X234894476Y-84081904D01*
X234894476Y-83986666D01*
X234942095Y-83891428D01*
X234989714Y-83843809D01*
X235084952Y-83796190D01*
X235275428Y-83748571D01*
X235370666Y-83700952D01*
X235418285Y-83653333D01*
X235465904Y-83558095D01*
X235465904Y-83462857D01*
X235418285Y-83367619D01*
X235370666Y-83320000D01*
X235275428Y-83272380D01*
X235037333Y-83272380D01*
X234894476Y-83320000D01*
X233942095Y-84272380D02*
X234513523Y-84272380D01*
X234227809Y-84272380D02*
X234227809Y-83272380D01*
X234323047Y-83415238D01*
X234418285Y-83510476D01*
X234513523Y-83558095D01*
%TO.C,J2*%
X236198380Y-64670666D02*
X236912666Y-64670666D01*
X237055523Y-64623047D01*
X237150761Y-64527809D01*
X237198380Y-64384952D01*
X237198380Y-64289714D01*
X236293619Y-65099238D02*
X236246000Y-65146857D01*
X236198380Y-65242095D01*
X236198380Y-65480190D01*
X236246000Y-65575428D01*
X236293619Y-65623047D01*
X236388857Y-65670666D01*
X236484095Y-65670666D01*
X236626952Y-65623047D01*
X237198380Y-65051619D01*
X237198380Y-65670666D01*
%TO.C,J1*%
X152659333Y-83544380D02*
X152659333Y-84258666D01*
X152706952Y-84401523D01*
X152802190Y-84496761D01*
X152945047Y-84544380D01*
X153040285Y-84544380D01*
X151659333Y-84544380D02*
X152230761Y-84544380D01*
X151945047Y-84544380D02*
X151945047Y-83544380D01*
X152040285Y-83687238D01*
X152135523Y-83782476D01*
X152230761Y-83830095D01*
%TD*%
M02*
