M48
; DRILL file {KiCad (5.1.9)-1} date 03/08/22 15:51:35
; FORMAT={-:-/ absolute / inch / decimal}
; #@! TF.CreationDate,2022-03-08T15:51:35-05:00
; #@! TF.GenerationSoftware,Kicad,Pcbnew,(5.1.9)-1
FMAT,2
INCH
T1C0.0157
T2C0.0300
T3C0.0335
T4C0.0354
T5C0.0866
%
G90
G05
T1
X2.7Y-3.775
X2.75Y-1.5
X2.8Y-2.5
X3.28Y-3.89
X3.77Y-3.63
X4.16Y-1.645
X4.16Y-2.915
X4.28Y-1.645
X4.28Y-2.915
X4.44Y-1.815
X4.44Y-2.75
X4.45Y-3.775
X4.56Y-1.815
X4.56Y-2.75
X5.5Y-1.655
X5.5Y-2.895
X5.62Y-1.655
X5.62Y-2.895
X5.78Y-1.865
X5.78Y-2.69
X5.9Y-1.865
X5.9Y-2.69
X6.21Y-3.78
X6.78Y-1.655
X6.78Y-2.895
X6.9Y-1.655
X6.9Y-2.895
X7.06Y-1.855
X7.06Y-2.7
X7.18Y-1.855
X7.18Y-2.7
X7.19Y-3.38
X7.5Y-3.725
X8.09Y-1.645
X8.09Y-2.895
X8.21Y-1.645
X8.21Y-2.895
X8.37Y-1.925
X8.37Y-2.615
X8.49Y-1.925
X8.49Y-2.615
X9.15Y-3.725
T2
X8.96Y-2.9
X9.06Y-2.9
X9.16Y-2.9
X9.26Y-2.9
X9.46Y-2.9
X9.56Y-2.9
X9.66Y-2.9
T3
X5.5542Y-3.48
X5.6526Y-3.48
X5.751Y-3.48
X5.8494Y-3.48
X5.9479Y-3.48
X6.0463Y-3.48
X6.1447Y-3.48
X6.2431Y-3.48
X6.3416Y-3.48
X6.44Y-3.48
X9.49Y-2.51
X9.49Y-2.6084
T4
X2.45Y-1.59
X2.45Y-2.6
X2.45Y-3.83
X2.55Y-1.59
X2.55Y-2.6
X2.55Y-3.83
X4.2Y-3.83
X4.3Y-3.83
X5.95Y-3.83
X6.05Y-3.83
X7.7Y-3.83
X7.8Y-3.83
X9.45Y-3.83
X9.55Y-3.83
T5
X3.341Y-2.323
X3.341Y-3.448
X8.565Y-3.45
T0
M30
