%TF.GenerationSoftware,KiCad,Pcbnew,(5.1.9)-1*%
%TF.CreationDate,2022-03-08T15:51:05-05:00*%
%TF.ProjectId,Front Dash,46726f6e-7420-4446-9173-682e6b696361,rev?*%
%TF.SameCoordinates,Original*%
%TF.FileFunction,Copper,L2,Bot*%
%TF.FilePolarity,Positive*%
%FSLAX46Y46*%
G04 Gerber Fmt 4.6, Leading zero omitted, Abs format (unit mm)*
G04 Created by KiCad (PCBNEW (5.1.9)-1) date 2022-03-08 15:51:05*
%MOMM*%
%LPD*%
G01*
G04 APERTURE LIST*
%TA.AperFunction,SMDPad,CuDef*%
%ADD10R,1.016000X1.244600*%
%TD*%
%TA.AperFunction,ComponentPad*%
%ADD11C,1.800000*%
%TD*%
%TA.AperFunction,ComponentPad*%
%ADD12R,1.800000X1.800000*%
%TD*%
%TA.AperFunction,SMDPad,CuDef*%
%ADD13R,1.244600X1.016000*%
%TD*%
%TA.AperFunction,SMDPad,CuDef*%
%ADD14R,3.450000X1.800000*%
%TD*%
%TA.AperFunction,SMDPad,CuDef*%
%ADD15R,4.000000X2.000000*%
%TD*%
%TA.AperFunction,ComponentPad*%
%ADD16C,1.524000*%
%TD*%
%TA.AperFunction,ComponentPad*%
%ADD17C,4.400000*%
%TD*%
%TA.AperFunction,ComponentPad*%
%ADD18O,1.850000X1.700000*%
%TD*%
%TA.AperFunction,ComponentPad*%
%ADD19O,1.700000X1.850000*%
%TD*%
%TA.AperFunction,ViaPad*%
%ADD20C,0.800000*%
%TD*%
%TA.AperFunction,Conductor*%
%ADD21C,0.250000*%
%TD*%
G04 APERTURE END LIST*
D10*
%TO.P,U3,1*%
%TO.N,Net-(D3-Pad1)*%
X159258000Y-99314000D03*
%TO.P,U3,2*%
%TO.N,Net-(J1-Pad4)*%
X162560000Y-99314000D03*
%TD*%
D11*
%TO.P,D1,2*%
%TO.N,Net-(D1-Pad2)*%
X242570000Y-97282000D03*
D12*
%TO.P,D1,1*%
%TO.N,Net-(D1-Pad1)*%
X240030000Y-97282000D03*
%TD*%
D10*
%TO.P,U7,1*%
%TO.N,Net-(C1-Pad1)*%
X74168000Y-96012000D03*
%TO.P,U7,2*%
%TO.N,Net-(D7-Pad1)*%
X70866000Y-96012000D03*
%TD*%
D13*
%TO.P,U6,1*%
%TO.N,Net-(D6-Pad1)*%
X76200000Y-64643000D03*
%TO.P,U6,2*%
%TO.N,Net-(J1-Pad7)*%
X76200000Y-67945000D03*
%TD*%
%TO.P,U5,1*%
%TO.N,Net-(J1-Pad8)*%
X77216000Y-43434000D03*
%TO.P,U5,2*%
%TO.N,Net-(D5-Pad1)*%
X77216000Y-40132000D03*
%TD*%
D10*
%TO.P,U4,1*%
%TO.N,Net-(D4-Pad1)*%
X115316000Y-95758000D03*
%TO.P,U4,2*%
%TO.N,Net-(J1-Pad5)*%
X118618000Y-95758000D03*
%TD*%
%TO.P,U2,1*%
%TO.N,Net-(D2-Pad1)*%
X186817000Y-94742000D03*
%TO.P,U2,2*%
%TO.N,Net-(J1-Pad3)*%
X183515000Y-94742000D03*
%TD*%
%TO.P,U1,1*%
%TO.N,Net-(D1-Pad1)*%
X225933000Y-94488000D03*
%TO.P,U1,2*%
%TO.N,Net-(J1-Pad2)*%
X222631000Y-94488000D03*
%TD*%
D11*
%TO.P,D7,2*%
%TO.N,Net-(D1-Pad2)*%
X64770000Y-97282000D03*
D12*
%TO.P,D7,1*%
%TO.N,Net-(D7-Pad1)*%
X62230000Y-97282000D03*
%TD*%
D11*
%TO.P,D6,2*%
%TO.N,Net-(D1-Pad2)*%
X64770000Y-66040000D03*
D12*
%TO.P,D6,1*%
%TO.N,Net-(D6-Pad1)*%
X62230000Y-66040000D03*
%TD*%
D11*
%TO.P,D5,2*%
%TO.N,Net-(D1-Pad2)*%
X64770000Y-40386000D03*
D12*
%TO.P,D5,1*%
%TO.N,Net-(D5-Pad1)*%
X62230000Y-40386000D03*
%TD*%
D11*
%TO.P,D4,2*%
%TO.N,Net-(D1-Pad2)*%
X109220000Y-97282000D03*
D12*
%TO.P,D4,1*%
%TO.N,Net-(D4-Pad1)*%
X106680000Y-97282000D03*
%TD*%
D11*
%TO.P,D3,2*%
%TO.N,Net-(D1-Pad2)*%
X153670000Y-97282000D03*
D12*
%TO.P,D3,1*%
%TO.N,Net-(D3-Pad1)*%
X151130000Y-97282000D03*
%TD*%
D11*
%TO.P,D2,2*%
%TO.N,Net-(D1-Pad2)*%
X198120000Y-97282000D03*
D12*
%TO.P,D2,1*%
%TO.N,Net-(D2-Pad1)*%
X195580000Y-97282000D03*
%TD*%
D14*
%TO.P,C2,2*%
%TO.N,Net-(C2-Pad2)*%
X228952000Y-65786000D03*
%TO.P,C2,1*%
%TO.N,Net-(C2-Pad1)*%
X234852000Y-65786000D03*
%TD*%
D15*
%TO.P,C1,1*%
%TO.N,Net-(C1-Pad1)*%
X232676000Y-87884000D03*
%TO.P,C1,2*%
%TO.N,Net-(C1-Pad2)*%
X239776000Y-87884000D03*
%TD*%
D16*
%TO.P,PS1,7*%
%TO.N,Net-(PS1-Pad7)*%
X227584000Y-73660000D03*
%TO.P,PS1,6*%
%TO.N,Net-(C2-Pad2)*%
X230124000Y-73660000D03*
%TO.P,PS1,5*%
%TO.N,Net-(C2-Pad1)*%
X232664000Y-73660000D03*
%TO.P,PS1,4*%
%TO.N,Net-(PS1-Pad4)*%
X235204000Y-73660000D03*
%TO.P,PS1,3*%
%TO.N,Net-(PS1-Pad3)*%
X240284000Y-73660000D03*
%TO.P,PS1,2*%
%TO.N,Net-(C1-Pad1)*%
X242824000Y-73660000D03*
%TO.P,PS1,1*%
%TO.N,Net-(C1-Pad2)*%
X245364000Y-73660000D03*
%TD*%
D17*
%TO.P,H3,1*%
%TO.N,Net-(D1-Pad2)*%
X217551000Y-87630000D03*
%TD*%
%TO.P,H2,1*%
%TO.N,Net-(D1-Pad2)*%
X84861400Y-59004200D03*
%TD*%
%TO.P,H1,1*%
%TO.N,Net-(D1-Pad2)*%
X84861400Y-87579200D03*
%TD*%
D18*
%TO.P,J2,2*%
%TO.N,Net-(C2-Pad1)*%
X241046000Y-66254000D03*
%TO.P,J2,1*%
%TO.N,Net-(C2-Pad2)*%
%TA.AperFunction,ComponentPad*%
G36*
G01*
X240371000Y-62904000D02*
X241721000Y-62904000D01*
G75*
G02*
X241971000Y-63154000I0J-250000D01*
G01*
X241971000Y-64354000D01*
G75*
G02*
X241721000Y-64604000I-250000J0D01*
G01*
X240371000Y-64604000D01*
G75*
G02*
X240121000Y-64354000I0J250000D01*
G01*
X240121000Y-63154000D01*
G75*
G02*
X240371000Y-62904000I250000J0D01*
G01*
G37*
%TD.AperFunction*%
%TD*%
D19*
%TO.P,J1,10*%
%TO.N,Net-(C1-Pad1)*%
X141076000Y-88392000D03*
%TO.P,J1,9*%
%TO.N,Net-(C1-Pad2)*%
X143576000Y-88392000D03*
%TO.P,J1,8*%
%TO.N,Net-(J1-Pad8)*%
X146076000Y-88392000D03*
%TO.P,J1,7*%
%TO.N,Net-(J1-Pad7)*%
X148576000Y-88392000D03*
%TO.P,J1,6*%
%TO.N,Net-(J1-Pad6)*%
X151076000Y-88392000D03*
%TO.P,J1,5*%
%TO.N,Net-(J1-Pad5)*%
X153576000Y-88392000D03*
%TO.P,J1,4*%
%TO.N,Net-(J1-Pad4)*%
X156076000Y-88392000D03*
%TO.P,J1,3*%
%TO.N,Net-(J1-Pad3)*%
X158576000Y-88392000D03*
%TO.P,J1,2*%
%TO.N,Net-(J1-Pad2)*%
X161076000Y-88392000D03*
%TO.P,J1,1*%
%TO.N,Net-(D1-Pad2)*%
%TA.AperFunction,ComponentPad*%
G36*
G01*
X164426000Y-87717000D02*
X164426000Y-89067000D01*
G75*
G02*
X164176000Y-89317000I-250000J0D01*
G01*
X162976000Y-89317000D01*
G75*
G02*
X162726000Y-89067000I0J250000D01*
G01*
X162726000Y-87717000D01*
G75*
G02*
X162976000Y-87467000I250000J0D01*
G01*
X164176000Y-87467000D01*
G75*
G02*
X164426000Y-87717000I0J-250000D01*
G01*
G37*
%TD.AperFunction*%
%TD*%
D20*
%TO.N,*%
X205486000Y-41783000D03*
X208534000Y-41783000D03*
X215646000Y-48895000D03*
X212598000Y-48895000D03*
X205486000Y-73533000D03*
X212598000Y-66421000D03*
X215646000Y-66421000D03*
X208534000Y-73533000D03*
X172212000Y-42037000D03*
X175260000Y-42037000D03*
X175260000Y-73533000D03*
X172212000Y-73533000D03*
X139700000Y-42037000D03*
X142748000Y-42037000D03*
X142748000Y-73533000D03*
X139700000Y-73533000D03*
X108712000Y-41783000D03*
X105664000Y-74041000D03*
X108712000Y-74041000D03*
X105664000Y-41783000D03*
X115824000Y-69850000D03*
X112776000Y-69850000D03*
X112776000Y-46101000D03*
X115824000Y-46101000D03*
X149860000Y-47371000D03*
X146812000Y-47371000D03*
X146812000Y-68326000D03*
X149860000Y-68326000D03*
X179324000Y-68580000D03*
X182372000Y-68580000D03*
X182372000Y-47117000D03*
X179324000Y-47117000D03*
%TO.N,Net-(D1-Pad1)*%
X232410000Y-94615000D03*
%TO.N,Net-(D5-Pad1)*%
X69850000Y-38100000D03*
%TO.N,Net-(D7-Pad1)*%
X68580000Y-95885000D03*
%TO.N,Net-(D4-Pad1)*%
X113030000Y-95885000D03*
%TO.N,Net-(D6-Pad1)*%
X71120000Y-63500000D03*
%TO.N,Net-(D2-Pad1)*%
X190500000Y-94615000D03*
%TO.N,Net-(C1-Pad1)*%
X95758000Y-92202000D03*
X83312000Y-98806000D03*
%TO.N,Net-(D1-Pad2)*%
X182626000Y-85852000D03*
%TO.N,Net-(D3-Pad1)*%
X157734000Y-96012000D03*
%TD*%
D21*
%TO.N,Net-(J1-Pad3)*%
X180086000Y-94615000D02*
X177546000Y-92075000D01*
X183134000Y-94615000D02*
X180086000Y-94615000D01*
X162259000Y-92075000D02*
X158576000Y-88392000D01*
X177546000Y-92075000D02*
X162259000Y-92075000D01*
%TO.N,Net-(D1-Pad1)*%
X225806000Y-94615000D02*
X232410000Y-94615000D01*
%TO.N,Net-(J1-Pad2)*%
X163489000Y-90805000D02*
X161076000Y-88392000D01*
X201930000Y-90805000D02*
X163489000Y-90805000D01*
X203835000Y-92710000D02*
X201930000Y-90805000D01*
X220599000Y-92710000D02*
X203835000Y-92710000D01*
X222504000Y-94615000D02*
X220599000Y-92710000D01*
%TO.N,Net-(D5-Pad1)*%
X76200000Y-38100000D02*
X69850000Y-38100000D01*
%TO.N,Net-(J1-Pad8)*%
X121920000Y-90170000D02*
X122200000Y-90170000D01*
X144298000Y-90170000D02*
X146076000Y-88392000D01*
X121920000Y-90170000D02*
X144298000Y-90170000D01*
%TO.N,Net-(D3-Pad1)*%
X159385000Y-97663000D02*
X157734000Y-96012000D01*
X159385000Y-99060000D02*
X159385000Y-97663000D01*
%TO.N,Net-(J1-Pad4)*%
X156076000Y-92449000D02*
X162687000Y-99060000D01*
X156076000Y-88392000D02*
X156076000Y-92449000D01*
%TO.N,Net-(D7-Pad1)*%
X70739000Y-95885000D02*
X68580000Y-95885000D01*
%TO.N,Net-(D4-Pad1)*%
X115189000Y-95885000D02*
X113030000Y-95885000D01*
%TO.N,Net-(J1-Pad5)*%
X123985000Y-95885000D02*
X123825000Y-95885000D01*
X123825000Y-95885000D02*
X118491000Y-95885000D01*
X150020000Y-91948000D02*
X153576000Y-88392000D01*
X149352000Y-91948000D02*
X150020000Y-91948000D01*
X145415000Y-95885000D02*
X149352000Y-91948000D01*
X123825000Y-95885000D02*
X145415000Y-95885000D01*
%TO.N,Net-(D6-Pad1)*%
X76200000Y-64389000D02*
X76200000Y-64312800D01*
X76200000Y-64389000D02*
X76200000Y-64135000D01*
X75565000Y-63500000D02*
X71120000Y-63500000D01*
X76200000Y-64135000D02*
X75565000Y-63500000D01*
%TO.N,Net-(J1-Pad7)*%
X123430000Y-91440000D02*
X123190000Y-91440000D01*
X145528000Y-91440000D02*
X148576000Y-88392000D01*
X123190000Y-91440000D02*
X145528000Y-91440000D01*
%TO.N,Net-(D2-Pad1)*%
X186436000Y-94615000D02*
X190500000Y-94615000D01*
%TO.N,Net-(D1-Pad2)*%
X84861400Y-87579200D02*
X84861400Y-59004200D01*
X213995000Y-84074000D02*
X217551000Y-87630000D01*
X90982800Y-87579200D02*
X94488000Y-84074000D01*
X84861400Y-87579200D02*
X90982800Y-87579200D01*
%TO.N,Net-(C1-Pad2)*%
X168402000Y-88646000D02*
X203454000Y-88646000D01*
X166116000Y-86360000D02*
X168402000Y-88646000D01*
X203454000Y-88646000D02*
X206248000Y-91440000D01*
X145608000Y-86360000D02*
X166116000Y-86360000D01*
X143576000Y-88392000D02*
X145608000Y-86360000D01*
X236618000Y-91440000D02*
X240428000Y-87630000D01*
X224028000Y-91440000D02*
X236618000Y-91440000D01*
X206248000Y-91440000D02*
X224028000Y-91440000D01*
X224028000Y-91440000D02*
X224155000Y-91440000D01*
X240428000Y-83676000D02*
X245364000Y-78740000D01*
X240428000Y-87630000D02*
X240428000Y-83676000D01*
X245364000Y-78740000D02*
X245364000Y-73660000D01*
%TO.N,Net-(C1-Pad1)*%
X204216000Y-87630000D02*
X207391000Y-90805000D01*
X168656000Y-87630000D02*
X204216000Y-87630000D01*
X166116000Y-85090000D02*
X168656000Y-87630000D01*
X144378000Y-85090000D02*
X166116000Y-85090000D01*
X141076000Y-88392000D02*
X144378000Y-85090000D01*
X207391000Y-90805000D02*
X222631000Y-90805000D01*
X222631000Y-90805000D02*
X222885000Y-90805000D01*
X99568000Y-88392000D02*
X95758000Y-92202000D01*
X141076000Y-88392000D02*
X99568000Y-88392000D01*
X76962000Y-98806000D02*
X74041000Y-95885000D01*
X83312000Y-98806000D02*
X76962000Y-98806000D01*
X241820000Y-78740000D02*
X232676000Y-87884000D01*
X242824000Y-73660000D02*
X242824000Y-77736000D01*
X232156000Y-87884000D02*
X229235000Y-90805000D01*
X232676000Y-87884000D02*
X232156000Y-87884000D01*
X222631000Y-90805000D02*
X229235000Y-90805000D01*
X242824000Y-77736000D02*
X241820000Y-78740000D01*
%TO.N,Net-(C2-Pad2)*%
X228952000Y-68678000D02*
X228952000Y-65786000D01*
X230124000Y-69850000D02*
X228952000Y-68678000D01*
X228952000Y-65786000D02*
X229616000Y-65786000D01*
X228952000Y-65786000D02*
X228952000Y-64926000D01*
X230124000Y-63754000D02*
X234950000Y-63754000D01*
X228952000Y-64926000D02*
X230124000Y-63754000D01*
X234696000Y-63754000D02*
X234950000Y-63754000D01*
X230124000Y-73660000D02*
X230124000Y-69850000D01*
X234950000Y-63754000D02*
X241046000Y-63754000D01*
%TO.N,Net-(C2-Pad1)*%
X232664000Y-67974000D02*
X234852000Y-65786000D01*
X232664000Y-67974000D02*
X232664000Y-73660000D01*
X240578000Y-65786000D02*
X241046000Y-66254000D01*
X234852000Y-65786000D02*
X240578000Y-65786000D01*
%TO.N,Net-(D1-Pad2)*%
X180848000Y-84074000D02*
X182626000Y-85852000D01*
X174498000Y-84074000D02*
X180848000Y-84074000D01*
X94488000Y-84074000D02*
X174498000Y-84074000D01*
X174498000Y-84074000D02*
X213995000Y-84074000D01*
%TO.N,Net-(D5-Pad1)*%
X77216000Y-39116000D02*
X76200000Y-38100000D01*
X77216000Y-40132000D02*
X77216000Y-39116000D01*
%TO.N,Net-(J1-Pad8)*%
X97155000Y-93980000D02*
X100965000Y-90170000D01*
X83185000Y-93980000D02*
X97155000Y-93980000D01*
X100965000Y-90170000D02*
X121920000Y-90170000D01*
X80010000Y-90805000D02*
X83185000Y-93980000D01*
X80010000Y-48641000D02*
X80010000Y-90805000D01*
X77216000Y-45847000D02*
X80010000Y-48641000D01*
X77216000Y-43434000D02*
X77216000Y-45847000D01*
%TO.N,Net-(J1-Pad7)*%
X77216000Y-68707000D02*
X76200000Y-67691000D01*
X77216000Y-95631000D02*
X77216000Y-68707000D01*
X78105000Y-96520000D02*
X77216000Y-95631000D01*
X96520000Y-96520000D02*
X78105000Y-96520000D01*
X101600000Y-91440000D02*
X96520000Y-96520000D01*
X123190000Y-91440000D02*
X101600000Y-91440000D01*
%TD*%
M02*
