%TF.GenerationSoftware,KiCad,Pcbnew,(5.1.9)-1*%
%TF.CreationDate,2022-03-08T15:51:05-05:00*%
%TF.ProjectId,Front Dash,46726f6e-7420-4446-9173-682e6b696361,rev?*%
%TF.SameCoordinates,Original*%
%TF.FileFunction,Soldermask,Bot*%
%TF.FilePolarity,Negative*%
%FSLAX46Y46*%
G04 Gerber Fmt 4.6, Leading zero omitted, Abs format (unit mm)*
G04 Created by KiCad (PCBNEW (5.1.9)-1) date 2022-03-08 15:51:05*
%MOMM*%
%LPD*%
G01*
G04 APERTURE LIST*
%ADD10R,1.016000X1.244600*%
%ADD11C,1.800000*%
%ADD12R,1.800000X1.800000*%
%ADD13R,1.244600X1.016000*%
%ADD14R,3.450000X1.800000*%
%ADD15R,4.000000X2.000000*%
%ADD16C,1.524000*%
%ADD17C,4.400000*%
%ADD18O,1.850000X1.700000*%
%ADD19O,1.700000X1.850000*%
G04 APERTURE END LIST*
D10*
%TO.C,U3*%
X159258000Y-99314000D03*
X162560000Y-99314000D03*
%TD*%
D11*
%TO.C,D1*%
X242570000Y-97282000D03*
D12*
X240030000Y-97282000D03*
%TD*%
D10*
%TO.C,U7*%
X74168000Y-96012000D03*
X70866000Y-96012000D03*
%TD*%
D13*
%TO.C,U6*%
X76200000Y-64643000D03*
X76200000Y-67945000D03*
%TD*%
%TO.C,U5*%
X77216000Y-43434000D03*
X77216000Y-40132000D03*
%TD*%
D10*
%TO.C,U4*%
X115316000Y-95758000D03*
X118618000Y-95758000D03*
%TD*%
%TO.C,U2*%
X186817000Y-94742000D03*
X183515000Y-94742000D03*
%TD*%
%TO.C,U1*%
X225933000Y-94488000D03*
X222631000Y-94488000D03*
%TD*%
D11*
%TO.C,D7*%
X64770000Y-97282000D03*
D12*
X62230000Y-97282000D03*
%TD*%
D11*
%TO.C,D6*%
X64770000Y-66040000D03*
D12*
X62230000Y-66040000D03*
%TD*%
D11*
%TO.C,D5*%
X64770000Y-40386000D03*
D12*
X62230000Y-40386000D03*
%TD*%
D11*
%TO.C,D4*%
X109220000Y-97282000D03*
D12*
X106680000Y-97282000D03*
%TD*%
D11*
%TO.C,D3*%
X153670000Y-97282000D03*
D12*
X151130000Y-97282000D03*
%TD*%
D11*
%TO.C,D2*%
X198120000Y-97282000D03*
D12*
X195580000Y-97282000D03*
%TD*%
D14*
%TO.C,C2*%
X228952000Y-65786000D03*
X234852000Y-65786000D03*
%TD*%
D15*
%TO.C,C1*%
X232676000Y-87884000D03*
X239776000Y-87884000D03*
%TD*%
D16*
%TO.C,PS1*%
X227584000Y-73660000D03*
X230124000Y-73660000D03*
X232664000Y-73660000D03*
X235204000Y-73660000D03*
X240284000Y-73660000D03*
X242824000Y-73660000D03*
X245364000Y-73660000D03*
%TD*%
D17*
%TO.C,H3*%
X217551000Y-87630000D03*
%TD*%
%TO.C,H2*%
X84861400Y-59004200D03*
%TD*%
%TO.C,H1*%
X84861400Y-87579200D03*
%TD*%
D18*
%TO.C,J2*%
X241046000Y-66254000D03*
G36*
G01*
X240371000Y-62904000D02*
X241721000Y-62904000D01*
G75*
G02*
X241971000Y-63154000I0J-250000D01*
G01*
X241971000Y-64354000D01*
G75*
G02*
X241721000Y-64604000I-250000J0D01*
G01*
X240371000Y-64604000D01*
G75*
G02*
X240121000Y-64354000I0J250000D01*
G01*
X240121000Y-63154000D01*
G75*
G02*
X240371000Y-62904000I250000J0D01*
G01*
G37*
%TD*%
D19*
%TO.C,J1*%
X141076000Y-88392000D03*
X143576000Y-88392000D03*
X146076000Y-88392000D03*
X148576000Y-88392000D03*
X151076000Y-88392000D03*
X153576000Y-88392000D03*
X156076000Y-88392000D03*
X158576000Y-88392000D03*
X161076000Y-88392000D03*
G36*
G01*
X164426000Y-87717000D02*
X164426000Y-89067000D01*
G75*
G02*
X164176000Y-89317000I-250000J0D01*
G01*
X162976000Y-89317000D01*
G75*
G02*
X162726000Y-89067000I0J250000D01*
G01*
X162726000Y-87717000D01*
G75*
G02*
X162976000Y-87467000I250000J0D01*
G01*
X164176000Y-87467000D01*
G75*
G02*
X164426000Y-87717000I0J-250000D01*
G01*
G37*
%TD*%
M02*
