G04 #@! TF.GenerationSoftware,KiCad,Pcbnew,(5.1.4)-1*
G04 #@! TF.CreationDate,2020-03-13T16:12:29-04:00*
G04 #@! TF.ProjectId,DriverDisplay4,44726976-6572-4446-9973-706c6179342e,rev?*
G04 #@! TF.SameCoordinates,Original*
G04 #@! TF.FileFunction,Soldermask,Top*
G04 #@! TF.FilePolarity,Negative*
%FSLAX46Y46*%
G04 Gerber Fmt 4.6, Leading zero omitted, Abs format (unit mm)*
G04 Created by KiCad (PCBNEW (5.1.4)-1) date 2020-03-13 16:12:29*
%MOMM*%
%LPD*%
G04 APERTURE LIST*
%ADD10C,0.100000*%
G04 APERTURE END LIST*
D10*
G36*
X189220634Y-99156378D02*
G01*
X190038853Y-99495296D01*
X190038854Y-99495297D01*
X190775233Y-99987329D01*
X191401471Y-100613567D01*
X191663997Y-101006466D01*
X191893504Y-101349947D01*
X192232422Y-102168166D01*
X192405200Y-103036781D01*
X192405200Y-103922419D01*
X192232422Y-104791034D01*
X191893504Y-105609253D01*
X191893503Y-105609254D01*
X191401471Y-106345633D01*
X190775233Y-106971871D01*
X190531347Y-107134830D01*
X190038853Y-107463904D01*
X189220634Y-107802822D01*
X188352019Y-107975600D01*
X187466381Y-107975600D01*
X186597766Y-107802822D01*
X185779547Y-107463904D01*
X185287053Y-107134830D01*
X185043167Y-106971871D01*
X184416929Y-106345633D01*
X183924897Y-105609254D01*
X183924896Y-105609253D01*
X183585978Y-104791034D01*
X183413200Y-103922419D01*
X183413200Y-103036781D01*
X183585978Y-102168166D01*
X183924896Y-101349947D01*
X184154403Y-101006466D01*
X184416929Y-100613567D01*
X185043167Y-99987329D01*
X185779546Y-99495297D01*
X185779547Y-99495296D01*
X186597766Y-99156378D01*
X187466381Y-98983600D01*
X188352019Y-98983600D01*
X189220634Y-99156378D01*
X189220634Y-99156378D01*
G37*
G36*
X169214908Y-102118780D02*
G01*
X169381767Y-102151970D01*
X169853299Y-102347285D01*
X170078434Y-102497716D01*
X170277666Y-102630838D01*
X170638562Y-102991734D01*
X170759927Y-103173371D01*
X170922115Y-103416101D01*
X171058793Y-103746071D01*
X171117430Y-103887634D01*
X171211126Y-104358674D01*
X171217000Y-104388209D01*
X171217000Y-104898591D01*
X171117430Y-105399167D01*
X170922115Y-105870699D01*
X170803862Y-106047676D01*
X170638562Y-106295066D01*
X170277666Y-106655962D01*
X170096029Y-106777327D01*
X169853299Y-106939515D01*
X169381767Y-107134830D01*
X169214908Y-107168020D01*
X168881193Y-107234400D01*
X168370807Y-107234400D01*
X168037092Y-107168020D01*
X167870233Y-107134830D01*
X167398701Y-106939515D01*
X167155971Y-106777327D01*
X166974334Y-106655962D01*
X166613438Y-106295066D01*
X166448138Y-106047676D01*
X166329885Y-105870699D01*
X166134570Y-105399167D01*
X166035000Y-104898591D01*
X166035000Y-104388209D01*
X166040875Y-104358674D01*
X166134570Y-103887634D01*
X166193207Y-103746071D01*
X166329885Y-103416101D01*
X166492073Y-103173371D01*
X166613438Y-102991734D01*
X166974334Y-102630838D01*
X167173566Y-102497716D01*
X167398701Y-102347285D01*
X167870233Y-102151970D01*
X168037092Y-102118780D01*
X168370807Y-102052400D01*
X168881193Y-102052400D01*
X169214908Y-102118780D01*
X169214908Y-102118780D01*
G37*
G36*
X84124908Y-102118780D02*
G01*
X84291767Y-102151970D01*
X84763299Y-102347285D01*
X84988434Y-102497716D01*
X85187666Y-102630838D01*
X85548562Y-102991734D01*
X85669927Y-103173371D01*
X85832115Y-103416101D01*
X85968793Y-103746071D01*
X86027430Y-103887634D01*
X86121126Y-104358674D01*
X86127000Y-104388209D01*
X86127000Y-104898591D01*
X86027430Y-105399167D01*
X85832115Y-105870699D01*
X85713862Y-106047676D01*
X85548562Y-106295066D01*
X85187666Y-106655962D01*
X85006029Y-106777327D01*
X84763299Y-106939515D01*
X84291767Y-107134830D01*
X84124908Y-107168020D01*
X83791193Y-107234400D01*
X83280807Y-107234400D01*
X82947092Y-107168020D01*
X82780233Y-107134830D01*
X82308701Y-106939515D01*
X82065971Y-106777327D01*
X81884334Y-106655962D01*
X81523438Y-106295066D01*
X81358138Y-106047676D01*
X81239885Y-105870699D01*
X81044570Y-105399167D01*
X80945000Y-104898591D01*
X80945000Y-104388209D01*
X80950875Y-104358674D01*
X81044570Y-103887634D01*
X81103207Y-103746071D01*
X81239885Y-103416101D01*
X81402073Y-103173371D01*
X81523438Y-102991734D01*
X81884334Y-102630838D01*
X82083566Y-102497716D01*
X82308701Y-102347285D01*
X82780233Y-102151970D01*
X82947092Y-102118780D01*
X83280807Y-102052400D01*
X83791193Y-102052400D01*
X84124908Y-102118780D01*
X84124908Y-102118780D01*
G37*
G36*
X94969048Y-104470122D02*
G01*
X95003387Y-104480539D01*
X95035036Y-104497456D01*
X95062778Y-104520222D01*
X95085544Y-104547964D01*
X95102461Y-104579613D01*
X95112878Y-104613952D01*
X95117000Y-104655807D01*
X95117000Y-105878193D01*
X95112878Y-105920048D01*
X95102461Y-105954387D01*
X95085544Y-105986036D01*
X95062778Y-106013778D01*
X95035036Y-106036544D01*
X95003387Y-106053461D01*
X94969048Y-106063878D01*
X94927193Y-106068000D01*
X91804807Y-106068000D01*
X91762952Y-106063878D01*
X91728613Y-106053461D01*
X91696964Y-106036544D01*
X91669222Y-106013778D01*
X91646456Y-105986036D01*
X91629539Y-105954387D01*
X91619122Y-105920048D01*
X91615000Y-105878193D01*
X91615000Y-104655807D01*
X91619122Y-104613952D01*
X91629539Y-104579613D01*
X91646456Y-104547964D01*
X91669222Y-104520222D01*
X91696964Y-104497456D01*
X91728613Y-104480539D01*
X91762952Y-104470122D01*
X91804807Y-104466000D01*
X94927193Y-104466000D01*
X94969048Y-104470122D01*
X94969048Y-104470122D01*
G37*
G36*
X74717434Y-95930578D02*
G01*
X75535653Y-96269496D01*
X75535654Y-96269497D01*
X76272033Y-96761529D01*
X76898271Y-97387767D01*
X77227036Y-97879800D01*
X77390304Y-98124147D01*
X77729222Y-98942366D01*
X77902000Y-99810981D01*
X77902000Y-100696619D01*
X77729222Y-101565234D01*
X77390304Y-102383453D01*
X77334790Y-102466535D01*
X76898271Y-103119833D01*
X76272033Y-103746071D01*
X76008112Y-103922417D01*
X75535653Y-104238104D01*
X74717434Y-104577022D01*
X73848819Y-104749800D01*
X72963181Y-104749800D01*
X72094566Y-104577022D01*
X71276347Y-104238104D01*
X70803888Y-103922417D01*
X70539967Y-103746071D01*
X69913729Y-103119833D01*
X69477210Y-102466535D01*
X69421696Y-102383453D01*
X69082778Y-101565234D01*
X68910000Y-100696619D01*
X68910000Y-99810981D01*
X69082778Y-98942366D01*
X69421696Y-98124147D01*
X69584964Y-97879800D01*
X69913729Y-97387767D01*
X70539967Y-96761529D01*
X71276346Y-96269497D01*
X71276347Y-96269496D01*
X72094566Y-95930578D01*
X72963181Y-95757800D01*
X73848819Y-95757800D01*
X74717434Y-95930578D01*
X74717434Y-95930578D01*
G37*
G36*
X161878674Y-103273465D02*
G01*
X161916367Y-103284899D01*
X161951103Y-103303466D01*
X161981548Y-103328452D01*
X162006534Y-103358897D01*
X162025101Y-103393633D01*
X162036535Y-103431326D01*
X162041000Y-103476661D01*
X162041000Y-104313339D01*
X162036535Y-104358674D01*
X162025101Y-104396367D01*
X162006534Y-104431103D01*
X161981548Y-104461548D01*
X161951103Y-104486534D01*
X161916367Y-104505101D01*
X161878674Y-104516535D01*
X161833339Y-104521000D01*
X160746661Y-104521000D01*
X160701326Y-104516535D01*
X160663633Y-104505101D01*
X160628897Y-104486534D01*
X160598452Y-104461548D01*
X160573466Y-104431103D01*
X160554899Y-104396367D01*
X160543465Y-104358674D01*
X160539000Y-104313339D01*
X160539000Y-103476661D01*
X160543465Y-103431326D01*
X160554899Y-103393633D01*
X160573466Y-103358897D01*
X160598452Y-103328452D01*
X160628897Y-103303466D01*
X160663633Y-103284899D01*
X160701326Y-103273465D01*
X160746661Y-103269000D01*
X161833339Y-103269000D01*
X161878674Y-103273465D01*
X161878674Y-103273465D01*
G37*
G36*
X100745434Y-102370686D02*
G01*
X100785284Y-102382774D01*
X100821999Y-102402399D01*
X100854186Y-102428814D01*
X100880601Y-102461001D01*
X100900226Y-102497716D01*
X100912314Y-102537566D01*
X100917000Y-102585141D01*
X100917000Y-103248859D01*
X100912314Y-103296434D01*
X100900226Y-103336284D01*
X100880601Y-103372999D01*
X100854186Y-103405186D01*
X100821999Y-103431601D01*
X100785284Y-103451226D01*
X100745434Y-103463314D01*
X100697859Y-103468000D01*
X97534141Y-103468000D01*
X97486566Y-103463314D01*
X97446716Y-103451226D01*
X97410001Y-103431601D01*
X97377814Y-103405186D01*
X97351399Y-103372999D01*
X97331774Y-103336284D01*
X97319686Y-103296434D01*
X97315000Y-103248859D01*
X97315000Y-102585141D01*
X97319686Y-102537566D01*
X97331774Y-102497716D01*
X97351399Y-102461001D01*
X97377814Y-102428814D01*
X97410001Y-102402399D01*
X97446716Y-102382774D01*
X97486566Y-102370686D01*
X97534141Y-102366000D01*
X100697859Y-102366000D01*
X100745434Y-102370686D01*
X100745434Y-102370686D01*
G37*
G36*
X180377395Y-101435546D02*
G01*
X180550466Y-101507234D01*
X180550467Y-101507235D01*
X180706227Y-101611310D01*
X180838690Y-101743773D01*
X180838691Y-101743775D01*
X180942766Y-101899534D01*
X181014454Y-102072605D01*
X181051000Y-102256333D01*
X181051000Y-102443667D01*
X181014454Y-102627395D01*
X180942766Y-102800466D01*
X180942765Y-102800467D01*
X180838690Y-102956227D01*
X180706227Y-103088690D01*
X180659619Y-103119832D01*
X180550466Y-103192766D01*
X180377395Y-103264454D01*
X180193667Y-103301000D01*
X180006333Y-103301000D01*
X179822605Y-103264454D01*
X179649534Y-103192766D01*
X179540381Y-103119832D01*
X179493773Y-103088690D01*
X179361310Y-102956227D01*
X179257235Y-102800467D01*
X179257234Y-102800466D01*
X179185546Y-102627395D01*
X179149000Y-102443667D01*
X179149000Y-102256333D01*
X179185546Y-102072605D01*
X179257234Y-101899534D01*
X179361309Y-101743775D01*
X179361310Y-101743773D01*
X179493773Y-101611310D01*
X179649533Y-101507235D01*
X179649534Y-101507234D01*
X179822605Y-101435546D01*
X180006333Y-101399000D01*
X180193667Y-101399000D01*
X180377395Y-101435546D01*
X180377395Y-101435546D01*
G37*
G36*
X177837395Y-101435546D02*
G01*
X178010466Y-101507234D01*
X178010467Y-101507235D01*
X178166227Y-101611310D01*
X178298690Y-101743773D01*
X178298691Y-101743775D01*
X178402766Y-101899534D01*
X178474454Y-102072605D01*
X178511000Y-102256333D01*
X178511000Y-102443667D01*
X178474454Y-102627395D01*
X178402766Y-102800466D01*
X178402765Y-102800467D01*
X178298690Y-102956227D01*
X178166227Y-103088690D01*
X178119619Y-103119832D01*
X178010466Y-103192766D01*
X177837395Y-103264454D01*
X177653667Y-103301000D01*
X177466333Y-103301000D01*
X177282605Y-103264454D01*
X177109534Y-103192766D01*
X177000381Y-103119832D01*
X176953773Y-103088690D01*
X176821310Y-102956227D01*
X176717235Y-102800467D01*
X176717234Y-102800466D01*
X176645546Y-102627395D01*
X176609000Y-102443667D01*
X176609000Y-102256333D01*
X176645546Y-102072605D01*
X176717234Y-101899534D01*
X176821309Y-101743775D01*
X176821310Y-101743773D01*
X176953773Y-101611310D01*
X177109533Y-101507235D01*
X177109534Y-101507234D01*
X177282605Y-101435546D01*
X177466333Y-101399000D01*
X177653667Y-101399000D01*
X177837395Y-101435546D01*
X177837395Y-101435546D01*
G37*
G36*
X175971000Y-103301000D02*
G01*
X174069000Y-103301000D01*
X174069000Y-101399000D01*
X175971000Y-101399000D01*
X175971000Y-103301000D01*
X175971000Y-103301000D01*
G37*
G36*
X161878674Y-101223465D02*
G01*
X161916367Y-101234899D01*
X161951103Y-101253466D01*
X161981548Y-101278452D01*
X162006534Y-101308897D01*
X162025101Y-101343633D01*
X162036535Y-101381326D01*
X162041000Y-101426661D01*
X162041000Y-102263339D01*
X162036535Y-102308674D01*
X162025101Y-102346367D01*
X162006534Y-102381103D01*
X161981548Y-102411548D01*
X161951103Y-102436534D01*
X161916367Y-102455101D01*
X161878674Y-102466535D01*
X161833339Y-102471000D01*
X160746661Y-102471000D01*
X160701326Y-102466535D01*
X160663633Y-102455101D01*
X160628897Y-102436534D01*
X160598452Y-102411548D01*
X160573466Y-102381103D01*
X160554899Y-102346367D01*
X160543465Y-102308674D01*
X160539000Y-102263339D01*
X160539000Y-101426661D01*
X160543465Y-101381326D01*
X160554899Y-101343633D01*
X160573466Y-101308897D01*
X160598452Y-101278452D01*
X160628897Y-101253466D01*
X160663633Y-101234899D01*
X160701326Y-101223465D01*
X160746661Y-101219000D01*
X161833339Y-101219000D01*
X161878674Y-101223465D01*
X161878674Y-101223465D01*
G37*
G36*
X133170442Y-99765518D02*
G01*
X133236627Y-99772037D01*
X133406466Y-99823557D01*
X133562991Y-99907222D01*
X133598729Y-99936552D01*
X133700186Y-100019814D01*
X133783448Y-100121271D01*
X133812778Y-100157009D01*
X133896443Y-100313534D01*
X133947963Y-100483373D01*
X133965359Y-100660000D01*
X133947963Y-100836627D01*
X133896443Y-101006466D01*
X133812778Y-101162991D01*
X133788560Y-101192500D01*
X133700186Y-101300186D01*
X133611462Y-101372999D01*
X133562991Y-101412778D01*
X133515664Y-101438075D01*
X133416326Y-101491173D01*
X133406466Y-101496443D01*
X133236627Y-101547963D01*
X133170442Y-101554482D01*
X133104260Y-101561000D01*
X133015740Y-101561000D01*
X132949558Y-101554482D01*
X132883373Y-101547963D01*
X132713534Y-101496443D01*
X132703675Y-101491173D01*
X132604336Y-101438075D01*
X132557009Y-101412778D01*
X132508538Y-101372999D01*
X132419814Y-101300186D01*
X132331440Y-101192500D01*
X132307222Y-101162991D01*
X132223557Y-101006466D01*
X132172037Y-100836627D01*
X132154641Y-100660000D01*
X132172037Y-100483373D01*
X132223557Y-100313534D01*
X132307222Y-100157009D01*
X132336552Y-100121271D01*
X132419814Y-100019814D01*
X132521271Y-99936552D01*
X132557009Y-99907222D01*
X132713534Y-99823557D01*
X132883373Y-99772037D01*
X132949557Y-99765519D01*
X133015740Y-99759000D01*
X133104260Y-99759000D01*
X133170442Y-99765518D01*
X133170442Y-99765518D01*
G37*
G36*
X149201000Y-101561000D02*
G01*
X147399000Y-101561000D01*
X147399000Y-99759000D01*
X149201000Y-99759000D01*
X149201000Y-101561000D01*
X149201000Y-101561000D01*
G37*
G36*
X112850442Y-99765518D02*
G01*
X112916627Y-99772037D01*
X113086466Y-99823557D01*
X113242991Y-99907222D01*
X113278729Y-99936552D01*
X113380186Y-100019814D01*
X113463448Y-100121271D01*
X113492778Y-100157009D01*
X113576443Y-100313534D01*
X113627963Y-100483373D01*
X113645359Y-100660000D01*
X113627963Y-100836627D01*
X113576443Y-101006466D01*
X113492778Y-101162991D01*
X113468560Y-101192500D01*
X113380186Y-101300186D01*
X113291462Y-101372999D01*
X113242991Y-101412778D01*
X113195664Y-101438075D01*
X113096326Y-101491173D01*
X113086466Y-101496443D01*
X112916627Y-101547963D01*
X112850442Y-101554482D01*
X112784260Y-101561000D01*
X112695740Y-101561000D01*
X112629558Y-101554482D01*
X112563373Y-101547963D01*
X112393534Y-101496443D01*
X112383675Y-101491173D01*
X112284336Y-101438075D01*
X112237009Y-101412778D01*
X112188538Y-101372999D01*
X112099814Y-101300186D01*
X112011440Y-101192500D01*
X111987222Y-101162991D01*
X111903557Y-101006466D01*
X111852037Y-100836627D01*
X111834641Y-100660000D01*
X111852037Y-100483373D01*
X111903557Y-100313534D01*
X111987222Y-100157009D01*
X112016552Y-100121271D01*
X112099814Y-100019814D01*
X112201271Y-99936552D01*
X112237009Y-99907222D01*
X112393534Y-99823557D01*
X112563373Y-99772037D01*
X112629557Y-99765519D01*
X112695740Y-99759000D01*
X112784260Y-99759000D01*
X112850442Y-99765518D01*
X112850442Y-99765518D01*
G37*
G36*
X115390442Y-99765518D02*
G01*
X115456627Y-99772037D01*
X115626466Y-99823557D01*
X115782991Y-99907222D01*
X115818729Y-99936552D01*
X115920186Y-100019814D01*
X116003448Y-100121271D01*
X116032778Y-100157009D01*
X116116443Y-100313534D01*
X116167963Y-100483373D01*
X116185359Y-100660000D01*
X116167963Y-100836627D01*
X116116443Y-101006466D01*
X116032778Y-101162991D01*
X116008560Y-101192500D01*
X115920186Y-101300186D01*
X115831462Y-101372999D01*
X115782991Y-101412778D01*
X115735664Y-101438075D01*
X115636326Y-101491173D01*
X115626466Y-101496443D01*
X115456627Y-101547963D01*
X115390442Y-101554482D01*
X115324260Y-101561000D01*
X115235740Y-101561000D01*
X115169558Y-101554482D01*
X115103373Y-101547963D01*
X114933534Y-101496443D01*
X114923675Y-101491173D01*
X114824336Y-101438075D01*
X114777009Y-101412778D01*
X114728538Y-101372999D01*
X114639814Y-101300186D01*
X114551440Y-101192500D01*
X114527222Y-101162991D01*
X114443557Y-101006466D01*
X114392037Y-100836627D01*
X114374641Y-100660000D01*
X114392037Y-100483373D01*
X114443557Y-100313534D01*
X114527222Y-100157009D01*
X114556552Y-100121271D01*
X114639814Y-100019814D01*
X114741271Y-99936552D01*
X114777009Y-99907222D01*
X114933534Y-99823557D01*
X115103373Y-99772037D01*
X115169557Y-99765519D01*
X115235740Y-99759000D01*
X115324260Y-99759000D01*
X115390442Y-99765518D01*
X115390442Y-99765518D01*
G37*
G36*
X117930442Y-99765518D02*
G01*
X117996627Y-99772037D01*
X118166466Y-99823557D01*
X118322991Y-99907222D01*
X118358729Y-99936552D01*
X118460186Y-100019814D01*
X118543448Y-100121271D01*
X118572778Y-100157009D01*
X118656443Y-100313534D01*
X118707963Y-100483373D01*
X118725359Y-100660000D01*
X118707963Y-100836627D01*
X118656443Y-101006466D01*
X118572778Y-101162991D01*
X118548560Y-101192500D01*
X118460186Y-101300186D01*
X118371462Y-101372999D01*
X118322991Y-101412778D01*
X118275664Y-101438075D01*
X118176326Y-101491173D01*
X118166466Y-101496443D01*
X117996627Y-101547963D01*
X117930442Y-101554482D01*
X117864260Y-101561000D01*
X117775740Y-101561000D01*
X117709558Y-101554482D01*
X117643373Y-101547963D01*
X117473534Y-101496443D01*
X117463675Y-101491173D01*
X117364336Y-101438075D01*
X117317009Y-101412778D01*
X117268538Y-101372999D01*
X117179814Y-101300186D01*
X117091440Y-101192500D01*
X117067222Y-101162991D01*
X116983557Y-101006466D01*
X116932037Y-100836627D01*
X116914641Y-100660000D01*
X116932037Y-100483373D01*
X116983557Y-100313534D01*
X117067222Y-100157009D01*
X117096552Y-100121271D01*
X117179814Y-100019814D01*
X117281271Y-99936552D01*
X117317009Y-99907222D01*
X117473534Y-99823557D01*
X117643373Y-99772037D01*
X117709557Y-99765519D01*
X117775740Y-99759000D01*
X117864260Y-99759000D01*
X117930442Y-99765518D01*
X117930442Y-99765518D01*
G37*
G36*
X120470442Y-99765518D02*
G01*
X120536627Y-99772037D01*
X120706466Y-99823557D01*
X120862991Y-99907222D01*
X120898729Y-99936552D01*
X121000186Y-100019814D01*
X121083448Y-100121271D01*
X121112778Y-100157009D01*
X121196443Y-100313534D01*
X121247963Y-100483373D01*
X121265359Y-100660000D01*
X121247963Y-100836627D01*
X121196443Y-101006466D01*
X121112778Y-101162991D01*
X121088560Y-101192500D01*
X121000186Y-101300186D01*
X120911462Y-101372999D01*
X120862991Y-101412778D01*
X120815664Y-101438075D01*
X120716326Y-101491173D01*
X120706466Y-101496443D01*
X120536627Y-101547963D01*
X120470442Y-101554482D01*
X120404260Y-101561000D01*
X120315740Y-101561000D01*
X120249558Y-101554482D01*
X120183373Y-101547963D01*
X120013534Y-101496443D01*
X120003675Y-101491173D01*
X119904336Y-101438075D01*
X119857009Y-101412778D01*
X119808538Y-101372999D01*
X119719814Y-101300186D01*
X119631440Y-101192500D01*
X119607222Y-101162991D01*
X119523557Y-101006466D01*
X119472037Y-100836627D01*
X119454641Y-100660000D01*
X119472037Y-100483373D01*
X119523557Y-100313534D01*
X119607222Y-100157009D01*
X119636552Y-100121271D01*
X119719814Y-100019814D01*
X119821271Y-99936552D01*
X119857009Y-99907222D01*
X120013534Y-99823557D01*
X120183373Y-99772037D01*
X120249557Y-99765519D01*
X120315740Y-99759000D01*
X120404260Y-99759000D01*
X120470442Y-99765518D01*
X120470442Y-99765518D01*
G37*
G36*
X123010442Y-99765518D02*
G01*
X123076627Y-99772037D01*
X123246466Y-99823557D01*
X123402991Y-99907222D01*
X123438729Y-99936552D01*
X123540186Y-100019814D01*
X123623448Y-100121271D01*
X123652778Y-100157009D01*
X123736443Y-100313534D01*
X123787963Y-100483373D01*
X123805359Y-100660000D01*
X123787963Y-100836627D01*
X123736443Y-101006466D01*
X123652778Y-101162991D01*
X123628560Y-101192500D01*
X123540186Y-101300186D01*
X123451462Y-101372999D01*
X123402991Y-101412778D01*
X123355664Y-101438075D01*
X123256326Y-101491173D01*
X123246466Y-101496443D01*
X123076627Y-101547963D01*
X123010442Y-101554482D01*
X122944260Y-101561000D01*
X122855740Y-101561000D01*
X122789558Y-101554482D01*
X122723373Y-101547963D01*
X122553534Y-101496443D01*
X122543675Y-101491173D01*
X122444336Y-101438075D01*
X122397009Y-101412778D01*
X122348538Y-101372999D01*
X122259814Y-101300186D01*
X122171440Y-101192500D01*
X122147222Y-101162991D01*
X122063557Y-101006466D01*
X122012037Y-100836627D01*
X121994641Y-100660000D01*
X122012037Y-100483373D01*
X122063557Y-100313534D01*
X122147222Y-100157009D01*
X122176552Y-100121271D01*
X122259814Y-100019814D01*
X122361271Y-99936552D01*
X122397009Y-99907222D01*
X122553534Y-99823557D01*
X122723373Y-99772037D01*
X122789557Y-99765519D01*
X122855740Y-99759000D01*
X122944260Y-99759000D01*
X123010442Y-99765518D01*
X123010442Y-99765518D01*
G37*
G36*
X125550442Y-99765518D02*
G01*
X125616627Y-99772037D01*
X125786466Y-99823557D01*
X125942991Y-99907222D01*
X125978729Y-99936552D01*
X126080186Y-100019814D01*
X126163448Y-100121271D01*
X126192778Y-100157009D01*
X126276443Y-100313534D01*
X126327963Y-100483373D01*
X126345359Y-100660000D01*
X126327963Y-100836627D01*
X126276443Y-101006466D01*
X126192778Y-101162991D01*
X126168560Y-101192500D01*
X126080186Y-101300186D01*
X125991462Y-101372999D01*
X125942991Y-101412778D01*
X125895664Y-101438075D01*
X125796326Y-101491173D01*
X125786466Y-101496443D01*
X125616627Y-101547963D01*
X125550442Y-101554482D01*
X125484260Y-101561000D01*
X125395740Y-101561000D01*
X125329558Y-101554482D01*
X125263373Y-101547963D01*
X125093534Y-101496443D01*
X125083675Y-101491173D01*
X124984336Y-101438075D01*
X124937009Y-101412778D01*
X124888538Y-101372999D01*
X124799814Y-101300186D01*
X124711440Y-101192500D01*
X124687222Y-101162991D01*
X124603557Y-101006466D01*
X124552037Y-100836627D01*
X124534641Y-100660000D01*
X124552037Y-100483373D01*
X124603557Y-100313534D01*
X124687222Y-100157009D01*
X124716552Y-100121271D01*
X124799814Y-100019814D01*
X124901271Y-99936552D01*
X124937009Y-99907222D01*
X125093534Y-99823557D01*
X125263373Y-99772037D01*
X125329557Y-99765519D01*
X125395740Y-99759000D01*
X125484260Y-99759000D01*
X125550442Y-99765518D01*
X125550442Y-99765518D01*
G37*
G36*
X128090442Y-99765518D02*
G01*
X128156627Y-99772037D01*
X128326466Y-99823557D01*
X128482991Y-99907222D01*
X128518729Y-99936552D01*
X128620186Y-100019814D01*
X128703448Y-100121271D01*
X128732778Y-100157009D01*
X128816443Y-100313534D01*
X128867963Y-100483373D01*
X128885359Y-100660000D01*
X128867963Y-100836627D01*
X128816443Y-101006466D01*
X128732778Y-101162991D01*
X128708560Y-101192500D01*
X128620186Y-101300186D01*
X128531462Y-101372999D01*
X128482991Y-101412778D01*
X128435664Y-101438075D01*
X128336326Y-101491173D01*
X128326466Y-101496443D01*
X128156627Y-101547963D01*
X128090442Y-101554482D01*
X128024260Y-101561000D01*
X127935740Y-101561000D01*
X127869558Y-101554482D01*
X127803373Y-101547963D01*
X127633534Y-101496443D01*
X127623675Y-101491173D01*
X127524336Y-101438075D01*
X127477009Y-101412778D01*
X127428538Y-101372999D01*
X127339814Y-101300186D01*
X127251440Y-101192500D01*
X127227222Y-101162991D01*
X127143557Y-101006466D01*
X127092037Y-100836627D01*
X127074641Y-100660000D01*
X127092037Y-100483373D01*
X127143557Y-100313534D01*
X127227222Y-100157009D01*
X127256552Y-100121271D01*
X127339814Y-100019814D01*
X127441271Y-99936552D01*
X127477009Y-99907222D01*
X127633534Y-99823557D01*
X127803373Y-99772037D01*
X127869557Y-99765519D01*
X127935740Y-99759000D01*
X128024260Y-99759000D01*
X128090442Y-99765518D01*
X128090442Y-99765518D01*
G37*
G36*
X130630442Y-99765518D02*
G01*
X130696627Y-99772037D01*
X130866466Y-99823557D01*
X131022991Y-99907222D01*
X131058729Y-99936552D01*
X131160186Y-100019814D01*
X131243448Y-100121271D01*
X131272778Y-100157009D01*
X131356443Y-100313534D01*
X131407963Y-100483373D01*
X131425359Y-100660000D01*
X131407963Y-100836627D01*
X131356443Y-101006466D01*
X131272778Y-101162991D01*
X131248560Y-101192500D01*
X131160186Y-101300186D01*
X131071462Y-101372999D01*
X131022991Y-101412778D01*
X130975664Y-101438075D01*
X130876326Y-101491173D01*
X130866466Y-101496443D01*
X130696627Y-101547963D01*
X130630442Y-101554482D01*
X130564260Y-101561000D01*
X130475740Y-101561000D01*
X130409558Y-101554482D01*
X130343373Y-101547963D01*
X130173534Y-101496443D01*
X130163675Y-101491173D01*
X130064336Y-101438075D01*
X130017009Y-101412778D01*
X129968538Y-101372999D01*
X129879814Y-101300186D01*
X129791440Y-101192500D01*
X129767222Y-101162991D01*
X129683557Y-101006466D01*
X129632037Y-100836627D01*
X129614641Y-100660000D01*
X129632037Y-100483373D01*
X129683557Y-100313534D01*
X129767222Y-100157009D01*
X129796552Y-100121271D01*
X129879814Y-100019814D01*
X129981271Y-99936552D01*
X130017009Y-99907222D01*
X130173534Y-99823557D01*
X130343373Y-99772037D01*
X130409557Y-99765519D01*
X130475740Y-99759000D01*
X130564260Y-99759000D01*
X130630442Y-99765518D01*
X130630442Y-99765518D01*
G37*
G36*
X135710442Y-99765518D02*
G01*
X135776627Y-99772037D01*
X135946466Y-99823557D01*
X136102991Y-99907222D01*
X136138729Y-99936552D01*
X136240186Y-100019814D01*
X136323448Y-100121271D01*
X136352778Y-100157009D01*
X136436443Y-100313534D01*
X136487963Y-100483373D01*
X136505359Y-100660000D01*
X136487963Y-100836627D01*
X136436443Y-101006466D01*
X136352778Y-101162991D01*
X136328560Y-101192500D01*
X136240186Y-101300186D01*
X136151462Y-101372999D01*
X136102991Y-101412778D01*
X136055664Y-101438075D01*
X135956326Y-101491173D01*
X135946466Y-101496443D01*
X135776627Y-101547963D01*
X135710442Y-101554482D01*
X135644260Y-101561000D01*
X135555740Y-101561000D01*
X135489558Y-101554482D01*
X135423373Y-101547963D01*
X135253534Y-101496443D01*
X135243675Y-101491173D01*
X135144336Y-101438075D01*
X135097009Y-101412778D01*
X135048538Y-101372999D01*
X134959814Y-101300186D01*
X134871440Y-101192500D01*
X134847222Y-101162991D01*
X134763557Y-101006466D01*
X134712037Y-100836627D01*
X134694641Y-100660000D01*
X134712037Y-100483373D01*
X134763557Y-100313534D01*
X134847222Y-100157009D01*
X134876552Y-100121271D01*
X134959814Y-100019814D01*
X135061271Y-99936552D01*
X135097009Y-99907222D01*
X135253534Y-99823557D01*
X135423373Y-99772037D01*
X135489557Y-99765519D01*
X135555740Y-99759000D01*
X135644260Y-99759000D01*
X135710442Y-99765518D01*
X135710442Y-99765518D01*
G37*
G36*
X138250442Y-99765518D02*
G01*
X138316627Y-99772037D01*
X138486466Y-99823557D01*
X138642991Y-99907222D01*
X138678729Y-99936552D01*
X138780186Y-100019814D01*
X138863448Y-100121271D01*
X138892778Y-100157009D01*
X138976443Y-100313534D01*
X139027963Y-100483373D01*
X139045359Y-100660000D01*
X139027963Y-100836627D01*
X138976443Y-101006466D01*
X138892778Y-101162991D01*
X138868560Y-101192500D01*
X138780186Y-101300186D01*
X138691462Y-101372999D01*
X138642991Y-101412778D01*
X138595664Y-101438075D01*
X138496326Y-101491173D01*
X138486466Y-101496443D01*
X138316627Y-101547963D01*
X138250442Y-101554482D01*
X138184260Y-101561000D01*
X138095740Y-101561000D01*
X138029558Y-101554482D01*
X137963373Y-101547963D01*
X137793534Y-101496443D01*
X137783675Y-101491173D01*
X137684336Y-101438075D01*
X137637009Y-101412778D01*
X137588538Y-101372999D01*
X137499814Y-101300186D01*
X137411440Y-101192500D01*
X137387222Y-101162991D01*
X137303557Y-101006466D01*
X137252037Y-100836627D01*
X137234641Y-100660000D01*
X137252037Y-100483373D01*
X137303557Y-100313534D01*
X137387222Y-100157009D01*
X137416552Y-100121271D01*
X137499814Y-100019814D01*
X137601271Y-99936552D01*
X137637009Y-99907222D01*
X137793534Y-99823557D01*
X137963373Y-99772037D01*
X138029557Y-99765519D01*
X138095740Y-99759000D01*
X138184260Y-99759000D01*
X138250442Y-99765518D01*
X138250442Y-99765518D01*
G37*
G36*
X140790442Y-99765518D02*
G01*
X140856627Y-99772037D01*
X141026466Y-99823557D01*
X141182991Y-99907222D01*
X141218729Y-99936552D01*
X141320186Y-100019814D01*
X141403448Y-100121271D01*
X141432778Y-100157009D01*
X141516443Y-100313534D01*
X141567963Y-100483373D01*
X141585359Y-100660000D01*
X141567963Y-100836627D01*
X141516443Y-101006466D01*
X141432778Y-101162991D01*
X141408560Y-101192500D01*
X141320186Y-101300186D01*
X141231462Y-101372999D01*
X141182991Y-101412778D01*
X141135664Y-101438075D01*
X141036326Y-101491173D01*
X141026466Y-101496443D01*
X140856627Y-101547963D01*
X140790442Y-101554482D01*
X140724260Y-101561000D01*
X140635740Y-101561000D01*
X140569558Y-101554482D01*
X140503373Y-101547963D01*
X140333534Y-101496443D01*
X140323675Y-101491173D01*
X140224336Y-101438075D01*
X140177009Y-101412778D01*
X140128538Y-101372999D01*
X140039814Y-101300186D01*
X139951440Y-101192500D01*
X139927222Y-101162991D01*
X139843557Y-101006466D01*
X139792037Y-100836627D01*
X139774641Y-100660000D01*
X139792037Y-100483373D01*
X139843557Y-100313534D01*
X139927222Y-100157009D01*
X139956552Y-100121271D01*
X140039814Y-100019814D01*
X140141271Y-99936552D01*
X140177009Y-99907222D01*
X140333534Y-99823557D01*
X140503373Y-99772037D01*
X140569557Y-99765519D01*
X140635740Y-99759000D01*
X140724260Y-99759000D01*
X140790442Y-99765518D01*
X140790442Y-99765518D01*
G37*
G36*
X143330442Y-99765518D02*
G01*
X143396627Y-99772037D01*
X143566466Y-99823557D01*
X143722991Y-99907222D01*
X143758729Y-99936552D01*
X143860186Y-100019814D01*
X143943448Y-100121271D01*
X143972778Y-100157009D01*
X144056443Y-100313534D01*
X144107963Y-100483373D01*
X144125359Y-100660000D01*
X144107963Y-100836627D01*
X144056443Y-101006466D01*
X143972778Y-101162991D01*
X143948560Y-101192500D01*
X143860186Y-101300186D01*
X143771462Y-101372999D01*
X143722991Y-101412778D01*
X143675664Y-101438075D01*
X143576326Y-101491173D01*
X143566466Y-101496443D01*
X143396627Y-101547963D01*
X143330442Y-101554482D01*
X143264260Y-101561000D01*
X143175740Y-101561000D01*
X143109558Y-101554482D01*
X143043373Y-101547963D01*
X142873534Y-101496443D01*
X142863675Y-101491173D01*
X142764336Y-101438075D01*
X142717009Y-101412778D01*
X142668538Y-101372999D01*
X142579814Y-101300186D01*
X142491440Y-101192500D01*
X142467222Y-101162991D01*
X142383557Y-101006466D01*
X142332037Y-100836627D01*
X142314641Y-100660000D01*
X142332037Y-100483373D01*
X142383557Y-100313534D01*
X142467222Y-100157009D01*
X142496552Y-100121271D01*
X142579814Y-100019814D01*
X142681271Y-99936552D01*
X142717009Y-99907222D01*
X142873534Y-99823557D01*
X143043373Y-99772037D01*
X143109557Y-99765519D01*
X143175740Y-99759000D01*
X143264260Y-99759000D01*
X143330442Y-99765518D01*
X143330442Y-99765518D01*
G37*
G36*
X145870442Y-99765518D02*
G01*
X145936627Y-99772037D01*
X146106466Y-99823557D01*
X146262991Y-99907222D01*
X146298729Y-99936552D01*
X146400186Y-100019814D01*
X146483448Y-100121271D01*
X146512778Y-100157009D01*
X146596443Y-100313534D01*
X146647963Y-100483373D01*
X146665359Y-100660000D01*
X146647963Y-100836627D01*
X146596443Y-101006466D01*
X146512778Y-101162991D01*
X146488560Y-101192500D01*
X146400186Y-101300186D01*
X146311462Y-101372999D01*
X146262991Y-101412778D01*
X146215664Y-101438075D01*
X146116326Y-101491173D01*
X146106466Y-101496443D01*
X145936627Y-101547963D01*
X145870442Y-101554482D01*
X145804260Y-101561000D01*
X145715740Y-101561000D01*
X145649558Y-101554482D01*
X145583373Y-101547963D01*
X145413534Y-101496443D01*
X145403675Y-101491173D01*
X145304336Y-101438075D01*
X145257009Y-101412778D01*
X145208538Y-101372999D01*
X145119814Y-101300186D01*
X145031440Y-101192500D01*
X145007222Y-101162991D01*
X144923557Y-101006466D01*
X144872037Y-100836627D01*
X144854641Y-100660000D01*
X144872037Y-100483373D01*
X144923557Y-100313534D01*
X145007222Y-100157009D01*
X145036552Y-100121271D01*
X145119814Y-100019814D01*
X145221271Y-99936552D01*
X145257009Y-99907222D01*
X145413534Y-99823557D01*
X145583373Y-99772037D01*
X145649557Y-99765519D01*
X145715740Y-99759000D01*
X145804260Y-99759000D01*
X145870442Y-99765518D01*
X145870442Y-99765518D01*
G37*
G36*
X100745434Y-100370686D02*
G01*
X100785284Y-100382774D01*
X100821999Y-100402399D01*
X100854186Y-100428814D01*
X100880601Y-100461001D01*
X100900226Y-100497716D01*
X100912314Y-100537566D01*
X100917000Y-100585141D01*
X100917000Y-101248859D01*
X100912314Y-101296434D01*
X100900226Y-101336284D01*
X100880601Y-101372999D01*
X100854186Y-101405186D01*
X100821999Y-101431601D01*
X100785284Y-101451226D01*
X100745434Y-101463314D01*
X100697859Y-101468000D01*
X97534141Y-101468000D01*
X97486566Y-101463314D01*
X97446716Y-101451226D01*
X97410001Y-101431601D01*
X97377814Y-101405186D01*
X97351399Y-101372999D01*
X97331774Y-101336284D01*
X97319686Y-101296434D01*
X97315000Y-101248859D01*
X97315000Y-100585141D01*
X97319686Y-100537566D01*
X97331774Y-100497716D01*
X97351399Y-100461001D01*
X97377814Y-100428814D01*
X97410001Y-100402399D01*
X97446716Y-100382774D01*
X97486566Y-100370686D01*
X97534141Y-100366000D01*
X100697859Y-100366000D01*
X100745434Y-100370686D01*
X100745434Y-100370686D01*
G37*
G36*
X100745434Y-98370686D02*
G01*
X100785284Y-98382774D01*
X100821999Y-98402399D01*
X100854186Y-98428814D01*
X100880601Y-98461001D01*
X100900226Y-98497716D01*
X100912314Y-98537566D01*
X100917000Y-98585141D01*
X100917000Y-99248859D01*
X100912314Y-99296434D01*
X100900226Y-99336284D01*
X100880601Y-99372999D01*
X100854186Y-99405186D01*
X100821999Y-99431601D01*
X100785284Y-99451226D01*
X100745434Y-99463314D01*
X100697859Y-99468000D01*
X97534141Y-99468000D01*
X97486566Y-99463314D01*
X97446716Y-99451226D01*
X97410001Y-99431601D01*
X97377814Y-99405186D01*
X97351399Y-99372999D01*
X97331774Y-99336284D01*
X97319686Y-99296434D01*
X97315000Y-99248859D01*
X97315000Y-98585141D01*
X97319686Y-98537566D01*
X97331774Y-98497716D01*
X97351399Y-98461001D01*
X97377814Y-98428814D01*
X97410001Y-98402399D01*
X97446716Y-98382774D01*
X97486566Y-98370686D01*
X97534141Y-98366000D01*
X100697859Y-98366000D01*
X100745434Y-98370686D01*
X100745434Y-98370686D01*
G37*
G36*
X161878674Y-97948465D02*
G01*
X161916367Y-97959899D01*
X161951103Y-97978466D01*
X161981548Y-98003452D01*
X162006534Y-98033897D01*
X162025101Y-98068633D01*
X162036535Y-98106326D01*
X162041000Y-98151661D01*
X162041000Y-98988339D01*
X162036535Y-99033674D01*
X162025101Y-99071367D01*
X162006534Y-99106103D01*
X161981548Y-99136548D01*
X161951103Y-99161534D01*
X161916367Y-99180101D01*
X161878674Y-99191535D01*
X161833339Y-99196000D01*
X160746661Y-99196000D01*
X160701326Y-99191535D01*
X160663633Y-99180101D01*
X160628897Y-99161534D01*
X160598452Y-99136548D01*
X160573466Y-99106103D01*
X160554899Y-99071367D01*
X160543465Y-99033674D01*
X160539000Y-98988339D01*
X160539000Y-98151661D01*
X160543465Y-98106326D01*
X160554899Y-98068633D01*
X160573466Y-98033897D01*
X160598452Y-98003452D01*
X160628897Y-97978466D01*
X160663633Y-97959899D01*
X160701326Y-97948465D01*
X160746661Y-97944000D01*
X161833339Y-97944000D01*
X161878674Y-97948465D01*
X161878674Y-97948465D01*
G37*
G36*
X100745434Y-96370686D02*
G01*
X100785284Y-96382774D01*
X100821999Y-96402399D01*
X100854186Y-96428814D01*
X100880601Y-96461001D01*
X100900226Y-96497716D01*
X100912314Y-96537566D01*
X100917000Y-96585141D01*
X100917000Y-97248859D01*
X100912314Y-97296434D01*
X100900226Y-97336284D01*
X100880601Y-97372999D01*
X100854186Y-97405186D01*
X100821999Y-97431601D01*
X100785284Y-97451226D01*
X100745434Y-97463314D01*
X100697859Y-97468000D01*
X97534141Y-97468000D01*
X97486566Y-97463314D01*
X97446716Y-97451226D01*
X97410001Y-97431601D01*
X97377814Y-97405186D01*
X97351399Y-97372999D01*
X97331774Y-97336284D01*
X97319686Y-97296434D01*
X97315000Y-97248859D01*
X97315000Y-96585141D01*
X97319686Y-96537566D01*
X97331774Y-96497716D01*
X97351399Y-96461001D01*
X97377814Y-96428814D01*
X97410001Y-96402399D01*
X97446716Y-96382774D01*
X97486566Y-96370686D01*
X97534141Y-96366000D01*
X100697859Y-96366000D01*
X100745434Y-96370686D01*
X100745434Y-96370686D01*
G37*
G36*
X161878674Y-95898465D02*
G01*
X161916367Y-95909899D01*
X161951103Y-95928466D01*
X161981548Y-95953452D01*
X162006534Y-95983897D01*
X162025101Y-96018633D01*
X162036535Y-96056326D01*
X162041000Y-96101661D01*
X162041000Y-96938339D01*
X162036535Y-96983674D01*
X162025101Y-97021367D01*
X162006534Y-97056103D01*
X161981548Y-97086548D01*
X161951103Y-97111534D01*
X161916367Y-97130101D01*
X161878674Y-97141535D01*
X161833339Y-97146000D01*
X160746661Y-97146000D01*
X160701326Y-97141535D01*
X160663633Y-97130101D01*
X160628897Y-97111534D01*
X160598452Y-97086548D01*
X160573466Y-97056103D01*
X160554899Y-97021367D01*
X160543465Y-96983674D01*
X160539000Y-96938339D01*
X160539000Y-96101661D01*
X160543465Y-96056326D01*
X160554899Y-96018633D01*
X160573466Y-95983897D01*
X160598452Y-95953452D01*
X160628897Y-95928466D01*
X160663633Y-95909899D01*
X160701326Y-95898465D01*
X160746661Y-95894000D01*
X161833339Y-95894000D01*
X161878674Y-95898465D01*
X161878674Y-95898465D01*
G37*
G36*
X88991674Y-94503465D02*
G01*
X89029367Y-94514899D01*
X89064103Y-94533466D01*
X89094548Y-94558452D01*
X89119534Y-94588897D01*
X89138101Y-94623633D01*
X89149535Y-94661326D01*
X89154000Y-94706661D01*
X89154000Y-95793339D01*
X89149535Y-95838674D01*
X89138101Y-95876367D01*
X89119534Y-95911103D01*
X89094548Y-95941548D01*
X89064103Y-95966534D01*
X89029367Y-95985101D01*
X88991674Y-95996535D01*
X88946339Y-96001000D01*
X88109661Y-96001000D01*
X88064326Y-95996535D01*
X88026633Y-95985101D01*
X87991897Y-95966534D01*
X87961452Y-95941548D01*
X87936466Y-95911103D01*
X87917899Y-95876367D01*
X87906465Y-95838674D01*
X87902000Y-95793339D01*
X87902000Y-94706661D01*
X87906465Y-94661326D01*
X87917899Y-94623633D01*
X87936466Y-94588897D01*
X87961452Y-94558452D01*
X87991897Y-94533466D01*
X88026633Y-94514899D01*
X88064326Y-94503465D01*
X88109661Y-94499000D01*
X88946339Y-94499000D01*
X88991674Y-94503465D01*
X88991674Y-94503465D01*
G37*
G36*
X81226674Y-94503465D02*
G01*
X81264367Y-94514899D01*
X81299103Y-94533466D01*
X81329548Y-94558452D01*
X81354534Y-94588897D01*
X81373101Y-94623633D01*
X81384535Y-94661326D01*
X81389000Y-94706661D01*
X81389000Y-95793339D01*
X81384535Y-95838674D01*
X81373101Y-95876367D01*
X81354534Y-95911103D01*
X81329548Y-95941548D01*
X81299103Y-95966534D01*
X81264367Y-95985101D01*
X81226674Y-95996535D01*
X81181339Y-96001000D01*
X80344661Y-96001000D01*
X80299326Y-95996535D01*
X80261633Y-95985101D01*
X80226897Y-95966534D01*
X80196452Y-95941548D01*
X80171466Y-95911103D01*
X80152899Y-95876367D01*
X80141465Y-95838674D01*
X80137000Y-95793339D01*
X80137000Y-94706661D01*
X80141465Y-94661326D01*
X80152899Y-94623633D01*
X80171466Y-94588897D01*
X80196452Y-94558452D01*
X80226897Y-94533466D01*
X80261633Y-94514899D01*
X80299326Y-94503465D01*
X80344661Y-94499000D01*
X81181339Y-94499000D01*
X81226674Y-94503465D01*
X81226674Y-94503465D01*
G37*
G36*
X83276674Y-94503465D02*
G01*
X83314367Y-94514899D01*
X83349103Y-94533466D01*
X83379548Y-94558452D01*
X83404534Y-94588897D01*
X83423101Y-94623633D01*
X83434535Y-94661326D01*
X83439000Y-94706661D01*
X83439000Y-95793339D01*
X83434535Y-95838674D01*
X83423101Y-95876367D01*
X83404534Y-95911103D01*
X83379548Y-95941548D01*
X83349103Y-95966534D01*
X83314367Y-95985101D01*
X83276674Y-95996535D01*
X83231339Y-96001000D01*
X82394661Y-96001000D01*
X82349326Y-95996535D01*
X82311633Y-95985101D01*
X82276897Y-95966534D01*
X82246452Y-95941548D01*
X82221466Y-95911103D01*
X82202899Y-95876367D01*
X82191465Y-95838674D01*
X82187000Y-95793339D01*
X82187000Y-94706661D01*
X82191465Y-94661326D01*
X82202899Y-94623633D01*
X82221466Y-94588897D01*
X82246452Y-94558452D01*
X82276897Y-94533466D01*
X82311633Y-94514899D01*
X82349326Y-94503465D01*
X82394661Y-94499000D01*
X83231339Y-94499000D01*
X83276674Y-94503465D01*
X83276674Y-94503465D01*
G37*
G36*
X86941674Y-94503465D02*
G01*
X86979367Y-94514899D01*
X87014103Y-94533466D01*
X87044548Y-94558452D01*
X87069534Y-94588897D01*
X87088101Y-94623633D01*
X87099535Y-94661326D01*
X87104000Y-94706661D01*
X87104000Y-95793339D01*
X87099535Y-95838674D01*
X87088101Y-95876367D01*
X87069534Y-95911103D01*
X87044548Y-95941548D01*
X87014103Y-95966534D01*
X86979367Y-95985101D01*
X86941674Y-95996535D01*
X86896339Y-96001000D01*
X86059661Y-96001000D01*
X86014326Y-95996535D01*
X85976633Y-95985101D01*
X85941897Y-95966534D01*
X85911452Y-95941548D01*
X85886466Y-95911103D01*
X85867899Y-95876367D01*
X85856465Y-95838674D01*
X85852000Y-95793339D01*
X85852000Y-94706661D01*
X85856465Y-94661326D01*
X85867899Y-94623633D01*
X85886466Y-94588897D01*
X85911452Y-94558452D01*
X85941897Y-94533466D01*
X85976633Y-94514899D01*
X86014326Y-94503465D01*
X86059661Y-94499000D01*
X86896339Y-94499000D01*
X86941674Y-94503465D01*
X86941674Y-94503465D01*
G37*
G36*
X100745434Y-94370686D02*
G01*
X100785284Y-94382774D01*
X100821999Y-94402399D01*
X100854186Y-94428814D01*
X100880601Y-94461001D01*
X100900226Y-94497716D01*
X100912314Y-94537566D01*
X100917000Y-94585141D01*
X100917000Y-95248859D01*
X100912314Y-95296434D01*
X100900226Y-95336284D01*
X100880601Y-95372999D01*
X100854186Y-95405186D01*
X100821999Y-95431601D01*
X100785284Y-95451226D01*
X100745434Y-95463314D01*
X100697859Y-95468000D01*
X97534141Y-95468000D01*
X97486566Y-95463314D01*
X97446716Y-95451226D01*
X97410001Y-95431601D01*
X97377814Y-95405186D01*
X97351399Y-95372999D01*
X97331774Y-95336284D01*
X97319686Y-95296434D01*
X97315000Y-95248859D01*
X97315000Y-94585141D01*
X97319686Y-94537566D01*
X97331774Y-94497716D01*
X97351399Y-94461001D01*
X97377814Y-94428814D01*
X97410001Y-94402399D01*
X97446716Y-94382774D01*
X97486566Y-94370686D01*
X97534141Y-94366000D01*
X100697859Y-94366000D01*
X100745434Y-94370686D01*
X100745434Y-94370686D01*
G37*
G36*
X100745434Y-92370686D02*
G01*
X100785284Y-92382774D01*
X100821999Y-92402399D01*
X100854186Y-92428814D01*
X100880601Y-92461001D01*
X100900226Y-92497716D01*
X100912314Y-92537566D01*
X100917000Y-92585141D01*
X100917000Y-93248859D01*
X100912314Y-93296434D01*
X100900226Y-93336284D01*
X100880601Y-93372999D01*
X100854186Y-93405186D01*
X100821999Y-93431601D01*
X100785284Y-93451226D01*
X100745434Y-93463314D01*
X100697859Y-93468000D01*
X97534141Y-93468000D01*
X97486566Y-93463314D01*
X97446716Y-93451226D01*
X97410001Y-93431601D01*
X97377814Y-93405186D01*
X97351399Y-93372999D01*
X97331774Y-93336284D01*
X97319686Y-93296434D01*
X97315000Y-93248859D01*
X97315000Y-92585141D01*
X97319686Y-92537566D01*
X97331774Y-92497716D01*
X97351399Y-92461001D01*
X97377814Y-92428814D01*
X97410001Y-92402399D01*
X97446716Y-92382774D01*
X97486566Y-92370686D01*
X97534141Y-92366000D01*
X100697859Y-92366000D01*
X100745434Y-92370686D01*
X100745434Y-92370686D01*
G37*
G36*
X158188674Y-91963465D02*
G01*
X158226367Y-91974899D01*
X158261103Y-91993466D01*
X158291548Y-92018452D01*
X158316534Y-92048897D01*
X158335101Y-92083633D01*
X158346535Y-92121326D01*
X158351000Y-92166661D01*
X158351000Y-93253339D01*
X158346535Y-93298674D01*
X158335101Y-93336367D01*
X158316534Y-93371103D01*
X158291548Y-93401548D01*
X158261103Y-93426534D01*
X158226367Y-93445101D01*
X158188674Y-93456535D01*
X158143339Y-93461000D01*
X157306661Y-93461000D01*
X157261326Y-93456535D01*
X157223633Y-93445101D01*
X157188897Y-93426534D01*
X157158452Y-93401548D01*
X157133466Y-93371103D01*
X157114899Y-93336367D01*
X157103465Y-93298674D01*
X157099000Y-93253339D01*
X157099000Y-92166661D01*
X157103465Y-92121326D01*
X157114899Y-92083633D01*
X157133466Y-92048897D01*
X157158452Y-92018452D01*
X157188897Y-91993466D01*
X157223633Y-91974899D01*
X157261326Y-91963465D01*
X157306661Y-91959000D01*
X158143339Y-91959000D01*
X158188674Y-91963465D01*
X158188674Y-91963465D01*
G37*
G36*
X160238674Y-91963465D02*
G01*
X160276367Y-91974899D01*
X160311103Y-91993466D01*
X160341548Y-92018452D01*
X160366534Y-92048897D01*
X160385101Y-92083633D01*
X160396535Y-92121326D01*
X160401000Y-92166661D01*
X160401000Y-93253339D01*
X160396535Y-93298674D01*
X160385101Y-93336367D01*
X160366534Y-93371103D01*
X160341548Y-93401548D01*
X160311103Y-93426534D01*
X160276367Y-93445101D01*
X160238674Y-93456535D01*
X160193339Y-93461000D01*
X159356661Y-93461000D01*
X159311326Y-93456535D01*
X159273633Y-93445101D01*
X159238897Y-93426534D01*
X159208452Y-93401548D01*
X159183466Y-93371103D01*
X159164899Y-93336367D01*
X159153465Y-93298674D01*
X159149000Y-93253339D01*
X159149000Y-92166661D01*
X159153465Y-92121326D01*
X159164899Y-92083633D01*
X159183466Y-92048897D01*
X159208452Y-92018452D01*
X159238897Y-91993466D01*
X159273633Y-91974899D01*
X159311326Y-91963465D01*
X159356661Y-91959000D01*
X160193339Y-91959000D01*
X160238674Y-91963465D01*
X160238674Y-91963465D01*
G37*
G36*
X164538674Y-91963465D02*
G01*
X164576367Y-91974899D01*
X164611103Y-91993466D01*
X164641548Y-92018452D01*
X164666534Y-92048897D01*
X164685101Y-92083633D01*
X164696535Y-92121326D01*
X164701000Y-92166661D01*
X164701000Y-93253339D01*
X164696535Y-93298674D01*
X164685101Y-93336367D01*
X164666534Y-93371103D01*
X164641548Y-93401548D01*
X164611103Y-93426534D01*
X164576367Y-93445101D01*
X164538674Y-93456535D01*
X164493339Y-93461000D01*
X163656661Y-93461000D01*
X163611326Y-93456535D01*
X163573633Y-93445101D01*
X163538897Y-93426534D01*
X163508452Y-93401548D01*
X163483466Y-93371103D01*
X163464899Y-93336367D01*
X163453465Y-93298674D01*
X163449000Y-93253339D01*
X163449000Y-92166661D01*
X163453465Y-92121326D01*
X163464899Y-92083633D01*
X163483466Y-92048897D01*
X163508452Y-92018452D01*
X163538897Y-91993466D01*
X163573633Y-91974899D01*
X163611326Y-91963465D01*
X163656661Y-91959000D01*
X164493339Y-91959000D01*
X164538674Y-91963465D01*
X164538674Y-91963465D01*
G37*
G36*
X166588674Y-91963465D02*
G01*
X166626367Y-91974899D01*
X166661103Y-91993466D01*
X166691548Y-92018452D01*
X166716534Y-92048897D01*
X166735101Y-92083633D01*
X166746535Y-92121326D01*
X166751000Y-92166661D01*
X166751000Y-93253339D01*
X166746535Y-93298674D01*
X166735101Y-93336367D01*
X166716534Y-93371103D01*
X166691548Y-93401548D01*
X166661103Y-93426534D01*
X166626367Y-93445101D01*
X166588674Y-93456535D01*
X166543339Y-93461000D01*
X165706661Y-93461000D01*
X165661326Y-93456535D01*
X165623633Y-93445101D01*
X165588897Y-93426534D01*
X165558452Y-93401548D01*
X165533466Y-93371103D01*
X165514899Y-93336367D01*
X165503465Y-93298674D01*
X165499000Y-93253339D01*
X165499000Y-92166661D01*
X165503465Y-92121326D01*
X165514899Y-92083633D01*
X165533466Y-92048897D01*
X165558452Y-92018452D01*
X165588897Y-91993466D01*
X165623633Y-91974899D01*
X165661326Y-91963465D01*
X165706661Y-91959000D01*
X166543339Y-91959000D01*
X166588674Y-91963465D01*
X166588674Y-91963465D01*
G37*
G36*
X121476674Y-90693465D02*
G01*
X121514367Y-90704899D01*
X121549103Y-90723466D01*
X121579548Y-90748452D01*
X121604534Y-90778897D01*
X121623101Y-90813633D01*
X121634535Y-90851326D01*
X121639000Y-90896661D01*
X121639000Y-91983339D01*
X121634535Y-92028674D01*
X121623101Y-92066367D01*
X121604534Y-92101103D01*
X121579548Y-92131548D01*
X121549103Y-92156534D01*
X121514367Y-92175101D01*
X121476674Y-92186535D01*
X121431339Y-92191000D01*
X120594661Y-92191000D01*
X120549326Y-92186535D01*
X120511633Y-92175101D01*
X120476897Y-92156534D01*
X120446452Y-92131548D01*
X120421466Y-92101103D01*
X120402899Y-92066367D01*
X120391465Y-92028674D01*
X120387000Y-91983339D01*
X120387000Y-90896661D01*
X120391465Y-90851326D01*
X120402899Y-90813633D01*
X120421466Y-90778897D01*
X120446452Y-90748452D01*
X120476897Y-90723466D01*
X120511633Y-90704899D01*
X120549326Y-90693465D01*
X120594661Y-90689000D01*
X121431339Y-90689000D01*
X121476674Y-90693465D01*
X121476674Y-90693465D01*
G37*
G36*
X123526674Y-90693465D02*
G01*
X123564367Y-90704899D01*
X123599103Y-90723466D01*
X123629548Y-90748452D01*
X123654534Y-90778897D01*
X123673101Y-90813633D01*
X123684535Y-90851326D01*
X123689000Y-90896661D01*
X123689000Y-91983339D01*
X123684535Y-92028674D01*
X123673101Y-92066367D01*
X123654534Y-92101103D01*
X123629548Y-92131548D01*
X123599103Y-92156534D01*
X123564367Y-92175101D01*
X123526674Y-92186535D01*
X123481339Y-92191000D01*
X122644661Y-92191000D01*
X122599326Y-92186535D01*
X122561633Y-92175101D01*
X122526897Y-92156534D01*
X122496452Y-92131548D01*
X122471466Y-92101103D01*
X122452899Y-92066367D01*
X122441465Y-92028674D01*
X122437000Y-91983339D01*
X122437000Y-90896661D01*
X122441465Y-90851326D01*
X122452899Y-90813633D01*
X122471466Y-90778897D01*
X122496452Y-90748452D01*
X122526897Y-90723466D01*
X122561633Y-90704899D01*
X122599326Y-90693465D01*
X122644661Y-90689000D01*
X123481339Y-90689000D01*
X123526674Y-90693465D01*
X123526674Y-90693465D01*
G37*
G36*
X94969048Y-89770122D02*
G01*
X95003387Y-89780539D01*
X95035036Y-89797456D01*
X95062778Y-89820222D01*
X95085544Y-89847964D01*
X95102461Y-89879613D01*
X95112878Y-89913952D01*
X95117000Y-89955807D01*
X95117000Y-91178193D01*
X95112878Y-91220048D01*
X95102461Y-91254387D01*
X95085544Y-91286036D01*
X95062778Y-91313778D01*
X95035036Y-91336544D01*
X95003387Y-91353461D01*
X94969048Y-91363878D01*
X94927193Y-91368000D01*
X91804807Y-91368000D01*
X91762952Y-91363878D01*
X91728613Y-91353461D01*
X91696964Y-91336544D01*
X91669222Y-91313778D01*
X91646456Y-91286036D01*
X91629539Y-91254387D01*
X91619122Y-91220048D01*
X91615000Y-91178193D01*
X91615000Y-89955807D01*
X91619122Y-89913952D01*
X91629539Y-89879613D01*
X91646456Y-89847964D01*
X91669222Y-89820222D01*
X91696964Y-89797456D01*
X91728613Y-89780539D01*
X91762952Y-89770122D01*
X91804807Y-89766000D01*
X94927193Y-89766000D01*
X94969048Y-89770122D01*
X94969048Y-89770122D01*
G37*
G36*
X74268048Y-89548122D02*
G01*
X74302387Y-89558539D01*
X74334036Y-89575456D01*
X74361778Y-89598222D01*
X74384544Y-89625964D01*
X74401461Y-89657613D01*
X74411878Y-89691952D01*
X74416000Y-89733807D01*
X74416000Y-90956193D01*
X74411878Y-90998048D01*
X74401461Y-91032387D01*
X74384544Y-91064036D01*
X74361778Y-91091778D01*
X74334036Y-91114544D01*
X74302387Y-91131461D01*
X74268048Y-91141878D01*
X74226193Y-91146000D01*
X71103807Y-91146000D01*
X71061952Y-91141878D01*
X71027613Y-91131461D01*
X70995964Y-91114544D01*
X70968222Y-91091778D01*
X70945456Y-91064036D01*
X70928539Y-91032387D01*
X70918122Y-90998048D01*
X70914000Y-90956193D01*
X70914000Y-89733807D01*
X70918122Y-89691952D01*
X70928539Y-89657613D01*
X70945456Y-89625964D01*
X70968222Y-89598222D01*
X70995964Y-89575456D01*
X71027613Y-89558539D01*
X71061952Y-89548122D01*
X71103807Y-89544000D01*
X74226193Y-89544000D01*
X74268048Y-89548122D01*
X74268048Y-89548122D01*
G37*
G36*
X130434928Y-89081764D02*
G01*
X130456009Y-89088160D01*
X130475445Y-89098548D01*
X130492476Y-89112524D01*
X130506452Y-89129555D01*
X130516840Y-89148991D01*
X130523236Y-89170072D01*
X130526000Y-89198140D01*
X130526000Y-91011860D01*
X130523236Y-91039928D01*
X130516840Y-91061009D01*
X130506452Y-91080445D01*
X130492476Y-91097476D01*
X130475445Y-91111452D01*
X130456009Y-91121840D01*
X130434928Y-91128236D01*
X130406860Y-91131000D01*
X129943140Y-91131000D01*
X129915072Y-91128236D01*
X129893991Y-91121840D01*
X129874555Y-91111452D01*
X129857524Y-91097476D01*
X129843548Y-91080445D01*
X129833160Y-91061009D01*
X129826764Y-91039928D01*
X129824000Y-91011860D01*
X129824000Y-89198140D01*
X129826764Y-89170072D01*
X129833160Y-89148991D01*
X129843548Y-89129555D01*
X129857524Y-89112524D01*
X129874555Y-89098548D01*
X129893991Y-89088160D01*
X129915072Y-89081764D01*
X129943140Y-89079000D01*
X130406860Y-89079000D01*
X130434928Y-89081764D01*
X130434928Y-89081764D01*
G37*
G36*
X127894928Y-89081764D02*
G01*
X127916009Y-89088160D01*
X127935445Y-89098548D01*
X127952476Y-89112524D01*
X127966452Y-89129555D01*
X127976840Y-89148991D01*
X127983236Y-89170072D01*
X127986000Y-89198140D01*
X127986000Y-91011860D01*
X127983236Y-91039928D01*
X127976840Y-91061009D01*
X127966452Y-91080445D01*
X127952476Y-91097476D01*
X127935445Y-91111452D01*
X127916009Y-91121840D01*
X127894928Y-91128236D01*
X127866860Y-91131000D01*
X127403140Y-91131000D01*
X127375072Y-91128236D01*
X127353991Y-91121840D01*
X127334555Y-91111452D01*
X127317524Y-91097476D01*
X127303548Y-91080445D01*
X127293160Y-91061009D01*
X127286764Y-91039928D01*
X127284000Y-91011860D01*
X127284000Y-89198140D01*
X127286764Y-89170072D01*
X127293160Y-89148991D01*
X127303548Y-89129555D01*
X127317524Y-89112524D01*
X127334555Y-89098548D01*
X127353991Y-89088160D01*
X127375072Y-89081764D01*
X127403140Y-89079000D01*
X127866860Y-89079000D01*
X127894928Y-89081764D01*
X127894928Y-89081764D01*
G37*
G36*
X129164928Y-89081764D02*
G01*
X129186009Y-89088160D01*
X129205445Y-89098548D01*
X129222476Y-89112524D01*
X129236452Y-89129555D01*
X129246840Y-89148991D01*
X129253236Y-89170072D01*
X129256000Y-89198140D01*
X129256000Y-91011860D01*
X129253236Y-91039928D01*
X129246840Y-91061009D01*
X129236452Y-91080445D01*
X129222476Y-91097476D01*
X129205445Y-91111452D01*
X129186009Y-91121840D01*
X129164928Y-91128236D01*
X129136860Y-91131000D01*
X128673140Y-91131000D01*
X128645072Y-91128236D01*
X128623991Y-91121840D01*
X128604555Y-91111452D01*
X128587524Y-91097476D01*
X128573548Y-91080445D01*
X128563160Y-91061009D01*
X128556764Y-91039928D01*
X128554000Y-91011860D01*
X128554000Y-89198140D01*
X128556764Y-89170072D01*
X128563160Y-89148991D01*
X128573548Y-89129555D01*
X128587524Y-89112524D01*
X128604555Y-89098548D01*
X128623991Y-89088160D01*
X128645072Y-89081764D01*
X128673140Y-89079000D01*
X129136860Y-89079000D01*
X129164928Y-89081764D01*
X129164928Y-89081764D01*
G37*
G36*
X131704928Y-89081764D02*
G01*
X131726009Y-89088160D01*
X131745445Y-89098548D01*
X131762476Y-89112524D01*
X131776452Y-89129555D01*
X131786840Y-89148991D01*
X131793236Y-89170072D01*
X131796000Y-89198140D01*
X131796000Y-91011860D01*
X131793236Y-91039928D01*
X131786840Y-91061009D01*
X131776452Y-91080445D01*
X131762476Y-91097476D01*
X131745445Y-91111452D01*
X131726009Y-91121840D01*
X131704928Y-91128236D01*
X131676860Y-91131000D01*
X131213140Y-91131000D01*
X131185072Y-91128236D01*
X131163991Y-91121840D01*
X131144555Y-91111452D01*
X131127524Y-91097476D01*
X131113548Y-91080445D01*
X131103160Y-91061009D01*
X131096764Y-91039928D01*
X131094000Y-91011860D01*
X131094000Y-89198140D01*
X131096764Y-89170072D01*
X131103160Y-89148991D01*
X131113548Y-89129555D01*
X131127524Y-89112524D01*
X131144555Y-89098548D01*
X131163991Y-89088160D01*
X131185072Y-89081764D01*
X131213140Y-89079000D01*
X131676860Y-89079000D01*
X131704928Y-89081764D01*
X131704928Y-89081764D01*
G37*
G36*
X84477000Y-89761000D02*
G01*
X83925000Y-89761000D01*
X83925000Y-88159000D01*
X84477000Y-88159000D01*
X84477000Y-89761000D01*
X84477000Y-89761000D01*
G37*
G36*
X162778674Y-88153465D02*
G01*
X162816367Y-88164899D01*
X162851103Y-88183466D01*
X162881548Y-88208452D01*
X162906534Y-88238897D01*
X162925101Y-88273633D01*
X162936535Y-88311326D01*
X162941000Y-88356661D01*
X162941000Y-89443339D01*
X162936535Y-89488674D01*
X162925101Y-89526367D01*
X162906534Y-89561103D01*
X162881548Y-89591548D01*
X162851103Y-89616534D01*
X162816367Y-89635101D01*
X162778674Y-89646535D01*
X162733339Y-89651000D01*
X161896661Y-89651000D01*
X161851326Y-89646535D01*
X161813633Y-89635101D01*
X161778897Y-89616534D01*
X161748452Y-89591548D01*
X161723466Y-89561103D01*
X161704899Y-89526367D01*
X161693465Y-89488674D01*
X161689000Y-89443339D01*
X161689000Y-88356661D01*
X161693465Y-88311326D01*
X161704899Y-88273633D01*
X161723466Y-88238897D01*
X161748452Y-88208452D01*
X161778897Y-88183466D01*
X161813633Y-88164899D01*
X161851326Y-88153465D01*
X161896661Y-88149000D01*
X162733339Y-88149000D01*
X162778674Y-88153465D01*
X162778674Y-88153465D01*
G37*
G36*
X160728674Y-88153465D02*
G01*
X160766367Y-88164899D01*
X160801103Y-88183466D01*
X160831548Y-88208452D01*
X160856534Y-88238897D01*
X160875101Y-88273633D01*
X160886535Y-88311326D01*
X160891000Y-88356661D01*
X160891000Y-89443339D01*
X160886535Y-89488674D01*
X160875101Y-89526367D01*
X160856534Y-89561103D01*
X160831548Y-89591548D01*
X160801103Y-89616534D01*
X160766367Y-89635101D01*
X160728674Y-89646535D01*
X160683339Y-89651000D01*
X159846661Y-89651000D01*
X159801326Y-89646535D01*
X159763633Y-89635101D01*
X159728897Y-89616534D01*
X159698452Y-89591548D01*
X159673466Y-89561103D01*
X159654899Y-89526367D01*
X159643465Y-89488674D01*
X159639000Y-89443339D01*
X159639000Y-88356661D01*
X159643465Y-88311326D01*
X159654899Y-88273633D01*
X159673466Y-88238897D01*
X159698452Y-88208452D01*
X159728897Y-88183466D01*
X159763633Y-88164899D01*
X159801326Y-88153465D01*
X159846661Y-88149000D01*
X160683339Y-88149000D01*
X160728674Y-88153465D01*
X160728674Y-88153465D01*
G37*
G36*
X125048674Y-87788465D02*
G01*
X125086367Y-87799899D01*
X125121103Y-87818466D01*
X125151548Y-87843452D01*
X125176534Y-87873897D01*
X125195101Y-87908633D01*
X125206535Y-87946326D01*
X125211000Y-87991661D01*
X125211000Y-88828339D01*
X125206535Y-88873674D01*
X125195101Y-88911367D01*
X125176534Y-88946103D01*
X125151548Y-88976548D01*
X125121103Y-89001534D01*
X125086367Y-89020101D01*
X125048674Y-89031535D01*
X125003339Y-89036000D01*
X123916661Y-89036000D01*
X123871326Y-89031535D01*
X123833633Y-89020101D01*
X123798897Y-89001534D01*
X123768452Y-88976548D01*
X123743466Y-88946103D01*
X123724899Y-88911367D01*
X123713465Y-88873674D01*
X123709000Y-88828339D01*
X123709000Y-87991661D01*
X123713465Y-87946326D01*
X123724899Y-87908633D01*
X123743466Y-87873897D01*
X123768452Y-87843452D01*
X123798897Y-87818466D01*
X123833633Y-87799899D01*
X123871326Y-87788465D01*
X123916661Y-87784000D01*
X125003339Y-87784000D01*
X125048674Y-87788465D01*
X125048674Y-87788465D01*
G37*
G36*
X113543928Y-86903764D02*
G01*
X113565009Y-86910160D01*
X113584445Y-86920548D01*
X113601476Y-86934524D01*
X113615452Y-86951555D01*
X113625840Y-86970991D01*
X113632236Y-86992072D01*
X113635000Y-87020140D01*
X113635000Y-88633860D01*
X113632236Y-88661928D01*
X113625840Y-88683009D01*
X113615452Y-88702445D01*
X113601476Y-88719476D01*
X113584445Y-88733452D01*
X113565009Y-88743840D01*
X113543928Y-88750236D01*
X113515860Y-88753000D01*
X113052140Y-88753000D01*
X113024072Y-88750236D01*
X113002991Y-88743840D01*
X112983555Y-88733452D01*
X112966524Y-88719476D01*
X112952548Y-88702445D01*
X112942160Y-88683009D01*
X112935764Y-88661928D01*
X112933000Y-88633860D01*
X112933000Y-87020140D01*
X112935764Y-86992072D01*
X112942160Y-86970991D01*
X112952548Y-86951555D01*
X112966524Y-86934524D01*
X112983555Y-86920548D01*
X113002991Y-86910160D01*
X113024072Y-86903764D01*
X113052140Y-86901000D01*
X113515860Y-86901000D01*
X113543928Y-86903764D01*
X113543928Y-86903764D01*
G37*
G36*
X109733928Y-86903764D02*
G01*
X109755009Y-86910160D01*
X109774445Y-86920548D01*
X109791476Y-86934524D01*
X109805452Y-86951555D01*
X109815840Y-86970991D01*
X109822236Y-86992072D01*
X109825000Y-87020140D01*
X109825000Y-88633860D01*
X109822236Y-88661928D01*
X109815840Y-88683009D01*
X109805452Y-88702445D01*
X109791476Y-88719476D01*
X109774445Y-88733452D01*
X109755009Y-88743840D01*
X109733928Y-88750236D01*
X109705860Y-88753000D01*
X109242140Y-88753000D01*
X109214072Y-88750236D01*
X109192991Y-88743840D01*
X109173555Y-88733452D01*
X109156524Y-88719476D01*
X109142548Y-88702445D01*
X109132160Y-88683009D01*
X109125764Y-88661928D01*
X109123000Y-88633860D01*
X109123000Y-87020140D01*
X109125764Y-86992072D01*
X109132160Y-86970991D01*
X109142548Y-86951555D01*
X109156524Y-86934524D01*
X109173555Y-86920548D01*
X109192991Y-86910160D01*
X109214072Y-86903764D01*
X109242140Y-86901000D01*
X109705860Y-86901000D01*
X109733928Y-86903764D01*
X109733928Y-86903764D01*
G37*
G36*
X111003928Y-86903764D02*
G01*
X111025009Y-86910160D01*
X111044445Y-86920548D01*
X111061476Y-86934524D01*
X111075452Y-86951555D01*
X111085840Y-86970991D01*
X111092236Y-86992072D01*
X111095000Y-87020140D01*
X111095000Y-88633860D01*
X111092236Y-88661928D01*
X111085840Y-88683009D01*
X111075452Y-88702445D01*
X111061476Y-88719476D01*
X111044445Y-88733452D01*
X111025009Y-88743840D01*
X111003928Y-88750236D01*
X110975860Y-88753000D01*
X110512140Y-88753000D01*
X110484072Y-88750236D01*
X110462991Y-88743840D01*
X110443555Y-88733452D01*
X110426524Y-88719476D01*
X110412548Y-88702445D01*
X110402160Y-88683009D01*
X110395764Y-88661928D01*
X110393000Y-88633860D01*
X110393000Y-87020140D01*
X110395764Y-86992072D01*
X110402160Y-86970991D01*
X110412548Y-86951555D01*
X110426524Y-86934524D01*
X110443555Y-86920548D01*
X110462991Y-86910160D01*
X110484072Y-86903764D01*
X110512140Y-86901000D01*
X110975860Y-86901000D01*
X111003928Y-86903764D01*
X111003928Y-86903764D01*
G37*
G36*
X112273928Y-86903764D02*
G01*
X112295009Y-86910160D01*
X112314445Y-86920548D01*
X112331476Y-86934524D01*
X112345452Y-86951555D01*
X112355840Y-86970991D01*
X112362236Y-86992072D01*
X112365000Y-87020140D01*
X112365000Y-88633860D01*
X112362236Y-88661928D01*
X112355840Y-88683009D01*
X112345452Y-88702445D01*
X112331476Y-88719476D01*
X112314445Y-88733452D01*
X112295009Y-88743840D01*
X112273928Y-88750236D01*
X112245860Y-88753000D01*
X111782140Y-88753000D01*
X111754072Y-88750236D01*
X111732991Y-88743840D01*
X111713555Y-88733452D01*
X111696524Y-88719476D01*
X111682548Y-88702445D01*
X111672160Y-88683009D01*
X111665764Y-88661928D01*
X111663000Y-88633860D01*
X111663000Y-87020140D01*
X111665764Y-86992072D01*
X111672160Y-86970991D01*
X111682548Y-86951555D01*
X111696524Y-86934524D01*
X111713555Y-86920548D01*
X111732991Y-86910160D01*
X111754072Y-86903764D01*
X111782140Y-86901000D01*
X112245860Y-86901000D01*
X112273928Y-86903764D01*
X112273928Y-86903764D01*
G37*
G36*
X118750928Y-86868764D02*
G01*
X118772009Y-86875160D01*
X118791445Y-86885548D01*
X118808476Y-86899524D01*
X118822452Y-86916555D01*
X118832840Y-86935991D01*
X118839236Y-86957072D01*
X118842000Y-86985140D01*
X118842000Y-88598860D01*
X118839236Y-88626928D01*
X118832840Y-88648009D01*
X118822452Y-88667445D01*
X118808476Y-88684476D01*
X118791445Y-88698452D01*
X118772009Y-88708840D01*
X118750928Y-88715236D01*
X118722860Y-88718000D01*
X118259140Y-88718000D01*
X118231072Y-88715236D01*
X118209991Y-88708840D01*
X118190555Y-88698452D01*
X118173524Y-88684476D01*
X118159548Y-88667445D01*
X118149160Y-88648009D01*
X118142764Y-88626928D01*
X118140000Y-88598860D01*
X118140000Y-86985140D01*
X118142764Y-86957072D01*
X118149160Y-86935991D01*
X118159548Y-86916555D01*
X118173524Y-86899524D01*
X118190555Y-86885548D01*
X118209991Y-86875160D01*
X118231072Y-86868764D01*
X118259140Y-86866000D01*
X118722860Y-86866000D01*
X118750928Y-86868764D01*
X118750928Y-86868764D01*
G37*
G36*
X120020928Y-86868764D02*
G01*
X120042009Y-86875160D01*
X120061445Y-86885548D01*
X120078476Y-86899524D01*
X120092452Y-86916555D01*
X120102840Y-86935991D01*
X120109236Y-86957072D01*
X120112000Y-86985140D01*
X120112000Y-88598860D01*
X120109236Y-88626928D01*
X120102840Y-88648009D01*
X120092452Y-88667445D01*
X120078476Y-88684476D01*
X120061445Y-88698452D01*
X120042009Y-88708840D01*
X120020928Y-88715236D01*
X119992860Y-88718000D01*
X119529140Y-88718000D01*
X119501072Y-88715236D01*
X119479991Y-88708840D01*
X119460555Y-88698452D01*
X119443524Y-88684476D01*
X119429548Y-88667445D01*
X119419160Y-88648009D01*
X119412764Y-88626928D01*
X119410000Y-88598860D01*
X119410000Y-86985140D01*
X119412764Y-86957072D01*
X119419160Y-86935991D01*
X119429548Y-86916555D01*
X119443524Y-86899524D01*
X119460555Y-86885548D01*
X119479991Y-86875160D01*
X119501072Y-86868764D01*
X119529140Y-86866000D01*
X119992860Y-86866000D01*
X120020928Y-86868764D01*
X120020928Y-86868764D01*
G37*
G36*
X117480928Y-86868764D02*
G01*
X117502009Y-86875160D01*
X117521445Y-86885548D01*
X117538476Y-86899524D01*
X117552452Y-86916555D01*
X117562840Y-86935991D01*
X117569236Y-86957072D01*
X117572000Y-86985140D01*
X117572000Y-88598860D01*
X117569236Y-88626928D01*
X117562840Y-88648009D01*
X117552452Y-88667445D01*
X117538476Y-88684476D01*
X117521445Y-88698452D01*
X117502009Y-88708840D01*
X117480928Y-88715236D01*
X117452860Y-88718000D01*
X116989140Y-88718000D01*
X116961072Y-88715236D01*
X116939991Y-88708840D01*
X116920555Y-88698452D01*
X116903524Y-88684476D01*
X116889548Y-88667445D01*
X116879160Y-88648009D01*
X116872764Y-88626928D01*
X116870000Y-88598860D01*
X116870000Y-86985140D01*
X116872764Y-86957072D01*
X116879160Y-86935991D01*
X116889548Y-86916555D01*
X116903524Y-86899524D01*
X116920555Y-86885548D01*
X116939991Y-86875160D01*
X116961072Y-86868764D01*
X116989140Y-86866000D01*
X117452860Y-86866000D01*
X117480928Y-86868764D01*
X117480928Y-86868764D01*
G37*
G36*
X116210928Y-86868764D02*
G01*
X116232009Y-86875160D01*
X116251445Y-86885548D01*
X116268476Y-86899524D01*
X116282452Y-86916555D01*
X116292840Y-86935991D01*
X116299236Y-86957072D01*
X116302000Y-86985140D01*
X116302000Y-88598860D01*
X116299236Y-88626928D01*
X116292840Y-88648009D01*
X116282452Y-88667445D01*
X116268476Y-88684476D01*
X116251445Y-88698452D01*
X116232009Y-88708840D01*
X116210928Y-88715236D01*
X116182860Y-88718000D01*
X115719140Y-88718000D01*
X115691072Y-88715236D01*
X115669991Y-88708840D01*
X115650555Y-88698452D01*
X115633524Y-88684476D01*
X115619548Y-88667445D01*
X115609160Y-88648009D01*
X115602764Y-88626928D01*
X115600000Y-88598860D01*
X115600000Y-86985140D01*
X115602764Y-86957072D01*
X115609160Y-86935991D01*
X115619548Y-86916555D01*
X115633524Y-86899524D01*
X115650555Y-86885548D01*
X115669991Y-86875160D01*
X115691072Y-86868764D01*
X115719140Y-86866000D01*
X116182860Y-86866000D01*
X116210928Y-86868764D01*
X116210928Y-86868764D01*
G37*
G36*
X80044434Y-87448686D02*
G01*
X80084284Y-87460774D01*
X80120999Y-87480399D01*
X80153186Y-87506814D01*
X80179601Y-87539001D01*
X80199226Y-87575716D01*
X80211314Y-87615566D01*
X80216000Y-87663141D01*
X80216000Y-88326859D01*
X80211314Y-88374434D01*
X80199226Y-88414284D01*
X80179601Y-88450999D01*
X80153186Y-88483186D01*
X80120999Y-88509601D01*
X80084284Y-88529226D01*
X80044434Y-88541314D01*
X79996859Y-88546000D01*
X76833141Y-88546000D01*
X76785566Y-88541314D01*
X76745716Y-88529226D01*
X76709001Y-88509601D01*
X76676814Y-88483186D01*
X76650399Y-88450999D01*
X76630774Y-88414284D01*
X76618686Y-88374434D01*
X76614000Y-88326859D01*
X76614000Y-87663141D01*
X76618686Y-87615566D01*
X76630774Y-87575716D01*
X76650399Y-87539001D01*
X76676814Y-87506814D01*
X76709001Y-87480399D01*
X76745716Y-87460774D01*
X76785566Y-87448686D01*
X76833141Y-87444000D01*
X79996859Y-87444000D01*
X80044434Y-87448686D01*
X80044434Y-87448686D01*
G37*
G36*
X94913048Y-86769122D02*
G01*
X94947387Y-86779539D01*
X94979036Y-86796456D01*
X95006778Y-86819222D01*
X95029544Y-86846964D01*
X95046461Y-86878613D01*
X95056878Y-86912952D01*
X95061000Y-86954807D01*
X95061000Y-88177193D01*
X95056878Y-88219048D01*
X95046461Y-88253387D01*
X95029544Y-88285036D01*
X95006778Y-88312778D01*
X94979036Y-88335544D01*
X94947387Y-88352461D01*
X94913048Y-88362878D01*
X94871193Y-88367000D01*
X91748807Y-88367000D01*
X91706952Y-88362878D01*
X91672613Y-88352461D01*
X91640964Y-88335544D01*
X91613222Y-88312778D01*
X91590456Y-88285036D01*
X91573539Y-88253387D01*
X91563122Y-88219048D01*
X91559000Y-88177193D01*
X91559000Y-86954807D01*
X91563122Y-86912952D01*
X91573539Y-86878613D01*
X91590456Y-86846964D01*
X91613222Y-86819222D01*
X91640964Y-86796456D01*
X91672613Y-86779539D01*
X91706952Y-86769122D01*
X91748807Y-86765000D01*
X94871193Y-86765000D01*
X94913048Y-86769122D01*
X94913048Y-86769122D01*
G37*
G36*
X85127000Y-87101000D02*
G01*
X84575000Y-87101000D01*
X84575000Y-85499000D01*
X85127000Y-85499000D01*
X85127000Y-87101000D01*
X85127000Y-87101000D01*
G37*
G36*
X83827000Y-87101000D02*
G01*
X83275000Y-87101000D01*
X83275000Y-85499000D01*
X83827000Y-85499000D01*
X83827000Y-87101000D01*
X83827000Y-87101000D01*
G37*
G36*
X125048674Y-85738465D02*
G01*
X125086367Y-85749899D01*
X125121103Y-85768466D01*
X125151548Y-85793452D01*
X125176534Y-85823897D01*
X125195101Y-85858633D01*
X125206535Y-85896326D01*
X125211000Y-85941661D01*
X125211000Y-86778339D01*
X125206535Y-86823674D01*
X125195101Y-86861367D01*
X125176534Y-86896103D01*
X125151548Y-86926548D01*
X125121103Y-86951534D01*
X125086367Y-86970101D01*
X125048674Y-86981535D01*
X125003339Y-86986000D01*
X123916661Y-86986000D01*
X123871326Y-86981535D01*
X123833633Y-86970101D01*
X123798897Y-86951534D01*
X123768452Y-86926548D01*
X123743466Y-86896103D01*
X123724899Y-86861367D01*
X123713465Y-86823674D01*
X123709000Y-86778339D01*
X123709000Y-85941661D01*
X123713465Y-85896326D01*
X123724899Y-85858633D01*
X123743466Y-85823897D01*
X123768452Y-85793452D01*
X123798897Y-85768466D01*
X123833633Y-85749899D01*
X123871326Y-85738465D01*
X123916661Y-85734000D01*
X125003339Y-85734000D01*
X125048674Y-85738465D01*
X125048674Y-85738465D01*
G37*
G36*
X80044434Y-85448686D02*
G01*
X80084284Y-85460774D01*
X80120999Y-85480399D01*
X80153186Y-85506814D01*
X80179601Y-85539001D01*
X80199226Y-85575716D01*
X80211314Y-85615566D01*
X80216000Y-85663141D01*
X80216000Y-86326859D01*
X80211314Y-86374434D01*
X80199226Y-86414284D01*
X80179601Y-86450999D01*
X80153186Y-86483186D01*
X80120999Y-86509601D01*
X80084284Y-86529226D01*
X80044434Y-86541314D01*
X79996859Y-86546000D01*
X76833141Y-86546000D01*
X76785566Y-86541314D01*
X76745716Y-86529226D01*
X76709001Y-86509601D01*
X76676814Y-86483186D01*
X76650399Y-86450999D01*
X76630774Y-86414284D01*
X76618686Y-86374434D01*
X76614000Y-86326859D01*
X76614000Y-85663141D01*
X76618686Y-85615566D01*
X76630774Y-85575716D01*
X76650399Y-85539001D01*
X76676814Y-85506814D01*
X76709001Y-85480399D01*
X76745716Y-85460774D01*
X76785566Y-85448686D01*
X76833141Y-85444000D01*
X79996859Y-85444000D01*
X80044434Y-85448686D01*
X80044434Y-85448686D01*
G37*
G36*
X131704928Y-84131764D02*
G01*
X131726009Y-84138160D01*
X131745445Y-84148548D01*
X131762476Y-84162524D01*
X131776452Y-84179555D01*
X131786840Y-84198991D01*
X131793236Y-84220072D01*
X131796000Y-84248140D01*
X131796000Y-86061860D01*
X131793236Y-86089928D01*
X131786840Y-86111009D01*
X131776452Y-86130445D01*
X131762476Y-86147476D01*
X131745445Y-86161452D01*
X131726009Y-86171840D01*
X131704928Y-86178236D01*
X131676860Y-86181000D01*
X131213140Y-86181000D01*
X131185072Y-86178236D01*
X131163991Y-86171840D01*
X131144555Y-86161452D01*
X131127524Y-86147476D01*
X131113548Y-86130445D01*
X131103160Y-86111009D01*
X131096764Y-86089928D01*
X131094000Y-86061860D01*
X131094000Y-84248140D01*
X131096764Y-84220072D01*
X131103160Y-84198991D01*
X131113548Y-84179555D01*
X131127524Y-84162524D01*
X131144555Y-84148548D01*
X131163991Y-84138160D01*
X131185072Y-84131764D01*
X131213140Y-84129000D01*
X131676860Y-84129000D01*
X131704928Y-84131764D01*
X131704928Y-84131764D01*
G37*
G36*
X129164928Y-84131764D02*
G01*
X129186009Y-84138160D01*
X129205445Y-84148548D01*
X129222476Y-84162524D01*
X129236452Y-84179555D01*
X129246840Y-84198991D01*
X129253236Y-84220072D01*
X129256000Y-84248140D01*
X129256000Y-86061860D01*
X129253236Y-86089928D01*
X129246840Y-86111009D01*
X129236452Y-86130445D01*
X129222476Y-86147476D01*
X129205445Y-86161452D01*
X129186009Y-86171840D01*
X129164928Y-86178236D01*
X129136860Y-86181000D01*
X128673140Y-86181000D01*
X128645072Y-86178236D01*
X128623991Y-86171840D01*
X128604555Y-86161452D01*
X128587524Y-86147476D01*
X128573548Y-86130445D01*
X128563160Y-86111009D01*
X128556764Y-86089928D01*
X128554000Y-86061860D01*
X128554000Y-84248140D01*
X128556764Y-84220072D01*
X128563160Y-84198991D01*
X128573548Y-84179555D01*
X128587524Y-84162524D01*
X128604555Y-84148548D01*
X128623991Y-84138160D01*
X128645072Y-84131764D01*
X128673140Y-84129000D01*
X129136860Y-84129000D01*
X129164928Y-84131764D01*
X129164928Y-84131764D01*
G37*
G36*
X127894928Y-84131764D02*
G01*
X127916009Y-84138160D01*
X127935445Y-84148548D01*
X127952476Y-84162524D01*
X127966452Y-84179555D01*
X127976840Y-84198991D01*
X127983236Y-84220072D01*
X127986000Y-84248140D01*
X127986000Y-86061860D01*
X127983236Y-86089928D01*
X127976840Y-86111009D01*
X127966452Y-86130445D01*
X127952476Y-86147476D01*
X127935445Y-86161452D01*
X127916009Y-86171840D01*
X127894928Y-86178236D01*
X127866860Y-86181000D01*
X127403140Y-86181000D01*
X127375072Y-86178236D01*
X127353991Y-86171840D01*
X127334555Y-86161452D01*
X127317524Y-86147476D01*
X127303548Y-86130445D01*
X127293160Y-86111009D01*
X127286764Y-86089928D01*
X127284000Y-86061860D01*
X127284000Y-84248140D01*
X127286764Y-84220072D01*
X127293160Y-84198991D01*
X127303548Y-84179555D01*
X127317524Y-84162524D01*
X127334555Y-84148548D01*
X127353991Y-84138160D01*
X127375072Y-84131764D01*
X127403140Y-84129000D01*
X127866860Y-84129000D01*
X127894928Y-84131764D01*
X127894928Y-84131764D01*
G37*
G36*
X130434928Y-84131764D02*
G01*
X130456009Y-84138160D01*
X130475445Y-84148548D01*
X130492476Y-84162524D01*
X130506452Y-84179555D01*
X130516840Y-84198991D01*
X130523236Y-84220072D01*
X130526000Y-84248140D01*
X130526000Y-86061860D01*
X130523236Y-86089928D01*
X130516840Y-86111009D01*
X130506452Y-86130445D01*
X130492476Y-86147476D01*
X130475445Y-86161452D01*
X130456009Y-86171840D01*
X130434928Y-86178236D01*
X130406860Y-86181000D01*
X129943140Y-86181000D01*
X129915072Y-86178236D01*
X129893991Y-86171840D01*
X129874555Y-86161452D01*
X129857524Y-86147476D01*
X129843548Y-86130445D01*
X129833160Y-86111009D01*
X129826764Y-86089928D01*
X129824000Y-86061860D01*
X129824000Y-84248140D01*
X129826764Y-84220072D01*
X129833160Y-84198991D01*
X129843548Y-84179555D01*
X129857524Y-84162524D01*
X129874555Y-84148548D01*
X129893991Y-84138160D01*
X129915072Y-84131764D01*
X129943140Y-84129000D01*
X130406860Y-84129000D01*
X130434928Y-84131764D01*
X130434928Y-84131764D01*
G37*
G36*
X162778674Y-84343465D02*
G01*
X162816367Y-84354899D01*
X162851103Y-84373466D01*
X162881548Y-84398452D01*
X162906534Y-84428897D01*
X162925101Y-84463633D01*
X162936535Y-84501326D01*
X162941000Y-84546661D01*
X162941000Y-85633339D01*
X162936535Y-85678674D01*
X162925101Y-85716367D01*
X162906534Y-85751103D01*
X162881548Y-85781548D01*
X162851103Y-85806534D01*
X162816367Y-85825101D01*
X162778674Y-85836535D01*
X162733339Y-85841000D01*
X161896661Y-85841000D01*
X161851326Y-85836535D01*
X161813633Y-85825101D01*
X161778897Y-85806534D01*
X161748452Y-85781548D01*
X161723466Y-85751103D01*
X161704899Y-85716367D01*
X161693465Y-85678674D01*
X161689000Y-85633339D01*
X161689000Y-84546661D01*
X161693465Y-84501326D01*
X161704899Y-84463633D01*
X161723466Y-84428897D01*
X161748452Y-84398452D01*
X161778897Y-84373466D01*
X161813633Y-84354899D01*
X161851326Y-84343465D01*
X161896661Y-84339000D01*
X162733339Y-84339000D01*
X162778674Y-84343465D01*
X162778674Y-84343465D01*
G37*
G36*
X160728674Y-84343465D02*
G01*
X160766367Y-84354899D01*
X160801103Y-84373466D01*
X160831548Y-84398452D01*
X160856534Y-84428897D01*
X160875101Y-84463633D01*
X160886535Y-84501326D01*
X160891000Y-84546661D01*
X160891000Y-85633339D01*
X160886535Y-85678674D01*
X160875101Y-85716367D01*
X160856534Y-85751103D01*
X160831548Y-85781548D01*
X160801103Y-85806534D01*
X160766367Y-85825101D01*
X160728674Y-85836535D01*
X160683339Y-85841000D01*
X159846661Y-85841000D01*
X159801326Y-85836535D01*
X159763633Y-85825101D01*
X159728897Y-85806534D01*
X159698452Y-85781548D01*
X159673466Y-85751103D01*
X159654899Y-85716367D01*
X159643465Y-85678674D01*
X159639000Y-85633339D01*
X159639000Y-84546661D01*
X159643465Y-84501326D01*
X159654899Y-84463633D01*
X159673466Y-84428897D01*
X159698452Y-84398452D01*
X159728897Y-84373466D01*
X159763633Y-84354899D01*
X159801326Y-84343465D01*
X159846661Y-84339000D01*
X160683339Y-84339000D01*
X160728674Y-84343465D01*
X160728674Y-84343465D01*
G37*
G36*
X100689434Y-84669686D02*
G01*
X100729284Y-84681774D01*
X100765999Y-84701399D01*
X100798186Y-84727814D01*
X100824601Y-84760001D01*
X100844226Y-84796716D01*
X100856314Y-84836566D01*
X100861000Y-84884141D01*
X100861000Y-85547859D01*
X100856314Y-85595434D01*
X100844226Y-85635284D01*
X100824601Y-85671999D01*
X100798186Y-85704186D01*
X100765999Y-85730601D01*
X100729284Y-85750226D01*
X100689434Y-85762314D01*
X100641859Y-85767000D01*
X97478141Y-85767000D01*
X97430566Y-85762314D01*
X97390716Y-85750226D01*
X97354001Y-85730601D01*
X97321814Y-85704186D01*
X97295399Y-85671999D01*
X97275774Y-85635284D01*
X97263686Y-85595434D01*
X97259000Y-85547859D01*
X97259000Y-84884141D01*
X97263686Y-84836566D01*
X97275774Y-84796716D01*
X97295399Y-84760001D01*
X97321814Y-84727814D01*
X97354001Y-84701399D01*
X97390716Y-84681774D01*
X97430566Y-84669686D01*
X97478141Y-84665000D01*
X100641859Y-84665000D01*
X100689434Y-84669686D01*
X100689434Y-84669686D01*
G37*
G36*
X74268048Y-82848122D02*
G01*
X74302387Y-82858539D01*
X74334036Y-82875456D01*
X74361778Y-82898222D01*
X74384544Y-82925964D01*
X74401461Y-82957613D01*
X74411878Y-82991952D01*
X74416000Y-83033807D01*
X74416000Y-84256193D01*
X74411878Y-84298048D01*
X74401461Y-84332387D01*
X74384544Y-84364036D01*
X74361778Y-84391778D01*
X74334036Y-84414544D01*
X74302387Y-84431461D01*
X74268048Y-84441878D01*
X74226193Y-84446000D01*
X71103807Y-84446000D01*
X71061952Y-84441878D01*
X71027613Y-84431461D01*
X70995964Y-84414544D01*
X70968222Y-84391778D01*
X70945456Y-84364036D01*
X70928539Y-84332387D01*
X70918122Y-84298048D01*
X70914000Y-84256193D01*
X70914000Y-83033807D01*
X70918122Y-82991952D01*
X70928539Y-82957613D01*
X70945456Y-82925964D01*
X70968222Y-82898222D01*
X70995964Y-82875456D01*
X71027613Y-82858539D01*
X71061952Y-82848122D01*
X71103807Y-82844000D01*
X74226193Y-82844000D01*
X74268048Y-82848122D01*
X74268048Y-82848122D01*
G37*
G36*
X100689434Y-82669686D02*
G01*
X100729284Y-82681774D01*
X100765999Y-82701399D01*
X100798186Y-82727814D01*
X100824601Y-82760001D01*
X100844226Y-82796716D01*
X100856314Y-82836566D01*
X100861000Y-82884141D01*
X100861000Y-83547859D01*
X100856314Y-83595434D01*
X100844226Y-83635284D01*
X100824601Y-83671999D01*
X100798186Y-83704186D01*
X100765999Y-83730601D01*
X100729284Y-83750226D01*
X100689434Y-83762314D01*
X100641859Y-83767000D01*
X97478141Y-83767000D01*
X97430566Y-83762314D01*
X97390716Y-83750226D01*
X97354001Y-83730601D01*
X97321814Y-83704186D01*
X97295399Y-83671999D01*
X97275774Y-83635284D01*
X97263686Y-83595434D01*
X97259000Y-83547859D01*
X97259000Y-82884141D01*
X97263686Y-82836566D01*
X97275774Y-82796716D01*
X97295399Y-82760001D01*
X97321814Y-82727814D01*
X97354001Y-82701399D01*
X97390716Y-82681774D01*
X97430566Y-82669686D01*
X97478141Y-82665000D01*
X100641859Y-82665000D01*
X100689434Y-82669686D01*
X100689434Y-82669686D01*
G37*
G36*
X113543928Y-81753764D02*
G01*
X113565009Y-81760160D01*
X113584445Y-81770548D01*
X113601476Y-81784524D01*
X113615452Y-81801555D01*
X113625840Y-81820991D01*
X113632236Y-81842072D01*
X113635000Y-81870140D01*
X113635000Y-83483860D01*
X113632236Y-83511928D01*
X113625840Y-83533009D01*
X113615452Y-83552445D01*
X113601476Y-83569476D01*
X113584445Y-83583452D01*
X113565009Y-83593840D01*
X113543928Y-83600236D01*
X113515860Y-83603000D01*
X113052140Y-83603000D01*
X113024072Y-83600236D01*
X113002991Y-83593840D01*
X112983555Y-83583452D01*
X112966524Y-83569476D01*
X112952548Y-83552445D01*
X112942160Y-83533009D01*
X112935764Y-83511928D01*
X112933000Y-83483860D01*
X112933000Y-81870140D01*
X112935764Y-81842072D01*
X112942160Y-81820991D01*
X112952548Y-81801555D01*
X112966524Y-81784524D01*
X112983555Y-81770548D01*
X113002991Y-81760160D01*
X113024072Y-81753764D01*
X113052140Y-81751000D01*
X113515860Y-81751000D01*
X113543928Y-81753764D01*
X113543928Y-81753764D01*
G37*
G36*
X109733928Y-81753764D02*
G01*
X109755009Y-81760160D01*
X109774445Y-81770548D01*
X109791476Y-81784524D01*
X109805452Y-81801555D01*
X109815840Y-81820991D01*
X109822236Y-81842072D01*
X109825000Y-81870140D01*
X109825000Y-83483860D01*
X109822236Y-83511928D01*
X109815840Y-83533009D01*
X109805452Y-83552445D01*
X109791476Y-83569476D01*
X109774445Y-83583452D01*
X109755009Y-83593840D01*
X109733928Y-83600236D01*
X109705860Y-83603000D01*
X109242140Y-83603000D01*
X109214072Y-83600236D01*
X109192991Y-83593840D01*
X109173555Y-83583452D01*
X109156524Y-83569476D01*
X109142548Y-83552445D01*
X109132160Y-83533009D01*
X109125764Y-83511928D01*
X109123000Y-83483860D01*
X109123000Y-81870140D01*
X109125764Y-81842072D01*
X109132160Y-81820991D01*
X109142548Y-81801555D01*
X109156524Y-81784524D01*
X109173555Y-81770548D01*
X109192991Y-81760160D01*
X109214072Y-81753764D01*
X109242140Y-81751000D01*
X109705860Y-81751000D01*
X109733928Y-81753764D01*
X109733928Y-81753764D01*
G37*
G36*
X111003928Y-81753764D02*
G01*
X111025009Y-81760160D01*
X111044445Y-81770548D01*
X111061476Y-81784524D01*
X111075452Y-81801555D01*
X111085840Y-81820991D01*
X111092236Y-81842072D01*
X111095000Y-81870140D01*
X111095000Y-83483860D01*
X111092236Y-83511928D01*
X111085840Y-83533009D01*
X111075452Y-83552445D01*
X111061476Y-83569476D01*
X111044445Y-83583452D01*
X111025009Y-83593840D01*
X111003928Y-83600236D01*
X110975860Y-83603000D01*
X110512140Y-83603000D01*
X110484072Y-83600236D01*
X110462991Y-83593840D01*
X110443555Y-83583452D01*
X110426524Y-83569476D01*
X110412548Y-83552445D01*
X110402160Y-83533009D01*
X110395764Y-83511928D01*
X110393000Y-83483860D01*
X110393000Y-81870140D01*
X110395764Y-81842072D01*
X110402160Y-81820991D01*
X110412548Y-81801555D01*
X110426524Y-81784524D01*
X110443555Y-81770548D01*
X110462991Y-81760160D01*
X110484072Y-81753764D01*
X110512140Y-81751000D01*
X110975860Y-81751000D01*
X111003928Y-81753764D01*
X111003928Y-81753764D01*
G37*
G36*
X112273928Y-81753764D02*
G01*
X112295009Y-81760160D01*
X112314445Y-81770548D01*
X112331476Y-81784524D01*
X112345452Y-81801555D01*
X112355840Y-81820991D01*
X112362236Y-81842072D01*
X112365000Y-81870140D01*
X112365000Y-83483860D01*
X112362236Y-83511928D01*
X112355840Y-83533009D01*
X112345452Y-83552445D01*
X112331476Y-83569476D01*
X112314445Y-83583452D01*
X112295009Y-83593840D01*
X112273928Y-83600236D01*
X112245860Y-83603000D01*
X111782140Y-83603000D01*
X111754072Y-83600236D01*
X111732991Y-83593840D01*
X111713555Y-83583452D01*
X111696524Y-83569476D01*
X111682548Y-83552445D01*
X111672160Y-83533009D01*
X111665764Y-83511928D01*
X111663000Y-83483860D01*
X111663000Y-81870140D01*
X111665764Y-81842072D01*
X111672160Y-81820991D01*
X111682548Y-81801555D01*
X111696524Y-81784524D01*
X111713555Y-81770548D01*
X111732991Y-81760160D01*
X111754072Y-81753764D01*
X111782140Y-81751000D01*
X112245860Y-81751000D01*
X112273928Y-81753764D01*
X112273928Y-81753764D01*
G37*
G36*
X117480928Y-81718764D02*
G01*
X117502009Y-81725160D01*
X117521445Y-81735548D01*
X117538476Y-81749524D01*
X117552452Y-81766555D01*
X117562840Y-81785991D01*
X117569236Y-81807072D01*
X117572000Y-81835140D01*
X117572000Y-83448860D01*
X117569236Y-83476928D01*
X117562840Y-83498009D01*
X117552452Y-83517445D01*
X117538476Y-83534476D01*
X117521445Y-83548452D01*
X117502009Y-83558840D01*
X117480928Y-83565236D01*
X117452860Y-83568000D01*
X116989140Y-83568000D01*
X116961072Y-83565236D01*
X116939991Y-83558840D01*
X116920555Y-83548452D01*
X116903524Y-83534476D01*
X116889548Y-83517445D01*
X116879160Y-83498009D01*
X116872764Y-83476928D01*
X116870000Y-83448860D01*
X116870000Y-81835140D01*
X116872764Y-81807072D01*
X116879160Y-81785991D01*
X116889548Y-81766555D01*
X116903524Y-81749524D01*
X116920555Y-81735548D01*
X116939991Y-81725160D01*
X116961072Y-81718764D01*
X116989140Y-81716000D01*
X117452860Y-81716000D01*
X117480928Y-81718764D01*
X117480928Y-81718764D01*
G37*
G36*
X120020928Y-81718764D02*
G01*
X120042009Y-81725160D01*
X120061445Y-81735548D01*
X120078476Y-81749524D01*
X120092452Y-81766555D01*
X120102840Y-81785991D01*
X120109236Y-81807072D01*
X120112000Y-81835140D01*
X120112000Y-83448860D01*
X120109236Y-83476928D01*
X120102840Y-83498009D01*
X120092452Y-83517445D01*
X120078476Y-83534476D01*
X120061445Y-83548452D01*
X120042009Y-83558840D01*
X120020928Y-83565236D01*
X119992860Y-83568000D01*
X119529140Y-83568000D01*
X119501072Y-83565236D01*
X119479991Y-83558840D01*
X119460555Y-83548452D01*
X119443524Y-83534476D01*
X119429548Y-83517445D01*
X119419160Y-83498009D01*
X119412764Y-83476928D01*
X119410000Y-83448860D01*
X119410000Y-81835140D01*
X119412764Y-81807072D01*
X119419160Y-81785991D01*
X119429548Y-81766555D01*
X119443524Y-81749524D01*
X119460555Y-81735548D01*
X119479991Y-81725160D01*
X119501072Y-81718764D01*
X119529140Y-81716000D01*
X119992860Y-81716000D01*
X120020928Y-81718764D01*
X120020928Y-81718764D01*
G37*
G36*
X118750928Y-81718764D02*
G01*
X118772009Y-81725160D01*
X118791445Y-81735548D01*
X118808476Y-81749524D01*
X118822452Y-81766555D01*
X118832840Y-81785991D01*
X118839236Y-81807072D01*
X118842000Y-81835140D01*
X118842000Y-83448860D01*
X118839236Y-83476928D01*
X118832840Y-83498009D01*
X118822452Y-83517445D01*
X118808476Y-83534476D01*
X118791445Y-83548452D01*
X118772009Y-83558840D01*
X118750928Y-83565236D01*
X118722860Y-83568000D01*
X118259140Y-83568000D01*
X118231072Y-83565236D01*
X118209991Y-83558840D01*
X118190555Y-83548452D01*
X118173524Y-83534476D01*
X118159548Y-83517445D01*
X118149160Y-83498009D01*
X118142764Y-83476928D01*
X118140000Y-83448860D01*
X118140000Y-81835140D01*
X118142764Y-81807072D01*
X118149160Y-81785991D01*
X118159548Y-81766555D01*
X118173524Y-81749524D01*
X118190555Y-81735548D01*
X118209991Y-81725160D01*
X118231072Y-81718764D01*
X118259140Y-81716000D01*
X118722860Y-81716000D01*
X118750928Y-81718764D01*
X118750928Y-81718764D01*
G37*
G36*
X116210928Y-81718764D02*
G01*
X116232009Y-81725160D01*
X116251445Y-81735548D01*
X116268476Y-81749524D01*
X116282452Y-81766555D01*
X116292840Y-81785991D01*
X116299236Y-81807072D01*
X116302000Y-81835140D01*
X116302000Y-83448860D01*
X116299236Y-83476928D01*
X116292840Y-83498009D01*
X116282452Y-83517445D01*
X116268476Y-83534476D01*
X116251445Y-83548452D01*
X116232009Y-83558840D01*
X116210928Y-83565236D01*
X116182860Y-83568000D01*
X115719140Y-83568000D01*
X115691072Y-83565236D01*
X115669991Y-83558840D01*
X115650555Y-83548452D01*
X115633524Y-83534476D01*
X115619548Y-83517445D01*
X115609160Y-83498009D01*
X115602764Y-83476928D01*
X115600000Y-83448860D01*
X115600000Y-81835140D01*
X115602764Y-81807072D01*
X115609160Y-81785991D01*
X115619548Y-81766555D01*
X115633524Y-81749524D01*
X115650555Y-81735548D01*
X115669991Y-81725160D01*
X115691072Y-81718764D01*
X115719140Y-81716000D01*
X116182860Y-81716000D01*
X116210928Y-81718764D01*
X116210928Y-81718764D01*
G37*
G36*
X189220634Y-73553178D02*
G01*
X190038853Y-73892096D01*
X190038854Y-73892097D01*
X190775233Y-74384129D01*
X191401471Y-75010367D01*
X191599319Y-75306468D01*
X191893504Y-75746747D01*
X192232422Y-76564966D01*
X192405200Y-77433581D01*
X192405200Y-78319219D01*
X192232422Y-79187834D01*
X191893504Y-80006053D01*
X191893503Y-80006054D01*
X191401471Y-80742433D01*
X190775233Y-81368671D01*
X190433620Y-81596929D01*
X190038853Y-81860704D01*
X189220634Y-82199622D01*
X188352019Y-82372400D01*
X187466381Y-82372400D01*
X186597766Y-82199622D01*
X185779547Y-81860704D01*
X185384780Y-81596929D01*
X185043167Y-81368671D01*
X184416929Y-80742433D01*
X183924897Y-80006054D01*
X183924896Y-80006053D01*
X183585978Y-79187834D01*
X183413200Y-78319219D01*
X183413200Y-77433581D01*
X183585978Y-76564966D01*
X183924896Y-75746747D01*
X184219081Y-75306468D01*
X184416929Y-75010367D01*
X185043167Y-74384129D01*
X185779546Y-73892097D01*
X185779547Y-73892096D01*
X186597766Y-73553178D01*
X187466381Y-73380400D01*
X188352019Y-73380400D01*
X189220634Y-73553178D01*
X189220634Y-73553178D01*
G37*
G36*
X158968674Y-80533465D02*
G01*
X159006367Y-80544899D01*
X159041103Y-80563466D01*
X159071548Y-80588452D01*
X159096534Y-80618897D01*
X159115101Y-80653633D01*
X159126535Y-80691326D01*
X159131000Y-80736661D01*
X159131000Y-81823339D01*
X159126535Y-81868674D01*
X159115101Y-81906367D01*
X159096534Y-81941103D01*
X159071548Y-81971548D01*
X159041103Y-81996534D01*
X159006367Y-82015101D01*
X158968674Y-82026535D01*
X158923339Y-82031000D01*
X158086661Y-82031000D01*
X158041326Y-82026535D01*
X158003633Y-82015101D01*
X157968897Y-81996534D01*
X157938452Y-81971548D01*
X157913466Y-81941103D01*
X157894899Y-81906367D01*
X157883465Y-81868674D01*
X157879000Y-81823339D01*
X157879000Y-80736661D01*
X157883465Y-80691326D01*
X157894899Y-80653633D01*
X157913466Y-80618897D01*
X157938452Y-80588452D01*
X157968897Y-80563466D01*
X158003633Y-80544899D01*
X158041326Y-80533465D01*
X158086661Y-80529000D01*
X158923339Y-80529000D01*
X158968674Y-80533465D01*
X158968674Y-80533465D01*
G37*
G36*
X131028674Y-80533465D02*
G01*
X131066367Y-80544899D01*
X131101103Y-80563466D01*
X131131548Y-80588452D01*
X131156534Y-80618897D01*
X131175101Y-80653633D01*
X131186535Y-80691326D01*
X131191000Y-80736661D01*
X131191000Y-81823339D01*
X131186535Y-81868674D01*
X131175101Y-81906367D01*
X131156534Y-81941103D01*
X131131548Y-81971548D01*
X131101103Y-81996534D01*
X131066367Y-82015101D01*
X131028674Y-82026535D01*
X130983339Y-82031000D01*
X130146661Y-82031000D01*
X130101326Y-82026535D01*
X130063633Y-82015101D01*
X130028897Y-81996534D01*
X129998452Y-81971548D01*
X129973466Y-81941103D01*
X129954899Y-81906367D01*
X129943465Y-81868674D01*
X129939000Y-81823339D01*
X129939000Y-80736661D01*
X129943465Y-80691326D01*
X129954899Y-80653633D01*
X129973466Y-80618897D01*
X129998452Y-80588452D01*
X130028897Y-80563466D01*
X130063633Y-80544899D01*
X130101326Y-80533465D01*
X130146661Y-80529000D01*
X130983339Y-80529000D01*
X131028674Y-80533465D01*
X131028674Y-80533465D01*
G37*
G36*
X128978674Y-80533465D02*
G01*
X129016367Y-80544899D01*
X129051103Y-80563466D01*
X129081548Y-80588452D01*
X129106534Y-80618897D01*
X129125101Y-80653633D01*
X129136535Y-80691326D01*
X129141000Y-80736661D01*
X129141000Y-81823339D01*
X129136535Y-81868674D01*
X129125101Y-81906367D01*
X129106534Y-81941103D01*
X129081548Y-81971548D01*
X129051103Y-81996534D01*
X129016367Y-82015101D01*
X128978674Y-82026535D01*
X128933339Y-82031000D01*
X128096661Y-82031000D01*
X128051326Y-82026535D01*
X128013633Y-82015101D01*
X127978897Y-81996534D01*
X127948452Y-81971548D01*
X127923466Y-81941103D01*
X127904899Y-81906367D01*
X127893465Y-81868674D01*
X127889000Y-81823339D01*
X127889000Y-80736661D01*
X127893465Y-80691326D01*
X127904899Y-80653633D01*
X127923466Y-80618897D01*
X127948452Y-80588452D01*
X127978897Y-80563466D01*
X128013633Y-80544899D01*
X128051326Y-80533465D01*
X128096661Y-80529000D01*
X128933339Y-80529000D01*
X128978674Y-80533465D01*
X128978674Y-80533465D01*
G37*
G36*
X164783674Y-80533465D02*
G01*
X164821367Y-80544899D01*
X164856103Y-80563466D01*
X164886548Y-80588452D01*
X164911534Y-80618897D01*
X164930101Y-80653633D01*
X164941535Y-80691326D01*
X164946000Y-80736661D01*
X164946000Y-81823339D01*
X164941535Y-81868674D01*
X164930101Y-81906367D01*
X164911534Y-81941103D01*
X164886548Y-81971548D01*
X164856103Y-81996534D01*
X164821367Y-82015101D01*
X164783674Y-82026535D01*
X164738339Y-82031000D01*
X163901661Y-82031000D01*
X163856326Y-82026535D01*
X163818633Y-82015101D01*
X163783897Y-81996534D01*
X163753452Y-81971548D01*
X163728466Y-81941103D01*
X163709899Y-81906367D01*
X163698465Y-81868674D01*
X163694000Y-81823339D01*
X163694000Y-80736661D01*
X163698465Y-80691326D01*
X163709899Y-80653633D01*
X163728466Y-80618897D01*
X163753452Y-80588452D01*
X163783897Y-80563466D01*
X163818633Y-80544899D01*
X163856326Y-80533465D01*
X163901661Y-80529000D01*
X164738339Y-80529000D01*
X164783674Y-80533465D01*
X164783674Y-80533465D01*
G37*
G36*
X156918674Y-80533465D02*
G01*
X156956367Y-80544899D01*
X156991103Y-80563466D01*
X157021548Y-80588452D01*
X157046534Y-80618897D01*
X157065101Y-80653633D01*
X157076535Y-80691326D01*
X157081000Y-80736661D01*
X157081000Y-81823339D01*
X157076535Y-81868674D01*
X157065101Y-81906367D01*
X157046534Y-81941103D01*
X157021548Y-81971548D01*
X156991103Y-81996534D01*
X156956367Y-82015101D01*
X156918674Y-82026535D01*
X156873339Y-82031000D01*
X156036661Y-82031000D01*
X155991326Y-82026535D01*
X155953633Y-82015101D01*
X155918897Y-81996534D01*
X155888452Y-81971548D01*
X155863466Y-81941103D01*
X155844899Y-81906367D01*
X155833465Y-81868674D01*
X155829000Y-81823339D01*
X155829000Y-80736661D01*
X155833465Y-80691326D01*
X155844899Y-80653633D01*
X155863466Y-80618897D01*
X155888452Y-80588452D01*
X155918897Y-80563466D01*
X155953633Y-80544899D01*
X155991326Y-80533465D01*
X156036661Y-80529000D01*
X156873339Y-80529000D01*
X156918674Y-80533465D01*
X156918674Y-80533465D01*
G37*
G36*
X166833674Y-80533465D02*
G01*
X166871367Y-80544899D01*
X166906103Y-80563466D01*
X166936548Y-80588452D01*
X166961534Y-80618897D01*
X166980101Y-80653633D01*
X166991535Y-80691326D01*
X166996000Y-80736661D01*
X166996000Y-81823339D01*
X166991535Y-81868674D01*
X166980101Y-81906367D01*
X166961534Y-81941103D01*
X166936548Y-81971548D01*
X166906103Y-81996534D01*
X166871367Y-82015101D01*
X166833674Y-82026535D01*
X166788339Y-82031000D01*
X165951661Y-82031000D01*
X165906326Y-82026535D01*
X165868633Y-82015101D01*
X165833897Y-81996534D01*
X165803452Y-81971548D01*
X165778466Y-81941103D01*
X165759899Y-81906367D01*
X165748465Y-81868674D01*
X165744000Y-81823339D01*
X165744000Y-80736661D01*
X165748465Y-80691326D01*
X165759899Y-80653633D01*
X165778466Y-80618897D01*
X165803452Y-80588452D01*
X165833897Y-80563466D01*
X165868633Y-80544899D01*
X165906326Y-80533465D01*
X165951661Y-80529000D01*
X166788339Y-80529000D01*
X166833674Y-80533465D01*
X166833674Y-80533465D01*
G37*
G36*
X100689434Y-80669686D02*
G01*
X100729284Y-80681774D01*
X100765999Y-80701399D01*
X100798186Y-80727814D01*
X100824601Y-80760001D01*
X100844226Y-80796716D01*
X100856314Y-80836566D01*
X100861000Y-80884141D01*
X100861000Y-81547859D01*
X100856314Y-81595434D01*
X100844226Y-81635284D01*
X100824601Y-81671999D01*
X100798186Y-81704186D01*
X100765999Y-81730601D01*
X100729284Y-81750226D01*
X100689434Y-81762314D01*
X100641859Y-81767000D01*
X97478141Y-81767000D01*
X97430566Y-81762314D01*
X97390716Y-81750226D01*
X97354001Y-81730601D01*
X97321814Y-81704186D01*
X97295399Y-81671999D01*
X97275774Y-81635284D01*
X97263686Y-81595434D01*
X97259000Y-81547859D01*
X97259000Y-80884141D01*
X97263686Y-80836566D01*
X97275774Y-80796716D01*
X97295399Y-80760001D01*
X97321814Y-80727814D01*
X97354001Y-80701399D01*
X97390716Y-80681774D01*
X97430566Y-80669686D01*
X97478141Y-80665000D01*
X100641859Y-80665000D01*
X100689434Y-80669686D01*
X100689434Y-80669686D01*
G37*
G36*
X89920000Y-80749000D02*
G01*
X89018000Y-80749000D01*
X89018000Y-79747000D01*
X89920000Y-79747000D01*
X89920000Y-80749000D01*
X89920000Y-80749000D01*
G37*
G36*
X88020000Y-80749000D02*
G01*
X87118000Y-80749000D01*
X87118000Y-79747000D01*
X88020000Y-79747000D01*
X88020000Y-80749000D01*
X88020000Y-80749000D01*
G37*
G36*
X113611674Y-78374465D02*
G01*
X113649367Y-78385899D01*
X113684103Y-78404466D01*
X113714548Y-78429452D01*
X113739534Y-78459897D01*
X113758101Y-78494633D01*
X113769535Y-78532326D01*
X113774000Y-78577661D01*
X113774000Y-79664339D01*
X113769535Y-79709674D01*
X113758101Y-79747367D01*
X113739534Y-79782103D01*
X113714548Y-79812548D01*
X113684103Y-79837534D01*
X113649367Y-79856101D01*
X113611674Y-79867535D01*
X113566339Y-79872000D01*
X112729661Y-79872000D01*
X112684326Y-79867535D01*
X112646633Y-79856101D01*
X112611897Y-79837534D01*
X112581452Y-79812548D01*
X112556466Y-79782103D01*
X112537899Y-79747367D01*
X112526465Y-79709674D01*
X112522000Y-79664339D01*
X112522000Y-78577661D01*
X112526465Y-78532326D01*
X112537899Y-78494633D01*
X112556466Y-78459897D01*
X112581452Y-78429452D01*
X112611897Y-78404466D01*
X112646633Y-78385899D01*
X112684326Y-78374465D01*
X112729661Y-78370000D01*
X113566339Y-78370000D01*
X113611674Y-78374465D01*
X113611674Y-78374465D01*
G37*
G36*
X121122674Y-78374465D02*
G01*
X121160367Y-78385899D01*
X121195103Y-78404466D01*
X121225548Y-78429452D01*
X121250534Y-78459897D01*
X121269101Y-78494633D01*
X121280535Y-78532326D01*
X121285000Y-78577661D01*
X121285000Y-79664339D01*
X121280535Y-79709674D01*
X121269101Y-79747367D01*
X121250534Y-79782103D01*
X121225548Y-79812548D01*
X121195103Y-79837534D01*
X121160367Y-79856101D01*
X121122674Y-79867535D01*
X121077339Y-79872000D01*
X120240661Y-79872000D01*
X120195326Y-79867535D01*
X120157633Y-79856101D01*
X120122897Y-79837534D01*
X120092452Y-79812548D01*
X120067466Y-79782103D01*
X120048899Y-79747367D01*
X120037465Y-79709674D01*
X120033000Y-79664339D01*
X120033000Y-78577661D01*
X120037465Y-78532326D01*
X120048899Y-78494633D01*
X120067466Y-78459897D01*
X120092452Y-78429452D01*
X120122897Y-78404466D01*
X120157633Y-78385899D01*
X120195326Y-78374465D01*
X120240661Y-78370000D01*
X121077339Y-78370000D01*
X121122674Y-78374465D01*
X121122674Y-78374465D01*
G37*
G36*
X110200674Y-78374465D02*
G01*
X110238367Y-78385899D01*
X110273103Y-78404466D01*
X110303548Y-78429452D01*
X110328534Y-78459897D01*
X110347101Y-78494633D01*
X110358535Y-78532326D01*
X110363000Y-78577661D01*
X110363000Y-79664339D01*
X110358535Y-79709674D01*
X110347101Y-79747367D01*
X110328534Y-79782103D01*
X110303548Y-79812548D01*
X110273103Y-79837534D01*
X110238367Y-79856101D01*
X110200674Y-79867535D01*
X110155339Y-79872000D01*
X109318661Y-79872000D01*
X109273326Y-79867535D01*
X109235633Y-79856101D01*
X109200897Y-79837534D01*
X109170452Y-79812548D01*
X109145466Y-79782103D01*
X109126899Y-79747367D01*
X109115465Y-79709674D01*
X109111000Y-79664339D01*
X109111000Y-78577661D01*
X109115465Y-78532326D01*
X109126899Y-78494633D01*
X109145466Y-78459897D01*
X109170452Y-78429452D01*
X109200897Y-78404466D01*
X109235633Y-78385899D01*
X109273326Y-78374465D01*
X109318661Y-78370000D01*
X110155339Y-78370000D01*
X110200674Y-78374465D01*
X110200674Y-78374465D01*
G37*
G36*
X108150674Y-78374465D02*
G01*
X108188367Y-78385899D01*
X108223103Y-78404466D01*
X108253548Y-78429452D01*
X108278534Y-78459897D01*
X108297101Y-78494633D01*
X108308535Y-78532326D01*
X108313000Y-78577661D01*
X108313000Y-79664339D01*
X108308535Y-79709674D01*
X108297101Y-79747367D01*
X108278534Y-79782103D01*
X108253548Y-79812548D01*
X108223103Y-79837534D01*
X108188367Y-79856101D01*
X108150674Y-79867535D01*
X108105339Y-79872000D01*
X107268661Y-79872000D01*
X107223326Y-79867535D01*
X107185633Y-79856101D01*
X107150897Y-79837534D01*
X107120452Y-79812548D01*
X107095466Y-79782103D01*
X107076899Y-79747367D01*
X107065465Y-79709674D01*
X107061000Y-79664339D01*
X107061000Y-78577661D01*
X107065465Y-78532326D01*
X107076899Y-78494633D01*
X107095466Y-78459897D01*
X107120452Y-78429452D01*
X107150897Y-78404466D01*
X107185633Y-78385899D01*
X107223326Y-78374465D01*
X107268661Y-78370000D01*
X108105339Y-78370000D01*
X108150674Y-78374465D01*
X108150674Y-78374465D01*
G37*
G36*
X119072674Y-78374465D02*
G01*
X119110367Y-78385899D01*
X119145103Y-78404466D01*
X119175548Y-78429452D01*
X119200534Y-78459897D01*
X119219101Y-78494633D01*
X119230535Y-78532326D01*
X119235000Y-78577661D01*
X119235000Y-79664339D01*
X119230535Y-79709674D01*
X119219101Y-79747367D01*
X119200534Y-79782103D01*
X119175548Y-79812548D01*
X119145103Y-79837534D01*
X119110367Y-79856101D01*
X119072674Y-79867535D01*
X119027339Y-79872000D01*
X118190661Y-79872000D01*
X118145326Y-79867535D01*
X118107633Y-79856101D01*
X118072897Y-79837534D01*
X118042452Y-79812548D01*
X118017466Y-79782103D01*
X117998899Y-79747367D01*
X117987465Y-79709674D01*
X117983000Y-79664339D01*
X117983000Y-78577661D01*
X117987465Y-78532326D01*
X117998899Y-78494633D01*
X118017466Y-78459897D01*
X118042452Y-78429452D01*
X118072897Y-78404466D01*
X118107633Y-78385899D01*
X118145326Y-78374465D01*
X118190661Y-78370000D01*
X119027339Y-78370000D01*
X119072674Y-78374465D01*
X119072674Y-78374465D01*
G37*
G36*
X115661674Y-78374465D02*
G01*
X115699367Y-78385899D01*
X115734103Y-78404466D01*
X115764548Y-78429452D01*
X115789534Y-78459897D01*
X115808101Y-78494633D01*
X115819535Y-78532326D01*
X115824000Y-78577661D01*
X115824000Y-79664339D01*
X115819535Y-79709674D01*
X115808101Y-79747367D01*
X115789534Y-79782103D01*
X115764548Y-79812548D01*
X115734103Y-79837534D01*
X115699367Y-79856101D01*
X115661674Y-79867535D01*
X115616339Y-79872000D01*
X114779661Y-79872000D01*
X114734326Y-79867535D01*
X114696633Y-79856101D01*
X114661897Y-79837534D01*
X114631452Y-79812548D01*
X114606466Y-79782103D01*
X114587899Y-79747367D01*
X114576465Y-79709674D01*
X114572000Y-79664339D01*
X114572000Y-78577661D01*
X114576465Y-78532326D01*
X114587899Y-78494633D01*
X114606466Y-78459897D01*
X114631452Y-78429452D01*
X114661897Y-78404466D01*
X114696633Y-78385899D01*
X114734326Y-78374465D01*
X114779661Y-78370000D01*
X115616339Y-78370000D01*
X115661674Y-78374465D01*
X115661674Y-78374465D01*
G37*
G36*
X100689434Y-78669686D02*
G01*
X100729284Y-78681774D01*
X100765999Y-78701399D01*
X100798186Y-78727814D01*
X100824601Y-78760001D01*
X100844226Y-78796716D01*
X100856314Y-78836566D01*
X100861000Y-78884141D01*
X100861000Y-79547859D01*
X100856314Y-79595434D01*
X100844226Y-79635284D01*
X100824601Y-79671999D01*
X100798186Y-79704186D01*
X100765999Y-79730601D01*
X100729284Y-79750226D01*
X100689434Y-79762314D01*
X100641859Y-79767000D01*
X97478141Y-79767000D01*
X97430566Y-79762314D01*
X97390716Y-79750226D01*
X97354001Y-79730601D01*
X97321814Y-79704186D01*
X97295399Y-79671999D01*
X97275774Y-79635284D01*
X97263686Y-79595434D01*
X97259000Y-79547859D01*
X97259000Y-78884141D01*
X97263686Y-78836566D01*
X97275774Y-78796716D01*
X97295399Y-78760001D01*
X97321814Y-78727814D01*
X97354001Y-78701399D01*
X97390716Y-78681774D01*
X97430566Y-78669686D01*
X97478141Y-78665000D01*
X100641859Y-78665000D01*
X100689434Y-78669686D01*
X100689434Y-78669686D01*
G37*
G36*
X161878674Y-77873465D02*
G01*
X161916367Y-77884899D01*
X161951103Y-77903466D01*
X161981548Y-77928452D01*
X162006534Y-77958897D01*
X162025101Y-77993633D01*
X162036535Y-78031326D01*
X162041000Y-78076661D01*
X162041000Y-78913339D01*
X162036535Y-78958674D01*
X162025101Y-78996367D01*
X162006534Y-79031103D01*
X161981548Y-79061548D01*
X161951103Y-79086534D01*
X161916367Y-79105101D01*
X161878674Y-79116535D01*
X161833339Y-79121000D01*
X160746661Y-79121000D01*
X160701326Y-79116535D01*
X160663633Y-79105101D01*
X160628897Y-79086534D01*
X160598452Y-79061548D01*
X160573466Y-79031103D01*
X160554899Y-78996367D01*
X160543465Y-78958674D01*
X160539000Y-78913339D01*
X160539000Y-78076661D01*
X160543465Y-78031326D01*
X160554899Y-77993633D01*
X160573466Y-77958897D01*
X160598452Y-77928452D01*
X160628897Y-77903466D01*
X160663633Y-77884899D01*
X160701326Y-77873465D01*
X160746661Y-77869000D01*
X161833339Y-77869000D01*
X161878674Y-77873465D01*
X161878674Y-77873465D01*
G37*
G36*
X175971000Y-78813000D02*
G01*
X174069000Y-78813000D01*
X174069000Y-76911000D01*
X175971000Y-76911000D01*
X175971000Y-78813000D01*
X175971000Y-78813000D01*
G37*
G36*
X180377395Y-76947546D02*
G01*
X180550466Y-77019234D01*
X180604145Y-77055101D01*
X180706227Y-77123310D01*
X180838690Y-77255773D01*
X180838691Y-77255775D01*
X180942766Y-77411534D01*
X181014454Y-77584605D01*
X181051000Y-77768333D01*
X181051000Y-77955667D01*
X181014454Y-78139395D01*
X180942766Y-78312466D01*
X180900828Y-78375230D01*
X180838690Y-78468227D01*
X180706227Y-78600690D01*
X180644143Y-78642173D01*
X180550466Y-78704766D01*
X180377395Y-78776454D01*
X180193667Y-78813000D01*
X180006333Y-78813000D01*
X179822605Y-78776454D01*
X179649534Y-78704766D01*
X179555857Y-78642173D01*
X179493773Y-78600690D01*
X179361310Y-78468227D01*
X179299172Y-78375230D01*
X179257234Y-78312466D01*
X179185546Y-78139395D01*
X179149000Y-77955667D01*
X179149000Y-77768333D01*
X179185546Y-77584605D01*
X179257234Y-77411534D01*
X179361309Y-77255775D01*
X179361310Y-77255773D01*
X179493773Y-77123310D01*
X179595855Y-77055101D01*
X179649534Y-77019234D01*
X179822605Y-76947546D01*
X180006333Y-76911000D01*
X180193667Y-76911000D01*
X180377395Y-76947546D01*
X180377395Y-76947546D01*
G37*
G36*
X177837395Y-76947546D02*
G01*
X178010466Y-77019234D01*
X178064145Y-77055101D01*
X178166227Y-77123310D01*
X178298690Y-77255773D01*
X178298691Y-77255775D01*
X178402766Y-77411534D01*
X178474454Y-77584605D01*
X178511000Y-77768333D01*
X178511000Y-77955667D01*
X178474454Y-78139395D01*
X178402766Y-78312466D01*
X178360828Y-78375230D01*
X178298690Y-78468227D01*
X178166227Y-78600690D01*
X178104143Y-78642173D01*
X178010466Y-78704766D01*
X177837395Y-78776454D01*
X177653667Y-78813000D01*
X177466333Y-78813000D01*
X177282605Y-78776454D01*
X177109534Y-78704766D01*
X177015857Y-78642173D01*
X176953773Y-78600690D01*
X176821310Y-78468227D01*
X176759172Y-78375230D01*
X176717234Y-78312466D01*
X176645546Y-78139395D01*
X176609000Y-77955667D01*
X176609000Y-77768333D01*
X176645546Y-77584605D01*
X176717234Y-77411534D01*
X176821309Y-77255775D01*
X176821310Y-77255773D01*
X176953773Y-77123310D01*
X177055855Y-77055101D01*
X177109534Y-77019234D01*
X177282605Y-76947546D01*
X177466333Y-76911000D01*
X177653667Y-76911000D01*
X177837395Y-76947546D01*
X177837395Y-76947546D01*
G37*
G36*
X88970000Y-78749000D02*
G01*
X88068000Y-78749000D01*
X88068000Y-77747000D01*
X88970000Y-77747000D01*
X88970000Y-78749000D01*
X88970000Y-78749000D01*
G37*
G36*
X83022674Y-76342465D02*
G01*
X83060367Y-76353899D01*
X83095103Y-76372466D01*
X83125548Y-76397452D01*
X83150534Y-76427897D01*
X83169101Y-76462633D01*
X83180535Y-76500326D01*
X83185000Y-76545661D01*
X83185000Y-77632339D01*
X83180535Y-77677674D01*
X83169101Y-77715367D01*
X83150534Y-77750103D01*
X83125548Y-77780548D01*
X83095103Y-77805534D01*
X83060367Y-77824101D01*
X83022674Y-77835535D01*
X82977339Y-77840000D01*
X82140661Y-77840000D01*
X82095326Y-77835535D01*
X82057633Y-77824101D01*
X82022897Y-77805534D01*
X81992452Y-77780548D01*
X81967466Y-77750103D01*
X81948899Y-77715367D01*
X81937465Y-77677674D01*
X81933000Y-77632339D01*
X81933000Y-76545661D01*
X81937465Y-76500326D01*
X81948899Y-76462633D01*
X81967466Y-76427897D01*
X81992452Y-76397452D01*
X82022897Y-76372466D01*
X82057633Y-76353899D01*
X82095326Y-76342465D01*
X82140661Y-76338000D01*
X82977339Y-76338000D01*
X83022674Y-76342465D01*
X83022674Y-76342465D01*
G37*
G36*
X80972674Y-76342465D02*
G01*
X81010367Y-76353899D01*
X81045103Y-76372466D01*
X81075548Y-76397452D01*
X81100534Y-76427897D01*
X81119101Y-76462633D01*
X81130535Y-76500326D01*
X81135000Y-76545661D01*
X81135000Y-77632339D01*
X81130535Y-77677674D01*
X81119101Y-77715367D01*
X81100534Y-77750103D01*
X81075548Y-77780548D01*
X81045103Y-77805534D01*
X81010367Y-77824101D01*
X80972674Y-77835535D01*
X80927339Y-77840000D01*
X80090661Y-77840000D01*
X80045326Y-77835535D01*
X80007633Y-77824101D01*
X79972897Y-77805534D01*
X79942452Y-77780548D01*
X79917466Y-77750103D01*
X79898899Y-77715367D01*
X79887465Y-77677674D01*
X79883000Y-77632339D01*
X79883000Y-76545661D01*
X79887465Y-76500326D01*
X79898899Y-76462633D01*
X79917466Y-76427897D01*
X79942452Y-76397452D01*
X79972897Y-76372466D01*
X80007633Y-76353899D01*
X80045326Y-76342465D01*
X80090661Y-76338000D01*
X80927339Y-76338000D01*
X80972674Y-76342465D01*
X80972674Y-76342465D01*
G37*
G36*
X74717434Y-69006578D02*
G01*
X75535653Y-69345496D01*
X75732751Y-69477193D01*
X76272033Y-69837529D01*
X76898271Y-70463767D01*
X77180901Y-70886753D01*
X77390304Y-71200147D01*
X77729222Y-72018366D01*
X77902000Y-72886981D01*
X77902000Y-73772619D01*
X77729222Y-74641234D01*
X77390304Y-75459453D01*
X77390303Y-75459454D01*
X76898271Y-76195833D01*
X76272033Y-76822071D01*
X75923278Y-77055101D01*
X75535653Y-77314104D01*
X74717434Y-77653022D01*
X73848819Y-77825800D01*
X72963181Y-77825800D01*
X72094566Y-77653022D01*
X71276347Y-77314104D01*
X70888722Y-77055101D01*
X70539967Y-76822071D01*
X69913729Y-76195833D01*
X69421697Y-75459454D01*
X69421696Y-75459453D01*
X69082778Y-74641234D01*
X68910000Y-73772619D01*
X68910000Y-72886981D01*
X69082778Y-72018366D01*
X69421696Y-71200147D01*
X69631099Y-70886753D01*
X69913729Y-70463767D01*
X70539967Y-69837529D01*
X71079249Y-69477193D01*
X71276347Y-69345496D01*
X72094566Y-69006578D01*
X72963181Y-68833800D01*
X73848819Y-68833800D01*
X74717434Y-69006578D01*
X74717434Y-69006578D01*
G37*
G36*
X100689434Y-76669686D02*
G01*
X100729284Y-76681774D01*
X100765999Y-76701399D01*
X100798186Y-76727814D01*
X100824601Y-76760001D01*
X100844226Y-76796716D01*
X100856314Y-76836566D01*
X100861000Y-76884141D01*
X100861000Y-77547859D01*
X100856314Y-77595434D01*
X100844226Y-77635284D01*
X100824601Y-77671999D01*
X100798186Y-77704186D01*
X100765999Y-77730601D01*
X100729284Y-77750226D01*
X100689434Y-77762314D01*
X100641859Y-77767000D01*
X97478141Y-77767000D01*
X97430566Y-77762314D01*
X97390716Y-77750226D01*
X97354001Y-77730601D01*
X97321814Y-77704186D01*
X97295399Y-77671999D01*
X97275774Y-77635284D01*
X97263686Y-77595434D01*
X97259000Y-77547859D01*
X97259000Y-76884141D01*
X97263686Y-76836566D01*
X97275774Y-76796716D01*
X97295399Y-76760001D01*
X97321814Y-76727814D01*
X97354001Y-76701399D01*
X97390716Y-76681774D01*
X97430566Y-76669686D01*
X97478141Y-76665000D01*
X100641859Y-76665000D01*
X100689434Y-76669686D01*
X100689434Y-76669686D01*
G37*
G36*
X161878674Y-75823465D02*
G01*
X161916367Y-75834899D01*
X161951103Y-75853466D01*
X161981548Y-75878452D01*
X162006534Y-75908897D01*
X162025101Y-75943633D01*
X162036535Y-75981326D01*
X162041000Y-76026661D01*
X162041000Y-76863339D01*
X162036535Y-76908674D01*
X162025101Y-76946367D01*
X162006534Y-76981103D01*
X161981548Y-77011548D01*
X161951103Y-77036534D01*
X161916367Y-77055101D01*
X161878674Y-77066535D01*
X161833339Y-77071000D01*
X160746661Y-77071000D01*
X160701326Y-77066535D01*
X160663633Y-77055101D01*
X160628897Y-77036534D01*
X160598452Y-77011548D01*
X160573466Y-76981103D01*
X160554899Y-76946367D01*
X160543465Y-76908674D01*
X160539000Y-76863339D01*
X160539000Y-76026661D01*
X160543465Y-75981326D01*
X160554899Y-75943633D01*
X160573466Y-75908897D01*
X160598452Y-75878452D01*
X160628897Y-75853466D01*
X160663633Y-75834899D01*
X160701326Y-75823465D01*
X160746661Y-75819000D01*
X161833339Y-75819000D01*
X161878674Y-75823465D01*
X161878674Y-75823465D01*
G37*
G36*
X115290443Y-74065519D02*
G01*
X115356627Y-74072037D01*
X115526466Y-74123557D01*
X115682991Y-74207222D01*
X115718729Y-74236552D01*
X115820186Y-74319814D01*
X115872967Y-74384129D01*
X115932778Y-74457009D01*
X116016443Y-74613534D01*
X116067963Y-74783373D01*
X116085359Y-74960000D01*
X116067963Y-75136627D01*
X116016443Y-75306466D01*
X115932778Y-75462991D01*
X115909381Y-75491500D01*
X115820186Y-75600186D01*
X115732680Y-75671999D01*
X115682991Y-75712778D01*
X115526466Y-75796443D01*
X115356627Y-75847963D01*
X115300753Y-75853466D01*
X115224260Y-75861000D01*
X115135740Y-75861000D01*
X115059247Y-75853466D01*
X115003373Y-75847963D01*
X114833534Y-75796443D01*
X114677009Y-75712778D01*
X114627320Y-75671999D01*
X114539814Y-75600186D01*
X114450619Y-75491500D01*
X114427222Y-75462991D01*
X114343557Y-75306466D01*
X114292037Y-75136627D01*
X114274641Y-74960000D01*
X114292037Y-74783373D01*
X114343557Y-74613534D01*
X114427222Y-74457009D01*
X114487033Y-74384129D01*
X114539814Y-74319814D01*
X114641271Y-74236552D01*
X114677009Y-74207222D01*
X114833534Y-74123557D01*
X115003373Y-74072037D01*
X115069557Y-74065519D01*
X115135740Y-74059000D01*
X115224260Y-74059000D01*
X115290443Y-74065519D01*
X115290443Y-74065519D01*
G37*
G36*
X112750443Y-74065519D02*
G01*
X112816627Y-74072037D01*
X112986466Y-74123557D01*
X113142991Y-74207222D01*
X113178729Y-74236552D01*
X113280186Y-74319814D01*
X113332967Y-74384129D01*
X113392778Y-74457009D01*
X113476443Y-74613534D01*
X113527963Y-74783373D01*
X113545359Y-74960000D01*
X113527963Y-75136627D01*
X113476443Y-75306466D01*
X113392778Y-75462991D01*
X113369381Y-75491500D01*
X113280186Y-75600186D01*
X113192680Y-75671999D01*
X113142991Y-75712778D01*
X112986466Y-75796443D01*
X112816627Y-75847963D01*
X112760753Y-75853466D01*
X112684260Y-75861000D01*
X112595740Y-75861000D01*
X112519247Y-75853466D01*
X112463373Y-75847963D01*
X112293534Y-75796443D01*
X112137009Y-75712778D01*
X112087320Y-75671999D01*
X111999814Y-75600186D01*
X111910619Y-75491500D01*
X111887222Y-75462991D01*
X111803557Y-75306466D01*
X111752037Y-75136627D01*
X111734641Y-74960000D01*
X111752037Y-74783373D01*
X111803557Y-74613534D01*
X111887222Y-74457009D01*
X111947033Y-74384129D01*
X111999814Y-74319814D01*
X112101271Y-74236552D01*
X112137009Y-74207222D01*
X112293534Y-74123557D01*
X112463373Y-74072037D01*
X112529557Y-74065519D01*
X112595740Y-74059000D01*
X112684260Y-74059000D01*
X112750443Y-74065519D01*
X112750443Y-74065519D01*
G37*
G36*
X145770443Y-74065519D02*
G01*
X145836627Y-74072037D01*
X146006466Y-74123557D01*
X146162991Y-74207222D01*
X146198729Y-74236552D01*
X146300186Y-74319814D01*
X146352967Y-74384129D01*
X146412778Y-74457009D01*
X146496443Y-74613534D01*
X146547963Y-74783373D01*
X146565359Y-74960000D01*
X146547963Y-75136627D01*
X146496443Y-75306466D01*
X146412778Y-75462991D01*
X146389381Y-75491500D01*
X146300186Y-75600186D01*
X146212680Y-75671999D01*
X146162991Y-75712778D01*
X146006466Y-75796443D01*
X145836627Y-75847963D01*
X145780753Y-75853466D01*
X145704260Y-75861000D01*
X145615740Y-75861000D01*
X145539247Y-75853466D01*
X145483373Y-75847963D01*
X145313534Y-75796443D01*
X145157009Y-75712778D01*
X145107320Y-75671999D01*
X145019814Y-75600186D01*
X144930619Y-75491500D01*
X144907222Y-75462991D01*
X144823557Y-75306466D01*
X144772037Y-75136627D01*
X144754641Y-74960000D01*
X144772037Y-74783373D01*
X144823557Y-74613534D01*
X144907222Y-74457009D01*
X144967033Y-74384129D01*
X145019814Y-74319814D01*
X145121271Y-74236552D01*
X145157009Y-74207222D01*
X145313534Y-74123557D01*
X145483373Y-74072037D01*
X145549557Y-74065519D01*
X145615740Y-74059000D01*
X145704260Y-74059000D01*
X145770443Y-74065519D01*
X145770443Y-74065519D01*
G37*
G36*
X143230443Y-74065519D02*
G01*
X143296627Y-74072037D01*
X143466466Y-74123557D01*
X143622991Y-74207222D01*
X143658729Y-74236552D01*
X143760186Y-74319814D01*
X143812967Y-74384129D01*
X143872778Y-74457009D01*
X143956443Y-74613534D01*
X144007963Y-74783373D01*
X144025359Y-74960000D01*
X144007963Y-75136627D01*
X143956443Y-75306466D01*
X143872778Y-75462991D01*
X143849381Y-75491500D01*
X143760186Y-75600186D01*
X143672680Y-75671999D01*
X143622991Y-75712778D01*
X143466466Y-75796443D01*
X143296627Y-75847963D01*
X143240753Y-75853466D01*
X143164260Y-75861000D01*
X143075740Y-75861000D01*
X142999247Y-75853466D01*
X142943373Y-75847963D01*
X142773534Y-75796443D01*
X142617009Y-75712778D01*
X142567320Y-75671999D01*
X142479814Y-75600186D01*
X142390619Y-75491500D01*
X142367222Y-75462991D01*
X142283557Y-75306466D01*
X142232037Y-75136627D01*
X142214641Y-74960000D01*
X142232037Y-74783373D01*
X142283557Y-74613534D01*
X142367222Y-74457009D01*
X142427033Y-74384129D01*
X142479814Y-74319814D01*
X142581271Y-74236552D01*
X142617009Y-74207222D01*
X142773534Y-74123557D01*
X142943373Y-74072037D01*
X143009557Y-74065519D01*
X143075740Y-74059000D01*
X143164260Y-74059000D01*
X143230443Y-74065519D01*
X143230443Y-74065519D01*
G37*
G36*
X140690443Y-74065519D02*
G01*
X140756627Y-74072037D01*
X140926466Y-74123557D01*
X141082991Y-74207222D01*
X141118729Y-74236552D01*
X141220186Y-74319814D01*
X141272967Y-74384129D01*
X141332778Y-74457009D01*
X141416443Y-74613534D01*
X141467963Y-74783373D01*
X141485359Y-74960000D01*
X141467963Y-75136627D01*
X141416443Y-75306466D01*
X141332778Y-75462991D01*
X141309381Y-75491500D01*
X141220186Y-75600186D01*
X141132680Y-75671999D01*
X141082991Y-75712778D01*
X140926466Y-75796443D01*
X140756627Y-75847963D01*
X140700753Y-75853466D01*
X140624260Y-75861000D01*
X140535740Y-75861000D01*
X140459247Y-75853466D01*
X140403373Y-75847963D01*
X140233534Y-75796443D01*
X140077009Y-75712778D01*
X140027320Y-75671999D01*
X139939814Y-75600186D01*
X139850619Y-75491500D01*
X139827222Y-75462991D01*
X139743557Y-75306466D01*
X139692037Y-75136627D01*
X139674641Y-74960000D01*
X139692037Y-74783373D01*
X139743557Y-74613534D01*
X139827222Y-74457009D01*
X139887033Y-74384129D01*
X139939814Y-74319814D01*
X140041271Y-74236552D01*
X140077009Y-74207222D01*
X140233534Y-74123557D01*
X140403373Y-74072037D01*
X140469557Y-74065519D01*
X140535740Y-74059000D01*
X140624260Y-74059000D01*
X140690443Y-74065519D01*
X140690443Y-74065519D01*
G37*
G36*
X138150443Y-74065519D02*
G01*
X138216627Y-74072037D01*
X138386466Y-74123557D01*
X138542991Y-74207222D01*
X138578729Y-74236552D01*
X138680186Y-74319814D01*
X138732967Y-74384129D01*
X138792778Y-74457009D01*
X138876443Y-74613534D01*
X138927963Y-74783373D01*
X138945359Y-74960000D01*
X138927963Y-75136627D01*
X138876443Y-75306466D01*
X138792778Y-75462991D01*
X138769381Y-75491500D01*
X138680186Y-75600186D01*
X138592680Y-75671999D01*
X138542991Y-75712778D01*
X138386466Y-75796443D01*
X138216627Y-75847963D01*
X138160753Y-75853466D01*
X138084260Y-75861000D01*
X137995740Y-75861000D01*
X137919247Y-75853466D01*
X137863373Y-75847963D01*
X137693534Y-75796443D01*
X137537009Y-75712778D01*
X137487320Y-75671999D01*
X137399814Y-75600186D01*
X137310619Y-75491500D01*
X137287222Y-75462991D01*
X137203557Y-75306466D01*
X137152037Y-75136627D01*
X137134641Y-74960000D01*
X137152037Y-74783373D01*
X137203557Y-74613534D01*
X137287222Y-74457009D01*
X137347033Y-74384129D01*
X137399814Y-74319814D01*
X137501271Y-74236552D01*
X137537009Y-74207222D01*
X137693534Y-74123557D01*
X137863373Y-74072037D01*
X137929557Y-74065519D01*
X137995740Y-74059000D01*
X138084260Y-74059000D01*
X138150443Y-74065519D01*
X138150443Y-74065519D01*
G37*
G36*
X135610443Y-74065519D02*
G01*
X135676627Y-74072037D01*
X135846466Y-74123557D01*
X136002991Y-74207222D01*
X136038729Y-74236552D01*
X136140186Y-74319814D01*
X136192967Y-74384129D01*
X136252778Y-74457009D01*
X136336443Y-74613534D01*
X136387963Y-74783373D01*
X136405359Y-74960000D01*
X136387963Y-75136627D01*
X136336443Y-75306466D01*
X136252778Y-75462991D01*
X136229381Y-75491500D01*
X136140186Y-75600186D01*
X136052680Y-75671999D01*
X136002991Y-75712778D01*
X135846466Y-75796443D01*
X135676627Y-75847963D01*
X135620753Y-75853466D01*
X135544260Y-75861000D01*
X135455740Y-75861000D01*
X135379247Y-75853466D01*
X135323373Y-75847963D01*
X135153534Y-75796443D01*
X134997009Y-75712778D01*
X134947320Y-75671999D01*
X134859814Y-75600186D01*
X134770619Y-75491500D01*
X134747222Y-75462991D01*
X134663557Y-75306466D01*
X134612037Y-75136627D01*
X134594641Y-74960000D01*
X134612037Y-74783373D01*
X134663557Y-74613534D01*
X134747222Y-74457009D01*
X134807033Y-74384129D01*
X134859814Y-74319814D01*
X134961271Y-74236552D01*
X134997009Y-74207222D01*
X135153534Y-74123557D01*
X135323373Y-74072037D01*
X135389557Y-74065519D01*
X135455740Y-74059000D01*
X135544260Y-74059000D01*
X135610443Y-74065519D01*
X135610443Y-74065519D01*
G37*
G36*
X133070443Y-74065519D02*
G01*
X133136627Y-74072037D01*
X133306466Y-74123557D01*
X133462991Y-74207222D01*
X133498729Y-74236552D01*
X133600186Y-74319814D01*
X133652967Y-74384129D01*
X133712778Y-74457009D01*
X133796443Y-74613534D01*
X133847963Y-74783373D01*
X133865359Y-74960000D01*
X133847963Y-75136627D01*
X133796443Y-75306466D01*
X133712778Y-75462991D01*
X133689381Y-75491500D01*
X133600186Y-75600186D01*
X133512680Y-75671999D01*
X133462991Y-75712778D01*
X133306466Y-75796443D01*
X133136627Y-75847963D01*
X133080753Y-75853466D01*
X133004260Y-75861000D01*
X132915740Y-75861000D01*
X132839247Y-75853466D01*
X132783373Y-75847963D01*
X132613534Y-75796443D01*
X132457009Y-75712778D01*
X132407320Y-75671999D01*
X132319814Y-75600186D01*
X132230619Y-75491500D01*
X132207222Y-75462991D01*
X132123557Y-75306466D01*
X132072037Y-75136627D01*
X132054641Y-74960000D01*
X132072037Y-74783373D01*
X132123557Y-74613534D01*
X132207222Y-74457009D01*
X132267033Y-74384129D01*
X132319814Y-74319814D01*
X132421271Y-74236552D01*
X132457009Y-74207222D01*
X132613534Y-74123557D01*
X132783373Y-74072037D01*
X132849557Y-74065519D01*
X132915740Y-74059000D01*
X133004260Y-74059000D01*
X133070443Y-74065519D01*
X133070443Y-74065519D01*
G37*
G36*
X130530443Y-74065519D02*
G01*
X130596627Y-74072037D01*
X130766466Y-74123557D01*
X130922991Y-74207222D01*
X130958729Y-74236552D01*
X131060186Y-74319814D01*
X131112967Y-74384129D01*
X131172778Y-74457009D01*
X131256443Y-74613534D01*
X131307963Y-74783373D01*
X131325359Y-74960000D01*
X131307963Y-75136627D01*
X131256443Y-75306466D01*
X131172778Y-75462991D01*
X131149381Y-75491500D01*
X131060186Y-75600186D01*
X130972680Y-75671999D01*
X130922991Y-75712778D01*
X130766466Y-75796443D01*
X130596627Y-75847963D01*
X130540753Y-75853466D01*
X130464260Y-75861000D01*
X130375740Y-75861000D01*
X130299247Y-75853466D01*
X130243373Y-75847963D01*
X130073534Y-75796443D01*
X129917009Y-75712778D01*
X129867320Y-75671999D01*
X129779814Y-75600186D01*
X129690619Y-75491500D01*
X129667222Y-75462991D01*
X129583557Y-75306466D01*
X129532037Y-75136627D01*
X129514641Y-74960000D01*
X129532037Y-74783373D01*
X129583557Y-74613534D01*
X129667222Y-74457009D01*
X129727033Y-74384129D01*
X129779814Y-74319814D01*
X129881271Y-74236552D01*
X129917009Y-74207222D01*
X130073534Y-74123557D01*
X130243373Y-74072037D01*
X130309557Y-74065519D01*
X130375740Y-74059000D01*
X130464260Y-74059000D01*
X130530443Y-74065519D01*
X130530443Y-74065519D01*
G37*
G36*
X127990443Y-74065519D02*
G01*
X128056627Y-74072037D01*
X128226466Y-74123557D01*
X128382991Y-74207222D01*
X128418729Y-74236552D01*
X128520186Y-74319814D01*
X128572967Y-74384129D01*
X128632778Y-74457009D01*
X128716443Y-74613534D01*
X128767963Y-74783373D01*
X128785359Y-74960000D01*
X128767963Y-75136627D01*
X128716443Y-75306466D01*
X128632778Y-75462991D01*
X128609381Y-75491500D01*
X128520186Y-75600186D01*
X128432680Y-75671999D01*
X128382991Y-75712778D01*
X128226466Y-75796443D01*
X128056627Y-75847963D01*
X128000753Y-75853466D01*
X127924260Y-75861000D01*
X127835740Y-75861000D01*
X127759247Y-75853466D01*
X127703373Y-75847963D01*
X127533534Y-75796443D01*
X127377009Y-75712778D01*
X127327320Y-75671999D01*
X127239814Y-75600186D01*
X127150619Y-75491500D01*
X127127222Y-75462991D01*
X127043557Y-75306466D01*
X126992037Y-75136627D01*
X126974641Y-74960000D01*
X126992037Y-74783373D01*
X127043557Y-74613534D01*
X127127222Y-74457009D01*
X127187033Y-74384129D01*
X127239814Y-74319814D01*
X127341271Y-74236552D01*
X127377009Y-74207222D01*
X127533534Y-74123557D01*
X127703373Y-74072037D01*
X127769557Y-74065519D01*
X127835740Y-74059000D01*
X127924260Y-74059000D01*
X127990443Y-74065519D01*
X127990443Y-74065519D01*
G37*
G36*
X125450443Y-74065519D02*
G01*
X125516627Y-74072037D01*
X125686466Y-74123557D01*
X125842991Y-74207222D01*
X125878729Y-74236552D01*
X125980186Y-74319814D01*
X126032967Y-74384129D01*
X126092778Y-74457009D01*
X126176443Y-74613534D01*
X126227963Y-74783373D01*
X126245359Y-74960000D01*
X126227963Y-75136627D01*
X126176443Y-75306466D01*
X126092778Y-75462991D01*
X126069381Y-75491500D01*
X125980186Y-75600186D01*
X125892680Y-75671999D01*
X125842991Y-75712778D01*
X125686466Y-75796443D01*
X125516627Y-75847963D01*
X125460753Y-75853466D01*
X125384260Y-75861000D01*
X125295740Y-75861000D01*
X125219247Y-75853466D01*
X125163373Y-75847963D01*
X124993534Y-75796443D01*
X124837009Y-75712778D01*
X124787320Y-75671999D01*
X124699814Y-75600186D01*
X124610619Y-75491500D01*
X124587222Y-75462991D01*
X124503557Y-75306466D01*
X124452037Y-75136627D01*
X124434641Y-74960000D01*
X124452037Y-74783373D01*
X124503557Y-74613534D01*
X124587222Y-74457009D01*
X124647033Y-74384129D01*
X124699814Y-74319814D01*
X124801271Y-74236552D01*
X124837009Y-74207222D01*
X124993534Y-74123557D01*
X125163373Y-74072037D01*
X125229557Y-74065519D01*
X125295740Y-74059000D01*
X125384260Y-74059000D01*
X125450443Y-74065519D01*
X125450443Y-74065519D01*
G37*
G36*
X122910443Y-74065519D02*
G01*
X122976627Y-74072037D01*
X123146466Y-74123557D01*
X123302991Y-74207222D01*
X123338729Y-74236552D01*
X123440186Y-74319814D01*
X123492967Y-74384129D01*
X123552778Y-74457009D01*
X123636443Y-74613534D01*
X123687963Y-74783373D01*
X123705359Y-74960000D01*
X123687963Y-75136627D01*
X123636443Y-75306466D01*
X123552778Y-75462991D01*
X123529381Y-75491500D01*
X123440186Y-75600186D01*
X123352680Y-75671999D01*
X123302991Y-75712778D01*
X123146466Y-75796443D01*
X122976627Y-75847963D01*
X122920753Y-75853466D01*
X122844260Y-75861000D01*
X122755740Y-75861000D01*
X122679247Y-75853466D01*
X122623373Y-75847963D01*
X122453534Y-75796443D01*
X122297009Y-75712778D01*
X122247320Y-75671999D01*
X122159814Y-75600186D01*
X122070619Y-75491500D01*
X122047222Y-75462991D01*
X121963557Y-75306466D01*
X121912037Y-75136627D01*
X121894641Y-74960000D01*
X121912037Y-74783373D01*
X121963557Y-74613534D01*
X122047222Y-74457009D01*
X122107033Y-74384129D01*
X122159814Y-74319814D01*
X122261271Y-74236552D01*
X122297009Y-74207222D01*
X122453534Y-74123557D01*
X122623373Y-74072037D01*
X122689557Y-74065519D01*
X122755740Y-74059000D01*
X122844260Y-74059000D01*
X122910443Y-74065519D01*
X122910443Y-74065519D01*
G37*
G36*
X149101000Y-75861000D02*
G01*
X147299000Y-75861000D01*
X147299000Y-74059000D01*
X149101000Y-74059000D01*
X149101000Y-75861000D01*
X149101000Y-75861000D01*
G37*
G36*
X120370443Y-74065519D02*
G01*
X120436627Y-74072037D01*
X120606466Y-74123557D01*
X120762991Y-74207222D01*
X120798729Y-74236552D01*
X120900186Y-74319814D01*
X120952967Y-74384129D01*
X121012778Y-74457009D01*
X121096443Y-74613534D01*
X121147963Y-74783373D01*
X121165359Y-74960000D01*
X121147963Y-75136627D01*
X121096443Y-75306466D01*
X121012778Y-75462991D01*
X120989381Y-75491500D01*
X120900186Y-75600186D01*
X120812680Y-75671999D01*
X120762991Y-75712778D01*
X120606466Y-75796443D01*
X120436627Y-75847963D01*
X120380753Y-75853466D01*
X120304260Y-75861000D01*
X120215740Y-75861000D01*
X120139247Y-75853466D01*
X120083373Y-75847963D01*
X119913534Y-75796443D01*
X119757009Y-75712778D01*
X119707320Y-75671999D01*
X119619814Y-75600186D01*
X119530619Y-75491500D01*
X119507222Y-75462991D01*
X119423557Y-75306466D01*
X119372037Y-75136627D01*
X119354641Y-74960000D01*
X119372037Y-74783373D01*
X119423557Y-74613534D01*
X119507222Y-74457009D01*
X119567033Y-74384129D01*
X119619814Y-74319814D01*
X119721271Y-74236552D01*
X119757009Y-74207222D01*
X119913534Y-74123557D01*
X120083373Y-74072037D01*
X120149557Y-74065519D01*
X120215740Y-74059000D01*
X120304260Y-74059000D01*
X120370443Y-74065519D01*
X120370443Y-74065519D01*
G37*
G36*
X117830443Y-74065519D02*
G01*
X117896627Y-74072037D01*
X118066466Y-74123557D01*
X118222991Y-74207222D01*
X118258729Y-74236552D01*
X118360186Y-74319814D01*
X118412967Y-74384129D01*
X118472778Y-74457009D01*
X118556443Y-74613534D01*
X118607963Y-74783373D01*
X118625359Y-74960000D01*
X118607963Y-75136627D01*
X118556443Y-75306466D01*
X118472778Y-75462991D01*
X118449381Y-75491500D01*
X118360186Y-75600186D01*
X118272680Y-75671999D01*
X118222991Y-75712778D01*
X118066466Y-75796443D01*
X117896627Y-75847963D01*
X117840753Y-75853466D01*
X117764260Y-75861000D01*
X117675740Y-75861000D01*
X117599247Y-75853466D01*
X117543373Y-75847963D01*
X117373534Y-75796443D01*
X117217009Y-75712778D01*
X117167320Y-75671999D01*
X117079814Y-75600186D01*
X116990619Y-75491500D01*
X116967222Y-75462991D01*
X116883557Y-75306466D01*
X116832037Y-75136627D01*
X116814641Y-74960000D01*
X116832037Y-74783373D01*
X116883557Y-74613534D01*
X116967222Y-74457009D01*
X117027033Y-74384129D01*
X117079814Y-74319814D01*
X117181271Y-74236552D01*
X117217009Y-74207222D01*
X117373534Y-74123557D01*
X117543373Y-74072037D01*
X117609557Y-74065519D01*
X117675740Y-74059000D01*
X117764260Y-74059000D01*
X117830443Y-74065519D01*
X117830443Y-74065519D01*
G37*
G36*
X100689434Y-74669686D02*
G01*
X100729284Y-74681774D01*
X100765999Y-74701399D01*
X100798186Y-74727814D01*
X100824601Y-74760001D01*
X100844226Y-74796716D01*
X100856314Y-74836566D01*
X100861000Y-74884141D01*
X100861000Y-75547859D01*
X100856314Y-75595434D01*
X100844226Y-75635284D01*
X100824601Y-75671999D01*
X100798186Y-75704186D01*
X100765999Y-75730601D01*
X100729284Y-75750226D01*
X100689434Y-75762314D01*
X100641859Y-75767000D01*
X97478141Y-75767000D01*
X97430566Y-75762314D01*
X97390716Y-75750226D01*
X97354001Y-75730601D01*
X97321814Y-75704186D01*
X97295399Y-75671999D01*
X97275774Y-75635284D01*
X97263686Y-75595434D01*
X97259000Y-75547859D01*
X97259000Y-74884141D01*
X97263686Y-74836566D01*
X97275774Y-74796716D01*
X97295399Y-74760001D01*
X97321814Y-74727814D01*
X97354001Y-74701399D01*
X97390716Y-74681774D01*
X97430566Y-74669686D01*
X97478141Y-74665000D01*
X100641859Y-74665000D01*
X100689434Y-74669686D01*
X100689434Y-74669686D01*
G37*
G36*
X161878674Y-72793465D02*
G01*
X161916367Y-72804899D01*
X161951103Y-72823466D01*
X161981548Y-72848452D01*
X162006534Y-72878897D01*
X162025101Y-72913633D01*
X162036535Y-72951326D01*
X162041000Y-72996661D01*
X162041000Y-73833339D01*
X162036535Y-73878674D01*
X162025101Y-73916367D01*
X162006534Y-73951103D01*
X161981548Y-73981548D01*
X161951103Y-74006534D01*
X161916367Y-74025101D01*
X161878674Y-74036535D01*
X161833339Y-74041000D01*
X160746661Y-74041000D01*
X160701326Y-74036535D01*
X160663633Y-74025101D01*
X160628897Y-74006534D01*
X160598452Y-73981548D01*
X160573466Y-73951103D01*
X160554899Y-73916367D01*
X160543465Y-73878674D01*
X160539000Y-73833339D01*
X160539000Y-72996661D01*
X160543465Y-72951326D01*
X160554899Y-72913633D01*
X160573466Y-72878897D01*
X160598452Y-72848452D01*
X160628897Y-72823466D01*
X160663633Y-72804899D01*
X160701326Y-72793465D01*
X160746661Y-72789000D01*
X161833339Y-72789000D01*
X161878674Y-72793465D01*
X161878674Y-72793465D01*
G37*
G36*
X100689434Y-72669686D02*
G01*
X100729284Y-72681774D01*
X100765999Y-72701399D01*
X100798186Y-72727814D01*
X100824601Y-72760001D01*
X100844226Y-72796716D01*
X100856314Y-72836566D01*
X100861000Y-72884141D01*
X100861000Y-73547859D01*
X100856314Y-73595434D01*
X100844226Y-73635284D01*
X100824601Y-73671999D01*
X100798186Y-73704186D01*
X100765999Y-73730601D01*
X100729284Y-73750226D01*
X100689434Y-73762314D01*
X100641859Y-73767000D01*
X97478141Y-73767000D01*
X97430566Y-73762314D01*
X97390716Y-73750226D01*
X97354001Y-73730601D01*
X97321814Y-73704186D01*
X97295399Y-73671999D01*
X97275774Y-73635284D01*
X97263686Y-73595434D01*
X97259000Y-73547859D01*
X97259000Y-72884141D01*
X97263686Y-72836566D01*
X97275774Y-72796716D01*
X97295399Y-72760001D01*
X97321814Y-72727814D01*
X97354001Y-72701399D01*
X97390716Y-72681774D01*
X97430566Y-72669686D01*
X97478141Y-72665000D01*
X100641859Y-72665000D01*
X100689434Y-72669686D01*
X100689434Y-72669686D01*
G37*
G36*
X169214908Y-68311380D02*
G01*
X169381767Y-68344570D01*
X169853299Y-68539885D01*
X170096029Y-68702073D01*
X170277666Y-68823438D01*
X170638562Y-69184334D01*
X170746247Y-69345497D01*
X170922115Y-69608701D01*
X171117430Y-70080233D01*
X171117430Y-70080234D01*
X171217000Y-70580807D01*
X171217000Y-71091193D01*
X171150620Y-71424908D01*
X171117430Y-71591767D01*
X170922115Y-72063299D01*
X170759927Y-72306029D01*
X170638562Y-72487666D01*
X170277666Y-72848562D01*
X170140070Y-72940500D01*
X169853299Y-73132115D01*
X169381767Y-73327430D01*
X169214908Y-73360620D01*
X168881193Y-73427000D01*
X168370807Y-73427000D01*
X168037092Y-73360620D01*
X167870233Y-73327430D01*
X167398701Y-73132115D01*
X167111930Y-72940500D01*
X166974334Y-72848562D01*
X166613438Y-72487666D01*
X166492073Y-72306029D01*
X166329885Y-72063299D01*
X166134570Y-71591767D01*
X166101380Y-71424908D01*
X166035000Y-71091193D01*
X166035000Y-70580807D01*
X166134570Y-70080234D01*
X166134570Y-70080233D01*
X166329885Y-69608701D01*
X166505753Y-69345497D01*
X166613438Y-69184334D01*
X166974334Y-68823438D01*
X167155971Y-68702073D01*
X167398701Y-68539885D01*
X167870233Y-68344570D01*
X168037092Y-68311380D01*
X168370807Y-68245000D01*
X168881193Y-68245000D01*
X169214908Y-68311380D01*
X169214908Y-68311380D01*
G37*
G36*
X84124908Y-68311380D02*
G01*
X84291767Y-68344570D01*
X84763299Y-68539885D01*
X85006029Y-68702073D01*
X85187666Y-68823438D01*
X85548562Y-69184334D01*
X85656247Y-69345497D01*
X85832115Y-69608701D01*
X86027430Y-70080233D01*
X86027430Y-70080234D01*
X86127000Y-70580807D01*
X86127000Y-71091193D01*
X86060620Y-71424908D01*
X86027430Y-71591767D01*
X85832115Y-72063299D01*
X85669927Y-72306029D01*
X85548562Y-72487666D01*
X85187666Y-72848562D01*
X85050070Y-72940500D01*
X84763299Y-73132115D01*
X84291767Y-73327430D01*
X84124908Y-73360620D01*
X83791193Y-73427000D01*
X83280807Y-73427000D01*
X82947092Y-73360620D01*
X82780233Y-73327430D01*
X82308701Y-73132115D01*
X82021930Y-72940500D01*
X81884334Y-72848562D01*
X81523438Y-72487666D01*
X81402073Y-72306029D01*
X81239885Y-72063299D01*
X81044570Y-71591767D01*
X81011380Y-71424908D01*
X80945000Y-71091193D01*
X80945000Y-70580807D01*
X81044570Y-70080234D01*
X81044570Y-70080233D01*
X81239885Y-69608701D01*
X81415753Y-69345497D01*
X81523438Y-69184334D01*
X81884334Y-68823438D01*
X82065971Y-68702073D01*
X82308701Y-68539885D01*
X82780233Y-68344570D01*
X82947092Y-68311380D01*
X83280807Y-68245000D01*
X83791193Y-68245000D01*
X84124908Y-68311380D01*
X84124908Y-68311380D01*
G37*
G36*
X161878674Y-70743465D02*
G01*
X161916367Y-70754899D01*
X161951103Y-70773466D01*
X161981548Y-70798452D01*
X162006534Y-70828897D01*
X162025101Y-70863633D01*
X162036535Y-70901326D01*
X162041000Y-70946661D01*
X162041000Y-71783339D01*
X162036535Y-71828674D01*
X162025101Y-71866367D01*
X162006534Y-71901103D01*
X161981548Y-71931548D01*
X161951103Y-71956534D01*
X161916367Y-71975101D01*
X161878674Y-71986535D01*
X161833339Y-71991000D01*
X160746661Y-71991000D01*
X160701326Y-71986535D01*
X160663633Y-71975101D01*
X160628897Y-71956534D01*
X160598452Y-71931548D01*
X160573466Y-71901103D01*
X160554899Y-71866367D01*
X160543465Y-71828674D01*
X160539000Y-71783339D01*
X160539000Y-70946661D01*
X160543465Y-70901326D01*
X160554899Y-70863633D01*
X160573466Y-70828897D01*
X160598452Y-70798452D01*
X160628897Y-70773466D01*
X160663633Y-70754899D01*
X160701326Y-70743465D01*
X160746661Y-70739000D01*
X161833339Y-70739000D01*
X161878674Y-70743465D01*
X161878674Y-70743465D01*
G37*
G36*
X100689434Y-70669686D02*
G01*
X100729284Y-70681774D01*
X100765999Y-70701399D01*
X100798186Y-70727814D01*
X100824601Y-70760001D01*
X100844226Y-70796716D01*
X100856314Y-70836566D01*
X100861000Y-70884141D01*
X100861000Y-71547859D01*
X100856314Y-71595434D01*
X100844226Y-71635284D01*
X100824601Y-71671999D01*
X100798186Y-71704186D01*
X100765999Y-71730601D01*
X100729284Y-71750226D01*
X100689434Y-71762314D01*
X100641859Y-71767000D01*
X97478141Y-71767000D01*
X97430566Y-71762314D01*
X97390716Y-71750226D01*
X97354001Y-71730601D01*
X97321814Y-71704186D01*
X97295399Y-71671999D01*
X97275774Y-71635284D01*
X97263686Y-71595434D01*
X97259000Y-71547859D01*
X97259000Y-70884141D01*
X97263686Y-70836566D01*
X97275774Y-70796716D01*
X97295399Y-70760001D01*
X97321814Y-70727814D01*
X97354001Y-70701399D01*
X97390716Y-70681774D01*
X97430566Y-70669686D01*
X97478141Y-70665000D01*
X100641859Y-70665000D01*
X100689434Y-70669686D01*
X100689434Y-70669686D01*
G37*
G36*
X94913048Y-68069122D02*
G01*
X94947387Y-68079539D01*
X94979036Y-68096456D01*
X95006778Y-68119222D01*
X95029544Y-68146964D01*
X95046461Y-68178613D01*
X95056878Y-68212952D01*
X95061000Y-68254807D01*
X95061000Y-69477193D01*
X95056878Y-69519048D01*
X95046461Y-69553387D01*
X95029544Y-69585036D01*
X95006778Y-69612778D01*
X94979036Y-69635544D01*
X94947387Y-69652461D01*
X94913048Y-69662878D01*
X94871193Y-69667000D01*
X91748807Y-69667000D01*
X91706952Y-69662878D01*
X91672613Y-69652461D01*
X91640964Y-69635544D01*
X91613222Y-69612778D01*
X91590456Y-69585036D01*
X91573539Y-69553387D01*
X91563122Y-69519048D01*
X91559000Y-69477193D01*
X91559000Y-68254807D01*
X91563122Y-68212952D01*
X91573539Y-68178613D01*
X91590456Y-68146964D01*
X91613222Y-68119222D01*
X91640964Y-68096456D01*
X91672613Y-68079539D01*
X91706952Y-68069122D01*
X91748807Y-68065000D01*
X94871193Y-68065000D01*
X94913048Y-68069122D01*
X94913048Y-68069122D01*
G37*
M02*
