G04 #@! TF.GenerationSoftware,KiCad,Pcbnew,(5.1.4)-1*
G04 #@! TF.CreationDate,2020-03-13T16:12:29-04:00*
G04 #@! TF.ProjectId,DriverDisplay4,44726976-6572-4446-9973-706c6179342e,rev?*
G04 #@! TF.SameCoordinates,Original*
G04 #@! TF.FileFunction,Copper,L2,Bot*
G04 #@! TF.FilePolarity,Positive*
%FSLAX46Y46*%
G04 Gerber Fmt 4.6, Leading zero omitted, Abs format (unit mm)*
G04 Created by KiCad (PCBNEW (5.1.4)-1) date 2020-03-13 16:12:29*
%MOMM*%
%LPD*%
G04 APERTURE LIST*
%ADD10C,5.080000*%
%ADD11O,1.700000X1.700000*%
%ADD12R,1.700000X1.700000*%
%ADD13R,1.800000X1.800000*%
%ADD14C,1.800000*%
%ADD15C,8.890000*%
%ADD16R,1.400000X3.000000*%
%ADD17C,0.800000*%
%ADD18C,0.250000*%
G04 APERTURE END LIST*
D10*
X83536000Y-70836000D03*
X168626000Y-70836000D03*
X168626000Y-104643400D03*
X83536000Y-104643400D03*
D11*
X112740000Y-100660000D03*
X115280000Y-100660000D03*
X117820000Y-100660000D03*
X120360000Y-100660000D03*
X122900000Y-100660000D03*
X125440000Y-100660000D03*
X127980000Y-100660000D03*
X130520000Y-100660000D03*
X133060000Y-100660000D03*
X135600000Y-100660000D03*
X138140000Y-100660000D03*
X140680000Y-100660000D03*
X143220000Y-100660000D03*
X145760000Y-100660000D03*
D12*
X148300000Y-100660000D03*
X148300000Y-100660000D03*
D11*
X145760000Y-100660000D03*
X143220000Y-100660000D03*
X140680000Y-100660000D03*
X138140000Y-100660000D03*
X135600000Y-100660000D03*
X133060000Y-100660000D03*
X130520000Y-100660000D03*
X127980000Y-100660000D03*
X125440000Y-100660000D03*
X122900000Y-100660000D03*
X120360000Y-100660000D03*
X117820000Y-100660000D03*
X115280000Y-100660000D03*
X112740000Y-100660000D03*
X112640000Y-74960000D03*
X115180000Y-74960000D03*
X117720000Y-74960000D03*
X120260000Y-74960000D03*
X122800000Y-74960000D03*
X125340000Y-74960000D03*
X127880000Y-74960000D03*
X130420000Y-74960000D03*
X132960000Y-74960000D03*
X135500000Y-74960000D03*
X138040000Y-74960000D03*
X140580000Y-74960000D03*
X143120000Y-74960000D03*
X145660000Y-74960000D03*
D12*
X148200000Y-74960000D03*
X148200000Y-74960000D03*
D11*
X145660000Y-74960000D03*
X143120000Y-74960000D03*
X140580000Y-74960000D03*
X138040000Y-74960000D03*
X135500000Y-74960000D03*
X132960000Y-74960000D03*
X130420000Y-74960000D03*
X127880000Y-74960000D03*
X125340000Y-74960000D03*
X122800000Y-74960000D03*
X120260000Y-74960000D03*
X117720000Y-74960000D03*
X115180000Y-74960000D03*
X112640000Y-74960000D03*
D13*
X175020000Y-77862000D03*
D14*
X177560000Y-77862000D03*
X180100000Y-77862000D03*
X180100000Y-102350000D03*
X177560000Y-102350000D03*
D13*
X175020000Y-102350000D03*
D15*
X73406000Y-73329800D03*
X73406000Y-100253800D03*
X187909200Y-77876400D03*
X187909200Y-103479600D03*
D16*
X188483600Y-94871600D03*
X184083600Y-94871600D03*
X184083600Y-85671600D03*
X188483600Y-85671600D03*
X177790200Y-85671600D03*
X173390200Y-85671600D03*
X173390200Y-94871600D03*
X177790200Y-94871600D03*
D17*
X103124000Y-98298000D03*
X175000000Y-80594000D03*
X175000000Y-105250000D03*
X164592000Y-100584000D03*
X155702000Y-89027000D03*
X153162000Y-99187000D03*
X108712000Y-97536000D03*
X105780278Y-90815722D03*
X102616000Y-79756000D03*
X112198854Y-91624854D03*
X163892361Y-75248639D03*
X112776000Y-98950000D03*
X109687680Y-96540160D03*
X101908470Y-86051530D03*
X163576000Y-76708000D03*
X137541000Y-77851000D03*
X130683000Y-77851000D03*
X114300000Y-98044000D03*
X110744000Y-96012000D03*
X101231488Y-84002146D03*
X118942831Y-92526831D03*
X116332000Y-91440000D03*
X101709990Y-82398725D03*
X102616000Y-75184000D03*
X102616000Y-77216000D03*
X170830000Y-82900000D03*
X181740000Y-97640000D03*
X163957000Y-87757000D03*
X131064000Y-86995000D03*
X111506000Y-78122000D03*
X133477000Y-85344000D03*
X101964710Y-95487710D03*
X129933839Y-86652182D03*
X101996710Y-93487710D03*
X128501011Y-86845002D03*
X158505000Y-79239000D03*
X102055442Y-99515442D03*
X86360000Y-88773000D03*
X114935000Y-92710000D03*
X117475000Y-94488000D03*
X132715000Y-97138000D03*
D18*
X113585980Y-102354020D02*
X114430001Y-101509999D01*
X114430001Y-101509999D02*
X115280000Y-100660000D01*
X158171118Y-105664000D02*
X120284000Y-105664000D01*
X120284000Y-105664000D02*
X115280000Y-100660000D01*
X113585980Y-102354020D02*
X107180020Y-102354020D01*
X107180020Y-102354020D02*
X103124000Y-98298000D01*
X177435999Y-80993999D02*
X179990999Y-83548999D01*
X175399999Y-80993999D02*
X177435999Y-80993999D01*
X175000000Y-80594000D02*
X175399999Y-80993999D01*
X177560000Y-102350000D02*
X173290200Y-98080200D01*
X177790200Y-84871600D02*
X177790200Y-85671600D01*
X179112801Y-83548999D02*
X177790200Y-84871600D01*
X179990999Y-83548999D02*
X179112801Y-83548999D01*
X187533600Y-85671600D02*
X188483600Y-85671600D01*
X185410999Y-83548999D02*
X187533600Y-85671600D01*
X179990999Y-83548999D02*
X185410999Y-83548999D01*
X176498800Y-94871600D02*
X177790200Y-94871600D01*
X173290200Y-98080200D02*
X176498800Y-94871600D01*
X165754918Y-98080200D02*
X173290200Y-98080200D01*
X158171118Y-105664000D02*
X165754918Y-98080200D01*
X177790200Y-87421600D02*
X177790200Y-94871600D01*
X177790200Y-85671600D02*
X177790200Y-87421600D01*
X188483600Y-87421600D02*
X188483600Y-94871600D01*
X188483600Y-85671600D02*
X188483600Y-87421600D01*
X176800001Y-105649999D02*
X176975000Y-105475000D01*
X175399999Y-105649999D02*
X176800001Y-105649999D01*
X175000000Y-105250000D02*
X175399999Y-105649999D01*
X176826000Y-105624000D02*
X176975000Y-105475000D01*
X176975000Y-105475000D02*
X180100000Y-102350000D01*
X174286000Y-103084000D02*
X175020000Y-102350000D01*
X175020000Y-101200000D02*
X175020000Y-102350000D01*
X174404000Y-100584000D02*
X175020000Y-101200000D01*
X164592000Y-100584000D02*
X174404000Y-100584000D01*
X153162000Y-91567000D02*
X155702000Y-89027000D01*
X153162000Y-99187000D02*
X153162000Y-91567000D01*
X106180277Y-91215721D02*
X105780278Y-90815722D01*
X108712000Y-97536000D02*
X108712000Y-93747444D01*
X108712000Y-93747444D02*
X106180277Y-91215721D01*
X102616000Y-82042000D02*
X111798855Y-91224855D01*
X111798855Y-91224855D02*
X112198854Y-91624854D01*
X102616000Y-79756000D02*
X102616000Y-82042000D01*
X164529639Y-75248639D02*
X163892361Y-75248639D01*
X167005000Y-77724000D02*
X164529639Y-75248639D01*
X167005000Y-89535000D02*
X167005000Y-77724000D01*
X152527000Y-104013000D02*
X167005000Y-89535000D01*
X120360000Y-100660000D02*
X123713000Y-104013000D01*
X123713000Y-104013000D02*
X152527000Y-104013000D01*
X112776000Y-98950000D02*
X123730000Y-98950000D01*
X123730000Y-98950000D02*
X125440000Y-100660000D01*
X109687680Y-96479680D02*
X109687680Y-96540160D01*
X102308469Y-86451529D02*
X101908470Y-86051530D01*
X102697377Y-86451529D02*
X102308469Y-86451529D01*
X109687680Y-93441832D02*
X102697377Y-86451529D01*
X109687680Y-96540160D02*
X109687680Y-93441832D01*
X165457681Y-78589681D02*
X163576000Y-76708000D01*
X151765000Y-102997000D02*
X165457681Y-89304319D01*
X165457681Y-89304319D02*
X165457681Y-78589681D01*
X129114919Y-102997000D02*
X151765000Y-102997000D01*
X127980000Y-100660000D02*
X127980000Y-101862081D01*
X127980000Y-101862081D02*
X129114919Y-102997000D01*
X130683000Y-77851000D02*
X137541000Y-77851000D01*
X114300000Y-98044000D02*
X135524000Y-98044000D01*
X135524000Y-98044000D02*
X138140000Y-100660000D01*
X110744000Y-93605768D02*
X101631487Y-84493255D01*
X101631487Y-84493255D02*
X101631487Y-84402145D01*
X110744000Y-96012000D02*
X110744000Y-93605768D01*
X101631487Y-84402145D02*
X101231488Y-84002146D01*
X118942831Y-92526831D02*
X137626831Y-92526831D01*
X137626831Y-92526831D02*
X145760000Y-100660000D01*
X101709990Y-82970106D02*
X102252002Y-83512118D01*
X101709990Y-82398725D02*
X101709990Y-82970106D01*
X113665000Y-91440000D02*
X116332000Y-91440000D01*
X111780385Y-93324615D02*
X113665000Y-91440000D01*
X102677156Y-84221386D02*
X111780385Y-93324615D01*
X102252002Y-84221386D02*
X102677156Y-84221386D01*
X102252002Y-83512118D02*
X102252002Y-84221386D01*
X115277000Y-72517000D02*
X117720000Y-74960000D01*
X110236000Y-72517000D02*
X115277000Y-72517000D01*
X102616000Y-75184000D02*
X107569000Y-75184000D01*
X107569000Y-75184000D02*
X110236000Y-72517000D01*
X120544000Y-77216000D02*
X122800000Y-74960000D01*
X102616000Y-77216000D02*
X120544000Y-77216000D01*
X173390200Y-83921600D02*
X172368600Y-82900000D01*
X173390200Y-85671600D02*
X173390200Y-83921600D01*
X172368600Y-82900000D02*
X170830000Y-82900000D01*
X173390200Y-87421600D02*
X173390200Y-94871600D01*
X173390200Y-85671600D02*
X173390200Y-87421600D01*
X184083600Y-95296400D02*
X184083600Y-94871600D01*
X181740000Y-97640000D02*
X184083600Y-95296400D01*
X184083600Y-85671600D02*
X184083600Y-94871600D01*
X163957000Y-87757000D02*
X163195000Y-86995000D01*
X163195000Y-86995000D02*
X131629685Y-86995000D01*
X131629685Y-86995000D02*
X131064000Y-86995000D01*
X111506000Y-78122000D02*
X126255000Y-78122000D01*
X126255000Y-78122000D02*
X133477000Y-85344000D01*
X122414383Y-87774001D02*
X129377705Y-87774001D01*
X108200010Y-101723010D02*
X108465374Y-101723010D01*
X108465374Y-101723010D02*
X122414383Y-87774001D01*
X129377705Y-87774001D02*
X129933839Y-87217867D01*
X129933839Y-87217867D02*
X129933839Y-86652182D01*
X101964710Y-95487710D02*
X108200010Y-101723010D01*
X101996710Y-93487710D02*
X108619658Y-100110658D01*
X127935326Y-86845002D02*
X128501011Y-86845002D01*
X108619658Y-100110658D02*
X109185342Y-100110658D01*
X122450998Y-86845002D02*
X127935326Y-86845002D01*
X109185342Y-100110658D02*
X122450998Y-86845002D01*
X151586685Y-71755000D02*
X141245000Y-71755000D01*
X141245000Y-71755000D02*
X138040000Y-74960000D01*
X158505000Y-79239000D02*
X158505000Y-78673315D01*
X158505000Y-78673315D02*
X151586685Y-71755000D01*
X170180000Y-103124000D02*
X169672000Y-102616000D01*
X166086001Y-107183399D02*
X168626000Y-104643400D01*
X86075999Y-107183399D02*
X166086001Y-107183399D01*
X83536000Y-104643400D02*
X86075999Y-107183399D01*
X83536000Y-104643400D02*
X83536000Y-70836000D01*
X83536000Y-70836000D02*
X168626000Y-70836000D01*
X88663958Y-99515442D02*
X83536000Y-104643400D01*
X102055442Y-99515442D02*
X88663958Y-99515442D01*
X81042200Y-73329800D02*
X83536000Y-70836000D01*
X73406000Y-73329800D02*
X81042200Y-73329800D01*
X79146400Y-100253800D02*
X83536000Y-104643400D01*
X73406000Y-100253800D02*
X79146400Y-100253800D01*
X168626000Y-70836000D02*
X173586000Y-70836000D01*
X173586000Y-70836000D02*
X176250000Y-73500000D01*
X183532800Y-73500000D02*
X187909200Y-77876400D01*
X176250000Y-73500000D02*
X183532800Y-73500000D01*
X182341442Y-103479600D02*
X187909200Y-103479600D01*
X178637643Y-107183399D02*
X182341442Y-103479600D01*
X171165999Y-107183399D02*
X178637643Y-107183399D01*
X168626000Y-104643400D02*
X171165999Y-107183399D01*
X109654881Y-98442001D02*
X114935000Y-93161882D01*
X108277119Y-98442001D02*
X109654881Y-98442001D01*
X101556841Y-91721723D02*
X108277119Y-98442001D01*
X86360000Y-88773000D02*
X89308723Y-91721723D01*
X89308723Y-91721723D02*
X101556841Y-91721723D01*
X114935000Y-93161882D02*
X114935000Y-92710000D01*
X117874999Y-94887999D02*
X130447999Y-94887999D01*
X117475000Y-94488000D02*
X117874999Y-94887999D01*
X130447999Y-94887999D02*
X132698000Y-97138000D01*
X132698000Y-97138000D02*
X132715000Y-97138000D01*
M02*
